<svg xmlns="http://www.w3.org/2000/svg" xmlns:xlink="http://www.w3.org/1999/xlink" viewBox="0 0 250 250"><defs><style>.cls-1{fill:url(#linear-gradient);}.cls-2{fill:url(#linear-gradient-2);}.cls-3{fill:url(#linear-gradient-3);}</style><linearGradient id="linear-gradient" x1="277.68503" y1="95.87463" x2="52.63988" y2="91.00992" gradientTransform="matrix(1, 0, -0.27012, 1, 24.37068, -0.00053)" gradientUnits="userSpaceOnUse"><stop offset="0" stop-color="#00a8a1"/><stop offset="0.93329" stop-color="#41ff7a"/></linearGradient><linearGradient id="linear-gradient-2" x1="168.2755" y1="93.01157" x2="84.43039" y2="92.06903" gradientTransform="matrix(1, 0, -0.27012, 1, 24.37068, -0.00053)" gradientUnits="userSpaceOnUse"><stop offset="0" stop-color="#00a8a1"/><stop offset="1" stop-color="#41ff7a"/></linearGradient><linearGradient id="linear-gradient-3" x1="165.17806" y1="232.56311" x2="36.07633" y2="226.97291" gradientTransform="matrix(1, 0, -0.27012, 1, 24.37068, -0.00053)" gradientUnits="userSpaceOnUse"><stop offset="0" stop-color="#00a8a1"/><stop offset="0.01698" stop-color="#03ac9f"/><stop offset="0.16995" stop-color="#19ca92"/><stop offset="0.33149" stop-color="#2be187"/><stop offset="0.50335" stop-color="#37f280"/><stop offset="0.69273" stop-color="#3ffc7b"/><stop offset="0.93329" stop-color="#41ff7a"/></linearGradient></defs><g id="Layer_1" data-name="Layer 1"><path class="cls-1" d="M63.86457,20.42586l-1.58983,5.8857C59.27658,37.41105,65.844,46.409,76.9435,46.409h76.52164c25.28447,0,40.245,20.49712,33.4152,45.78159l0,.00009c-6.82977,25.28448-32.8635,45.78159-58.148,45.78159H52.21071c-11.09949,0-22.5279,8.99792-25.52606,20.09741l-1.59326,5.89843c-2.99816,11.09949,3.56926,20.0974,14.66875,20.0974H123.9068c50.73752,0,102.97857-41.13089,116.68363-91.86842l.00005-.00018C254.29555,41.45935,224.27481.32845,173.53728.32845H89.39063C78.29114.32845,66.86273,9.32637,63.86457,20.42586Z"/><path class="cls-2" d="M120.64442,112.29439H59.14673c-11.09949,0-17.66692-8.99792-14.66876-20.09741l0,0c2.99817-11.09949,14.42657-20.0974,25.52606-20.0974h61.49769c11.09949,0,17.66692,8.99791,14.66876,20.0974l0,0C143.17231,103.29647,131.74391,112.29439,120.64442,112.29439Z"/><path class="cls-3" d="M83.54007,249.65839H22.04238c-11.09949,0-17.66691-8.99792-14.66875-20.09741l0,0c2.99816-11.09949,14.42656-20.0974,25.526-20.0974H94.39738c11.0995,0,17.66692,8.99791,14.66876,20.0974l0,0C106.068,240.66047,94.63956,249.65839,83.54007,249.65839Z"/></g></svg>