<svg width="12" height="13" viewBox="0 0 12 13" fill="none" xmlns="http://www.w3.org/2000/svg">
<path d="M6 4.16667V11.75M6 4.16667V3C6 2.76926 6.06842 2.54369 6.19662 2.35184C6.32481 2.15998 6.50702 2.01044 6.7202 1.92214C6.93338 1.83384 7.16796 1.81073 7.39427 1.85575C7.62058 1.90077 7.82846 2.01188 7.99162 2.17504C8.15479 2.3382 8.2659 2.54608 8.31092 2.7724C8.35593 2.99871 8.33283 3.23328 8.24453 3.44646C8.15622 3.65965 8.00669 3.84185 7.81483 3.97005C7.62297 4.09824 7.39741 4.16667 7.16667 4.16667H6ZM6 4.16667V2.70833C6 2.4199 5.91447 2.13795 5.75423 1.89813C5.59398 1.65831 5.36622 1.47139 5.09975 1.36101C4.83327 1.25063 4.54005 1.22175 4.25716 1.27802C3.97427 1.33429 3.71442 1.47319 3.51047 1.67714C3.30652 1.88109 3.16762 2.14094 3.11135 2.42383C3.05508 2.70672 3.08396 2.99994 3.19434 3.26641C3.30472 3.53289 3.49164 3.76065 3.73146 3.92089C3.97128 4.08114 4.25324 4.16667 4.54167 4.16667H6ZM1.91667 6.5H10.0833M1.91667 6.5C1.60725 6.5 1.3105 6.37708 1.09171 6.15829C0.872916 5.9395 0.75 5.64275 0.75 5.33333C0.75 5.02391 0.872916 4.72717 1.09171 4.50838C1.3105 4.28958 1.60725 4.16667 1.91667 4.16667H10.0833C10.3928 4.16667 10.6895 4.28958 10.9083 4.50838C11.1271 4.72717 11.25 5.02391 11.25 5.33333C11.25 5.64275 11.1271 5.9395 10.9083 6.15829C10.6895 6.37708 10.3928 6.5 10.0833 6.5M1.91667 6.5V10.5833C1.91667 10.8928 2.03958 11.1895 2.25838 11.4083C2.47717 11.6271 2.77391 11.75 3.08333 11.75H8.91667C9.22609 11.75 9.52283 11.6271 9.74162 11.4083C9.96042 11.1895 10.0833 10.8928 10.0833 10.5833V6.5" stroke="url(#paint0_linear_1315_32228)" stroke-width="1.5" stroke-linecap="round" stroke-linejoin="round"/>
<defs>
<linearGradient id="paint0_linear_1315_32228" x1="17.0431" y1="6.50001" x2="-7.13793" y2="6.50001" gradientUnits="userSpaceOnUse">
<stop stop-color="#1AC486"/>
<stop offset="1" stop-color="#00C9FF"/>
</linearGradient>
</defs>
</svg>
