<svg width="24" height="24" viewBox="0 0 24 24" fill="none" xmlns="http://www.w3.org/2000/svg">
<path fill-rule="evenodd" clip-rule="evenodd" d="M12 22C17.5228 22 22 17.5228 22 12C22 6.47715 17.5228 2 12 2C6.47715 2 2 6.47715 2 12C2 17.5228 6.47715 22 12 22ZM12 5.25C12.4142 5.25 12.75 5.58579 12.75 6V7.25H14.5C14.9142 7.25 15.25 7.58579 15.25 8C15.25 8.41421 14.9142 8.75 14.5 8.75H12.75V11.25H13.25C13.9478 11.25 14.5931 11.5677 15.0519 12.0919C15.5078 12.613 15.75 13.3006 15.75 14C15.75 14.6994 15.5078 15.387 15.0519 15.9081C14.5931 16.4323 13.9478 16.75 13.25 16.75H12.75V18C12.75 18.4142 12.4142 18.75 12 18.75C11.5858 18.75 11.25 18.4142 11.25 18V16.75H9C8.58579 16.75 8.25 16.4142 8.25 16C8.25 15.5858 8.58579 15.25 9 15.25H11.25V12.75H10.75C10.0522 12.75 9.40685 12.4323 8.94813 11.9081C8.49221 11.387 8.25 10.6994 8.25 10C8.25 9.3006 8.49221 8.61296 8.94813 8.09191C9.40685 7.56766 10.0522 7.25 10.75 7.25H11.25V6C11.25 5.58579 11.5858 5.25 12 5.25ZM10.75 8.75H11.25V11.25H10.75C10.5196 11.25 10.2747 11.1462 10.077 10.9203C9.87654 10.6912 9.75 10.3615 9.75 10C9.75 9.63854 9.87654 9.30876 10.077 9.07967C10.2747 8.85377 10.5196 8.75 10.75 8.75ZM12.75 15.25V12.75H13.25C13.4804 12.75 13.7253 12.8538 13.923 13.0797C14.1235 13.3088 14.25 13.6385 14.25 14C14.25 14.3615 14.1235 14.6912 13.923 14.9203C13.7253 15.1462 13.4804 15.25 13.25 15.25H12.75Z" fill="#1AC486"/>
</svg>
