<svg width="28" height="28" viewBox="0 0 28 28" fill="none" xmlns="http://www.w3.org/2000/svg">
<circle cx="14" cy="14" r="14" fill="#FF4301"/>
<path fill-rule="evenodd" clip-rule="evenodd" d="M16.5287 16.2143C15.8933 16.2143 15.3594 15.7097 15.3594 15.0875C15.3594 14.4653 15.8933 13.9441 16.5287 13.9441C17.164 13.9441 17.6793 14.4653 17.6793 15.0875C17.6793 15.7097 17.164 16.2143 16.5287 16.2143ZM16.798 18.4007C16.2062 18.9797 15.2935 19.2612 14.0079 19.2612C14.0052 19.2612 14.002 19.2606 13.9988 19.2606C13.9962 19.2606 13.993 19.2612 13.9898 19.2612C12.7042 19.2612 11.792 18.9797 11.2008 18.4007C11.0191 18.2228 11.0191 17.9351 11.2008 17.7578C11.3819 17.5804 11.6757 17.5804 11.8574 17.7578C12.2654 18.1573 12.9629 18.3518 13.9898 18.3518C13.993 18.3518 13.9962 18.3524 13.9988 18.3524C14.002 18.3524 14.0052 18.3518 14.0079 18.3518C15.0348 18.3518 15.7328 18.1573 16.1414 17.7578C16.3231 17.5798 16.6168 17.5804 16.798 17.7578C16.9792 17.9357 16.9792 18.2233 16.798 18.4007ZM10.3204 15.0875C10.3204 14.4659 10.8532 13.9441 11.4881 13.9441C12.1234 13.9441 12.6388 14.4659 12.6388 15.0875C12.6388 15.7097 12.1234 16.2143 11.4881 16.2143C10.8532 16.2143 10.3204 15.7097 10.3204 15.0875ZM19.6657 7.90942C20.096 7.90942 20.4461 8.25224 20.4461 8.6731C20.4461 9.09447 20.096 9.43729 19.6657 9.43729C19.2353 9.43729 18.8853 9.09447 18.8853 8.6731C18.8853 8.25224 19.2353 7.90942 19.6657 7.90942ZM22.5 13.8497C22.5 12.7463 21.5836 11.8489 20.4568 11.8489C19.9691 11.8489 19.5213 12.0175 19.1696 12.2979C17.9238 11.5311 16.3428 11.0691 14.6481 10.9713L15.5321 8.23447L17.9615 8.79474C18.0253 9.66089 18.7648 10.3465 19.6652 10.3465C20.6072 10.3465 21.3737 9.59587 21.3737 8.67301C21.3737 7.75067 20.6072 7 19.6652 7C19.0065 7 18.4338 7.36727 18.1485 7.90361L15.3255 7.25282C15.0891 7.1982 14.85 7.33138 14.7767 7.55819L13.6791 10.9552C11.8532 10.9989 10.1367 11.4624 8.79959 12.2739C8.45269 12.0081 8.01653 11.8489 7.54319 11.8489C6.41641 11.8489 5.5 12.7463 5.5 13.8497C5.5 14.5317 5.85062 15.1346 6.38453 15.4956C6.36222 15.6543 6.35053 15.814 6.35053 15.9758C6.35053 17.3549 7.16919 18.6377 8.65562 19.5876C10.0804 20.4985 11.9664 21 13.9655 21C15.9646 21 17.8505 20.4985 19.2753 19.5876C20.7617 18.6377 21.5804 17.3549 21.5804 15.9758C21.5804 15.8286 21.5703 15.6824 21.5517 15.5372C22.1212 15.1819 22.5 14.5582 22.5 13.8497Z" fill="white"/>
</svg>
