<svg width="28" height="28" viewBox="0 0 28 28" fill="none" xmlns="http://www.w3.org/2000/svg">
<circle cx="14" cy="14" r="14" fill="#2D3748"/>
<path d="M15.1527 14.0001C15.1527 16.7615 12.8799 19 10.0764 19C7.27296 19 5 16.7615 5 14.0001C5 11.2387 7.27279 9 10.0764 9C12.8801 9 15.1527 11.2387 15.1527 14.0001Z" fill="white"/>
<path d="M20.721 14.0002C20.721 16.5994 19.5846 18.7074 18.1827 18.7074C16.7809 18.7074 15.6445 16.5994 15.6445 14.0002C15.6445 11.4009 16.7808 9.29297 18.1826 9.29297C19.5844 9.29297 20.7208 11.4002 20.7208 14.0002" fill="white"/>
<path d="M22.9998 14.0001C22.9998 16.3284 22.6002 18.217 22.1071 18.217C21.614 18.217 21.2146 16.3289 21.2146 14.0001C21.2146 11.6713 21.6142 9.7832 22.1071 9.7832C22.6 9.7832 22.9998 11.6711 22.9998 14.0001Z" fill="white"/>
</svg>
