<svg width="28" height="28" viewBox="0 0 28 28" fill="none" xmlns="http://www.w3.org/2000/svg">
<circle cx="14" cy="14" r="14" fill="#2D3748"/>
<path d="M21.5031 11.2363C21.5133 11.3774 21.5133 11.5184 21.5133 11.6607C21.5133 15.9979 18.0639 21 11.7564 21V20.9974C9.89311 21 8.06856 20.4891 6.5 19.5259C6.77093 19.5571 7.04322 19.5727 7.31619 19.5733C8.8603 19.5746 10.3603 19.0787 11.5751 18.1655C10.1077 18.1389 8.82092 17.2231 8.3714 15.8861C8.88543 15.981 9.41507 15.9615 9.91959 15.8296C8.3198 15.5202 7.16884 14.1748 7.16884 12.6123C7.16884 12.598 7.16884 12.5843 7.16884 12.5707C7.64552 12.8248 8.17924 12.9659 8.72518 12.9815C7.21841 12.0176 6.75396 10.0989 7.66385 8.59878C9.40488 10.6494 11.9736 11.896 14.7312 12.028C14.4548 10.8879 14.8324 9.69331 15.7232 8.89191C17.1044 7.64919 19.2766 7.71289 20.5749 9.03426C21.3429 8.88931 22.079 8.61958 22.7525 8.23741C22.4966 8.99721 21.9608 9.64262 21.2451 10.0527C21.9248 9.97605 22.5889 9.80186 23.2143 9.53602C22.7539 10.1964 22.174 10.7716 21.5031 11.2363Z" fill="white"/>
</svg>
