<svg width="28" height="28" viewBox="0 0 28 28" fill="none" xmlns="http://www.w3.org/2000/svg">
<circle cx="14" cy="14" r="14" fill="#2D3748"/>
<path d="M10.9735 27.6452C10.9977 27.5697 11.0091 27.491 11.0091 27.4145C11.0091 27.3014 11.007 27.0974 11.0044 26.8311C10.9995 26.331 10.9924 25.6114 10.9924 24.8626C7.63475 25.4963 6.76611 24.0234 6.49884 23.2526C6.3485 22.8587 5.69702 21.6427 5.12907 21.3173C4.66134 21.0604 3.99316 20.4267 5.11236 20.4095C6.16475 20.3924 6.91645 21.4029 7.16702 21.814C8.36975 23.8863 10.2908 23.304 11.0592 22.9443C11.1761 22.0537 11.5269 21.4543 11.9111 21.1118C8.9377 20.7692 5.83066 19.5874 5.83066 14.3466C5.83066 12.8565 6.3485 11.6234 7.20043 10.6642C7.06679 10.3217 6.59907 8.91728 7.33407 7.0333C7.33407 7.0333 8.45327 6.67364 11.0091 8.43772C12.0782 8.12944 13.2141 7.97529 14.35 7.97529C15.4859 7.97529 16.6218 8.12944 17.6909 8.43772C20.2467 6.65651 21.3659 7.0333 21.3659 7.0333C22.1009 8.91728 21.6332 10.3217 21.4995 10.6642C22.3514 11.6234 22.8693 12.8394 22.8693 14.3466C22.8693 19.6046 19.7455 20.7692 16.7721 21.1118C17.2566 21.5399 17.6742 22.362 17.6742 23.6466C17.6742 24.8664 17.6668 25.9269 17.6618 26.636C17.6593 26.9923 17.6575 27.2599 17.6575 27.4145C17.6575 27.4442 17.6592 27.4744 17.6627 27.5047C16.5122 27.8274 15.299 28 14.0455 28C12.9883 28 11.9598 27.8772 10.9735 27.6452Z" fill="white"/>
</svg>
