<svg width="28" height="28" viewBox="0 0 28 28" fill="none" xmlns="http://www.w3.org/2000/svg">
<circle cx="14" cy="14" r="14" fill="#23A0DD"/>
<path d="M15.0211 9.81659C13.7243 10.356 11.1324 11.4724 7.24542 13.1659C6.61425 13.4169 6.28361 13.6625 6.25351 13.9026C6.20264 14.3083 6.71078 14.4681 7.40274 14.6857L7.40287 14.6857C7.49695 14.7153 7.59443 14.746 7.69436 14.7785C8.37514 14.9998 9.29091 15.2586 9.76697 15.2689C10.1988 15.2783 10.6808 15.1002 11.2129 14.7348C14.8446 12.2833 16.7193 11.0442 16.837 11.0175C16.92 10.9987 17.0351 10.975 17.1131 11.0443C17.191 11.1136 17.1834 11.2448 17.1751 11.28C17.1248 11.4946 15.1302 13.3489 14.098 14.3086L14.0979 14.3087L14.0975 14.309C13.7759 14.608 13.5478 14.82 13.5012 14.8685C13.3967 14.9771 13.2901 15.0798 13.1877 15.1785C12.5553 15.7882 12.081 16.2454 13.214 16.992C13.7584 17.3508 14.194 17.6474 14.6286 17.9434L14.6288 17.9435L14.6289 17.9436C15.1036 18.2668 15.577 18.5892 16.1896 18.9908C16.3456 19.0931 16.4947 19.1993 16.6399 19.3028C17.1923 19.6967 17.6886 20.0505 18.3018 19.9941C18.658 19.9613 19.0261 19.6262 19.213 18.6271C19.6547 16.2657 20.5229 11.1494 20.7236 9.04109C20.7411 8.85637 20.719 8.61997 20.7013 8.5162C20.6835 8.41242 20.6464 8.26457 20.5115 8.15511C20.3518 8.02549 20.1051 7.99815 19.9948 8.00009C19.4933 8.00893 18.7239 8.27646 15.0211 9.81659Z" fill="white"/>
</svg>
