<svg width="214" height="58" viewBox="0 0 214 58" fill="none" xmlns="http://www.w3.org/2000/svg">
<path d="M30.4517 44.023C28.2803 44.023 26.1088 43.9983 23.9374 44.0477C22.4898 44.0723 21.5163 43.4803 20.8425 42.2469C18.646 38.3741 16.4247 34.5012 14.2033 30.653C13.5793 29.543 13.5544 28.4823 14.1783 27.3722C16.4496 23.4007 18.7209 19.4538 20.9672 15.4823C21.5912 14.4216 22.5397 13.8789 23.7627 13.8789C28.2304 13.8789 32.6981 13.8789 37.1658 13.8789C38.3888 13.8789 39.3372 14.3723 39.9612 15.4576C42.2325 19.4538 44.5287 23.45 46.8 27.4462C47.3741 28.4576 47.3741 29.4936 46.8 30.505C44.5287 34.4765 42.2574 38.4481 39.9861 42.4443C39.3871 43.4803 38.5136 44.0477 37.2906 44.023C35.0193 43.9983 32.748 44.023 30.4517 44.023ZM23.8625 33.8105C22.4149 31.7631 22.0155 29.5183 22.5147 27.1255C23.4632 22.636 28.0057 19.8239 32.4984 20.9586C36.4919 21.9453 39.1625 26.0895 38.5884 30.135C38.1392 33.1198 35.8429 36.4253 31.8245 37.1407C30.277 37.412 30.277 37.3873 30.3519 38.9414C30.3769 39.3854 30.5516 39.5581 30.9759 39.5088C31.6248 39.4101 32.2738 39.3361 32.9227 39.1881C38.4886 37.8314 41.883 32.1578 40.5852 26.6075C39.3372 21.1312 34.0958 17.6037 28.7046 18.6151C24.6862 19.3798 21.9407 21.7726 20.6677 25.5961C19.3699 29.469 20.1436 33.0211 22.8641 36.1293C23.5131 36.8693 24.1121 36.8693 24.8359 36.154C26.2586 34.7232 27.7062 33.3172 29.1039 31.8864C29.5532 31.4424 29.9775 31.1464 30.6764 31.1464C31.7746 31.1711 32.6981 30.061 32.6981 28.9263C32.6731 27.7916 31.7746 26.8295 30.6764 26.7802C29.4035 26.7308 28.2803 27.4955 28.3302 28.6549C28.3801 29.7897 27.5565 30.1843 26.9325 30.875C26.8077 30.6037 26.7079 30.4557 26.6579 30.283C26.2087 28.7536 26.4333 27.3475 27.5315 26.1635C28.5798 25.0534 29.8777 24.6341 31.4251 24.9794C33.2222 25.3741 34.6199 27.1995 34.57 29.025C34.5201 30.9984 33.0475 32.7251 31.1756 32.9718C30.5765 33.0458 30.3519 33.2678 30.3769 33.8845C30.4268 35.4633 30.1273 35.4879 32.0242 35.0932C34.1457 34.6492 36.6416 32.5031 36.7664 29.0743C36.8912 25.7441 34.0459 22.6607 30.7013 22.6113C26.1088 22.562 22.964 27.1009 24.6612 31.3437C24.8359 31.7878 25.1604 32.3058 25.0606 32.7005C24.9358 33.1198 24.3867 33.4158 24.0123 33.7858C23.9873 33.7858 23.9623 33.7858 23.8625 33.8105Z" fill="#718096"/>
<path d="M55.3633 28.9763C55.3633 25.9915 55.3882 23.0067 55.3633 19.9972C55.3633 19.4546 55.513 19.2819 56.0871 19.2819C58.1837 19.3065 60.3052 19.2079 62.4018 19.3065C66.2704 19.5286 69.4902 21.0333 71.1624 24.6348C73.7332 30.2097 71.1375 37.3141 63.7496 38.5228C63.0257 38.6461 62.277 38.6708 61.5282 38.6708C59.7561 38.6955 57.984 38.6708 56.2369 38.6708C55.3882 38.6708 55.3882 38.6708 55.3882 37.8568C55.3633 34.9213 55.3633 31.9611 55.3633 28.9763ZM59.1321 29.001C59.1321 30.8264 59.1571 32.6765 59.1321 34.5019C59.1321 35.0446 59.2569 35.316 59.8809 35.2666C60.6297 35.2173 61.3784 35.2666 62.1272 35.242C63.4001 35.2173 64.5732 34.872 65.5965 34.1566C67.5683 32.8245 68.2422 30.8758 68.1923 28.5817C68.1424 25.8435 66.4202 23.5988 63.6996 23.0314C62.4517 22.7847 61.1289 22.8341 59.831 22.7354C59.3068 22.686 59.1321 22.9081 59.1321 23.4261C59.1321 25.2762 59.1321 27.1509 59.1321 29.001Z" fill="#718096"/>
<path d="M141.57 38.695C140.148 38.695 138.875 38.7196 137.602 38.6703C137.377 38.6703 137.103 38.3989 136.928 38.1769C135.505 36.2282 134.083 34.3041 132.685 32.3307C132.41 31.9606 132.136 31.8126 131.687 31.8373C130.938 31.862 130.164 31.8373 129.34 31.8373C129.316 32.1086 129.316 32.3307 129.316 32.5773C129.316 34.4028 129.291 36.2282 129.316 38.0783C129.316 38.5963 129.141 38.7443 128.642 38.7196C127.818 38.695 126.969 38.6703 126.146 38.7196C125.597 38.7443 125.422 38.5716 125.422 38.0043C125.447 33.5147 125.422 29.0498 125.422 24.5603C125.422 23.0062 125.447 21.4521 125.422 19.8981C125.422 19.454 125.572 19.306 126.021 19.3307C128.417 19.3554 130.838 19.2567 133.234 19.3554C136.279 19.4787 138.925 21.2548 139.449 24.4123C139.848 26.8791 139.075 29.1978 136.853 30.7026C136.654 30.8506 136.429 30.9739 136.154 31.1713C137.951 33.6381 139.699 36.1048 141.57 38.695ZM129.316 28.4085C130.613 28.4085 131.811 28.4331 133.009 28.4085C134.457 28.3838 135.555 27.3478 135.68 25.9417C135.805 24.2643 134.956 22.9569 133.434 22.7842C132.211 22.6362 130.963 22.6855 129.74 22.6609C129.34 22.6609 129.291 22.8829 129.291 23.2036C129.291 24.511 129.291 25.8183 129.291 27.1257C129.316 27.5204 129.316 27.9151 129.316 28.4085Z" fill="#718096"/>
<path d="M168.803 25.5957C168.803 24.7323 168.803 23.9923 168.803 23.2522C168.803 21.2788 168.828 19.3054 168.803 17.3073C168.803 16.7646 168.978 16.6166 169.502 16.6412C170.301 16.6659 171.124 16.6906 171.923 16.6412C172.472 16.6166 172.622 16.8386 172.597 17.3319C172.572 20.2181 172.597 23.1042 172.597 25.9903C172.597 29.9372 172.597 33.9087 172.597 37.8556C172.597 38.6943 172.597 38.6943 171.748 38.6943C171.099 38.6943 170.425 38.6696 169.777 38.6943C169.327 38.7189 169.153 38.5463 169.178 38.1023C169.202 37.7569 169.178 37.4116 169.178 37.0169C169.003 37.0662 168.928 37.0662 168.878 37.1155C167.031 39.533 162.788 39.6317 160.367 37.7816C158.62 36.4248 157.721 34.6241 157.497 32.5027C157.222 29.6659 157.946 27.1497 160.242 25.275C162.464 23.4496 166.357 23.3262 168.404 25.349C168.479 25.3983 168.579 25.4477 168.803 25.5957ZM161.241 31.4419C161.315 31.886 161.34 32.33 161.44 32.7493C161.864 34.4514 163.312 35.5861 165.034 35.6108C166.831 35.6355 168.229 34.6241 168.653 32.848C168.828 32.108 168.853 31.2939 168.753 30.5539C168.504 28.4078 166.557 27.0264 164.41 27.4211C162.488 27.7911 161.29 29.3205 161.241 31.4419Z" fill="#718096"/>
<path d="M93.3771 25.9905C93.5768 25.8425 93.6267 25.7931 93.6766 25.7438C95.7233 23.2523 100.191 23.3017 102.637 25.5958C104.234 27.1005 104.958 28.9753 105.033 31.1214C105.108 33.5635 104.409 35.6849 102.587 37.387C100.316 39.5084 96.2474 39.7058 94.076 37.5843C94.0011 37.5103 93.9012 37.461 93.7265 37.3377C93.7016 37.6337 93.6766 37.8557 93.6766 38.053C93.6766 39.8538 93.6517 41.6299 93.6766 43.4306C93.6766 43.9733 93.5019 44.1213 92.9778 44.0966C92.1791 44.0473 91.4053 44.0473 90.6066 44.0966C90.0326 44.1213 89.8828 43.924 89.8828 43.3813C89.9078 38.8917 89.8828 34.4022 89.8828 29.9373C89.8828 28.2352 89.9078 26.5332 89.8828 24.8311C89.8828 24.3624 90.0326 24.1897 90.5068 24.2144C91.2556 24.239 92.0043 24.239 92.7531 24.2144C93.2773 24.1897 93.427 24.387 93.3771 24.8804C93.3521 25.2011 93.3771 25.5218 93.3771 25.9905ZM101.164 31.442C101.164 31.2447 101.189 31.072 101.164 30.8747C101.015 29.4193 100.341 28.2599 98.943 27.6679C97.5203 27.0512 96.1226 27.2239 94.9495 28.2352C93.7265 29.2713 93.5518 30.6773 93.6766 32.1574C93.8513 34.2788 95.6484 35.8083 97.695 35.6109C99.7916 35.4136 101.164 33.7362 101.164 31.442Z" fill="#718096"/>
<path d="M111.397 37.338C111.397 37.6833 111.397 37.9053 111.397 38.1273C111.397 39.9034 111.372 41.6548 111.397 43.4309C111.397 43.9489 111.272 44.1463 110.723 44.1216C109.949 44.0723 109.176 44.0723 108.427 44.1216C107.778 44.1709 107.578 43.9736 107.578 43.3076C107.603 40.9888 107.603 38.67 107.603 36.3512C107.603 32.6017 107.603 28.8522 107.603 25.1027C107.603 24.2147 107.603 24.2147 108.527 24.2147C109.176 24.2147 109.799 24.2393 110.448 24.2147C110.898 24.19 111.072 24.3627 111.047 24.8067C111.022 25.152 111.047 25.4974 111.047 25.9661C111.272 25.8427 111.372 25.7934 111.422 25.7441C113.319 23.4253 117.362 23.2773 119.833 25.1767C122.229 27.0268 123.003 29.5429 122.728 32.4044C122.529 34.5505 121.63 36.4006 119.858 37.7573C117.637 39.4594 113.893 39.5827 111.821 37.6093C111.746 37.5353 111.646 37.486 111.397 37.338ZM118.984 31.4917C118.91 31.0477 118.885 30.579 118.76 30.1349C118.311 28.4329 116.813 27.3228 115.091 27.3228C113.344 27.3228 111.921 28.3835 111.522 30.1596C111.347 30.875 111.347 31.6644 111.422 32.4044C111.646 34.5752 113.693 35.9812 115.84 35.5125C117.761 35.0932 118.935 33.5884 118.984 31.4917Z" fill="#718096"/>
<path d="M151.48 37.3624C151.281 37.4857 151.156 37.535 151.081 37.609C149.384 39.0398 147.437 39.3605 145.34 38.8671C143.219 38.3737 142.046 36.7703 142.071 34.5502C142.096 32.7495 143.418 31.1707 145.465 30.8254C146.913 30.5787 148.435 30.628 149.908 30.554C150.282 30.5294 150.682 30.554 151.031 30.554C151.705 28.4819 150.058 26.8045 147.786 27.1992C146.763 27.3719 145.914 27.8652 145.166 28.5559C144.991 28.7286 144.791 28.9013 144.542 29.1233C143.943 28.3833 143.344 27.6926 142.795 27.0019C142.72 26.9032 142.795 26.6319 142.894 26.5332C144.766 24.5104 147.063 23.5977 149.808 23.9924C150.756 24.1157 151.73 24.4611 152.554 24.9298C154.001 25.7685 154.8 27.1745 154.85 28.8026C154.975 31.9601 154.95 35.1176 155 38.2751C155 38.6451 154.825 38.7438 154.5 38.7438C153.752 38.7438 153.003 38.7191 152.254 38.7438C151.68 38.7684 151.43 38.5958 151.505 38.0037C151.555 37.8064 151.505 37.6337 151.48 37.3624ZM145.79 34.7229C146.039 35.1176 146.214 35.6109 146.563 35.8576C147.512 36.5237 148.585 36.425 149.583 35.9316C150.557 35.4383 151.106 34.6489 151.156 33.5142C151.181 33.1442 151.006 33.0208 150.682 33.0208C149.558 33.0455 148.435 33.0208 147.312 33.0948C146.414 33.1935 145.914 33.8102 145.79 34.7229Z" fill="#718096"/>
<path d="M184.527 37.2887C184.128 37.6094 183.903 37.7821 183.679 37.9548C181.782 39.2622 179.735 39.4348 177.614 38.6208C175.841 37.9548 174.893 36.228 175.093 34.3039C175.267 32.6265 176.515 31.2451 178.412 30.8504C179.161 30.6778 179.96 30.6284 180.758 30.5791C181.857 30.5298 182.955 30.5791 184.053 30.5791C184.677 28.4083 183.03 26.8049 180.733 27.2489C179.461 27.4956 178.537 28.211 177.589 29.173C176.99 28.433 176.391 27.7423 175.841 27.0023C175.767 26.9036 175.866 26.6322 175.941 26.5336C177.963 24.0174 182.181 23.1294 185.076 24.5848C186.823 25.4728 187.797 26.9282 187.897 28.803C188.046 31.2451 187.997 33.7119 188.047 36.1787C188.047 36.8694 188.071 37.5601 188.022 38.2508C188.022 38.4235 187.747 38.6701 187.597 38.6948C186.749 38.7441 185.9 38.7195 185.051 38.7195C184.702 38.7195 184.552 38.5715 184.577 38.2261C184.527 37.9548 184.527 37.7081 184.527 37.2887ZM182.331 33.0459V33.0212C181.657 33.0459 180.983 33.0705 180.309 33.1445C179.635 33.2185 179.086 33.6626 178.961 34.2299C178.812 34.9206 179.036 35.5867 179.61 35.9567C181.083 36.8694 183.828 36.1787 184.153 33.8352C184.228 33.3172 184.078 33.0459 183.479 33.0705C183.105 33.0705 182.705 33.0459 182.331 33.0459Z" fill="#718096"/>
<path d="M76.1775 29.1234C75.5286 28.334 74.9046 27.6187 74.2057 26.7553C74.8547 26.2126 75.4038 25.6206 76.0777 25.1765C78.0994 23.8198 80.3207 23.5238 82.6669 24.1652C85.0131 24.8065 86.5356 26.8293 86.5855 29.3454C86.6354 32.2809 86.5855 35.1917 86.6104 38.1272C86.6104 38.5712 86.4607 38.7192 86.0114 38.7192C85.3126 38.6945 84.6137 38.6698 83.9149 38.7192C83.3158 38.7685 83.0163 38.5958 83.1162 37.9545C83.1411 37.8065 83.0912 37.6338 83.0662 37.3871C82.8666 37.5105 82.7418 37.5845 82.617 37.6831C80.8199 39.1385 78.7733 39.3852 76.6018 38.7685C74.7798 38.2505 73.6317 36.6717 73.6566 34.7723C73.6816 33.2183 74.2806 31.7382 76.477 30.9981C77.2757 30.7268 78.1243 30.6281 78.9729 30.5788C80.0462 30.5048 81.1444 30.5541 82.2176 30.5788C82.6669 30.5788 82.8167 30.4308 82.8167 30.0114C82.8416 28.0627 81.3441 26.8046 79.3224 27.2733C78.4987 27.4707 77.7499 27.964 77.0012 28.3834C76.7516 28.5314 76.5269 28.8274 76.1775 29.1234ZM80.9697 33.0456C80.5703 33.0456 80.171 33.0209 79.7716 33.0456C79.547 33.0456 79.2974 33.0949 79.0728 33.1196C78.2242 33.1936 77.6501 33.6869 77.5253 34.3776C77.4005 35.167 77.8248 35.8084 78.6485 36.1291C80.5204 36.8444 82.6419 35.537 82.8167 33.5636C82.8416 33.2183 82.7168 33.0456 82.3674 33.0456C81.9181 33.0456 81.4439 33.0456 80.9697 33.0456Z" fill="#718096"/>
<path d="M194.712 25.9418C195.161 25.5471 195.435 25.2757 195.76 25.0291C196.883 24.1903 198.131 23.845 199.529 24.0917C199.878 24.141 200.003 24.2643 200.003 24.6097C199.978 25.4237 199.978 26.2624 200.003 27.0765C200.003 27.4958 199.803 27.5452 199.454 27.5698C198.83 27.5945 198.206 27.6192 197.632 27.7425C196.009 28.1372 195.036 29.4446 195.036 31.196C195.011 33.4654 195.011 35.7349 195.036 38.0043C195.036 38.5224 194.886 38.7197 194.362 38.695C193.538 38.6704 192.69 38.6704 191.866 38.695C191.442 38.695 191.242 38.5717 191.242 38.1277C191.242 33.6628 191.242 29.1979 191.242 24.7577C191.242 24.3384 191.417 24.215 191.816 24.215C192.565 24.2397 193.314 24.2397 194.063 24.215C194.562 24.1903 194.712 24.3877 194.662 24.8564C194.662 25.1524 194.712 25.4484 194.712 25.9418Z" fill="#718096"/>
</svg>
