<svg width="214" height="58" viewBox="0 0 214 58" fill="none" xmlns="http://www.w3.org/2000/svg">
<g clip-path="url(#clip0_1229_15259)">
<path d="M60.383 31.5266C60.427 32.0973 60.3422 32.6705 60.1348 33.2042C59.9274 33.738 59.6026 34.2186 59.1844 34.6107C58.2245 35.4253 56.9851 35.837 55.7269 35.7594C55.0634 35.7826 54.4023 35.6674 53.7861 35.4211C53.1699 35.1749 52.6121 34.803 52.1484 34.3293C51.2301 33.3247 50.7457 32.0001 50.8 30.6422V28.1726C50.75 26.8204 51.2223 25.5007 52.1196 24.4854C52.5688 24.0134 53.1133 23.6419 53.7173 23.3954C54.3213 23.1488 54.9709 23.0329 55.6232 23.0553C56.8949 22.9909 58.1484 23.3775 59.1613 24.1465C59.5916 24.5312 59.9272 25.0096 60.1421 25.5444C60.357 26.0793 60.4453 26.6563 60.4002 27.2307V27.2594H58.0146C58.0652 26.6152 57.858 25.9772 57.4384 25.4847C57.1959 25.2759 56.914 25.1175 56.6092 25.0188C56.3044 24.9202 55.9828 24.8833 55.6635 24.9104C55.3222 24.8976 54.9834 24.9735 54.6803 25.1305C54.3772 25.2876 54.1203 25.5205 53.9348 25.8063C53.4921 26.4892 53.2708 27.2912 53.3009 28.1036V30.5905C53.2728 31.4153 53.4936 32.2296 53.9348 32.928C54.1427 33.2203 54.4211 33.4556 54.7445 33.6122C55.0678 33.7688 55.4255 33.8416 55.7845 33.8239C56.085 33.8471 56.3871 33.8081 56.6717 33.7092C56.9564 33.6104 57.2174 33.4539 57.4384 33.2496C57.8595 32.7556 58.0667 32.1153 58.0146 31.4692H60.4002L60.383 31.5266ZM73.9881 30.556C74.0292 31.9495 73.5178 33.3031 72.5648 34.3236C71.5589 35.2673 70.2295 35.7929 68.848 35.7929C67.4665 35.7929 66.1371 35.2673 65.1312 34.3236C64.6564 33.8199 64.2858 33.228 64.0406 32.5815C63.7954 31.935 63.6804 31.2468 63.7021 30.556V28.3104C63.6657 26.9166 64.1787 25.564 65.1312 24.5428C65.6078 24.051 66.1817 23.6633 66.8165 23.4042C67.4514 23.1452 68.1334 23.0205 68.8192 23.0381C69.5109 23.0069 70.2013 23.1252 70.8428 23.3849C71.4844 23.6447 72.062 24.0397 72.5359 24.5428C73.0098 25.0459 73.3779 25.6384 73.6184 26.2855C73.8589 26.9325 73.9669 27.621 73.9362 28.3104V30.5273L73.9881 30.556ZM71.516 28.2932C71.5554 27.4472 71.3055 26.6129 70.8072 25.927C70.5754 25.6231 70.274 25.379 69.9281 25.2151C69.5822 25.0513 69.2019 24.9724 68.8192 24.9851C68.4394 24.9645 68.0605 25.0401 67.718 25.2048C67.3754 25.3694 67.0802 25.6179 66.8599 25.927C66.3676 26.6161 66.1165 27.4476 66.1454 28.2932V30.5101C66.108 31.3709 66.3594 32.2197 66.8599 32.9222C67.0856 33.2256 67.3818 33.4698 67.723 33.6339C68.0643 33.798 68.4405 33.877 68.8192 33.8641C69.2031 33.8848 69.5861 33.8095 69.9333 33.645C70.2805 33.4805 70.5809 33.232 70.8072 32.9222C71.3127 32.2223 71.5628 31.3712 71.516 30.5101V28.2932ZM80.3959 35.5469H77.9065V23.2219H80.3959V35.5469ZM94.6406 35.5469H92.1513L87.1898 27.2479V35.5469H84.7004V23.2219H87.1898L92.1225 31.5266H92.1513V23.2219H94.6406V35.5469ZM107.099 25.1114H103.561V35.5469H101.077V25.1344H97.6198V23.2219H107.105L107.099 25.1114ZM117.327 30.1482H112.717V33.6861H118.169V35.5469H110.286V23.2219H118.192V25.1344H112.775V28.2185H117.385V30.131H117.339L117.327 30.1482ZM124.213 33.6861H129.74V35.5469H121.724V23.2219H124.213V33.6861ZM140.285 30.1482H135.704V33.6861H141.149V35.5469H133.243V23.2219H141.149V25.1344H135.733V28.2185H140.314V30.131H140.285V30.1482ZM154.149 33.9158C153.684 34.4837 153.092 34.9359 152.421 35.2367C151.503 35.6514 150.501 35.848 149.493 35.8111C148.821 35.8387 148.151 35.7274 147.524 35.4843C146.897 35.2411 146.328 34.8714 145.851 34.3982C145.378 33.9199 145.007 33.3502 144.763 32.7241C144.518 32.0979 144.404 31.4286 144.428 30.757V28.1611C144.398 27.4905 144.507 26.821 144.747 26.1938C144.987 25.5666 145.353 24.9949 145.823 24.5141C146.279 24.0434 146.829 23.673 147.437 23.4267C148.045 23.1805 148.699 23.0637 149.355 23.084C150.605 23.0055 151.838 23.3969 152.812 24.181C153.21 24.5417 153.52 24.9875 153.72 25.4849C153.919 25.9823 154.003 26.5183 153.965 27.0526V27.0813H151.625C151.638 26.7976 151.593 26.5143 151.494 26.248C151.395 25.9817 151.244 25.7378 151.049 25.5307C150.827 25.3297 150.567 25.1752 150.284 25.0766C150.001 24.9779 149.7 24.937 149.401 24.9563C149.049 24.9505 148.7 25.0251 148.382 25.1744C148.063 25.3237 147.783 25.5438 147.563 25.8178C147.102 26.4802 146.873 27.2755 146.912 28.0807V30.6766C146.871 31.5024 147.124 32.3159 147.626 32.9739C147.855 33.2561 148.148 33.4803 148.48 33.628C148.813 33.7758 149.176 33.8429 149.539 33.8239C150.01 33.8332 150.48 33.7732 150.934 33.6459C151.233 33.5638 151.505 33.4054 151.723 33.1864V30.7743H149.355V29.0513H154.213V33.9101L154.149 33.9158ZM160.557 30.6307V35.5469H158.068V23.2219H162.361C163.542 23.16 164.709 23.5024 165.668 24.1925C166.062 24.516 166.375 24.926 166.583 25.3903C166.791 25.8547 166.888 26.3608 166.867 26.8688C166.884 27.4572 166.715 28.0359 166.383 28.5229C165.998 29.0251 165.49 29.4206 164.908 29.6715C165.551 29.8288 166.113 30.2174 166.487 30.7628C166.822 31.3332 166.989 31.9859 166.971 32.6465V33.5425C166.966 33.912 167.019 34.2801 167.126 34.6337C167.186 34.9606 167.357 35.2569 167.61 35.4722V35.6503H165.046C164.789 35.4176 164.627 35.0986 164.591 34.7543C164.521 34.3599 164.486 33.9602 164.487 33.5597V32.6753C164.505 32.4164 164.471 32.1565 164.387 31.9109C164.303 31.6654 164.171 31.439 163.997 31.2452C163.807 31.0682 163.583 30.9304 163.338 30.8398C163.094 30.7491 162.834 30.7073 162.574 30.7168H160.54V30.6364L160.557 30.6307ZM160.557 28.7526H162.332C162.885 28.7897 163.434 28.6265 163.876 28.2932C164.06 28.128 164.203 27.9231 164.295 27.6941C164.387 27.4651 164.425 27.2181 164.406 26.9722C164.418 26.7228 164.377 26.4737 164.285 26.2412C164.194 26.0087 164.055 25.7979 163.876 25.6226C163.672 25.4459 163.434 25.3118 163.177 25.228C162.919 25.1441 162.648 25.1123 162.378 25.1344H160.569L160.557 28.7526ZM177.366 32.928H173.379L172.543 35.5986H169.944L174.122 23.2506H176.64L180.783 35.5986H178.184L177.366 32.928ZM173.984 30.981H176.761L175.407 26.6104L173.984 30.981ZM186.286 31.0901V35.5469H183.803V23.2219H188.534C189.749 23.1611 190.944 23.552 191.888 24.3188C192.292 24.6765 192.609 25.1205 192.817 25.6178C193.024 26.1151 193.116 26.6527 193.086 27.1905C193.105 27.7269 193.008 28.261 192.801 28.7566C192.594 29.2522 192.283 29.6974 191.888 30.0621C190.943 30.8264 189.749 31.2152 188.534 31.1533H186.304L186.286 31.0901ZM186.304 29.2293H188.568C188.969 29.2307 189.363 29.1168 189.7 28.9012C190.038 28.6856 190.306 28.3776 190.473 28.0139C190.64 27.6503 190.698 27.2464 190.64 26.8508C190.582 26.4552 190.411 26.0846 190.147 25.7834C189.942 25.5792 189.694 25.422 189.421 25.3228C189.149 25.2237 188.858 25.1848 188.568 25.209H186.304V29.2293ZM206.668 35.5469H204.167V30.4526H199.131V35.5469H196.676V23.2219H199.166V28.5401H204.167V23.2219H206.657L206.668 35.5469Z" fill="#718096"/>
<path d="M28.7297 36.7361L22.6906 39.378V39.1081C21.485 39.3912 20.2567 39.568 19.02 39.6365C13.2979 39.5676 8.82046 36.5868 8.72826 33.0605V31.7395C10.5953 34.4446 14.4215 36.2997 19.0027 36.2193C20.5136 36.2749 22.024 36.0966 23.4801 35.6909L24.0102 34.3986C22.3905 34.9144 20.7029 35.1873 19.0027 35.2084C13.2979 35.1912 8.82046 32.2105 8.72826 28.6152V27.5527C10.5953 30.0682 14.4215 31.8774 19.0027 31.7568C20.9916 31.8565 22.9765 31.4927 24.7997 30.6943L25.0705 29.3848C23.2006 30.322 21.1231 30.7725 19.0315 30.6943C13.3267 30.7689 8.82046 27.7939 8.76283 24.1182V23.0557C10.6241 25.623 14.4504 27.4608 19.0315 27.5355C21.5121 27.4637 23.9446 26.8356 26.1481 25.6976L26.4247 24.1182C24.2454 25.5972 21.6845 26.4187 19.0488 26.4845C13.3267 26.3581 8.82046 23.3429 8.76283 19.6213C8.82046 16.072 13.3267 13.0912 19.0315 13.0453C22.414 13.0912 25.5891 14.2973 27.4562 16.2213L27.6521 16.5429H28.989L28.7873 16.2213C26.9203 13.6713 23.1747 12 19.0315 12C12.6928 12 7.66797 15.4459 7.66797 19.5926V33.3074C7.88118 37.3736 12.7965 40.7162 18.9854 40.7162C23.071 40.7162 26.7704 39.0736 28.7297 36.7361Z" fill="#718096"/>
<path d="M26.2695 46.0002L28.4131 36.9488L22.2819 39.6079L25.9986 23.9231H18.8359L20.703 16.21H43.551L41.6667 23.9231H34.2389L32.6427 28.1731L40.9003 24.7272L26.2695 46.0002ZM29.9863 35.088L28.926 40.4235L37.7137 27.1566L30.5337 30.3441L33.7203 22.8779H40.9003L42.243 17.3012H21.4982L20.1382 22.9123H27.3182L23.8608 37.7931L29.9863 35.088Z" fill="#718096"/>
</g>
<defs>
<clipPath id="clip0_1229_15259">
<rect width="199" height="34" fill="white" transform="translate(7.66699 12)"/>
</clipPath>
</defs>
</svg>
