<svg width="28" height="28" viewBox="0 0 28 28" fill="none" xmlns="http://www.w3.org/2000/svg">
<g clip-path="url(#clip0_1266_15441)">
<path fill-rule="evenodd" clip-rule="evenodd" d="M8.95752 22.75L12.0291 23.5626V22.5L12.2798 22.25H14.035V23.5V24.375H12.1545L9.8351 23.375L8.95752 22.75Z" fill="#CDBDB2"/>
<path fill-rule="evenodd" clip-rule="evenodd" d="M18.9871 22.75L15.9782 23.5626V22.5L15.7275 22.25H13.9723V23.5V24.375H15.8528L18.1721 23.375L18.9871 22.75Z" fill="#CDBDB2"/>
<path fill-rule="evenodd" clip-rule="evenodd" d="M12.28 20.4376L12.0293 22.5L12.3427 22.25H15.6022L15.9783 22.5L15.7276 20.4376L15.2261 20.125L12.7188 20.1876L12.28 20.4376Z" fill="#393939"/>
<path fill-rule="evenodd" clip-rule="evenodd" d="M10.5876 6.5L12.0921 10L12.7817 20.1876H15.2263L15.9785 10L17.3575 6.5H10.5876Z" fill="#F89C35"/>
<path fill-rule="evenodd" clip-rule="evenodd" d="M4.00553 14.1875L2.25037 19.2499L6.63827 18.9999H9.459V16.8125L9.33363 12.3125L8.70679 12.8125L4.00553 14.1875Z" fill="#F89D35"/>
<path fill-rule="evenodd" clip-rule="evenodd" d="M7.32788 14.75L12.468 14.875L11.9039 17.5L9.45915 16.875L7.32788 14.75Z" fill="#D87C30"/>
<path fill-rule="evenodd" clip-rule="evenodd" d="M7.32788 14.8125L9.45915 16.8125V18.8125L7.32788 14.8125Z" fill="#EA8D3A"/>
<path fill-rule="evenodd" clip-rule="evenodd" d="M9.45923 16.875L11.9666 17.5L12.7815 20.1876L12.2173 20.5L9.45923 18.875V16.875Z" fill="#F89D35"/>
<path fill-rule="evenodd" clip-rule="evenodd" d="M9.45899 18.875L8.95752 22.75L12.2798 20.4376L9.45899 18.875Z" fill="#EB8F35"/>
<path fill-rule="evenodd" clip-rule="evenodd" d="M12.4679 14.875L12.7814 20.1875L11.8411 17.4688L12.4679 14.875Z" fill="#EA8E3A"/>
<path fill-rule="evenodd" clip-rule="evenodd" d="M6.57593 18.9376L9.4594 18.875L8.95793 22.75L6.57593 18.9376Z" fill="#D87C30"/>
<path fill-rule="evenodd" clip-rule="evenodd" d="M3.62942 24.4375L8.95753 22.7499L6.57553 18.9375L2.25037 19.2499L3.62942 24.4375Z" fill="#EB8F35"/>
<path fill-rule="evenodd" clip-rule="evenodd" d="M12.0919 10L9.39652 12.25L7.32788 14.75L12.468 14.9376L12.0919 10Z" fill="#E8821E"/>
<path fill-rule="evenodd" clip-rule="evenodd" d="M8.95752 22.7499L12.2798 20.4375L12.0291 22.4375V23.5625L9.77247 23.1249L8.95752 22.7499Z" fill="#DFCEC3"/>
<path fill-rule="evenodd" clip-rule="evenodd" d="M18.9871 22.7499L15.7275 20.4375L15.9782 22.4375V23.5625L18.2348 23.1249L18.9871 22.7499Z" fill="#DFCEC3"/>
<path fill-rule="evenodd" clip-rule="evenodd" d="M11.0886 16L11.7782 17.4376L9.33346 16.8126L11.0886 16Z" fill="#393939"/>
<path fill-rule="evenodd" clip-rule="evenodd" d="M3.56665 3.5625L12.0917 9.99994L10.65 6.49994L3.56665 3.5625Z" fill="#E88F35"/>
<path fill-rule="evenodd" clip-rule="evenodd" d="M3.56667 3.5625L2.43835 7L3.0652 10.75L2.62641 11L3.25325 11.5625L2.75178 12L3.4413 12.625L3.00251 13L4.00546 14.25L8.70678 12.8125C11.0052 10.9792 12.1335 10.0417 12.0917 10C12.0499 9.95833 9.20825 7.8125 3.56667 3.5625Z" fill="#8E5A30"/>
<path fill-rule="evenodd" clip-rule="evenodd" d="M23.9394 14.1875L25.6946 19.2499L21.3067 18.9999H18.4859V16.8125L18.6113 12.3125L19.2382 12.8125L23.9394 14.1875Z" fill="#F89D35"/>
<path fill-rule="evenodd" clip-rule="evenodd" d="M20.6174 14.75L15.4773 14.875L16.0414 17.5L18.4862 16.875L20.6174 14.75Z" fill="#D87C30"/>
<path fill-rule="evenodd" clip-rule="evenodd" d="M20.6174 14.8125L18.4862 16.8125V18.8125L20.6174 14.8125Z" fill="#EA8D3A"/>
<path fill-rule="evenodd" clip-rule="evenodd" d="M18.486 16.875L15.9786 17.5L15.1636 20.1876L15.7279 20.5L18.486 18.875V16.875Z" fill="#F89D35"/>
<path fill-rule="evenodd" clip-rule="evenodd" d="M18.4861 18.875L18.9875 22.75L15.728 20.5L18.4861 18.875Z" fill="#EB8F35"/>
<path fill-rule="evenodd" clip-rule="evenodd" d="M15.477 14.875L15.1636 20.1876L16.1039 17.4688L15.477 14.875Z" fill="#EA8E3A"/>
<path fill-rule="evenodd" clip-rule="evenodd" d="M21.3696 18.9376L18.4862 18.875L18.9876 22.75L21.3696 18.9376Z" fill="#D87C30"/>
<path fill-rule="evenodd" clip-rule="evenodd" d="M24.3155 24.4375L18.9874 22.7499L21.3694 18.9375L25.6946 19.2499L24.3155 24.4375Z" fill="#EB8F35"/>
<path fill-rule="evenodd" clip-rule="evenodd" d="M15.8534 10L18.5488 12.25L20.6174 14.75L15.4773 14.9376L15.8534 10Z" fill="#E8821E"/>
<path fill-rule="evenodd" clip-rule="evenodd" d="M16.8563 16L16.1667 17.4376L18.6115 16.8126L16.8563 16Z" fill="#393939"/>
<path fill-rule="evenodd" clip-rule="evenodd" d="M24.3783 3.5625L15.8532 9.99994L17.2949 6.49994L24.3783 3.5625Z" fill="#E88F35"/>
<path fill-rule="evenodd" clip-rule="evenodd" d="M24.3784 3.5625L25.5067 7L24.8799 10.75L25.3187 11L24.6918 11.5625L25.1933 12L24.5038 12.625L24.9426 13L23.9396 14.25L19.2383 12.8125C16.9399 10.9792 15.8115 10.0417 15.8533 10C15.8951 9.95833 18.7368 7.8125 24.3784 3.5625Z" fill="#8E5A30"/>
</g>
<defs>
<clipPath id="clip0_1266_15441">
<rect width="23.625" height="21" fill="white" transform="translate(2.1875 3.5)"/>
</clipPath>
</defs>
</svg>
