<svg width="214" height="58" viewBox="0 0 214 58" fill="none" xmlns="http://www.w3.org/2000/svg">
<path d="M34.3456 32.5233C33.7277 32.907 33.0068 32.9767 32.4576 32.6628C31.771 32.2442 31.3591 31.3023 31.3591 30.0116V26.0698C31.3591 24.186 30.6382 22.8256 29.4024 22.4767C27.3084 21.8488 25.7294 24.4651 25.1458 25.4419L21.4384 31.4767V24.0465C21.4041 22.3372 20.8549 21.3256 19.825 21.0116C19.1385 20.8023 18.1086 20.907 17.1131 22.4419L8.84019 35.907C7.74171 33.7791 7.15814 31.407 7.15814 29C7.15814 20.8721 13.5774 14.2791 21.4384 14.2791C29.2994 14.2791 35.7187 20.8721 35.7187 29V29.0349V29.0698C35.7874 30.6395 35.3068 31.8954 34.3456 32.5233ZM38.8769 29V28.9651V28.9302C38.8425 19.0581 31.0158 11 21.4384 11C11.8267 11 4 19.0581 4 29C4 38.907 11.8267 47 21.4384 47C25.8667 47 30.0547 45.2907 33.2815 42.186C33.9337 41.5581 33.968 40.5465 33.3501 39.8837C32.7665 39.2209 31.771 39.186 31.1188 39.7791C31.1188 39.7791 31.1188 39.7791 31.0845 39.814C28.4756 42.3256 24.9742 43.7558 21.3698 43.7558C17.1475 43.7558 13.3714 41.8721 10.7625 38.8721L18.2116 26.7326V32.3488C18.2116 35.0349 19.2415 35.907 20.0996 36.1512C20.9578 36.3953 22.2623 36.2209 23.6697 33.9535L27.7547 27.2209C27.892 27.0116 27.995 26.8023 28.1323 26.6628V30.0814C28.1323 32.593 29.1278 34.6163 30.8442 35.593C32.3889 36.5 34.3456 36.3954 35.959 35.3837C37.95 34.0581 39.0142 31.7558 38.8769 29ZM63.1808 22.8605C63.5927 23.1047 63.9703 23.6977 63.9703 24.2209C63.9703 25.0581 63.2838 25.7558 62.4943 25.7558C62.2883 25.7558 62.1166 25.686 61.945 25.6512C61.0182 24.9535 59.851 24.5 58.6152 24.5C55.6974 24.5 53.7064 26.907 53.7064 29.907C53.7064 32.907 55.7317 35.2791 58.6152 35.2791C60.057 35.2791 61.3614 34.686 62.3226 33.7442C62.5629 33.5698 62.8719 33.4651 63.1808 33.4651C63.9703 33.4651 64.5882 34.093 64.5882 34.8953C64.5882 35.4186 64.2793 35.8721 63.9017 36.1163C62.4943 37.3372 60.6062 38.1395 58.6496 38.1395C54.187 38.1395 50.5482 34.407 50.5482 29.8023C50.5482 25.1977 54.187 21.4651 58.6496 21.4651C60.2973 21.4302 61.8764 21.9535 63.1808 22.8605ZM71.3508 26.3488C74.4059 26.3488 76.9462 28.9651 76.9462 32.2093C76.9462 35.4186 74.3716 38.1744 71.3508 38.1744C68.1583 38.1744 65.5151 35.4535 65.5151 32.2093C65.5151 28.9651 68.1583 26.3488 71.3508 26.3488ZM71.3164 35.2791C72.6552 35.2791 73.788 33.9884 73.788 32.2442C73.788 30.5 72.6552 29.3837 71.3164 29.3837C69.8747 29.3837 68.6732 30.4651 68.6732 32.2442C68.6732 33.9535 69.8747 35.2791 71.3164 35.2791ZM78.8685 36.3605V28.1279C78.8685 27.2209 79.5551 26.4884 80.4476 26.4884C81.3058 26.4884 82.0267 27.2209 82.0267 28.1279V36.3605C82.0267 37.2674 81.3058 38 80.4476 38C79.5894 38 78.8685 37.2326 78.8685 36.3605ZM78.6282 23.3837C78.6282 22.3023 79.4521 21.4651 80.4476 21.4651C81.4774 21.4651 82.3013 22.3372 82.3013 23.3837C82.3013 24.4302 81.4774 25.2674 80.4476 25.2674C79.4178 25.2326 78.6282 24.3953 78.6282 23.3837ZM88.0683 31.8953V36.3605C88.0683 37.2674 87.3474 38 86.4893 38C85.6311 38 84.9102 37.2674 84.9102 36.3605V27.7442C84.9102 27.0465 85.4594 26.4884 86.146 26.4884C86.8325 26.4884 87.3474 27.0814 87.3474 27.7442C88.6176 26.5233 89.7504 26.3488 90.8145 26.3488C93.9727 26.3488 95.3801 28.7558 95.3801 31.5116V36.3605C95.3801 37.2674 94.6592 38 93.801 38C92.9428 38 92.222 37.2674 92.222 36.3605V31.8953C92.222 30.5 92.0503 29.314 90.0593 29.314C88.6519 29.314 88.0683 30.5 88.0683 31.8953ZM105.61 33.6047C105.232 33.6047 104.992 33.4302 104.786 33.186L101.113 29.1395V36.3605C101.113 37.2674 100.392 38 99.5337 38C98.6755 38 97.9547 37.2674 97.9547 36.3605V22.0581C98.0577 21.814 98.2979 21.6395 98.5382 21.6395C98.8129 21.6395 99.0532 21.8837 99.2248 22.0581L105.095 28.7558C105.266 28.9651 105.472 29.0698 105.61 29.0698C105.713 29.0698 105.953 28.9651 106.125 28.7558L111.995 22.0581C112.166 21.8837 112.372 21.6395 112.681 21.6395C112.956 21.6395 113.196 21.814 113.265 22.0581V36.3605C113.265 37.2674 112.578 38 111.686 38C110.828 38 110.107 37.2674 110.107 36.3605V29.1395L106.434 33.186C106.159 33.4302 105.919 33.6047 105.61 33.6047ZM120.783 35.2791C122.19 35.2791 123.391 33.9884 123.391 32.2442C123.391 30.5 122.156 29.3488 120.783 29.3488C119.409 29.3488 118.277 30.5349 118.277 32.2442C118.277 33.9186 119.375 35.2791 120.783 35.2791ZM124.147 36.7442L124.078 36.3605C123.46 37.5814 121.503 38.1395 120.268 38.1395C117.315 38.1395 115.118 35.4186 115.118 32.1744C115.118 28.9651 117.35 26.314 120.439 26.314C120.954 26.314 122.739 26.4535 124.112 28.093L124.181 27.7093C124.181 27.0116 124.696 26.4535 125.382 26.4535C126.069 26.4535 126.618 27.0465 126.618 27.7093V36.7093C126.618 37.407 126.069 37.9651 125.382 37.9651C124.662 38 124.147 37.407 124.147 36.7442ZM135.303 29.314H134.96C132.969 29.4186 132.591 30.5698 132.591 31.8953V36.3605C132.591 37.2674 131.87 38 131.012 38C130.154 38 129.433 37.2674 129.433 36.3605V27.7442C129.433 27.0465 129.982 26.4884 130.669 26.4884C131.355 26.4884 131.87 27.0814 131.87 27.7442C133.037 26.6279 133.999 26.3837 134.96 26.3488H135.269C136.024 26.3488 136.711 27.0116 136.711 27.8488C136.745 28.6163 136.058 29.314 135.303 29.314ZM147.489 35.593C147.627 35.8372 147.73 36.0814 147.73 36.3605C147.73 37.1977 146.975 37.9651 146.151 37.9651C145.601 37.9651 145.121 37.5465 144.743 37.0581L141.104 32.7674V36.3256C141.104 37.2326 140.384 37.9651 139.525 37.9651C138.667 37.9651 137.946 37.2326 137.946 36.3256V23.2442C137.946 22.3372 138.633 21.6047 139.525 21.6047C140.418 21.6047 141.104 22.3372 141.104 23.2442V31.407L144.743 27.3256C145.121 26.907 145.567 26.4535 146.116 26.4535C146.906 26.4535 147.627 27.186 147.627 28.0233C147.627 28.2674 147.558 28.5465 147.421 28.7558L144.537 31.9651L147.489 35.593ZM153.668 29.3488C152.81 29.3488 151.403 29.8023 151.403 31.1628H155.968C155.934 29.8023 154.492 29.3488 153.668 29.3488ZM157.788 33.2209H151.403C151.403 35.1395 153.222 35.4535 154.012 35.4535C154.595 35.4535 155.419 35.3488 156.071 35.0349C156.277 34.8953 156.586 34.7907 156.895 34.7907C157.582 34.7907 158.165 35.3837 158.165 36.1163C158.165 36.6047 157.856 37.0233 157.479 37.2674C156.518 38 155.247 38.1744 154.046 38.1744C150.854 38.1744 148.21 36.4302 148.21 32.3488C148.21 29.1395 149.824 26.3488 153.6 26.3488C156.655 26.3488 158.955 28.3721 159.023 31.9651C159.023 32.6279 158.474 33.2209 157.788 33.2209ZM166.576 38.1395H165.717C163.314 38.1395 161.907 37.0581 161.907 33.2558V29.314H161.083C160.328 29.314 159.676 28.6163 159.676 27.8488C159.676 27.0116 160.362 26.3488 161.083 26.3488H161.907V23.314C161.907 22.407 162.594 21.6744 163.486 21.6744C164.344 21.6744 165.065 22.407 165.065 23.314V26.3488H166.37C167.125 26.3488 167.777 27.0116 167.777 27.8488C167.777 28.6163 167.09 29.314 166.37 29.314H165.065V32.6279C165.065 34.8256 165.168 35.2791 166.129 35.2791H166.576C167.331 35.2791 167.983 35.907 167.983 36.7093C167.983 37.4767 167.331 38.1395 166.576 38.1395ZM181.851 22.8605C182.263 23.1047 182.641 23.6977 182.641 24.2209C182.641 25.0581 181.954 25.7558 181.165 25.7558C180.959 25.7558 180.787 25.686 180.616 25.6512C179.689 24.9535 178.522 24.5 177.286 24.5C174.368 24.5 172.377 26.907 172.377 29.907C172.377 32.907 174.402 35.2791 177.286 35.2791C178.728 35.2791 180.032 34.686 180.993 33.7442C181.233 33.5698 181.542 33.4651 181.851 33.4651C182.641 33.4651 183.259 34.093 183.259 34.8953C183.259 35.4186 182.95 35.8721 182.572 36.1163C181.165 37.3372 179.277 38.1395 177.32 38.1395C172.858 38.1395 169.219 34.407 169.219 29.8023C169.219 25.1977 172.858 21.4651 177.32 21.4651C178.968 21.4302 180.581 21.9535 181.851 22.8605ZM189.85 35.2791C191.257 35.2791 192.459 33.9884 192.459 32.2442C192.459 30.5 191.223 29.3488 189.85 29.3488C188.442 29.3488 187.344 30.5349 187.344 32.2442C187.344 33.9186 188.477 35.2791 189.85 35.2791ZM193.214 36.7442L193.145 36.3605C192.527 37.5814 190.571 38.1395 189.335 38.1395C186.383 38.1395 184.186 35.4186 184.186 32.1744C184.186 28.9651 186.417 26.314 189.506 26.314C190.021 26.314 191.806 26.4535 193.179 28.093L193.248 27.7093C193.248 27.0116 193.763 26.4535 194.45 26.4535C195.136 26.4535 195.685 27.0465 195.685 27.7093V36.7093C195.685 37.407 195.136 37.9651 194.45 37.9651C193.729 38 193.214 37.407 193.214 36.7442ZM204.302 35.2791C205.709 35.2791 206.808 33.9186 206.808 32.2442C206.808 30.5 205.675 29.3488 204.302 29.3488C202.894 29.3488 201.693 30.5 201.693 32.2442C201.693 33.9884 202.894 35.2791 204.302 35.2791ZM201.693 37.1977V41.2791C201.693 42.186 200.972 42.9186 200.114 42.9186C199.255 42.9186 198.535 42.186 198.535 41.2791V27.7442C198.535 27.0465 199.084 26.4884 199.77 26.4884C200.457 26.4884 200.972 27.0814 200.972 27.8837C202.139 26.6628 203.581 26.3488 204.679 26.3488C207.734 26.3488 210 28.9651 210 32.2093C210 35.4186 207.837 38.1744 204.851 38.1744C203.924 38.1395 202.551 37.8605 201.693 37.1977Z" fill="#718096"/>
</svg>
