<svg width="214" height="58" viewBox="0 0 214 58" fill="none" xmlns="http://www.w3.org/2000/svg">
<g clip-path="url(#clip0_1229_15228)">
<path d="M36.7142 12.8267L37.5495 11.7823C37.3078 11.5992 37.0118 11.5 36.7073 11.5C36.4028 11.5 36.1067 11.5992 35.8651 11.7823L36.7142 12.8267ZM51.0805 16.895H52.465C52.4664 16.7209 52.4328 16.5482 52.3663 16.3869C52.2998 16.2256 52.2015 16.079 52.0773 15.9555C51.8172 15.7005 51.4654 15.5578 51.099 15.5587L51.0805 16.895ZM36.7142 45.1723L35.9527 46.2669C36.1812 46.4101 36.446 46.4861 36.7165 46.4861C36.987 46.4861 37.2519 46.4101 37.4803 46.2669L36.7142 45.1723ZM22.3848 16.895V15.5769C22.2038 15.5743 22.0241 15.6081 21.8567 15.6763C21.6892 15.7445 21.5376 15.8457 21.4111 15.9737C21.278 16.0917 21.1723 16.2368 21.1014 16.399C21.0305 16.5612 20.996 16.7366 21.0004 16.9133L22.3848 16.895ZM35.902 13.8849C42.1275 18.5369 49.2391 18.2313 51.099 18.2313V15.5769C49.1515 15.5769 42.9398 15.8187 37.5495 11.7823L35.902 13.8849ZM49.7468 16.8768C49.6406 23.0202 49.3776 27.3667 48.8607 30.5593C48.3438 33.7519 47.6193 35.6356 46.6825 36.9719C45.7456 38.3082 44.4996 39.1839 42.7459 40.2329C40.9923 41.2819 38.7217 42.3446 35.9527 44.1096L37.4803 46.3125C40.1016 44.6205 42.3029 43.5441 44.1627 42.4814C46.0225 41.4187 47.6931 40.201 48.9346 38.4633C50.176 36.7256 51.0113 34.3585 51.542 30.9744C52.0727 27.5902 52.3588 23.1388 52.465 16.9315L49.7468 16.8768ZM37.4803 44.1096C34.7113 42.3446 32.4777 41.2363 30.6917 40.2329C28.9057 39.2295 27.7474 38.3858 26.7875 36.9993C25.8276 35.6128 25.1169 33.7428 24.6185 30.5639C24.1201 27.385 23.8385 23.0202 23.7324 16.8813L21.0004 16.9315C21.1065 23.1206 21.3926 27.6358 21.9233 30.9744C22.4541 34.3129 23.2709 36.6663 24.5308 38.4633C25.7907 40.2603 27.4243 41.3868 29.2842 42.4814C31.144 43.576 33.3268 44.6387 35.9527 46.3125L37.4803 44.1096ZM22.3848 18.2131C24.2308 18.2131 31.3609 18.505 37.568 13.8666L35.8651 11.7823C30.4887 15.8004 24.2816 15.5632 22.3848 15.5632V18.2131Z" fill="#718096"/>
<path d="M79.1028 24.3471H75.2862V34.6455H72.7157V24.3471H68.9453V22.2764H79.0982L79.1028 24.3471ZM85.1714 30.1165H83.1408V34.6455H80.5703V22.2764H85.1853C86.6528 22.2764 87.7789 22.5957 88.5865 23.2525C88.9855 23.587 89.3013 24.0079 89.5093 24.4824C89.7174 24.9569 89.8122 25.4724 89.7864 25.989C89.8108 26.7335 89.6152 27.4689 89.2233 28.1052C88.8062 28.6977 88.2289 29.1623 87.5573 29.4461L90.2525 34.5086V34.6318H87.5112L85.1714 30.1165ZM83.1408 28.0459H85.1945C85.7354 28.0774 86.2682 27.9046 86.6851 27.5625C86.8678 27.385 87.0103 27.1713 87.1034 26.9355C87.1965 26.6997 87.2379 26.447 87.2251 26.1942C87.2363 25.9439 87.1968 25.6939 87.1088 25.4589C87.0208 25.224 86.8862 25.0088 86.7128 24.826C86.51 24.6403 86.2702 24.4985 86.0087 24.4098C85.7473 24.321 85.4699 24.2872 85.1945 24.3106H83.1408V28.0459ZM101.139 22.2764V30.4312C101.173 31.0262 101.077 31.6215 100.858 32.1764C100.638 32.7313 100.299 33.2328 99.8654 33.6466C98.9066 34.473 97.6609 34.8997 96.3903 34.837C95.1372 34.8976 93.9068 34.4907 92.943 33.6968C92.5069 33.2942 92.1649 32.8024 91.941 32.2557C91.717 31.709 91.6164 31.1206 91.6462 30.5316V22.2764H94.2167V30.4312C94.1873 30.7515 94.224 31.0744 94.3248 31.3801C94.4255 31.6859 94.5882 31.9683 94.8028 32.21C95.2462 32.5985 95.8261 32.7999 96.418 32.771C97.861 32.771 98.5947 32.0108 98.6193 30.4905V22.281L101.139 22.2764ZM109.704 31.3981C109.719 31.1874 109.679 30.9764 109.589 30.785C109.498 30.5936 109.36 30.4279 109.188 30.3035C108.62 29.9325 107.997 29.6524 107.342 29.4735C106.618 29.2446 105.915 28.9594 105.237 28.6206C103.843 27.8726 103.147 26.854 103.147 25.5648C103.143 24.9285 103.339 24.3067 103.71 23.7861C104.129 23.2283 104.698 22.7984 105.353 22.5455C106.112 22.238 106.927 22.0829 107.748 22.0894C108.567 22.0778 109.378 22.2444 110.124 22.5775C110.781 22.8755 111.341 23.3495 111.74 23.9457C112.132 24.5371 112.337 25.2314 112.326 25.9388H109.755C109.77 25.6939 109.729 25.4489 109.636 25.2217C109.542 24.9944 109.399 24.7906 109.215 24.6253C108.79 24.2817 108.25 24.1076 107.702 24.1373C107.182 24.1004 106.664 24.2387 106.234 24.5295C106.069 24.6494 105.936 24.8071 105.846 24.989C105.756 25.1708 105.712 25.3715 105.717 25.5739C105.721 25.7821 105.78 25.9857 105.888 26.1648C105.995 26.3438 106.148 26.4923 106.331 26.5956C106.891 26.9388 107.501 27.1942 108.14 27.3527C109.607 27.8088 110.66 28.3241 111.32 28.9855C111.645 29.2978 111.902 29.6726 112.075 30.0867C112.248 30.5008 112.333 30.9456 112.326 31.3936C112.344 31.8818 112.243 32.3672 112.03 32.8081C111.817 33.249 111.499 33.6322 111.103 33.9249C110.14 34.5769 108.987 34.8975 107.822 34.837C106.923 34.8494 106.031 34.6754 105.205 34.3262C104.474 34.0298 103.846 33.5309 103.396 32.8895C102.976 32.2634 102.761 31.5243 102.782 30.7733H105.353C105.353 32.1416 106.183 32.8166 107.822 32.8166C108.322 32.8469 108.82 32.7192 109.243 32.4517C109.397 32.3246 109.519 32.1644 109.601 31.9834C109.682 31.8024 109.721 31.6053 109.714 31.4073L109.704 31.3981ZM123.383 24.3379H119.562V34.6455H116.991V24.3471H113.221V22.2764H123.351L123.383 24.3379Z" fill="#718096"/>
<path d="M131.431 31.4171L131.814 33.4011L132.276 31.5129L135.045 22.1403H136.009L138.741 31.5129L139.244 33.392L139.66 31.408L141.967 22.1312H143.061L139.789 34.8377H138.76L135.866 24.8905L135.543 23.6454L135.225 24.8905L132.266 34.8377H131.237L128.007 22.1403H129.101L131.431 31.4171ZM151.686 31.2575H145.899L144.579 34.8058H143.425L148.243 22.1084H149.296L154.1 34.8058H152.987L151.686 31.2575ZM146.222 30.3453H151.331L148.76 23.4356L146.222 30.3453ZM157.086 33.8936H163.39V34.8058H156.006V22.1084H157.095L157.086 33.8936ZM166.574 33.8936H172.878V34.8058H165.494V22.1084H166.588L166.574 33.8936ZM182.006 28.7125H176.007V33.9119H182.888V34.8241H174.931V22.1084H182.841V23.0206H176.025V27.8368H182.025L182.006 28.7125ZM194.005 23.0206H189.63V34.8058H188.522V23.0388H184.148V22.1266H193.968L194.005 23.0206Z" fill="#718096"/>
</g>
<defs>
<clipPath id="clip0_1229_15228">
<rect width="173" height="35" fill="white" transform="translate(21 11.5)"/>
</clipPath>
</defs>
</svg>
