<svg width="214" height="58" viewBox="0 0 214 58" fill="none" xmlns="http://www.w3.org/2000/svg">
<path d="M82.4277 32.2313V32.1832C82.4277 29.9193 81.2514 28.7874 79.3458 28.0408C80.5221 27.3665 81.5102 26.3068 81.5102 24.4043V24.356C81.5102 21.707 79.4399 19.9971 76.0757 19.9971H68.4297V36.8553H76.2639C79.981 36.8553 82.4277 35.3139 82.4277 32.2313ZM77.9107 25.0304C77.9107 26.2827 76.8991 26.8126 75.2993 26.8126H71.9586V23.2483H75.5346C77.0638 23.2483 77.9107 23.8744 77.9107 24.9823V25.0304ZM78.8282 31.7737C78.8282 33.026 77.8637 33.604 76.2639 33.604H71.9586V29.8953H76.1463C78.0048 29.8953 78.8282 30.5936 78.8282 31.7255V31.7737Z" fill="#718096"/>
<path d="M100.042 36.8553V19.9971H96.4655V30.3769L88.749 19.9971H85.4082V36.8553H88.9842V26.1383L96.9596 36.8553H100.042Z" fill="#718096"/>
<path d="M117.992 32.2313V32.1832C117.992 29.9193 116.816 28.7874 114.91 28.0408C116.087 27.3665 117.075 26.3068 117.075 24.4043V24.356C117.075 21.707 115.004 19.9971 111.64 19.9971H103.994V36.8553H111.828C115.545 36.8553 117.992 35.3139 117.992 32.2313ZM113.475 25.0304C113.475 26.2827 112.464 26.8126 110.864 26.8126H107.523V23.2483H111.099C112.628 23.2483 113.475 23.8744 113.475 24.9823V25.0304ZM114.393 31.7737C114.393 33.026 113.428 33.604 111.828 33.604H107.523V29.8953H111.711C113.569 29.8953 114.393 30.5936 114.393 31.7255V31.7737Z" fill="#718096"/>
<path d="M138.568 33.6667L136.708 31.7542C135.295 33.093 134 33.9297 131.975 33.9297C128.82 33.9297 126.536 31.2522 126.536 27.9531C126.536 24.6543 128.82 22.0245 131.975 22.0245C133.859 22.0245 135.271 22.8613 136.59 24.1043L138.45 21.9289C136.873 20.399 135.036 19.3232 131.999 19.3232C127.007 19.3232 123.499 23.2199 123.499 28.0011C123.499 32.83 127.078 36.631 131.881 36.631C134.965 36.631 136.849 35.4836 138.568 33.6667Z" fill="#718096"/>
<path d="M152.372 29.2912V36.3435H155.268V19.6094H152.372V26.566H144.508V19.6094H141.612V36.3435H144.508V29.2912H152.372Z" fill="#718096"/>
<path d="M168.024 19.4902H165.34L158.088 36.3439H161.054L162.75 32.3039H170.543L172.215 36.3439H175.275L168.024 19.4902ZM169.483 29.6981H163.809L166.635 23.0044L169.483 29.6981Z" fill="#718096"/>
<path d="M178.267 19.6094V36.3435H181.163V19.6094H178.267Z" fill="#718096"/>
<path d="M197.087 31.1798L188.258 19.6094H185.574V36.3435H188.423V24.4384L197.511 36.3435H199.936V19.6094H197.087V31.1798Z" fill="#718096"/>
<path d="M30.5311 17.2066L39.3292 12L48.1272 17.2066L44.8926 19.1301L39.3292 15.8469L33.7657 19.1301L30.5311 17.2066ZM48.1272 23.7729L44.8926 21.8495L39.3292 25.1326L33.7657 21.8495L30.5311 23.7729V27.6198L36.0946 30.903V37.4693L39.3292 39.3928L42.5637 37.4693V30.903L48.1272 27.6198V23.7729ZM48.1272 34.1862V30.3392L44.8926 32.2627V36.1096L48.1272 34.1862ZM50.4237 35.5459L44.8603 38.8291V42.676L53.6583 37.4693V27.056L50.4237 28.9795V35.5459ZM47.1891 20.4898L50.4237 22.4132V26.2602L53.6583 24.3367V20.4898L50.4237 18.5663L47.1891 20.4898ZM36.0946 40.2219V44.0688L39.3292 45.9923L42.5637 44.0688V40.2219L39.3292 42.1454L36.0946 40.2219ZM30.5311 34.1862L33.7657 36.1096V32.2627L30.5311 30.3392V34.1862ZM36.0946 20.4898L39.3292 22.4132L42.5637 20.4898L39.3292 18.5663L36.0946 20.4898ZM28.2346 22.4132L31.4692 20.4898L28.2346 18.5663L25 20.4898V24.3367L28.2346 26.2602V22.4132ZM28.2346 28.9795L25 27.056V37.4693L33.798 42.676V38.8291L28.2346 35.5459V28.9795Z" fill="#718096"/>
</svg>
