<svg width="214" height="58" viewBox="0 0 214 58" fill="none" xmlns="http://www.w3.org/2000/svg">
<g clip-path="url(#clip0_1229_15235)">
<path d="M33.677 24.0023H43.6677V14.7901C43.665 14.581 43.5805 14.3813 43.4323 14.234C43.2841 14.0866 43.0841 14.0033 42.8752 14.002H33.6719L33.677 24.0023Z" fill="#718096"/>
<path d="M33.6872 14.002H23.6914V24.0023H33.6872V14.002Z" fill="#4A5568"/>
<path d="M13.8179 24.0025H23.5683C23.5833 24.0032 23.5982 24.0008 23.6122 23.9954C23.6262 23.99 23.6389 23.9817 23.6495 23.9711C23.66 23.9605 23.6683 23.9478 23.6737 23.9338C23.6791 23.9198 23.6815 23.9048 23.6808 23.8899V14.1198C23.6823 14.1044 23.6804 14.0889 23.6754 14.0743C23.6703 14.0597 23.6622 14.0463 23.6515 14.0351C23.6408 14.024 23.6279 14.0152 23.6135 14.0095C23.5991 14.0038 23.5837 14.0013 23.5683 14.0021H14.5593C14.3319 14.0034 14.1142 14.0945 13.9534 14.2554C13.7926 14.4164 13.7016 14.6343 13.7003 14.8619V23.8796C13.6996 23.8955 13.7021 23.9114 13.7077 23.9262C13.7133 23.9411 13.7219 23.9547 13.7329 23.9662C13.7439 23.9777 13.7571 23.9868 13.7717 23.993C13.7863 23.9993 13.802 24.0025 13.8179 24.0025Z" fill="#171923"/>
<path d="M43.6674 24.0029H33.6768V34.0084H43.6674V24.0029Z" fill="#2D3748"/>
<path d="M33.6872 24.0029H23.6914V34.0084H33.6872V24.0029Z" fill="#718096"/>
<path d="M23.6909 24.0029H13.7002V34.0084H23.6909V24.0029Z" fill="#4A5568"/>
<path d="M33.6768 43.9984H42.8443C43.061 43.9932 43.2673 43.9047 43.4206 43.7513C43.5739 43.5979 43.6623 43.3913 43.6674 43.1744V33.998H33.6768V43.9984Z" fill="#1A202C"/>
<path d="M33.6872 33.998H23.6914V43.9984H33.6872V33.998Z" fill="#4A5568"/>
<path d="M14.5032 43.9984H23.7065V33.998H13.7005V43.1744C13.6977 43.2816 13.7165 43.3883 13.7556 43.4882C13.7947 43.5881 13.8534 43.6791 13.9282 43.7559C14.003 43.8327 14.0924 43.8937 14.1912 43.9353C14.2899 43.977 14.396 43.9984 14.5032 43.9984Z" fill="#718096"/>
<path d="M67.4579 20.2978C68.0082 20.7007 68.4519 21.2321 68.7504 21.8458C69.0489 22.4594 69.1932 23.1367 69.1707 23.8189C69.2053 24.7784 68.9232 25.7227 68.368 26.5058C67.7334 27.2943 66.8793 27.8768 65.9138 28.1793V28.2305C66.9893 28.4004 67.9783 28.9223 68.7259 29.7147C69.3624 30.5335 69.682 31.5549 69.6258 32.5909C69.6532 33.3129 69.5062 34.0309 69.1973 34.684C68.8885 35.337 68.4269 35.9059 67.8516 36.3423C66.6654 37.2635 65.0395 37.719 62.9585 37.719H55.6572V19.0029H62.3705C64.6202 19.0029 66.3228 19.4328 67.4579 20.2978ZM59.5073 26.7053H62.2376C63.092 26.7729 63.947 26.5821 64.6918 26.1577C64.9556 25.9505 65.1645 25.6816 65.3 25.3746C65.4355 25.0676 65.4935 24.7319 65.469 24.3972C65.4959 24.0779 65.4447 23.7568 65.32 23.4617C65.1953 23.1666 65.0008 22.9062 64.7532 22.7032C64.0504 22.2976 63.2398 22.1188 62.4319 22.1914H59.5226V26.7309L59.5073 26.7053ZM59.5073 34.5306H62.3705C63.2595 34.6001 64.1492 34.4042 64.927 33.9676C65.1963 33.7624 65.4096 33.4926 65.5472 33.1831C65.6848 32.8737 65.7423 32.5344 65.7144 32.1968C65.7478 31.8423 65.6917 31.4851 65.5515 31.1579C65.4113 30.8306 65.1913 30.5438 64.9117 30.3237C64.3748 29.945 63.5005 29.7505 62.2785 29.7505H59.5226V34.5306H59.5073Z" fill="#718096"/>
<path d="M72.3408 22.1555V19.0029H76.017V22.1555H72.3408ZM72.3408 37.719V24.3716H76.017V37.719H72.3408Z" fill="#718096"/>
<path d="M86.5245 34.832V37.6469C85.8958 37.8328 85.2422 37.9208 84.5867 37.9079C83.0528 37.9079 81.928 37.5752 81.2224 36.8843C80.5168 36.1934 80.1691 35.1186 80.1691 33.5833V27.1142H78.0166V24.3813H80.1691V20.9062H83.8454V24.3813H86.4018V27.1142H83.8454V32.9384C83.7982 33.4946 83.9367 34.0508 84.239 34.5198C84.4147 34.6926 84.6263 34.8244 84.8588 34.9058C85.0912 34.9872 85.3388 35.0162 85.5837 34.9907C85.9029 34.9789 86.2191 34.9255 86.5245 34.832Z" fill="#718096"/>
<path d="M97.5889 24.6217C98.48 25.0508 99.2394 25.7119 99.7874 26.5358C100.348 27.3759 100.679 28.348 100.749 29.3558H96.9191C96.8909 28.6592 96.6132 27.9961 96.1368 27.4877C95.9134 27.2588 95.6448 27.0792 95.3481 26.9602C95.0514 26.8412 94.7331 26.7856 94.4137 26.7968C93.9957 26.7861 93.5822 26.886 93.215 27.0864C92.8479 27.2868 92.54 27.5806 92.3225 27.9381C91.7675 28.8776 91.5007 29.9597 91.5556 31.0498C91.4951 32.142 91.7622 33.2274 92.3225 34.1666C92.5392 34.5248 92.8469 34.8192 93.2143 35.0196C93.5816 35.2201 93.9955 35.3196 94.4137 35.3079C94.7387 35.315 95.0614 35.2509 95.359 35.1201C95.6567 34.9892 95.9221 34.7948 96.1368 34.5504C96.6094 33.9712 96.8757 33.2509 96.8935 32.5033H100.749C100.672 34.0672 99.9831 35.5381 98.8313 36.5976C97.62 37.6505 96.0523 38.1998 94.4495 38.1329C93.2102 38.1518 91.988 37.8428 90.9062 37.2373C89.8995 36.6582 89.0838 35.7972 88.5594 34.7602C87.991 33.6003 87.7087 32.3209 87.7362 31.0293C87.71 29.7411 87.9922 28.4653 88.5594 27.3086C89.0861 26.2719 89.9011 25.4099 90.9062 24.8264C91.9886 24.2246 93.2117 23.9225 94.4495 23.9513C95.5346 23.9188 96.6115 24.1488 97.5889 24.6217Z" fill="#718096"/>
<path d="M113.091 24.8114C114.114 25.3909 114.942 26.2597 115.474 27.3089C116.055 28.4754 116.342 29.7672 116.307 31.0706C116.34 32.3737 116.054 33.6651 115.474 34.8322C114.938 35.8704 114.11 36.7282 113.091 37.299C111.97 37.8678 110.731 38.1642 109.474 38.1642C108.217 38.1642 106.977 37.8678 105.856 37.299C104.838 36.7296 104.011 35.8713 103.479 34.8322C102.9 33.656 102.621 32.3551 102.666 31.045C102.63 29.7521 102.909 28.4699 103.479 27.3089C104.011 26.2685 104.838 25.4085 105.856 24.837C106.969 24.243 108.216 23.9468 109.476 23.9772C110.733 23.9325 111.98 24.2202 113.091 24.8114ZM107.308 27.9384C106.727 28.8662 106.446 29.9514 106.506 31.045C106.447 32.137 106.727 33.2205 107.308 34.1464C107.541 34.5089 107.862 34.8059 108.241 35.0092C108.621 35.2125 109.046 35.3154 109.476 35.3082C109.906 35.317 110.331 35.2147 110.71 35.0112C111.089 34.8077 111.409 34.5099 111.639 34.1464C112.22 33.2205 112.501 32.137 112.442 31.045C112.499 29.9516 112.218 28.867 111.639 27.9384C111.401 27.5816 111.079 27.2891 110.702 27.0867C110.324 26.8844 109.902 26.7785 109.474 26.7785C109.045 26.7785 108.623 26.8844 108.246 27.0867C107.868 27.2891 107.546 27.5816 107.308 27.9384Z" fill="#718096"/>
<path d="M119.027 22.1555V19.0029H122.704V22.1555H119.027ZM119.027 37.719V24.3716H122.704V37.719H119.027Z" fill="#718096"/>
<path d="M137.255 25.4609C138.129 26.3924 138.574 27.7486 138.574 29.5194V37.7081H134.877V29.8674C134.938 29.0813 134.717 28.2993 134.253 27.6616C134.042 27.4147 133.777 27.2201 133.478 27.0931C133.179 26.9661 132.855 26.9102 132.53 26.9298C132.161 26.9205 131.796 27.0009 131.464 27.164C131.133 27.3271 130.846 27.5681 130.628 27.8664C130.1 28.6601 129.848 29.6066 129.913 30.5584V37.7234H126.236V24.3708H129.672V26.0444H129.764C130.211 25.4418 130.783 24.944 131.441 24.5858C132.386 24.1094 133.454 23.9378 134.5 24.0945C135.545 24.2513 136.517 24.7286 137.28 25.4609H137.255Z" fill="#718096"/>
<path d="M141.591 37.7181V33.332H145.615V37.7181H141.591Z" fill="#718096"/>
<path d="M157.773 24.6215C158.665 25.0519 159.426 25.7127 159.977 26.5356C160.545 27.373 160.882 28.3458 160.954 29.3555H157.124C157.105 28.6515 156.83 27.9784 156.352 27.4619C156.123 27.2346 155.849 27.0579 155.548 26.9433C155.247 26.8287 154.925 26.7787 154.603 26.7966C154.184 26.785 153.77 26.8845 153.402 27.0849C153.034 27.2853 152.725 27.5796 152.507 27.9379C151.956 28.8788 151.689 29.9599 151.74 31.0496C151.68 32.1418 151.947 33.2272 152.507 34.1663C152.724 34.5254 153.033 34.8202 153.401 35.0207C153.769 35.2213 154.184 35.3203 154.603 35.3076C154.934 35.316 155.263 35.2506 155.565 35.116C155.868 34.9815 156.136 34.7812 156.352 34.5297C156.825 33.9511 157.09 33.23 157.104 32.4826H160.954C160.877 34.0454 160.19 35.5155 159.041 36.5769C157.83 37.6293 156.262 38.1786 154.66 38.1122C153.422 38.1378 152.2 37.8359 151.116 37.2371C150.11 36.658 149.294 35.797 148.769 34.76C148.197 33.6014 147.913 32.3214 147.941 31.0291C147.908 29.7419 148.185 28.4656 148.749 27.3084C149.275 26.2726 150.09 25.412 151.096 24.8313C152.178 24.2295 153.401 23.9274 154.639 23.9562C155.722 23.9237 156.797 24.1519 157.773 24.6215Z" fill="#718096"/>
<path d="M173.266 24.8116C174.29 25.3897 175.119 26.2589 175.648 27.3091C176.232 28.4752 176.52 29.7671 176.487 31.0708C176.518 32.3744 176.23 33.6658 175.648 34.8324C175.115 35.8719 174.286 36.7301 173.266 37.2993C172.146 37.868 170.907 38.1644 169.651 38.1644C168.395 38.1644 167.156 37.868 166.036 37.2993C165.015 36.7314 164.186 35.8728 163.653 34.8324C163.07 33.6662 162.783 32.3745 162.815 31.0708C162.783 29.7672 163.071 28.4756 163.653 27.3091C164.186 26.2673 165.015 25.407 166.036 24.8372C167.143 24.2347 168.386 23.9296 169.646 23.9518C170.907 23.9118 172.157 24.2086 173.266 24.8116ZM167.493 27.9386C166.914 28.8674 166.634 29.9518 166.691 31.0452C166.634 32.137 166.914 33.2198 167.493 34.1466C167.731 34.5045 168.053 34.798 168.431 35.0011C168.809 35.2041 169.232 35.3104 169.661 35.3104C170.09 35.3104 170.513 35.2041 170.891 35.0011C171.269 34.798 171.592 34.5045 171.829 34.1466C172.408 33.2198 172.688 32.137 172.632 31.0452C172.686 29.952 172.406 28.8683 171.829 27.9386C171.592 27.5808 171.269 27.2872 170.891 27.0842C170.513 26.8811 170.09 26.7749 169.661 26.7749C169.232 26.7749 168.809 26.8811 168.431 27.0842C168.053 27.2872 167.731 27.5808 167.493 27.9386Z" fill="#718096"/>
<path d="M198.053 25.4358C198.881 26.3724 199.3 27.7235 199.3 29.5301V37.7187H195.624V29.8679C195.682 29.0923 195.488 28.3187 195.072 27.6621C194.895 27.4241 194.663 27.2329 194.396 27.1054C194.128 26.9778 193.834 26.9177 193.538 26.9302C193.172 26.9198 192.811 27.0097 192.493 27.1901C192.175 27.3705 191.912 27.6346 191.733 27.9538C191.261 28.8431 191.041 29.845 191.099 30.8505V37.7187H187.423V29.6529C187.465 28.9453 187.276 28.2431 186.886 27.6518C186.7 27.4163 186.461 27.2291 186.188 27.1062C185.914 26.9832 185.615 26.9281 185.316 26.9456C184.95 26.9348 184.588 27.0244 184.269 27.2048C183.95 27.3853 183.686 27.6496 183.506 27.9691C183.034 28.8584 182.815 29.8604 182.872 30.8659V37.7187H179.201V24.3713H182.673V25.9066H182.719C183.148 25.3257 183.704 24.8512 184.345 24.5197C184.982 24.2133 185.683 24.0608 186.39 24.0744C187.229 24.0539 188.058 24.2514 188.798 24.6476C189.482 25.0481 190.029 25.6456 190.368 26.3621C190.832 25.6679 191.437 25.0787 192.142 24.6323C192.901 24.2278 193.752 24.0301 194.612 24.0591C195.251 24.0194 195.892 24.1223 196.487 24.3604C197.082 24.5985 197.617 24.9658 198.053 25.4358Z" fill="#718096"/>
</g>
<defs>
<clipPath id="clip0_1229_15235">
<rect width="185.6" height="29.9959" fill="white" transform="translate(13.7002 14.002)"/>
</clipPath>
</defs>
</svg>
