<svg width="214" height="58" viewBox="0 0 214 58" fill="none" xmlns="http://www.w3.org/2000/svg">
<g clip-path="url(#clip0_1229_15189)">
<path d="M38.6905 8.00023C50.1891 8.00023 59.4346 17.3765 59.4346 29.0537C59.4457 34.597 57.249 39.9178 53.3275 43.8458C49.4061 47.7739 44.0811 49.9876 38.5236 50.0002C27.3706 49.8932 18 40.5704 18 29.0002C18 17.43 27.2097 7.94671 38.6905 8.00023ZM22.9297 39.9699C22.9454 40.1534 23.0207 40.3267 23.1443 40.4634C23.949 41.6339 24.8961 42.7004 25.9638 43.6384C26.4426 44.0905 26.9482 44.5134 27.4779 44.9048C28.9792 45.9369 30.6005 46.7835 32.3063 47.4258C33.7055 47.9322 35.1571 48.2811 36.6339 48.4663C37.7863 48.603 38.9509 48.603 40.1032 48.4663C40.7844 48.4211 41.4572 48.2912 42.1061 48.0798C42.2134 48.1393 42.267 48.0263 42.3207 48.0263C43.6836 47.7917 45.0127 47.3924 46.2788 46.8372C50.4279 45.0612 53.7939 41.8495 55.7567 37.7938C57.5743 34.2067 58.2185 30.1415 57.5986 26.1701C57.0902 22.3793 55.4254 18.8361 52.8298 16.0209C51.2004 14.0986 49.1888 12.5343 46.9223 11.427C44.6558 10.3197 42.1837 9.6934 39.6621 9.58771C37.3295 9.43367 34.9897 9.75118 32.7832 10.5212C29.2137 11.6935 26.0689 13.8874 23.7404 16.8295C21.0565 20.1853 19.5527 24.3279 19.4604 28.6197C19.4243 29.7025 19.4982 30.7862 19.681 31.8541C20.0038 34.3099 20.8144 36.6769 22.0654 38.8165C22.3873 39.1435 22.6019 39.5835 22.9297 39.9699Z" fill="#718096"/>
<path d="M42.1001 48.0264C41.4655 48.2887 40.7842 48.4202 40.0972 48.4129C38.9449 48.5497 37.7803 48.5497 36.628 48.4129C35.1531 48.2274 33.7036 47.8784 32.3063 47.3724C30.601 46.7339 28.9797 45.8913 27.4779 44.8634C26.9481 44.472 26.4425 44.049 25.9638 43.5969C24.896 42.6589 23.949 41.5924 23.1443 40.422C23.0299 40.2795 22.9558 40.1091 22.9297 39.9285C24.1253 36.9737 24.8203 33.8413 24.9862 30.6592C25.0485 29.1719 25.1938 27.6891 25.4214 26.2178C25.6577 24.5273 26.3945 22.9457 27.5375 21.6754C28.6281 20.5631 29.9626 19.7185 31.436 19.2079C32.6305 18.656 33.9145 18.3217 35.2271 18.221C36.4502 18.1734 37.6739 18.2954 38.8633 18.5836C40.6727 18.9893 42.4333 19.5873 44.1149 20.3673C45.4681 20.9203 46.8808 21.4673 48.2876 21.9072C49.7787 22.274 51.192 22.9043 52.4602 23.7682C53.1998 24.2547 53.7389 24.9907 53.9787 25.8413C54.2184 26.692 54.1428 27.6003 53.7657 28.3999C53.2767 29.495 52.5758 30.483 51.7032 31.3073C50.2428 32.8413 48.6691 34.2801 47.2623 35.8557C45.6032 37.7155 44.2183 39.8016 43.1492 42.0511C42.2147 43.8955 41.8496 45.975 42.1001 48.0264ZM52.5735 29.9993C52.543 29.9955 52.5119 29.9989 52.483 30.0092C52.454 30.0195 52.4278 30.0365 52.4066 30.0587C52.3786 30.0602 52.3521 30.0719 52.3323 30.0917C52.3125 30.1114 52.3007 30.1378 52.2993 30.1657V30.2193C52.3273 30.2178 52.3538 30.2061 52.3736 30.1863C52.3934 30.1665 52.4052 30.1401 52.4066 30.1122L52.5735 29.9993ZM35.9961 20.4862C35.023 20.5173 34.0997 20.923 33.4198 21.6182C32.74 22.3134 32.3564 23.2441 32.3494 24.2152C32.3425 25.1863 32.7128 26.1224 33.3826 26.8271C34.0525 27.5319 34.9699 27.9507 35.9424 27.9956C36.9376 27.9785 37.8864 27.5729 38.5852 26.8659C39.2839 26.159 39.677 25.2069 39.68 24.2142C39.6928 23.7225 39.6063 23.2332 39.4257 22.7755C39.2451 22.3178 38.9741 21.901 38.6287 21.5499C38.2834 21.1988 37.8708 20.9205 37.4154 20.7317C36.9601 20.5428 36.4713 20.4472 35.9782 20.4506L35.9961 20.4862ZM39.0123 31.9613C39.4148 32.5171 39.9917 32.923 40.6516 33.1148C42.0122 33.5691 43.4713 33.6452 44.872 33.3348C47.3476 32.8775 49.7055 31.9271 51.8045 30.5403C51.9178 30.4273 52.1324 30.4273 52.186 30.2074C52.0787 30.1538 52.0251 30.2074 51.9714 30.2609C51.2592 30.683 50.5159 31.0507 49.748 31.3608C47.7919 32.21 45.7018 32.7111 43.5725 32.8413C41.997 33.0491 40.3965 32.7402 39.0123 31.9613ZM49.2473 28.7269C49.4713 28.7176 49.6826 28.6207 49.8355 28.4571C49.9883 28.2935 50.0704 28.0764 50.0639 27.8529C50.0639 27.7434 50.0406 27.6351 49.9954 27.5352C49.9503 27.4354 49.8844 27.3463 49.8021 27.2737C49.7198 27.2012 49.623 27.147 49.5181 27.1146C49.4132 27.0822 49.3026 27.0724 49.1936 27.0859C48.9844 27.0952 48.7873 27.1867 48.6455 27.3404C48.5036 27.4941 48.4285 27.6976 48.4366 27.9064C48.4298 28.0149 48.446 28.1236 48.4841 28.2255C48.5223 28.3273 48.5816 28.42 48.6581 28.4974C48.7346 28.5748 48.8266 28.6353 48.9281 28.6748C49.0297 28.7144 49.1384 28.7321 49.2473 28.7269Z" fill="#718096"/>
<path d="M38.7977 18.584C37.6064 18.3175 36.3884 18.1879 35.1675 18.1975C33.8565 18.3079 32.5742 18.6417 31.3763 19.1845C29.9028 19.7064 28.5691 20.5587 27.4779 21.6757C26.3176 22.9386 25.5802 24.5303 25.3677 26.2301C25.1471 27.7106 25.0935 29.2029 24.9325 30.6715C24.6643 33.8524 24.1755 37.0333 22.876 39.9348C22.5392 39.5866 22.2632 39.1847 22.0594 38.7457C20.8084 36.6039 19.9978 34.2351 19.675 31.7774C19.4917 30.7095 19.4178 29.6258 19.4544 28.5429C19.5405 24.2382 21.0469 20.0817 23.7403 16.7171C26.0588 13.7656 29.2073 11.5713 32.7831 10.4147C35.0018 9.69648 37.3316 9.38034 39.662 9.48122C42.171 9.60981 44.6285 10.2391 46.8893 11.3319C49.15 12.4246 51.168 13.9586 52.8238 15.8431C55.4368 18.764 57.1123 22.3989 57.634 26.2789C58.1557 30.1588 57.4997 34.1056 55.7507 37.61C53.7841 41.6616 50.4191 44.8702 46.2727 46.6474C45.0112 47.2147 43.6805 47.6145 42.3147 47.8365C42.2074 47.8365 42.1537 47.9971 42.1001 47.8901C41.8567 45.8559 42.1956 43.7945 43.0777 41.9444C44.1494 39.6922 45.5406 37.6057 47.2086 35.7491C48.5439 34.1616 50.1176 32.6752 51.6316 31.1888C52.5221 30.3813 53.2241 29.3888 53.6882 28.2813C54.4512 26.4223 54.018 24.8884 52.3887 23.6794C51.1193 22.8161 49.7066 22.184 48.216 21.8125C46.8092 21.3725 45.3965 20.8255 44.0433 20.2785C43.9192 19.8461 43.6915 19.4503 43.38 19.1251C43.0685 18.7999 42.6824 18.555 42.2551 18.4116C41.107 18.1709 39.916 18.2303 38.7977 18.584ZM56.5077 30.2612H56.615C56.7924 29.4815 56.8645 28.6817 56.8296 27.883C56.8201 26.9436 56.7304 26.0068 56.5613 25.0826C55.9967 22.1076 54.5878 19.3568 52.5019 17.157C51.1697 15.8307 49.7584 14.5858 48.2756 13.4291C47.028 12.3225 45.547 11.5097 43.942 11.0509C42.4132 10.6112 40.8086 10.4977 39.2329 10.7179C39.1196 10.7179 39.0123 10.7179 39.0123 10.8309C39.0123 10.9438 39.1196 10.9379 39.2329 10.9379C41.5875 11.4159 43.8895 12.1228 46.1058 13.0486C48.2704 13.8438 50.1415 15.2766 51.4707 17.157C52.4154 18.5335 53.2486 19.9829 53.9624 21.4914C54.8813 23.5483 55.5709 25.6997 56.0189 27.9068C56.2225 28.6826 56.3857 29.4685 56.5077 30.2612Z" fill="#E2E8F0"/>
<path d="M35.9788 20.4502C36.4662 20.4533 36.9482 20.5522 37.3972 20.7413C37.8463 20.9305 38.2535 21.206 38.5957 21.5523C38.9378 21.8985 39.2082 22.3087 39.3913 22.7592C39.5744 23.2098 39.6666 23.692 39.6626 24.1781C39.6597 25.1709 39.2666 26.1229 38.5679 26.8299C37.8691 27.5369 36.9203 27.9424 35.9251 27.9595C34.9525 27.9146 34.0351 27.4959 33.3653 26.7911C32.6955 26.0863 32.3252 25.1502 32.3321 24.1791C32.3391 23.208 32.7227 22.2773 33.4025 21.5821C34.0824 20.8869 35.0056 20.4813 35.9788 20.4502ZM38.5837 24.2316C38.5766 23.7216 38.4191 23.225 38.1309 22.8036C37.8428 22.3823 37.4366 22.0549 36.9632 21.8622C36.4897 21.6695 35.9698 21.62 35.4684 21.72C34.9669 21.82 34.5061 22.065 34.1433 22.4244C33.7805 22.7839 33.5318 23.2419 33.4281 23.7413C33.3245 24.2408 33.3706 24.7597 33.5606 25.2332C33.7506 25.7067 34.0761 26.114 34.4966 26.4043C34.917 26.6946 35.4139 26.855 35.9251 26.8655H35.9788C36.671 26.8501 37.33 26.5666 37.8162 26.0749C38.3024 25.5833 38.5777 24.9222 38.5837 24.2316Z" fill="#FCFDFB"/>
<path d="M39.0124 31.961C40.4192 32.8409 41.9929 32.948 43.5607 32.8944C45.6946 32.7957 47.7903 32.2933 49.7362 31.414C50.509 31.1042 51.2581 30.7386 51.9775 30.32C52.0312 30.2605 52.0848 30.207 52.1921 30.2605C52.1385 30.427 51.9775 30.4805 51.8106 30.5935C49.7129 31.9827 47.3545 32.9334 44.878 33.3879C43.4755 33.701 42.0139 33.6249 40.6517 33.1679C39.9891 32.9525 39.414 32.5291 39.0124 31.961ZM38.7979 18.5833C39.9205 18.2014 41.1385 18.2014 42.2612 18.5833C42.6891 18.7258 43.0756 18.9704 43.3872 19.2957C43.6989 19.6211 43.9262 20.0174 44.0495 20.4502C42.3887 19.6006 40.623 18.9729 38.7979 18.5833Z" fill="#2D3748"/>
<path d="M39.0127 31.9608C40.4195 32.8407 41.9932 32.9477 43.5609 32.8942C45.6949 32.7955 47.7906 32.2931 49.7365 31.4138C50.5093 31.104 51.2584 30.7384 51.9778 30.3198C52.0314 30.2603 52.0851 30.2068 52.1924 30.2603C52.1387 30.4268 51.9778 30.4803 51.8109 30.5933C49.7118 31.98 47.354 32.9305 44.8783 33.3877C43.4758 33.7007 42.0142 33.6246 40.652 33.1677C39.9893 32.9523 39.4143 32.5289 39.0127 31.9608Z" fill="#2D3748"/>
<path d="M49.2478 28.7269C49.0332 28.7194 48.8295 28.6302 48.6788 28.4776C48.528 28.325 48.4416 28.1206 48.4371 27.9064C48.429 27.6977 48.5041 27.4942 48.646 27.3404C48.7878 27.1867 48.9849 27.0952 49.1942 27.0859C49.4077 27.0871 49.6136 27.1654 49.7737 27.3065C49.9337 27.4475 50.037 27.6417 50.0645 27.8529C50.0622 28.074 49.9772 28.2862 49.8261 28.4479C49.675 28.6096 49.4687 28.7091 49.2478 28.7269Z" fill="#FCFDFB"/>
<path d="M52.3885 30.1003C52.3871 30.1282 52.3753 30.1546 52.3555 30.1744C52.3357 30.1942 52.3092 30.2059 52.2812 30.2073C52.2812 30.1003 52.3349 30.0409 52.3885 30.1003ZM52.5733 29.9993L52.4064 30.1122L52.3528 30.0528C52.42 30.0152 52.4963 29.9967 52.5733 29.9993Z" fill="#A9ACBF"/>
<path d="M56.5083 30.2612C56.3473 29.4942 56.1804 28.7808 56.0731 28.0138C55.6189 25.8083 54.9295 23.6576 54.0166 21.5984C53.3479 20.0688 52.5123 18.6172 51.5249 17.27C50.2059 15.3785 48.3316 13.9412 46.16 13.1556C43.9473 12.2213 41.6414 11.5238 39.2811 11.0747C39.1678 11.0747 39.0605 11.0747 39.0605 10.9617C39.0605 10.8487 39.1678 10.8547 39.2811 10.8547C40.8554 10.6073 42.4655 10.7191 43.9903 11.1817C45.5856 11.6635 47.0619 12.4737 48.3239 13.5599C49.8171 14.7066 51.2366 15.9457 52.574 17.27C54.6559 19.4609 56.0647 22.201 56.6334 25.1658C56.8047 26.0878 56.8964 27.0227 56.9076 27.9603C56.9412 28.7711 56.867 29.5828 56.6871 30.3742L56.5083 30.2612Z" fill="#FFFEFC"/>
<path d="M38.5829 24.2314C38.5909 24.916 38.3284 25.5762 37.852 26.0692C37.3756 26.5621 36.7238 26.8481 36.0376 26.8653H35.9779C35.2834 26.859 34.6196 26.5782 34.1324 26.0844C33.6452 25.5906 33.3742 24.9242 33.379 24.2314V24.1779C33.3742 23.4851 33.6452 22.8186 34.1324 22.3249C34.6196 21.8311 35.2834 21.5502 35.9779 21.5439C36.6789 21.5611 37.345 21.8525 37.8324 22.3554C38.3198 22.8582 38.5894 23.532 38.5829 24.2314Z" fill="#2D3748"/>
<path d="M139.604 35.8194C139.538 35.8848 139.472 35.8848 139.413 35.9502C137.44 38.1977 134.966 38.5841 132.296 37.8766C128.993 37.0442 127.211 34.66 126.513 31.378C126.042 29.296 126.219 27.1203 127.02 25.141C127.654 23.4657 128.847 22.059 130.398 21.1571C131.949 20.2553 133.764 19.9132 135.538 20.1883C137.241 20.3566 138.833 21.1064 140.045 22.3109C140.911 23.2582 141.466 24.4469 141.636 25.7178C141.696 25.9794 141.571 26.0448 141.38 26.0448H139.031C138.841 26.0448 138.775 25.9794 138.71 25.7832C138.569 25.01 138.186 24.3011 137.617 23.7584C137.047 23.2157 136.319 22.8671 135.538 22.7628C133.631 22.3763 131.962 22.7628 130.704 24.3027C129.565 25.7178 129.244 27.4598 129.244 29.2554C129.221 30.5682 129.502 31.8684 130.066 33.0547C130.389 33.6689 130.835 34.2107 131.376 34.6467C131.917 35.0828 132.542 35.404 133.212 35.5905C133.882 35.7771 134.583 35.825 135.272 35.7315C135.961 35.6379 136.624 35.4048 137.219 35.0465C138.614 34.2081 139.061 32.8585 139.186 31.3186C139.186 30.9975 138.996 31.057 138.805 31.057H135.055C134.674 31.057 134.614 30.9321 134.614 30.611V29.1306C134.614 28.8095 134.74 28.7441 134.996 28.7441H141.553C141.809 28.7441 141.934 28.8095 141.934 29.0652V37.4901C141.934 37.7517 141.875 37.8112 141.618 37.8112C141.111 37.8893 140.593 37.8691 140.092 37.7518C139.711 37.4901 139.842 36.848 139.711 36.3367C139.681 36.1405 139.604 35.9443 139.604 35.8194ZM89.2992 26.0448H88.107C87.8507 26.0448 87.7851 25.9794 87.7255 25.7178C87.2128 23.9341 86.0683 22.8282 84.2264 22.632C82.1937 22.4417 80.4829 23.0839 79.4576 24.9508C78.7181 26.2464 78.3347 27.7139 78.3463 29.2048C78.3578 30.6956 78.7638 32.157 79.5232 33.4412C80.0297 34.3314 80.8225 35.0253 81.7733 35.4105C82.7242 35.7956 83.7775 35.8497 84.7629 35.5638C86.5512 35.0465 87.3678 33.6968 87.7434 31.9607C87.8745 31.2532 87.8745 31.2532 88.5719 31.2532H90.4794C90.7298 31.2532 90.7954 31.3186 90.7298 31.5742C90.4139 34.9811 88.256 37.6209 84.9477 38.1144C80.1789 38.8874 76.2447 35.9324 75.4817 31.1045C75.1404 29.0225 75.3817 26.8869 76.1791 24.933C76.707 23.7626 77.5073 22.7348 78.5136 21.9351C79.5199 21.1353 80.7031 20.5868 81.9647 20.335C83.2264 20.0832 84.53 20.1354 85.7674 20.4874C87.0047 20.8393 88.1399 21.4808 89.0786 22.3585C89.9676 23.3037 90.5422 24.4998 90.7238 25.7832C90.7835 26.0448 90.7238 26.1042 90.4675 26.1042C90.0844 26.0178 89.6892 25.9977 89.2992 26.0448ZM182.821 37.728H179.775C179.673 37.735 179.573 37.706 179.491 37.6461C179.409 37.5863 179.351 37.4994 179.327 37.401C178.249 35.6173 177.104 33.8336 176.025 32.0499C175.834 31.7288 175.769 31.7288 175.429 31.9904C174.917 32.3235 174.517 32.8013 174.279 33.3627C174.041 33.9241 173.977 34.5435 174.094 35.1416C174.159 35.8893 174.159 36.6413 174.094 37.3891C174.094 37.7161 173.969 37.7755 173.712 37.7755H171.805C171.489 37.7755 171.429 37.6507 171.429 37.3296V21.0267C171.429 20.5748 171.554 20.4321 171.995 20.5094C172.566 20.5748 173.142 20.5748 173.712 20.5094C174.094 20.5094 174.159 20.6402 174.159 20.9613V30.1592L174.284 30.2246C174.475 29.963 174.732 29.7073 174.922 29.4516C176.192 28.102 177.462 26.8118 178.797 25.4621C178.85 25.3916 178.917 25.3326 178.994 25.2886C179.071 25.2447 179.156 25.2167 179.244 25.2065H182.29C182.29 25.3967 182.099 25.4621 182.04 25.5929C180.704 26.8772 179.435 28.1674 178.034 29.4516C177.718 29.7073 177.718 29.9035 177.968 30.29L182.546 37.2345C182.57 37.4247 182.695 37.5555 182.821 37.728ZM151.436 32.1926H147.305C146.989 32.1926 146.924 32.258 146.924 32.579C147.055 35.0881 149.338 36.634 151.627 35.6648C151.953 35.5327 152.247 35.332 152.489 35.0766C152.73 34.8212 152.914 34.5169 153.028 34.1844C153.061 34.064 153.136 33.9594 153.24 33.8896C153.344 33.8198 153.47 33.7894 153.594 33.8038H155.382C155.698 33.8038 155.764 33.8633 155.639 34.1844C155.372 35.2048 154.795 36.1179 153.987 36.7982C153.179 37.4784 152.18 37.8925 151.126 37.9836C150.158 38.185 149.154 38.1373 148.209 37.8451C147.264 37.5528 146.41 37.0255 145.726 36.3129C144.769 35.2146 144.207 33.8296 144.128 32.3769C143.911 30.5835 144.366 28.7735 145.404 27.2934C146.032 26.4018 146.908 25.7133 147.924 25.3129C148.94 24.9124 150.051 24.8175 151.12 25.04C153.534 25.4918 154.995 27.0377 155.692 29.3506C155.936 30.1856 156.023 31.0584 155.949 31.925C155.949 32.2461 155.823 32.3115 155.567 32.3115C154.232 32.2164 152.837 32.2164 151.436 32.2164V32.1926ZM150.101 30.4089H152.897C153.218 30.4089 153.278 30.3435 153.218 30.0224C153.149 29.2452 152.803 28.5184 152.243 27.9732C151.684 27.428 150.947 27.1004 150.166 27.0496C149.366 27.0201 148.585 27.2967 147.982 27.8227C147.379 28.3488 147.001 29.0846 146.924 29.8797C146.864 30.2008 146.924 30.3256 147.305 30.3256C148.259 30.4148 149.141 30.4148 150.101 30.4148V30.4089ZM92.6015 31.5029C92.6148 30.7003 92.7228 29.902 92.9234 29.1246C93.2901 27.8283 94.1015 26.7015 95.2159 25.9409C96.3304 25.1803 97.6773 24.8341 99.0215 24.9627C101.245 25.0875 103.087 25.8605 104.166 27.8523C104.796 28.9869 105.121 30.2644 105.11 31.5612C105.1 32.858 104.754 34.1302 104.106 35.2546C102.914 37.502 100.798 38.2274 98.3837 38.0847C94.7654 37.8766 92.6015 35.3497 92.6015 31.5088V31.5029ZM95.3376 31.5029C95.2843 32.5563 95.5727 33.5987 96.1602 34.4757C96.3911 34.8285 96.6904 35.1317 97.0405 35.3673C97.3907 35.6029 97.7845 35.7663 98.1989 35.8477C98.6134 35.9292 99.0399 35.9271 99.4535 35.8415C99.8671 35.756 100.259 35.5888 100.607 35.3497C100.936 35.1069 101.236 34.8277 101.501 34.5173C102.046 33.6132 102.333 32.5784 102.333 31.5237C102.333 30.469 102.046 29.4342 101.501 28.5301C101.205 28.0832 100.8 27.7176 100.326 27.4668C99.8507 27.216 99.3203 27.088 98.7831 27.0945C98.2458 27.101 97.7187 27.2418 97.2501 27.504C96.7814 27.7662 96.3862 28.1415 96.1006 28.5955C95.5575 29.4676 95.2915 30.4832 95.3376 31.5088V31.5029ZM183.524 31.5683C183.426 29.8392 183.993 28.1378 185.11 26.8118C185.688 26.1641 186.405 25.6547 187.208 25.3212C188.011 24.9877 188.879 24.8387 189.747 24.8854C190.624 24.8441 191.499 24.9952 192.31 25.3281C193.122 25.661 193.85 26.1674 194.444 26.8118C195.78 28.3576 196.096 30.2246 195.97 32.2164C195.92 32.9198 195.769 33.6124 195.523 34.2736C194.57 36.7826 192.287 38.1977 189.36 38.0074C185.932 37.8112 183.768 35.5638 183.578 32.0618C183.584 31.9607 183.524 31.705 183.524 31.5742V31.5683ZM193.24 31.6991C193.262 30.5996 193.001 29.5129 192.483 28.542C192.258 28.1831 191.963 27.8728 191.615 27.6294C191.268 27.386 190.875 27.2143 190.46 27.1246C190.045 27.0348 189.617 27.0288 189.199 27.1068C188.782 27.1848 188.385 27.3453 188.03 27.5788C187.654 27.8349 187.332 28.1621 187.083 28.542C186.566 29.4317 186.293 30.4418 186.293 31.4702C186.293 32.4986 186.566 33.5087 187.083 34.3984C187.311 34.7537 187.609 35.0597 187.958 35.2981C188.307 35.5365 188.701 35.7025 189.116 35.7862C189.53 35.87 189.958 35.8698 190.372 35.7856C190.787 35.7014 191.181 35.535 191.529 35.2962C191.887 35.0637 192.189 34.7576 192.418 34.3984C192.979 33.6137 193.272 32.669 193.252 31.705L193.24 31.6991ZM115.605 27.0258C116.307 26.0613 117.312 25.3582 118.46 25.0281C119.519 24.7587 120.637 24.8508 121.637 25.2897C123.163 25.9318 123.801 27.2815 123.861 28.8927C123.926 31.7229 123.861 34.553 123.861 37.3831C123.861 37.7042 123.801 37.7696 123.479 37.7696H121.578C121.256 37.7696 121.131 37.7042 121.131 37.3177V30.0938C121.133 29.5941 121.069 29.0963 120.94 28.6133C120.558 27.329 119.354 26.8296 117.888 27.1982C117.253 27.4019 116.704 27.8091 116.326 28.3565C115.947 28.9038 115.761 29.5606 115.796 30.2246V37.2345C115.796 37.6209 115.73 37.829 115.283 37.7518C114.689 37.6855 114.089 37.6855 113.495 37.7518C113.179 37.7518 113.048 37.6863 113.048 37.2999V25.7832C113.048 25.3373 113.179 25.1886 113.644 25.2719C114.194 25.3046 114.745 25.3046 115.295 25.2719C115.617 25.2719 115.742 25.3373 115.676 25.6583C115.622 26.112 115.598 26.5689 115.605 27.0258ZM167.704 29.4695H167.513C166.809 29.5349 166.368 29.4695 166.052 28.6311C165.289 26.7048 162.237 26.6394 160.968 28.4409C160.544 29.0516 160.281 29.7592 160.205 30.4981C160.014 31.7117 160.145 32.9541 160.586 34.1011C160.825 34.737 161.279 35.2695 161.871 35.6061C162.462 35.9428 163.153 36.0624 163.823 35.9443C164.418 35.8658 164.971 35.5976 165.401 35.1797C165.831 34.7619 166.114 34.2167 166.207 33.6255C166.273 33.239 166.458 33.1142 166.839 33.1736H168.687C169.003 33.1736 169.063 33.3044 169.003 33.5601C168.365 36.6518 166.207 38.3879 163.042 38.1917C159.877 37.9955 157.725 35.8848 157.487 32.6028C157.335 31.1877 157.54 29.7572 158.083 28.4409C158.542 27.3493 159.336 26.4311 160.352 25.8179C161.367 25.2048 162.551 24.9282 163.734 25.0281C165.236 25.0141 166.687 25.5662 167.799 26.5739C168.472 27.2852 168.915 28.1824 169.069 29.1484C169.134 29.4695 169.009 29.6003 168.693 29.5349C168.368 29.4672 168.036 29.4392 167.704 29.4516V29.4695ZM110.073 31.5921V37.1869C110.073 37.7042 109.948 37.829 109.477 37.7815C108.929 37.7161 108.374 37.7161 107.826 37.7815C107.444 37.7815 107.319 37.7161 107.319 37.2642V25.6583C107.319 25.3373 107.385 25.2719 107.701 25.2719H109.608C109.99 25.2719 110.115 25.3373 110.115 25.7832C110.073 27.7155 110.073 29.6419 110.073 31.5742V31.5921ZM108.803 20.4856C109.185 20.551 109.757 20.2954 109.996 20.551C110.234 20.8067 110.055 21.3894 110.055 21.8353C110.055 22.2812 110.246 22.739 109.996 23.0244C109.745 23.3098 109.233 23.0898 108.851 23.0898C108.344 23.0898 107.707 23.2801 107.391 23.0244C107.075 22.7687 107.325 22.0612 107.325 21.6093C107.325 20.5153 107.325 20.5153 108.404 20.5153L108.803 20.4856Z" fill="#718096"/>
</g>
<defs>
<clipPath id="clip0_1229_15189">
<rect width="178" height="42" fill="white" transform="translate(18 8)"/>
</clipPath>
</defs>
</svg>
