<svg width="214" height="58" viewBox="0 0 214 58" fill="none" xmlns="http://www.w3.org/2000/svg">
<path d="M43.0019 13L53.2176 16.0226C53.3604 16.0691 53.5033 16.2086 53.5509 16.3481C53.5986 16.4876 53.6462 16.6271 53.5986 16.8131C53.5509 16.9526 53.4557 17.0921 53.3128 17.1851C53.1699 17.2781 53.0271 17.2781 52.8842 17.2781L43.0019 14.4183L33.191 17.3013C33.0481 17.3478 32.8576 17.3013 32.7623 17.2083C32.6195 17.1153 32.5242 17.0223 32.4766 16.8363C32.429 16.6968 32.429 16.5108 32.5242 16.3713C32.5718 16.2318 32.7147 16.1388 32.8576 16.0458L43.0019 13Z" fill="#718096"/>
<path d="M57.7911 17.766C57.7911 17.6265 57.6958 17.487 57.6006 17.394C57.5053 17.301 57.3624 17.2545 57.2196 17.208C57.0767 17.208 56.9338 17.208 56.8385 17.2545C56.6957 17.301 56.6004 17.394 56.5528 17.5335L50.6234 28.8332H35.4546L29.5491 17.58C29.5014 17.487 29.4062 17.394 29.2633 17.301C29.168 17.2545 29.0252 17.208 28.8823 17.208C28.7394 17.208 28.5965 17.301 28.4775 17.394C28.3822 17.487 28.287 17.6265 28.287 17.766C27.7631 21.4163 27.9536 25.1597 28.8823 28.7402C30.3349 34.3668 34.0259 40.9467 42.7414 45.1085L43.0271 45.248L43.3129 45.1085C52.0284 40.9467 55.767 34.3668 57.2196 28.7402C58.1244 25.1597 58.3149 21.4628 57.7911 17.766ZM30.1444 28.4612C29.4776 25.7177 29.168 22.8811 29.3585 20.0446L34.5021 29.833L41.4793 43.016C34.4545 39.0402 31.3826 33.3671 30.1444 28.4612ZM43.0033 43.1555L36.1452 30.1585H49.8852L43.0033 43.1555ZM55.886 28.4612C54.624 33.4136 51.5283 39.0867 44.5035 43.016L51.5283 29.833L56.6719 20.0446C56.8624 22.8346 56.6242 25.6712 55.886 28.4612Z" fill="#718096"/>
<path d="M71.2771 35.3929C71.4898 35.6005 71.7556 35.7822 72.048 35.912C72.3404 36.0418 72.6328 36.0937 72.9518 36.0677H84.7281V34.5104H72.9518C72.7392 34.5104 72.5531 34.4325 72.3936 34.3028C72.2607 34.147 72.1809 33.9654 72.1809 33.7577V24.5176C72.1809 24.4138 72.2075 24.3359 72.2341 24.2321C72.2607 24.1542 72.3404 24.0504 72.3936 23.9985C72.4733 23.9206 72.5531 23.8687 72.6328 23.8168C72.7392 23.7649 72.8189 23.7649 72.9253 23.7649H84.7281V22.2076H72.9518C72.6328 22.2076 72.3404 22.2595 72.048 22.3893C71.7556 22.4931 71.4898 22.6748 71.2771 22.8824C71.0644 23.0901 70.8784 23.3496 70.772 23.6351C70.6657 23.9206 70.5859 24.2062 70.5859 24.5176V33.7577C70.5859 34.0692 70.6391 34.3547 70.7454 34.6402C70.8784 34.9257 71.0644 35.1853 71.2771 35.3929ZM93.8727 22.2076V36.0677H106.845V34.5104H95.4943V29.9163H104.612V28.3331H95.4943V23.739H106.845V22.1816H93.8727V22.2076ZM115.963 36.0677V22.2336H127.793C128.431 22.2336 129.016 22.4931 129.468 22.9084C129.919 23.3496 130.159 23.9206 130.159 24.5436V28.5926C130.159 28.9041 130.106 29.1896 129.973 29.4751C129.866 29.7606 129.68 30.0201 129.468 30.2278C129.255 30.4354 128.989 30.6171 128.697 30.7209C128.404 30.8248 128.112 30.9026 127.793 30.8767H125.613L130.079 36.0158V36.0418H127.979L123.539 30.8767L117.558 30.8507V36.0158H115.963V36.0677ZM118.329 29.3453H127.793C127.899 29.3453 127.979 29.3194 128.085 29.2934C128.165 29.2674 128.271 29.1896 128.324 29.1377C128.404 29.0598 128.457 28.9819 128.484 28.9041C128.511 28.8262 128.537 28.7224 128.537 28.6186V24.5436C128.537 24.4398 128.511 24.3619 128.484 24.2581C128.457 24.1802 128.378 24.0764 128.324 24.0245C128.271 23.9466 128.165 23.8947 128.085 23.8428C128.005 23.7909 127.899 23.7909 127.793 23.7909H118.329C118.223 23.7909 118.117 23.8168 118.037 23.8428C117.93 23.8947 117.851 23.9466 117.798 24.0245C117.718 24.1023 117.665 24.1802 117.638 24.2581C117.611 24.3359 117.585 24.4398 117.585 24.5436V28.5926C117.585 28.6964 117.611 28.7743 117.638 28.8781C117.665 28.956 117.718 29.0598 117.798 29.1117C117.93 29.2674 118.117 29.3453 118.329 29.3453ZM144.886 23.7649V36.0677H146.481V23.7649H152.781V22.2076H138.586V23.7649H144.886ZM161.208 22.2076H162.829V36.0677H161.208V22.2076ZM172.559 22.2076V36.0677H174.18V29.9163H178.753L184.043 36.0677H186.116V36.0418L180.161 29.1377L186.09 22.2336V22.2076H184.043L178.753 28.359H174.18V22.2076H172.559Z" fill="#718096"/>
<path d="M162.854 36.0938H161.18V22.1818H162.854V36.0938ZM161.233 36.0419H162.801V22.2337H161.233V36.0419ZM186.141 36.0938H184.041L178.751 29.9684H174.205V36.1198H172.531V22.2077H174.205V28.3592H178.724L184.014 22.2077H186.115V22.2597L180.187 29.1638L186.141 36.0938ZM184.068 36.0419H186.088L180.133 29.1378L180.16 29.1119L186.061 22.2337H184.068L178.778 28.3851H174.152V22.2337H172.584V36.0419H174.152V29.8905H178.778L184.068 36.0419ZM146.506 36.0938H144.858V23.791H138.557V22.1818H152.806V23.791H146.506V36.0938ZM144.911 36.0419H146.453V23.7391H152.753V22.2337H138.611V23.7391H144.911V36.0419ZM130.104 36.0938H127.951L123.511 30.9547L117.583 30.9287V36.1198H115.935V22.2077H127.791C128.429 22.2077 129.041 22.4673 129.466 22.9085C129.918 23.3498 130.157 23.9468 130.184 24.5437V28.6187C130.184 28.9302 130.131 29.2416 129.998 29.5271C129.865 29.8127 129.705 30.0722 129.466 30.2798C129.253 30.4875 128.987 30.6692 128.695 30.799C128.403 30.9287 128.084 30.9806 127.765 30.9806H125.665L130.077 36.0938H130.104ZM127.977 36.0419H130.024L125.558 30.8768H127.791C128.084 30.8768 128.403 30.8249 128.695 30.6951C128.987 30.5913 129.227 30.4096 129.439 30.202C129.652 29.9943 129.838 29.7348 129.944 29.4493C130.051 29.1638 130.131 28.8783 130.131 28.5668V24.5178C130.131 23.9208 129.865 23.3498 129.439 22.9085C129.014 22.4933 128.403 22.2337 127.791 22.2337H115.988V36.0419H117.53V30.8509L123.538 30.8768L127.977 36.0419ZM106.87 36.0938H93.8446V22.1818H106.87V23.791H95.5194V28.3072H104.637V29.9424H95.5194V34.4846H106.87V36.0938ZM93.9244 36.0419H106.817V34.5365H95.4662V29.8905H104.584V28.3592H95.4662V23.7132H106.817V22.2077H93.9244V36.0419ZM84.7798 36.0938H72.9503C72.6313 36.0938 72.3123 36.0419 72.0199 35.9121C71.7275 35.7824 71.4617 35.6266 71.249 35.393C71.0363 35.1854 70.8502 34.9258 70.7173 34.6403C70.5844 34.3548 70.5312 34.0434 70.5312 33.7319V24.4918C70.5312 24.1804 70.5844 23.8689 70.7173 23.5834C70.8502 23.2979 71.0097 23.0383 71.249 22.8307C71.4617 22.623 71.7275 22.4413 72.0199 22.3116C72.3123 22.1818 72.6313 22.1299 72.9503 22.1299H84.7798V23.7391H72.9503C72.844 23.7391 72.7642 23.7651 72.6579 23.791C72.5781 23.817 72.4718 23.8948 72.4187 23.9468C72.3389 23.9987 72.2857 24.0765 72.2592 24.1804C72.2326 24.2582 72.206 24.362 72.206 24.4399V33.68C72.206 33.7838 72.2326 33.8617 72.2592 33.9655C72.2857 34.0434 72.3389 34.1472 72.4187 34.1991C72.4984 34.277 72.5781 34.3289 72.6579 34.3548C72.7376 34.3808 72.844 34.4067 72.9503 34.4067H84.7798V36.0938ZM71.3022 35.3671C71.5148 35.5747 71.7807 35.7564 72.0731 35.8602C72.3655 35.9641 72.6579 36.0419 72.9769 36.016H84.7266V34.5106H72.9503C72.7376 34.5106 72.525 34.4327 72.3655 34.3029C72.206 34.1472 72.1262 33.9395 72.1262 33.7319V24.4918C72.1262 24.388 72.1528 24.2842 72.1794 24.2063C72.206 24.1025 72.2857 24.0246 72.3389 23.9468C72.4187 23.8689 72.4984 23.817 72.6047 23.7651C72.7111 23.7132 72.8174 23.7132 72.9237 23.7132H84.6735V22.2077H72.9503C72.6313 22.2077 72.3389 22.2597 72.0465 22.3894C71.7541 22.4933 71.5148 22.6749 71.2756 22.8826C71.0629 23.0902 70.8768 23.3498 70.7705 23.6353C70.6642 23.9208 70.5844 24.2063 70.5844 24.5178V33.7579C70.5844 34.0693 70.6376 34.3548 70.7439 34.6403C70.9034 34.9258 71.0895 35.1594 71.3022 35.3671ZM127.791 29.3714H118.328C118.115 29.3714 117.902 29.2935 117.743 29.1378C117.663 29.0599 117.61 28.9821 117.583 28.8783C117.557 28.7744 117.53 28.6966 117.53 28.5928V24.5437C117.53 24.4399 117.557 24.3361 117.583 24.2582C117.61 24.1544 117.69 24.0765 117.743 23.9987C117.823 23.9208 117.902 23.8689 118.009 23.817C118.115 23.7651 118.221 23.7651 118.328 23.7651H127.791C127.898 23.7651 128.004 23.791 128.084 23.817C128.19 23.8689 128.27 23.9208 128.323 23.9987C128.403 24.0765 128.456 24.1544 128.482 24.2582C128.509 24.362 128.536 24.4399 128.536 24.5437V28.5928C128.536 28.6966 128.509 28.8004 128.482 28.8783C128.456 28.9821 128.376 29.0599 128.323 29.1378C128.243 29.2157 128.163 29.2676 128.057 29.2935C127.977 29.3455 127.898 29.3714 127.791 29.3714ZM118.328 23.817C118.221 23.817 118.142 23.8429 118.035 23.8689C117.955 23.8948 117.849 23.9727 117.796 24.0246C117.716 24.1025 117.663 24.1804 117.637 24.2582C117.61 24.3361 117.583 24.4399 117.583 24.5178V28.5668C117.583 28.6706 117.61 28.7485 117.637 28.8263C117.663 28.9042 117.716 28.9821 117.796 29.0599C117.929 29.1897 118.142 29.2676 118.328 29.2676H127.791C127.898 29.2676 127.977 29.2416 128.057 29.2157C128.137 29.1897 128.217 29.1378 128.296 29.0599C128.376 29.008 128.429 28.9302 128.456 28.8263C128.482 28.7485 128.509 28.6447 128.509 28.5668V24.5178C128.509 24.4139 128.482 24.3361 128.456 24.2582C128.429 24.1804 128.376 24.1025 128.296 24.0246C128.243 23.9468 128.163 23.8948 128.057 23.8689C127.977 23.8429 127.871 23.817 127.765 23.817H118.328Z" fill="#718096"/>
</svg>
