<svg width="214" height="58" viewBox="0 0 214 58" fill="none" xmlns="http://www.w3.org/2000/svg">
<path d="M147.427 26.7529C146.95 26.7529 146.538 26.9208 146.203 27.2695C145.868 27.6183 145.688 28.0186 145.688 28.4965C145.688 29.2197 146.048 29.7751 146.77 30.1755C147.556 30.395 148.201 30.253 148.677 29.7622C149.025 29.4135 149.193 29.0002 149.193 28.5223C149.193 28.0315 149.025 27.6183 148.677 27.2825C148.329 26.9337 147.917 26.7529 147.427 26.7529Z" fill="#718096"/>
<path d="M119.357 13.4506H118.055C117.501 13.4506 117.05 13.9156 117.05 14.4709V15.1942C115.658 13.7477 114.086 13.0244 112.346 13.0244C110.31 13.0244 108.621 13.7735 107.281 15.2846C105.928 16.7828 105.258 18.6684 105.258 20.9286C105.258 23.2275 105.928 25.1389 107.281 26.6759C108.634 28.174 110.348 28.936 112.423 28.936C114.073 28.936 115.607 28.2515 117.05 26.9083V28.3548C117.05 29.0523 117.604 29.6335 118.313 29.6335H120.53V14.613C120.517 13.9672 120.001 13.4506 119.357 13.4506ZM116.058 24.5061C115.259 25.3843 114.228 25.8234 112.939 25.8234C111.727 25.8234 110.735 25.3714 109.949 24.4544C109.176 23.5504 108.789 22.3751 108.789 20.9286C108.789 19.5725 109.189 18.4359 109.975 17.5189C110.787 16.6149 111.779 16.1628 112.965 16.1628C114.24 16.1628 115.259 16.6019 116.058 17.506C116.857 18.423 117.243 19.5854 117.243 20.9931C117.256 22.4267 116.857 23.5891 116.058 24.5061Z" fill="#718096"/>
<path d="M105.247 14.5095C105.247 13.9283 104.77 13.4633 104.19 13.4633H102.824C102.244 13.4633 101.768 13.9283 101.768 14.5095V15.1552C100.517 13.7474 98.9452 13.0371 97.0507 13.0371C94.8856 13.0371 93.1586 13.8637 91.8312 15.4781C90.6069 17.015 89.9883 18.8877 89.9883 21.0704C89.9883 23.3306 90.6584 25.2162 91.973 26.7144C93.2746 28.1996 94.95 28.9358 96.9991 28.9358C98.7905 28.9358 100.389 28.2384 101.768 26.8306V28.9229C101.768 32.0484 100.505 33.6111 97.9657 33.6111C96.5867 33.6111 95.53 33.1462 94.8211 32.2034C94.6278 31.9709 94.4861 31.6739 94.3572 31.3122C94.1896 30.8085 93.7128 30.4727 93.1973 30.4727H91.8956C91.2255 30.4727 90.7358 31.1185 90.9033 31.7643C91.277 33.1333 91.9601 34.244 92.9911 35.1093C94.2927 36.1942 95.9424 36.7237 97.9528 36.7237C100.324 36.7237 102.193 35.9359 103.559 34.3731C104.268 33.5466 104.757 32.5908 105.002 31.4414C105.08 31.041 105.144 30.5631 105.196 30.0078C105.247 29.4783 105.273 28.8454 105.273 28.1222V25.9395C104.294 24.5317 103.817 22.8527 103.817 20.9025C103.817 18.9911 104.306 17.3379 105.273 15.956V14.5095H105.247ZM100.84 24.3896C100.079 25.3583 99.0225 25.8362 97.6951 25.8362C96.3805 25.8362 95.3366 25.3583 94.5763 24.3896C93.8932 23.5243 93.5453 22.4007 93.5453 21.0317C93.5453 19.6368 93.8932 18.5003 94.5763 17.622C95.3366 16.6405 96.3805 16.1626 97.6951 16.1626C98.9323 16.1626 99.9504 16.6017 100.737 17.4929C101.523 18.3711 101.909 19.5464 101.909 21.0058C101.909 22.3749 101.561 23.5114 100.84 24.3896Z" fill="#718096"/>
<path d="M134.114 13.4632L126.91 13.4502V9.03322C126.91 8.46495 126.446 8 125.879 8H124.474C123.894 8 123.43 8.46495 123.43 9.04614V13.4502H121.961V16.692H123.443V29.6331H125.428C126.253 29.6331 126.923 28.9744 126.923 28.1478V16.692H130.467C130.75 16.1495 131.085 15.6588 131.498 15.2067C132.232 14.406 133.109 13.8119 134.114 13.4632Z" fill="#718096"/>
<path d="M151.833 8C151.215 8 150.686 8.21956 150.248 8.67159C149.81 9.11071 149.578 9.64024 149.578 10.2473C149.578 10.893 149.797 11.4225 150.248 11.8746C150.686 12.3137 151.228 12.5333 151.859 12.5333C152.491 12.5333 153.019 12.3137 153.444 11.8746C153.883 11.4225 154.115 10.893 154.115 10.2602C154.115 9.62732 153.895 9.0978 153.444 8.67159C152.993 8.21956 152.452 8 151.833 8Z" fill="#718096"/>
<path d="M152.53 15.1553H151.267C150.622 15.1553 150.094 15.6848 150.094 16.3306V27.3731C150.364 27.6831 150.48 28.0576 150.48 28.4838C150.48 28.91 150.352 29.2846 150.094 29.5945V30.2145H152.323C153.006 30.2145 153.561 29.6591 153.561 28.9746V16.1885C153.573 15.6202 153.109 15.1553 152.53 15.1553Z" fill="#718096"/>
<path d="M168.845 17.2864C167.286 15.7495 165.391 14.9746 163.149 14.9746C160.919 14.9746 159.012 15.7366 157.465 17.2606C155.906 18.7975 155.133 20.6444 155.133 22.8271C155.133 25.1389 155.893 27.0504 157.414 28.5744C158.935 30.1242 160.829 30.8991 163.084 30.8991C165.353 30.8991 167.273 30.1371 168.832 28.626C170.392 27.0891 171.165 25.2035 171.165 22.9433C171.165 20.709 170.392 18.8363 168.845 17.2864ZM166.397 26.4692C165.572 27.3474 164.489 27.7736 163.136 27.7736C161.783 27.7736 160.7 27.3345 159.875 26.4563C159.064 25.578 158.664 24.3898 158.664 22.8788C158.664 21.471 159.076 20.3344 159.901 19.4433C160.739 18.5521 161.809 18.113 163.136 18.113C164.476 18.113 165.559 18.5521 166.397 19.4433C167.208 20.3086 167.608 21.4839 167.608 22.9433C167.608 24.4286 167.208 25.591 166.397 26.4692Z" fill="#718096"/>
<path d="M145.007 27.0498C143.048 26.9982 138.331 26.9594 138.138 26.9594C137.03 26.9594 136.115 26.5978 135.419 25.8745C134.697 25.1513 134.298 24.1568 134.207 22.9169H144.157C144.621 22.9169 144.994 22.5553 144.994 22.0904C144.994 19.5977 144.35 17.6604 143.087 16.2656C141.785 14.8449 140.045 14.1475 137.829 14.1475C135.638 14.1475 133.885 14.8707 132.558 16.3301C131.243 17.8025 130.586 19.7398 130.586 22.1162C130.586 24.5055 131.269 26.4428 132.622 27.8893C133.576 28.8967 134.736 29.5554 136.115 29.8654C136.682 29.9945 137.287 30.072 137.893 30.0591C139.801 30.1107 141.502 30.1366 143.319 30.1753H143.332C143.873 30.1882 144.414 30.2011 144.981 30.2141V29.8524C144.749 29.5941 144.608 29.2971 144.556 28.9484C144.543 28.858 144.53 28.7546 144.53 28.6642C144.53 28.2122 144.685 27.8247 144.994 27.4889L145.007 27.0498ZM134.929 18.9132C135.148 18.5645 135.406 18.2803 135.715 18.0479C136.012 17.8025 136.347 17.6217 136.72 17.4925C137.094 17.3634 137.481 17.2988 137.906 17.2988C139.749 17.2988 140.922 18.2158 141.412 20.0756H134.426C134.542 19.6365 134.71 19.249 134.929 18.9132Z" fill="#718096"/>
<path d="M59.1742 28.7673L58.8133 28.4057C58.5427 28.1345 58.0659 28.3282 58.0659 28.7156V33.9205C58.0659 34.1659 58.2592 34.3596 58.504 34.3596H63.7106C64.0973 34.3596 64.2906 33.8947 64.0199 33.6105C63.8524 33.4426 63.8524 33.1585 64.0199 32.9906L69.5487 27.437C69.7163 27.2691 69.7163 26.9979 69.5487 26.8171L69.0461 26.3134C68.7755 26.0422 68.9688 25.5643 69.3554 25.5643H74.5362C74.7811 25.5643 74.9744 25.7581 74.9744 26.0034V31.2083C74.9744 31.5958 74.4976 31.7895 74.2269 31.5183L73.879 31.1695C73.7114 30.9887 73.4279 30.9887 73.2604 31.1695L63.9426 40.5073C63.7751 40.6752 63.5044 40.6752 63.324 40.5073L51.9314 29.0902C51.7638 28.9223 51.7638 28.6511 51.9314 28.4703L67.7058 12.649C67.8733 12.4812 67.8733 12.197 67.7058 12.0291L64.0071 8.30952C63.8395 8.14162 63.556 8.14162 63.3884 8.30952L42.9616 28.7802C42.7941 28.9481 42.7941 29.2323 42.9616 29.4002L63.3884 49.8709C63.556 50.0388 63.8395 50.0388 64.0071 49.8709L84.4339 29.4002C84.6014 29.2323 84.6014 28.9481 84.4339 28.7802L72.4227 16.7432C72.2551 16.5753 71.9845 16.5753 71.8041 16.7432L59.8057 28.7673C59.6253 28.9352 59.3546 28.9352 59.1742 28.7673C59.1871 28.7673 59.1742 28.7673 59.1742 28.7673Z" fill="#718096"/>
<path d="M171.166 40.043H146.461" stroke="#718096" stroke-width="1.9766" stroke-miterlimit="10"/>
<path d="M114.358 40.1719H89.6523" stroke="#718096" stroke-width="1.9766" stroke-miterlimit="10"/>
<path d="M128.419 41.696V44.6535C128.419 45.0798 128.109 45.3897 127.684 45.3897C127.388 45.3897 126.988 45.0798 126.988 44.6535C126.292 45.2347 125.506 45.4285 124.539 45.3768C122.967 45.2993 121.434 43.9949 121.176 42.445C120.751 39.8749 122.864 37.731 125.429 38.1313C127.169 38.3897 128.419 39.9395 128.419 41.696ZM126.872 42.5354C127.426 40.7661 125.918 39.0354 124.088 39.6295C123.431 39.8491 122.903 40.3786 122.684 41.0373C122.078 42.8712 123.805 44.3823 125.583 43.827C126.189 43.6462 126.679 43.1554 126.872 42.5354Z" fill="#718096"/>
<path d="M136.471 40.7145C137.115 43.1555 135.285 45.3769 132.927 45.3769C130.916 45.3769 129.254 43.7238 129.254 41.6961V41.6832V35.1222C129.254 34.6444 129.731 34.2698 130.272 34.4506C130.517 34.541 130.71 34.8381 130.71 35.0835V38.7643C131.587 38.1056 132.772 37.8215 133.997 38.1702C135.208 38.5189 136.149 39.4876 136.471 40.7145ZM134.989 40.8437C134.744 40.2108 134.203 39.733 133.545 39.5522C132.051 39.1518 130.71 40.2625 130.71 41.6832V41.7478C130.71 42.5872 131.187 43.3751 131.96 43.7109C133.881 44.5504 135.723 42.7293 134.989 40.8437Z" fill="#718096"/>
<path d="M129.281 45.4033H129.346C130.093 45.4033 130.712 44.7963 130.712 44.0343V38.752H129.281V45.4033Z" fill="#718096"/>
<path d="M120.208 43.8406V34.4512H118.777V43.931C118.777 44.7447 119.435 45.3904 120.234 45.3904H121.11C121.123 45.3904 121.123 45.3775 121.123 45.3775V43.8922H120.247C120.234 43.8922 120.208 43.8793 120.208 43.8406Z" fill="#718096"/>
<path d="M139.629 45.4288C139.23 45.4288 139.049 45.3771 138.714 45.2738C138.379 45.1705 138.108 45.0413 137.876 44.8992C137.825 44.8605 137.773 44.8347 137.722 44.7959C137.657 44.7572 137.606 44.7055 137.554 44.6668C137.387 44.5376 137.168 44.331 137.013 44.0985L136.987 44.0727C136.936 44.0081 136.897 43.9435 136.884 43.866C136.768 43.4657 137.077 43.0911 137.464 43.0911C137.528 43.0911 137.593 43.104 137.644 43.1169H137.657H137.67C137.735 43.1299 137.799 43.1686 137.876 43.2461C138.005 43.3752 138.121 43.4786 138.263 43.5819C138.714 43.9177 139.178 44.0727 139.668 44.0727C140.016 44.0727 140.299 43.9823 140.518 43.8144C140.66 43.6981 140.763 43.5173 140.776 43.3365C140.789 43.1815 140.776 43.0394 140.712 42.9103C140.66 42.807 140.583 42.7166 140.454 42.6391C140.338 42.5616 140.183 42.4841 139.977 42.4066C139.784 42.3291 139.526 42.2387 139.23 42.1612C138.856 42.0579 138.534 41.9416 138.276 41.8254C138.018 41.7092 137.799 41.58 137.632 41.425C137.464 41.2701 137.335 41.0892 137.258 40.8697C137.18 40.6501 137.129 40.3918 137.129 40.0818C137.129 39.759 137.193 39.4748 137.322 39.2165C137.451 38.9582 137.632 38.7387 137.864 38.5708C138.096 38.3899 138.366 38.2608 138.663 38.1704C138.972 38.08 139.294 38.0283 139.642 38.0283C139.964 38.0283 140.261 38.0542 140.544 38.1187C140.866 38.1962 141.498 38.3899 142.091 38.9324C142.104 38.9453 142.142 38.9711 142.207 39.0615C142.323 39.1907 142.387 39.3586 142.387 39.5265C142.387 39.5394 142.387 39.5394 142.387 39.5523C142.374 39.9269 142.078 40.2239 141.717 40.2497C141.704 40.2497 141.678 40.2497 141.665 40.2497C141.549 40.2497 141.433 40.2239 141.33 40.1723C141.317 40.1593 141.305 40.1593 141.292 40.1464C141.24 40.1077 141.189 40.0689 141.15 40.0302L141.137 40.0173C140.737 39.6169 140.235 39.3844 139.668 39.3457C139.642 39.3457 139.603 39.3457 139.578 39.3457C139.371 39.3457 139.178 39.3973 138.985 39.4877C138.766 39.604 138.65 39.7848 138.65 40.056C138.65 40.1723 138.675 40.2756 138.727 40.366C138.779 40.4564 138.869 40.521 138.998 40.5855C139.114 40.6501 139.268 40.7018 139.462 40.7664C139.642 40.8309 139.887 40.8955 140.17 40.9859C140.467 41.0763 140.763 41.1796 141.021 41.2959C141.279 41.4121 141.511 41.5542 141.704 41.7092C141.897 41.8771 142.039 42.0708 142.155 42.3162C142.258 42.5487 142.323 42.8457 142.323 43.1815C142.323 43.5302 142.245 43.8402 142.091 44.1114C141.936 44.3826 141.73 44.628 141.472 44.8218C141.214 45.0155 140.918 45.1705 140.596 45.2738C140.299 45.3771 139.964 45.4288 139.629 45.4288Z" fill="#718096"/>
</svg>
