<svg width="214" height="58" viewBox="0 0 214 58" fill="none" xmlns="http://www.w3.org/2000/svg">
<mask id="mask0_1229_15161" style="mask-type:alpha" maskUnits="userSpaceOnUse" x="25" y="8" width="165" height="43">
<path d="M33.2244 27.9919C33.2244 27.023 33.9729 26.2271 34.8841 26.2271H37.6828C38.594 26.2271 39.375 27.023 39.375 28.0265V39.2384C39.7004 39.1346 40.0909 39.0307 40.5465 38.9269C41.1648 38.7539 41.6204 38.1656 41.6204 37.4735V23.5626C41.6204 22.5936 42.3689 21.7631 43.3127 21.7631H46.1113C47.0225 21.7631 47.8035 22.559 47.8035 23.5626V36.47C47.8035 36.47 48.4869 36.1586 49.1703 35.8471C49.691 35.6049 50.0164 35.0858 50.0164 34.463V19.064C50.0164 18.0951 50.7649 17.2646 51.6761 17.2646H54.4748C55.386 17.2646 56.1345 18.0605 56.1345 19.064V31.7292C58.5426 29.8606 61.0159 27.6113 62.9684 24.9121C63.5542 24.1162 63.7169 23.0781 63.3915 22.1092C59.8118 11.1742 48.552 5.36064 38.2685 9.16713C27.9851 12.9736 22.5179 24.9468 26.0976 35.8818C26.4881 37.1275 27.0088 38.3041 27.6271 39.446C28.1152 40.3457 29.0264 40.8648 30.0027 40.761C30.5234 40.7264 31.1742 40.6572 31.9878 40.5533C32.7037 40.4841 33.2244 39.8266 33.2244 39.0654V27.9919Z" fill="white"/>
<path d="M33.1602 45.9871C41.9792 52.8042 54.3129 50.7279 60.7238 41.3501C63.1645 37.7513 64.4987 33.4257 64.4987 28.9963C64.4987 28.5119 64.4662 28.0274 64.4337 27.543C57.2743 38.997 43.9318 44.3607 33.1602 45.9871Z" fill="#F0B90B"/>
<path d="M90.9972 28.6139C92.0711 28.8215 93.0149 29.4098 93.6983 30.3095C94.3817 31.1746 94.7396 32.282 94.7396 33.4239C94.7396 35.0503 94.2189 36.3307 93.2101 37.2996C92.2013 38.2339 90.7043 38.7184 88.7518 38.7184H81.4297V19.1669H88.6216C90.4765 19.1669 91.8759 19.6168 92.8522 20.4819C93.8284 21.347 94.3166 22.5581 94.3166 24.0807C94.3491 25.1535 94.0562 26.2262 93.4054 27.0913C92.7545 27.8526 91.9084 28.4063 90.9972 28.6139ZM84.3911 27.5758H88.0684C89.1098 27.5758 89.8908 27.3336 90.444 26.8145C90.9972 26.2608 91.3226 25.4649 91.2576 24.669C91.2901 23.8731 90.9972 23.0772 90.444 22.5235C89.8908 22.0045 89.0772 21.7622 87.9708 21.7622H84.3911V27.5758ZM88.1335 36.0885C89.2725 36.0885 90.1186 35.8116 90.7369 35.258C91.3552 34.7043 91.7132 33.8392 91.6481 32.9741C91.6806 32.109 91.3552 31.2439 90.7043 30.6902C90.086 30.1365 89.2074 29.8597 88.0684 29.8597H84.3585V36.0885H88.1335ZM102.224 23.2502C103.917 23.2502 105.251 23.7001 106.26 24.6344C107.301 25.5687 107.952 26.8837 108.115 28.3025H105.316C105.218 27.5412 104.86 26.8145 104.307 26.2954C103.689 25.7764 102.908 25.4995 102.127 25.5341C101.509 25.4995 100.89 25.7071 100.402 26.0878C99.979 26.4684 99.7512 27.0567 99.7837 27.6104C99.7512 28.0602 99.9139 28.4755 100.239 28.7869C100.565 29.0984 100.923 29.3406 101.346 29.479C101.964 29.6867 102.582 29.8943 103.233 30.0327C104.112 30.2403 104.991 30.5172 105.837 30.8286C106.52 31.1054 107.106 31.5553 107.561 32.1436C108.082 32.8357 108.31 33.7008 108.277 34.6005C108.31 35.8116 107.789 36.9536 106.911 37.7149C105.999 38.5108 104.763 38.8914 103.233 38.8914C101.443 38.8914 100.012 38.4416 98.9051 37.5765C97.7986 36.6767 97.0827 35.3272 96.92 33.8738H99.8163C99.8814 34.6697 100.272 35.3964 100.858 35.8808C101.541 36.4345 102.387 36.7113 103.266 36.6421C103.884 36.6767 104.47 36.4691 104.958 36.0539C105.349 35.6732 105.576 35.1195 105.576 34.5313C105.609 34.0468 105.414 33.597 105.121 33.2509C104.795 32.9049 104.372 32.6626 103.949 32.5242C103.331 32.3166 102.68 32.109 102.029 31.9705C101.183 31.7629 100.337 31.5207 99.4909 31.2093C98.84 30.967 98.2542 30.5172 97.8312 29.9635C97.343 29.2714 97.0827 28.4409 97.1478 27.6104C97.1152 26.3992 97.6359 25.2227 98.5146 24.4614C99.3281 23.6655 100.597 23.2502 102.224 23.2502ZM117.617 23.2502C119.472 23.2502 121.002 23.7693 122.238 24.8074C123.475 25.8802 124.288 27.4028 124.516 29.0638H121.36C121.229 28.1641 120.774 27.3682 120.09 26.8145C119.374 26.2608 118.463 25.9494 117.585 25.984C116.511 25.9494 115.469 26.4338 114.721 27.2643C113.972 28.1294 113.582 29.3752 113.582 31.0362C113.582 32.6972 113.972 33.9776 114.721 34.8427C115.469 35.7078 116.511 36.1577 117.585 36.1577C118.496 36.1923 119.374 35.9154 120.09 35.3272C120.774 34.7735 121.229 33.943 121.36 33.0433H124.516C124.288 34.7043 123.475 36.2269 122.238 37.2996C121.034 38.3378 119.472 38.8914 117.617 38.8914C116.348 38.926 115.079 38.58 113.94 37.9571C112.866 37.3342 111.987 36.3999 111.434 35.258C110.816 33.9776 110.49 32.5242 110.523 31.0708C110.49 29.6174 110.816 28.1987 111.434 26.9183C112.02 25.7763 112.866 24.842 113.94 24.2192C115.079 23.5617 116.348 23.2156 117.617 23.2502ZM139.453 33.4931C139.453 34.4275 139.225 35.3618 138.802 36.1577C138.347 37.0228 137.663 37.6803 136.817 38.1301C135.808 38.6492 134.702 38.926 133.563 38.8914C132.424 38.926 131.252 38.6838 130.211 38.1993C129.267 37.7841 128.454 37.092 127.836 36.2269C127.25 35.3618 126.892 34.3583 126.827 33.2855H130.016C130.114 34.116 130.471 34.9119 131.057 35.4656C131.708 36.0885 132.587 36.4345 133.465 36.3653C134.246 36.3999 134.995 36.1231 135.548 35.604C136.036 35.0849 136.329 34.3583 136.297 33.597C136.329 32.9741 136.134 32.3512 135.743 31.8667C135.385 31.4169 134.897 31.0362 134.377 30.794C133.823 30.5518 133.107 30.2403 132.164 29.8943C131.22 29.5828 130.276 29.2022 129.365 28.7177C128.649 28.3371 127.998 27.7488 127.543 27.0221C127.022 26.157 126.729 25.1535 126.794 24.1153C126.762 23.1464 127.022 22.1775 127.51 21.347C128.031 20.5165 128.747 19.8936 129.593 19.513C130.569 19.0631 131.643 18.8555 132.717 18.8555C134.604 18.8555 136.069 19.3399 137.175 20.3089C138.249 21.2432 138.933 22.5927 139.063 24.0807H135.874C135.743 23.354 135.418 22.6966 134.897 22.1775C134.312 21.6238 133.53 21.347 132.717 21.3816C132.001 21.347 131.285 21.5892 130.699 22.0737C130.179 22.5581 129.886 23.2848 129.951 24.0115C129.918 24.5998 130.113 25.1881 130.471 25.6725C130.829 26.1224 131.285 26.4684 131.773 26.7107C132.294 26.9529 133.042 27.2643 133.954 27.5758C134.93 27.8872 135.874 28.2679 136.817 28.7523C137.566 29.1676 138.217 29.7559 138.705 30.4826C139.225 31.3823 139.486 32.4204 139.453 33.4931ZM148.793 23.2502C150.648 23.2502 152.177 23.7693 153.414 24.8074C154.651 25.8802 155.464 27.4028 155.692 29.0638H152.503C152.373 28.1641 151.917 27.3682 151.234 26.8145C150.518 26.2608 149.607 25.9494 148.728 25.984C147.654 25.9494 146.613 26.4338 145.864 27.2643C145.116 28.1294 144.725 29.3752 144.725 31.0362C144.725 32.6972 145.116 33.9776 145.864 34.8427C146.613 35.7078 147.654 36.1577 148.728 36.1577C149.639 36.1923 150.518 35.9154 151.234 35.3272C151.917 34.7735 152.373 33.943 152.503 33.0433H155.659C155.432 34.7043 154.618 36.2269 153.382 37.2996C152.177 38.3378 150.615 38.8914 148.76 38.8914C147.491 38.926 146.222 38.58 145.083 37.9571C144.009 37.3342 143.131 36.3999 142.577 35.258C141.959 33.9776 141.634 32.5242 141.666 31.0708C141.634 29.6174 141.959 28.1987 142.577 26.9183C143.163 25.7763 144.009 24.842 145.083 24.2192C146.222 23.5617 147.491 23.2156 148.793 23.2502ZM164.283 23.2502C165.455 23.2156 166.626 23.5617 167.603 24.2884C168.514 24.9459 169.197 25.9148 169.555 26.9875V23.4579H172.517V38.7184H169.555V35.1888C169.197 36.2961 168.514 37.2304 167.603 37.8879C166.626 38.58 165.455 38.9606 164.283 38.926C163.112 38.9606 161.94 38.6146 160.931 37.9917C159.923 37.3342 159.142 36.3999 158.621 35.2926C158.035 33.9776 157.742 32.5588 157.775 31.1054C157.742 29.6866 158.035 28.2333 158.621 26.9529C159.142 25.8456 159.923 24.8766 160.931 24.2538C161.94 23.5617 163.112 23.2156 164.283 23.2502ZM165.194 26.0186C164.023 25.9494 162.851 26.4338 162.038 27.3682C161.257 28.2679 160.866 29.479 160.866 31.0708C160.866 32.6626 161.257 33.8738 162.038 34.7735C162.851 35.6732 164.023 36.1577 165.194 36.1231C165.976 36.1231 166.757 35.9154 167.44 35.5002C168.091 35.0849 168.644 34.4621 169.002 33.7354C169.392 32.9049 169.588 32.0051 169.588 31.0708C169.62 30.1365 169.392 29.2368 169.002 28.4409C168.644 27.7142 168.091 27.0913 167.44 26.6761C166.757 26.2262 165.976 26.0186 165.194 26.0186ZM184.102 23.181C185.761 23.181 187.096 23.7693 188.105 24.9112C189.113 26.0532 189.601 27.6796 189.601 29.8251V38.7184H186.673V30.1711C186.673 28.8215 186.347 27.7488 185.696 26.9875C184.98 26.2262 184.004 25.811 182.995 25.8802C181.921 25.8456 180.913 26.2608 180.164 27.0913C179.448 27.8872 179.09 29.0638 179.09 30.621V38.7184H176.129V23.4579H179.09V26.8145C179.448 25.7071 180.099 24.7728 181.01 24.1499C181.921 23.4925 182.995 23.181 184.102 23.181Z" fill="white"/>
</mask>
<g mask="url(#mask0_1229_15161)">
<rect x="-1.06641" y="-14.498" width="210.796" height="98" fill="#718096"/>
</g>
</svg>
