<svg width="87" height="78" viewBox="0 0 87 78" fill="none" xmlns="http://www.w3.org/2000/svg">
<circle opacity="0.1" cx="55" cy="46" r="32" fill="#1AC486"/>
<path d="M35.6839 13.0078H15.0202C7.5 13.008 4 15.032 4 25.0565C4 35.0809 4 45.1378 4 49.1542C4.0009 53.9736 3.99999 50.5 4.00008 58.5L15.9385 51.5639H40.4491C45.5 51.5639 48.6327 49.8289 49 40.9611V35.1777" stroke="#1AC486" stroke-width="3.5" stroke-linecap="round" stroke-linejoin="round"/>
<path d="M49.9452 10.7567L55.7821 16.4237M52.3541 8.28547C53.1072 7.51295 54.1368 7.0706 55.2166 7.05573C56.2964 7.04086 57.3379 7.45469 58.1119 8.20618C58.8859 8.95766 59.3291 9.98525 59.3439 11.0629C59.3588 12.1405 58.9441 13.1799 58.191 13.9524L36.0803 36.6353L30.3812 36.7138L30.3013 30.909L52.3541 8.28547Z" stroke="#1AC486" stroke-width="3.5" stroke-linecap="round" stroke-linejoin="round"/>
<path d="M14 28H21" stroke="#1AC486" stroke-width="3.5" stroke-linecap="round"/>
<path d="M14 37H21" stroke="#1AC486" stroke-width="3.5" stroke-linecap="round"/>
</svg>
