<svg width="87" height="78" viewBox="0 0 87 78" fill="none" xmlns="http://www.w3.org/2000/svg">
<circle opacity="0.1" cx="55" cy="46" r="32" fill="#1AC486"/>
<path d="M4.01446 23.5519C4.18798 22.4988 4.2892 21.4314 4.54949 20.4067C6.87758 11.6972 12.5315 6.27503 21.4679 4.41072C30.1296 2.60334 39.2684 6.90121 43.7511 14.5434C51.1258 27.1097 43.7945 42.2092 29.797 45.4397C25.6325 46.3932 21.5402 46.0658 17.5637 44.5289C17.26 44.415 17.0576 44.4435 16.7828 44.6285C13.0665 47.0763 9.20567 47.3324 5.2002 45.3258C4.2169 44.8277 3.89878 43.8458 4.46273 42.9492C6.42931 39.7187 6.73298 36.3316 5.60508 32.7453C5.02667 30.9095 4.63625 29.0309 4.17352 27.1666C4.10122 26.8535 4.05784 26.5405 4 26.2274C4.01446 25.3308 4.01446 24.4484 4.01446 23.5519ZM8.2513 43.063C8.3959 43.1057 8.56942 43.1627 8.74295 43.1911C11.3024 43.7034 13.5871 43.1342 15.5392 41.4264C16.2478 40.8003 16.9563 40.7006 17.824 41.0991C21.1064 42.5934 24.548 43.0488 28.1341 42.4511C37.62 40.8999 44.9079 32.0622 43.0859 21.8868C41.4809 12.9211 32.8047 6.36042 23.5936 7.37084C17.0431 8.08241 12.2134 11.441 9.19121 17.1905C7.57167 20.2644 6.93542 23.5661 7.51383 27.0101C7.77411 28.6182 8.26576 30.1837 8.74295 31.7491C9.58164 34.51 9.89976 37.2851 9.19121 40.1029C8.95985 41.0991 8.58388 42.0668 8.2513 43.063Z" fill="#1AC486"/>
<path d="M52.4855 59.9994C51.9339 59.8804 51.3823 59.7913 50.8451 59.6426C49.5531 59.3008 48.3482 58.7657 47.2595 57.9482C46.9256 57.6955 46.6788 57.6806 46.2868 57.8144C38.4332 60.6088 31.2328 59.3899 24.7146 54.0985C24.0759 53.5782 23.8581 52.8648 24.0904 52.1662C24.3227 51.4824 24.8017 51.096 25.4986 51.0217C26.0357 50.9622 26.4712 51.1852 26.8922 51.5419C29.5343 53.8012 32.5538 55.1686 35.9653 55.674C39.4493 56.1942 42.8028 55.7483 46.011 54.2768C47.0127 53.816 47.753 53.9498 48.5805 54.6781C50.6709 56.5361 53.0953 56.9672 55.7809 56.2834C55.7519 56.1348 55.7373 56.0307 55.6938 55.9267C54.0098 51.9432 54.0679 47.9895 55.5051 43.902C57.7988 37.3768 56.8551 31.2678 52.7323 25.7088C52.5001 25.3966 52.2678 25.025 52.1807 24.6534C52.0065 23.8657 52.413 23.1374 53.0953 22.8252C53.8211 22.4982 54.547 22.6766 55.0986 23.3454C56.5213 25.0845 57.6391 27.0019 58.4375 29.1126C60.4989 34.5527 60.5279 40.0077 58.481 45.4775C57.1455 49.0448 57.552 52.4635 59.3375 55.7632C59.4972 56.0605 59.6714 56.3429 59.7585 56.6699C59.9473 57.4428 59.5988 58.1562 58.873 58.5724C57.6536 59.271 56.3616 59.7169 54.9825 59.8953C54.8373 59.9102 54.7066 59.9548 54.5615 59.9994C53.8647 59.9994 53.1678 59.9994 52.4855 59.9994Z" fill="#1AC486"/>
<path d="M16.0061 27.9992C14.5139 28.014 13.332 26.8289 13.332 25.3474C13.332 23.866 14.5287 22.666 16.0061 22.666C17.4539 22.666 18.6506 23.866 18.6654 25.303C18.6654 26.7992 17.4982 27.9844 16.0061 27.9992Z" fill="#1AC486"/>
<path d="M25.3492 27.9992C23.853 28.014 22.668 26.8437 22.668 25.3475C22.668 23.8661 23.8678 22.6513 25.3344 22.6661C26.7713 22.6661 27.9711 23.8513 28.0008 25.3031C28.0304 26.7696 26.8305 27.9844 25.3492 27.9992Z" fill="#1AC486"/>
<path d="M37 25.5001C37 26.9028 35.9028 28 34.5001 28C33.1112 28 31.9862 26.8611 32.0001 25.4862C32.014 24.1251 33.139 23.014 34.5001 23.0001C35.875 22.9862 37 24.1112 37 25.5001Z" fill="#1AC486"/>
</svg>
