<svg width="87" height="79" viewBox="0 0 87 79" fill="none" xmlns="http://www.w3.org/2000/svg">
<circle opacity="0.1" cx="55" cy="46.3643" r="32" fill="#1AC486"/>
<path d="M23.9997 32H39.9997M23.9997 42.6667H39.9997M45.333 56H18.6663C17.2519 56 15.8953 55.4381 14.8951 54.4379C13.8949 53.4377 13.333 52.0812 13.333 50.6667V13.3333C13.333 11.9188 13.8949 10.5623 14.8951 9.5621C15.8953 8.5619 17.2519 8 18.6663 8H33.5623C34.2695 8.00015 34.9477 8.2812 35.4477 8.78133L49.885 23.2187C50.3851 23.7186 50.6662 24.3968 50.6663 25.104V50.6667C50.6663 52.0812 50.1044 53.4377 49.1042 54.4379C48.1041 55.4381 46.7475 56 45.333 56Z" stroke="#1AC486" stroke-width="3.5" stroke-linecap="round" stroke-linejoin="round"/>
</svg>
