<svg width="83" height="71" viewBox="0 0 83 71" fill="none" xmlns="http://www.w3.org/2000/svg">
<path opacity="0.1" d="M83 39C83 56.6731 68.6731 71 51 71C33.3269 71 19 56.6731 19 39C19 21.3269 33.3269 7 51 7C68.6731 7 83 21.3269 83 39Z" fill="#1AC486"/>
<path d="M50 45.667H36L22 56.667V45.667H15C13.1435 45.667 11.363 44.9295 10.0503 43.6167C8.7375 42.304 8 40.5235 8 38.667V20.667C8 18.8105 8.7375 17.03 10.0503 15.7172C11.363 14.4045 13.1435 13.667 15 13.667H50C51.8565 13.667 53.637 14.4045 54.9497 15.7172C56.2625 17.03 57 18.8105 57 20.667V38.667C57 40.5235 56.2625 42.304 54.9497 43.6167C53.637 44.9295 51.8565 45.667 50 45.667Z" stroke="#1AC486" stroke-width="3.5" stroke-linecap="round" stroke-linejoin="round"/>
<path d="M30.607 33.0754C30.4894 33.0754 30.394 32.98 30.394 32.8624V32.8624C30.3995 31.8738 30.4923 31.0874 30.6726 30.503C30.8583 29.9186 31.1204 29.4489 31.459 29.0939C31.7976 28.7335 32.21 28.4031 32.696 28.1027C33.0292 27.8951 33.3269 27.6685 33.589 27.4227C33.8566 27.1715 34.0669 26.893 34.2198 26.5871C34.3727 26.2758 34.4492 25.929 34.4492 25.5467C34.4492 25.1152 34.3482 24.7411 34.1461 24.4244C33.944 24.1076 33.6709 23.8618 33.3269 23.6871C32.9882 23.5123 32.6087 23.4249 32.1881 23.4249C31.8004 23.4249 31.4317 23.5096 31.0822 23.6789C30.7381 23.8427 30.4514 24.0939 30.222 24.4325V24.4325C29.8026 25.0565 29.2561 25.7023 28.5044 25.7023H28.4448C27.614 25.7023 26.9144 25.0027 27.1569 24.2081C27.2815 23.7996 27.4567 23.4293 27.6824 23.0972C28.163 22.3981 28.7965 21.8738 29.583 21.5243C30.3749 21.1748 31.2488 21 32.2045 21C33.2477 21 34.1652 21.183 34.9571 21.5489C35.7545 21.9148 36.3744 22.4364 36.8167 23.1136C37.2646 23.7854 37.4885 24.5827 37.4885 25.5057C37.4885 26.1283 37.3875 26.6854 37.1854 27.177C36.9888 27.6685 36.7075 28.1054 36.3416 28.4877C35.9757 28.87 35.5415 29.2114 35.039 29.5117C34.5966 29.7848 34.2335 30.0688 33.9495 30.3637C33.6709 30.6587 33.4634 31.0055 33.3269 31.4041C33.1958 31.7974 33.1275 32.2834 33.122 32.8624V32.8624C33.122 32.98 33.0267 33.0754 32.909 33.0754H30.607ZM31.8195 38.1873C31.3279 38.1873 30.9047 38.0126 30.5497 37.663C30.1947 37.3135 30.0172 36.8875 30.0172 36.385C30.0172 35.8935 30.1947 35.473 30.5497 35.1234C30.9047 34.7739 31.3279 34.5991 31.8195 34.5991C32.3056 34.5991 32.7261 34.7739 33.0811 35.1234C33.4415 35.473 33.6218 35.8935 33.6218 36.385C33.6218 36.7182 33.5371 37.0213 33.3678 37.2944C33.204 37.5674 32.9855 37.7859 32.7124 37.9497C32.4448 38.1081 32.1472 38.1873 31.8195 38.1873Z" fill="#1AC486"/>
</svg>
