<svg width="325" height="324" viewBox="0 0 325 324" fill="none" xmlns="http://www.w3.org/2000/svg">
<g filter="url(#filter0_f_1743_18726)">
<ellipse cx="162.481" cy="161.842" rx="74.76" ry="74.8419" fill="#1AC486" fill-opacity="0.2"/>
</g>
<path d="M165 247C234.588 247 291 240.549 291 232.592C291 224.634 234.588 218.184 165 218.184C95.4121 218.184 39 224.634 39 232.592C39 240.549 95.4121 247 165 247Z" fill="#1A202C"/>
<path opacity="0.4" d="M229.68 219.024H103.68V228.275H229.68V219.024Z" fill="black"/>
<path d="M208.575 219.084H111.997C101.666 219.084 93.3555 210.754 93.3555 200.398V163.702C93.3555 149.294 105.035 137.587 119.409 137.587H208.799C219.131 137.587 227.441 145.917 227.441 156.273V200.398C227.216 210.754 218.906 219.084 208.575 219.084Z" fill="#15754E"/>
<path d="M233.501 147.268L180.047 215.482C176.902 219.534 171.063 220.21 167.244 217.058L130.635 188.467C126.592 185.315 125.918 179.462 129.063 175.634L182.517 107.42C185.662 103.368 191.501 102.693 195.319 105.845L231.929 134.436C235.747 137.588 236.421 143.441 233.501 147.268Z" fill="#355660"/>
<path d="M201.383 133.535L186.785 152.221C183.865 156.048 178.25 156.723 174.656 153.797C170.838 150.87 170.164 145.242 173.084 141.64L187.683 122.954C190.603 119.127 196.218 118.452 199.811 121.378C203.629 124.305 204.303 129.933 201.383 133.535Z" fill="#A0DFFE"/>
<path d="M179.824 120.028L174.883 206.477C174.658 211.43 170.166 215.482 165.225 215.032L118.958 212.33C114.016 212.105 109.974 207.603 110.423 202.65L115.364 116.2C115.589 111.248 120.081 107.195 125.022 107.646L171.289 110.347C176.23 110.572 180.049 115.075 179.824 120.028Z" fill="#5099B5"/>
<path d="M145.686 127.007L144.339 150.645C144.114 155.373 139.847 159.2 135.13 158.975C130.414 158.75 126.595 154.472 126.82 149.745L128.168 126.106C128.392 121.379 132.66 117.551 137.376 117.777C142.317 118.227 145.911 122.279 145.686 127.007Z" fill="#A0DFFE"/>
<path d="M217.781 147.268C220.758 147.268 223.171 144.849 223.171 141.865C223.171 138.881 220.758 136.462 217.781 136.462C214.804 136.462 212.391 138.881 212.391 141.865C212.391 144.849 214.804 147.268 217.781 147.268Z" fill="#00D046"/>
<path d="M215.308 150.87C218.285 150.87 220.699 148.451 220.699 145.467C220.699 142.483 218.285 140.064 215.308 140.064C212.331 140.064 209.918 142.483 209.918 145.467C209.918 148.451 212.331 150.87 215.308 150.87Z" fill="#C9FF97"/>
<path opacity="0.4" d="M113.342 146.593C113.342 146.593 115.812 141.415 127.267 141.64C138.721 141.865 217.556 141.64 217.556 141.64C217.556 141.64 227.213 140.739 229.684 151.546L113.342 146.593Z" fill="black"/>
<path d="M214.862 225.162H118.06C107.728 225.162 99.418 216.833 99.418 206.477V169.781C99.418 155.373 111.097 143.666 125.471 143.666H214.862C225.193 143.666 233.504 151.996 233.504 162.352V206.477C233.504 216.833 224.969 225.162 214.862 225.162Z" fill="#1AC486"/>
<path d="M232.378 208.556H192.175C185.886 208.556 180.945 203.378 180.945 197.3V187.394C180.945 181.091 186.111 176.138 192.175 176.138H232.378C238.667 176.138 243.608 181.316 243.608 187.394V197.3C243.608 203.378 238.667 208.556 232.378 208.556Z" fill="black" fill-opacity="0.7"/>
<path d="M232.378 205.801H192.175C185.886 205.801 180.945 200.623 180.945 194.545V184.639C180.945 178.336 186.111 173.383 192.175 173.383H232.378C238.667 173.383 243.608 178.561 243.608 184.639V194.545C243.608 200.623 238.667 205.801 232.378 205.801Z" fill="#15754E"/>
<path opacity="0.4" d="M84.5928 238.445C96.1287 238.445 105.48 236.732 105.48 234.618C105.48 232.504 96.1287 230.791 84.5928 230.791C73.0568 230.791 63.7051 232.504 63.7051 234.618C63.7051 236.732 73.0568 238.445 84.5928 238.445Z" fill="black"/>
<path opacity="0.4" d="M240.016 238.22C255.274 238.22 267.642 236.506 267.642 234.393C267.642 232.279 255.274 230.565 240.016 230.565C224.759 230.565 212.391 232.279 212.391 234.393C212.391 236.506 224.759 238.22 240.016 238.22Z" fill="black"/>
<path d="M197.117 199.048C201.582 199.048 205.202 195.419 205.202 190.943C205.202 186.467 201.582 182.838 197.117 182.838C192.651 182.838 189.031 186.467 189.031 190.943C189.031 195.419 192.651 199.048 197.117 199.048Z" fill="#0C5B41"/>
<path d="M196.668 197.472C201.133 197.472 204.753 193.843 204.753 189.367C204.753 184.891 201.133 181.263 196.668 181.263C192.202 181.263 188.582 184.891 188.582 189.367C188.582 193.843 192.202 197.472 196.668 197.472Z" fill="white"/>
<path d="M159.16 172.032H121.203C119.406 172.032 118.059 170.681 118.059 168.88C118.059 167.079 119.406 165.729 121.203 165.729H159.16C160.957 165.729 162.305 167.079 162.305 168.88C162.305 170.456 160.957 172.032 159.16 172.032Z" fill="#0C4115"/>
<path d="M159.16 183.964H121.203C119.406 183.964 118.059 182.613 118.059 180.812C118.059 179.011 119.406 177.661 121.203 177.661H159.16C160.957 177.661 162.305 179.011 162.305 180.812C162.305 182.613 160.957 183.964 159.16 183.964Z" fill="#0C4115"/>
<path d="M122.328 209.629C123.692 209.629 124.799 208.52 124.799 207.152C124.799 205.785 123.692 204.676 122.328 204.676C120.964 204.676 119.857 205.785 119.857 207.152C119.857 208.52 120.964 209.629 122.328 209.629Z" fill="#1F7C59"/>
<path d="M131.535 209.629C132.9 209.629 134.006 208.52 134.006 207.152C134.006 205.785 132.9 204.676 131.535 204.676C130.171 204.676 129.064 205.785 129.064 207.152C129.064 208.52 130.171 209.629 131.535 209.629Z" fill="#1F7C59"/>
<path d="M140.517 209.629C141.882 209.629 142.988 208.52 142.988 207.152C142.988 205.785 141.882 204.676 140.517 204.676C139.153 204.676 138.047 205.785 138.047 207.152C138.047 208.52 139.153 209.629 140.517 209.629Z" fill="#1F7C59"/>
<path d="M272.986 220.908H218.904V234.393H272.986V220.908Z" fill="#F8B100"/>
<path d="M267.605 220.908H256.035V234.393H267.605V220.908Z" fill="#FFC655"/>
<path d="M251.46 220.908H239.891V234.393H251.46V220.908Z" fill="#FFC655"/>
<path d="M277.559 207.693H223.477V221.178H277.559V207.693Z" fill="#F8B100"/>
<path d="M272.177 207.693H260.607V221.178H272.177V207.693Z" fill="#FFC655"/>
<path d="M255.765 207.693H244.195V221.178H255.765V207.693Z" fill="#FFC655"/>
<path d="M85.2681 236.644C102.262 236.644 116.038 222.835 116.038 205.802C116.038 188.768 102.262 174.959 85.2681 174.959C68.2743 174.959 54.498 188.768 54.498 205.802C54.498 222.835 68.2743 236.644 85.2681 236.644Z" fill="#F8B300"/>
<path d="M85.2666 227.864C97.4227 227.864 107.277 217.986 107.277 205.801C107.277 193.617 97.4227 183.739 85.2666 183.739C73.1104 183.739 63.2559 193.617 63.2559 205.801C63.2559 217.986 73.1104 227.864 85.2666 227.864Z" fill="#BC870F"/>
<path d="M85.2686 226.288C96.5565 226.288 105.707 217.116 105.707 205.802C105.707 194.487 96.5565 185.315 85.2686 185.315C73.9807 185.315 64.8301 194.487 64.8301 205.802C64.8301 217.116 73.9807 226.288 85.2686 226.288Z" fill="#CE920D"/>
<path d="M167.697 132.185C170.674 132.185 173.087 129.766 173.087 126.781C173.087 123.797 170.674 121.378 167.697 121.378C164.72 121.378 162.307 123.797 162.307 126.781C162.307 129.766 164.72 132.185 167.697 132.185Z" fill="#00D046"/>
<path d="M167.697 136.687C170.674 136.687 173.087 134.268 173.087 131.284C173.087 128.3 170.674 125.881 167.697 125.881C164.72 125.881 162.307 128.3 162.307 131.284C162.307 134.268 164.72 136.687 167.697 136.687Z" fill="#C9FF97"/>
<path d="M89.114 193.797C89.0434 193.797 89.0434 193.797 89.114 193.797C89.0434 193.797 89.0434 193.797 88.9728 193.797C88.9728 193.797 88.9728 193.797 88.9022 193.797C88.9022 193.797 88.9022 193.797 88.8316 193.797H88.761C88.6903 193.797 88.6197 193.797 88.5491 193.797H75.6282C74.4279 193.797 73.4395 194.792 73.4395 196C73.4395 197.208 74.4279 198.203 75.6282 198.203H88.5491C88.6197 198.203 88.6903 198.203 88.761 198.203C88.8316 198.203 88.9022 198.203 88.9728 198.203C91.444 198.203 93.4209 200.193 93.4209 202.68C93.4209 205.167 91.444 207.157 88.9728 207.157H84.5246V204.954H88.9728C90.1731 204.954 91.1616 203.959 91.1616 202.751C91.1616 201.543 90.1731 200.548 88.9728 200.548H82.3358H78.6643C77.464 200.548 76.4755 201.543 76.4755 202.751C76.4755 203.959 77.464 204.954 78.6643 204.954H80.147V207.157V211.634V216.822C80.147 218.03 81.1355 219.024 82.3358 219.024C83.5361 219.024 84.5246 218.03 84.5246 216.822V211.634H88.9728C93.8446 211.634 97.7985 207.654 97.7985 202.751C97.8691 197.848 93.9858 193.868 89.114 193.797Z" fill="white"/>
<defs>
<filter id="filter0_f_1743_18726" x="0.720703" y="0" width="323.52" height="323.684" filterUnits="userSpaceOnUse" color-interpolation-filters="sRGB">
<feFlood flood-opacity="0" result="BackgroundImageFix"/>
<feBlend mode="normal" in="SourceGraphic" in2="BackgroundImageFix" result="shape"/>
<feGaussianBlur stdDeviation="43.5" result="effect1_foregroundBlur_1743_18726"/>
</filter>
</defs>
</svg>
