<svg width="221" height="144" viewBox="0 0 221 144" fill="none" xmlns="http://www.w3.org/2000/svg">
<path d="M168.882 144H8.02926C3.61317 144 0 140.366 0 135.925V14.2652C0 9.82408 3.61317 6.19043 8.02926 6.19043H168.882C173.298 6.19043 176.911 9.82408 176.911 14.2652V135.925C176.911 140.366 173.298 144 168.882 144Z" fill="#000612"/>
<path d="M173.699 137.809H12.8457C8.42957 137.809 4.81641 134.176 4.81641 129.735V8.07477C4.81641 3.63364 8.42957 0 12.8457 0H173.699C178.115 0 181.728 3.63364 181.728 8.07477V129.735C181.728 134.176 178.115 137.809 173.699 137.809Z" fill="#15754E"/>
<path d="M165.804 128.927H20.7422C16.3261 128.927 12.7129 125.293 12.7129 120.852V16.8223C12.7129 12.3812 16.3261 8.74756 20.7422 8.74756H165.67C170.086 8.74756 173.7 12.3812 173.7 16.8223V120.852C173.833 125.293 170.22 128.927 165.804 128.927Z" fill="#0C4115"/>
<path d="M35.7304 112.508C31.3143 112.508 27.7012 108.875 27.7012 104.434V92.4561C27.7012 88.015 31.3143 84.3813 35.7304 84.3813C40.1465 84.3813 43.7597 88.015 43.7597 92.4561V104.434C43.7597 108.875 40.1465 112.508 35.7304 112.508Z" fill="#71FFB9"/>
<path d="M55.2675 112.508C50.8514 112.508 47.2383 108.875 47.2383 104.433V79.94C47.2383 75.4989 50.8514 71.8652 55.2675 71.8652C59.6836 71.8652 63.2968 75.4989 63.2968 79.94V104.433C63.2968 108.875 59.6836 112.508 55.2675 112.508Z" fill="#71FFB9"/>
<path d="M74.8047 112.509C70.3886 112.509 66.7754 108.875 66.7754 104.434V71.8658C66.7754 67.4247 70.3886 63.791 74.8047 63.791C79.2207 63.791 82.8339 67.4247 82.8339 71.8658V104.434C82.8339 108.875 79.2207 112.509 74.8047 112.509Z" fill="#71FFB9"/>
<path d="M94.4785 112.508C90.0624 112.508 86.4492 108.875 86.4492 104.434V59.2149C86.4492 54.7738 90.0624 51.1401 94.4785 51.1401C98.8946 51.1401 102.508 54.7738 102.508 59.2149V104.434C102.508 108.875 98.8946 112.508 94.4785 112.508Z" fill="#71FFB9"/>
<path d="M159.113 36.8749H27.9681C24.8903 36.8749 22.3477 34.3179 22.3477 31.2225V25.8393C22.3477 22.744 24.8903 20.187 27.9681 20.187H159.113C162.191 20.187 164.867 22.744 164.867 25.8393V31.2225C164.867 34.3179 162.324 36.8749 159.113 36.8749Z" fill="white"/>
<path d="M162.057 55.8504H122.847C121.777 55.8504 120.84 54.9083 120.84 53.8317C120.84 52.755 121.777 51.813 122.847 51.813H162.057C163.127 51.813 164.064 52.755 164.064 53.8317C164.064 54.9083 163.127 55.8504 162.057 55.8504Z" fill="white"/>
<path d="M162.058 64.3289H133.287C132.216 64.3289 131.279 63.3868 131.279 62.3102C131.279 61.2336 132.216 60.2915 133.287 60.2915H162.058C163.129 60.2915 164.065 61.2336 164.065 62.3102C164.065 63.5214 163.129 64.3289 162.058 64.3289Z" fill="white"/>
<path d="M162.057 74.4221H126.46C125.39 74.4221 124.453 73.4801 124.453 72.4035C124.453 71.3268 125.39 70.3848 126.46 70.3848H162.057C163.127 70.3848 164.064 71.3268 164.064 72.4035C164.064 73.4801 163.127 74.4221 162.057 74.4221Z" fill="white"/>
<path d="M162.057 93.9368H122.847C121.777 93.9368 120.84 92.9947 120.84 91.9181C120.84 90.8415 121.777 89.8994 122.847 89.8994H162.057C163.127 89.8994 164.064 90.8415 164.064 91.9181C164.064 93.1293 163.127 93.9368 162.057 93.9368Z" fill="white"/>
<path d="M162.058 102.55H133.287C132.216 102.55 131.279 101.608 131.279 100.531C131.279 99.4543 132.216 98.5122 133.287 98.5122H162.058C163.129 98.5122 164.065 99.4543 164.065 100.531C164.065 101.608 163.129 102.55 162.058 102.55Z" fill="white"/>
<path d="M162.057 112.508H126.46C125.39 112.508 124.453 111.566 124.453 110.489C124.453 109.413 125.39 108.471 126.46 108.471H162.057C163.127 108.471 164.064 109.413 164.064 110.489C164.064 111.566 163.127 112.508 162.057 112.508Z" fill="white"/>
<path d="M201.343 84H187.082V89.5946H201.343V84Z" fill="#71FFB9"/>
<path d="M197.991 87.3711H190.361V93.1092H197.991V87.3711Z" fill="#71FFB9"/>
<path d="M206.724 97.8223L212.119 103.249L216.153 99.1916L210.758 93.7649L206.724 97.8223Z" fill="#71FFB9"/>
<path d="M176.054 103.234L181.449 97.8071L177.416 93.7497L172.021 99.1765L176.054 103.234Z" fill="#71FFB9"/>
<path d="M194.212 144C208.455 144 220.001 132.436 220.001 118.172C220.001 103.907 208.455 92.3438 194.212 92.3438C179.968 92.3438 168.422 103.907 168.422 118.172C168.422 132.436 179.968 144 194.212 144Z" fill="#60FFC5"/>
<path d="M194.212 139.469C205.957 139.469 215.478 129.934 215.478 118.172C215.478 106.41 205.957 96.875 194.212 96.875C182.468 96.875 172.947 106.41 172.947 118.172C172.947 129.934 182.468 139.469 194.212 139.469Z" fill="#15754E"/>
<path d="M194.21 119.281C194.88 119.281 195.422 118.735 195.422 118.062C195.422 117.388 194.88 116.842 194.21 116.842C193.541 116.842 192.998 117.388 192.998 118.062C192.998 118.735 193.541 119.281 194.21 119.281Z" fill="#60FFC5"/>
<path d="M194.854 99.269H193.57V103.788H194.854V99.269Z" fill="white"/>
<path d="M179.814 118.928V117.207H175.322V118.928H179.814Z" fill="white"/>
<path d="M213.104 118.937V117.216H208.611V118.937H213.104Z" fill="white"/>
<path d="M194.854 132.407H193.57V136.925H194.854V132.407Z" fill="white"/>
<path d="M204.925 127.937L203.967 128.9L207.143 132.096L208.101 131.132L204.925 127.937Z" fill="white"/>
<path d="M181.42 104.11L180.361 105.175L183.538 108.37L184.596 107.305L181.42 104.11Z" fill="white"/>
<path d="M203.645 107.469L204.754 108.585L207.93 105.39L206.821 104.274L203.645 107.469Z" fill="white"/>
<path d="M180.523 130.831L181.48 131.794L184.657 128.599L183.699 127.636L180.523 130.831Z" fill="white"/>
<path d="M194.141 115.623C193.713 115.623 193.428 115.264 193.428 114.906V106.657C193.428 106.227 193.784 105.94 194.141 105.94C194.569 105.94 194.854 106.299 194.854 106.657V114.906C194.854 115.336 194.497 115.623 194.141 115.623Z" fill="#60FFC5"/>
<path d="M196.352 118.205C196.352 117.774 196.708 117.487 197.065 117.487H201.485C201.913 117.487 202.198 117.846 202.198 118.205C202.198 118.635 201.842 118.922 201.485 118.922H197.065C196.637 118.922 196.352 118.635 196.352 118.205Z" fill="#60FFC5"/>
</svg>
