<svg width="324" height="324" viewBox="0 0 324 324" fill="none" xmlns="http://www.w3.org/2000/svg">
<g filter="url(#filter0_f_1743_18799)">
<ellipse cx="161.885" cy="161.842" rx="74.8717" ry="74.8419" fill="#1AC486" fill-opacity="0.2"/>
</g>
<g clip-path="url(#clip0_1743_18799)">
<path d="M137.824 245.349L88.1867 259.039C83.6092 260.323 78.8887 257.613 77.6013 253.05L54.2847 168.772C52.9973 164.209 55.7152 159.503 60.2927 158.219L109.93 144.529C114.507 143.246 119.228 145.955 120.515 150.519L143.975 234.797C145.119 239.36 142.401 244.066 137.824 245.349Z" fill="#15754E"/>
<path d="M132.387 242.212L91.4761 253.478C86.8986 254.761 82.1781 252.052 80.8907 247.488L59.8629 171.909C58.5754 167.346 61.2933 162.64 65.8708 161.356L106.782 150.091C111.36 148.807 116.08 151.517 117.367 156.08L138.395 231.66C139.54 236.223 136.822 240.929 132.387 242.212Z" fill="#0C4115"/>
<path d="M103.065 170.626L70.0212 179.752C68.8768 180.037 67.7325 179.324 67.4464 178.326C67.1603 177.185 67.8755 176.044 68.8768 175.759L101.921 166.633C103.065 166.348 104.209 167.061 104.495 168.059C104.925 169.057 104.209 170.34 103.065 170.626Z" fill="#1B6019"/>
<path d="M88.474 182.034L71.8806 186.597C70.7362 186.882 69.5918 186.169 69.3058 185.171C69.0197 184.03 69.7349 182.889 70.7362 182.604L87.3296 178.041C88.474 177.756 89.6183 178.469 89.9044 179.467C90.1905 180.608 89.6183 181.749 88.474 182.034Z" fill="#1B6019"/>
<path d="M99.9174 186.312L73.74 193.585C72.5956 193.87 71.4512 193.157 71.1651 192.159C70.879 191.018 71.5943 189.877 72.5956 189.592L98.7731 182.319C99.9174 182.034 101.062 182.747 101.348 183.745C101.777 184.743 101.062 185.884 99.9174 186.312Z" fill="#1B6019"/>
<path d="M109.932 195.296L76.8884 204.423C75.744 204.708 74.5997 203.995 74.3136 202.997C74.0275 201.856 74.7427 200.715 75.744 200.43L108.788 191.303C109.932 191.018 111.076 191.731 111.363 192.729C111.792 193.87 111.076 195.011 109.932 195.296Z" fill="#1B6019"/>
<path d="M95.3412 206.847L78.7478 211.41C77.6034 211.695 76.459 210.982 76.1729 209.984C75.8869 208.843 76.6021 207.702 77.6034 207.417L94.1968 202.854C95.3412 202.569 96.4855 203.282 96.7716 204.28C97.0577 205.278 96.4855 206.419 95.3412 206.847Z" fill="#1B6019"/>
<path d="M106.785 210.982L80.6072 218.255C79.4628 218.54 78.3184 217.827 78.0323 216.829C77.7462 215.688 78.4615 214.547 79.4628 214.262L105.64 206.989C106.785 206.704 107.929 207.417 108.215 208.415C108.644 209.556 107.929 210.697 106.785 210.982Z" fill="#1B6019"/>
<path d="M116.797 220.109L83.7536 229.236C82.6093 229.521 81.4649 228.808 81.1788 227.81C80.8927 226.669 81.6079 225.528 82.6093 225.243L115.653 216.116C116.797 215.831 117.942 216.544 118.228 217.542C118.657 218.54 117.942 219.824 116.797 220.109Z" fill="#1B6019"/>
<path d="M102.206 231.517L85.613 236.08C84.4686 236.365 83.3243 235.652 83.0382 234.654C82.7521 233.513 83.4673 232.372 84.4686 232.087L101.062 227.524C102.206 227.239 103.351 227.952 103.637 228.95C103.923 229.948 103.351 231.231 102.206 231.517Z" fill="#1B6019"/>
<path d="M113.65 235.795L87.4724 243.068C86.328 243.353 85.1836 242.64 84.8976 241.642C84.6115 240.501 85.3267 239.36 86.328 239.075L112.505 231.802C113.65 231.517 114.794 232.23 115.08 233.228C115.509 234.226 114.794 235.367 113.65 235.795Z" fill="#1B6019"/>
<path d="M186.176 245.349L235.813 259.039C240.39 260.323 245.111 257.613 246.398 253.05L269.858 168.772C271.145 164.209 268.427 159.503 263.85 158.219L214.213 144.529C209.635 143.246 204.915 145.955 203.627 150.519L180.168 234.797C178.88 239.36 181.598 244.066 186.176 245.349Z" fill="#15754E"/>
<path d="M191.754 242.212L232.665 253.478C237.242 254.761 241.963 252.052 243.25 247.488L264.278 171.909C265.566 167.346 262.848 162.64 258.27 161.356L217.359 150.091C212.781 148.807 208.061 151.517 206.773 156.08L185.746 231.66C184.458 236.223 187.176 240.929 191.754 242.212Z" fill="#0C4115"/>
<path d="M214.068 195.296L247.112 204.423C248.256 204.708 249.4 203.995 249.686 202.997C249.972 201.856 249.257 200.715 248.256 200.43L215.212 191.303C214.068 191.018 212.923 191.731 212.637 192.729C212.351 193.87 212.923 195.011 214.068 195.296Z" fill="#1B6019"/>
<path d="M228.802 206.847L245.396 211.41C246.54 211.695 247.685 210.982 247.971 209.984C248.257 208.843 247.542 207.702 246.54 207.417L229.947 202.711C228.802 202.426 227.658 203.139 227.372 204.137C226.943 205.278 227.658 206.419 228.802 206.847Z" fill="#1B6019"/>
<path d="M217.215 210.982L243.392 218.255C244.536 218.54 245.681 217.827 245.967 216.829C246.253 215.688 245.538 214.547 244.536 214.262L218.359 206.989C217.215 206.704 216.07 207.417 215.784 208.415C215.355 209.556 216.07 210.697 217.215 210.982Z" fill="#1B6019"/>
<path d="M207.203 220.109L240.246 229.236C241.391 229.521 242.535 228.808 242.821 227.81C243.107 226.669 242.392 225.528 241.391 225.243L208.347 216.116C207.203 215.831 206.058 216.544 205.772 217.542C205.486 218.54 206.058 219.824 207.203 220.109Z" fill="#1B6019"/>
<path d="M221.935 231.517L238.529 236.08C239.673 236.365 240.817 235.652 241.103 234.654C241.39 233.513 240.674 232.372 239.673 232.087L223.08 227.524C221.935 227.239 220.791 227.952 220.505 228.95C220.076 229.948 220.791 231.231 221.935 231.517Z" fill="#1B6019"/>
<path d="M210.349 235.795L236.527 243.068C237.671 243.353 238.816 242.64 239.102 241.642C239.388 240.501 238.672 239.36 237.671 239.075L211.494 231.802C210.349 231.517 209.205 232.23 208.919 233.228C208.49 234.226 209.205 235.367 210.349 235.795Z" fill="#1B6019"/>
<path d="M167.723 187.881C168.152 186.74 168.867 185.742 169.869 185.029C170.87 184.316 171.871 184.03 173.302 183.888V189.164C172.587 189.307 172.014 189.449 171.585 189.877C171.156 190.305 171.013 190.875 171.013 191.588C171.013 192.301 171.156 192.872 171.585 193.299C171.871 193.727 172.444 193.87 173.016 193.87C173.445 193.87 173.874 193.727 174.303 193.299C174.589 193.014 174.875 192.586 175.161 192.016C175.304 191.588 175.591 190.875 175.877 189.877C176.306 188.594 176.735 187.453 177.021 186.74C177.45 185.884 178.022 185.171 178.738 184.601C179.453 184.03 180.597 183.745 181.742 183.745C183.601 183.745 185.032 184.458 186.176 185.742C187.177 187.168 187.75 188.879 187.75 191.018C187.75 193.299 187.177 195.011 186.176 196.437C185.175 197.863 183.601 198.576 181.742 198.576V193.299C182.457 193.299 182.886 193.014 183.315 192.586C183.744 192.159 183.887 191.588 183.887 190.875C183.887 190.305 183.744 189.877 183.458 189.449C183.172 189.021 182.743 188.879 182.028 188.879C181.312 188.879 180.883 189.164 180.454 189.734C180.025 190.305 179.739 191.303 179.31 192.586C178.881 193.87 178.452 194.868 178.022 195.724C177.593 196.579 177.021 197.292 176.306 197.863C175.591 198.433 174.589 198.718 173.302 198.718C172.157 198.718 171.156 198.433 170.155 197.863C169.154 197.292 168.438 196.437 167.866 195.296C167.294 194.155 167.008 192.872 167.008 191.303C167.008 190.447 167.294 189.021 167.723 187.881Z" fill="black"/>
<path d="M191.312 190.109V188.398H164.134V190.109H191.312Z" fill="black"/>
<path d="M191.365 194.012V192.3H164.186V194.012H191.365Z" fill="black"/>
<path d="M192.755 243.496H129.528C124.808 243.496 120.945 239.645 120.945 234.939V129.556C120.945 124.85 124.808 121 129.528 121H192.755C197.475 121 201.337 124.85 201.337 129.556V234.939C201.337 239.645 197.475 243.496 192.755 243.496Z" fill="#15A06B"/>
<path d="M196.474 144.957V212.408C187.462 212.408 180.166 219.681 180.166 228.665H143.833C143.833 219.681 136.537 212.408 127.525 212.408V144.957C136.537 144.957 143.833 137.685 143.833 128.701H180.309C180.309 137.685 187.605 144.957 196.474 144.957Z" fill="#0C4115"/>
<path d="M142.689 205.135C140.687 205.135 139.113 203.567 139.113 201.57V155.938C139.113 153.941 140.687 152.373 142.689 152.373C144.692 152.373 146.266 153.941 146.266 155.938V201.57C146.266 203.567 144.692 205.135 142.689 205.135Z" fill="#15A06B"/>
<path d="M177.736 200.858C185.005 200.858 190.897 194.984 190.897 187.738C190.897 180.492 185.005 174.619 177.736 174.619C170.468 174.619 164.576 180.492 164.576 187.738C164.576 194.984 170.468 200.858 177.736 200.858Z" fill="#15A06B"/>
<path d="M154.705 202.141C152.702 202.141 151.129 200.572 151.129 198.576V158.932C151.129 156.936 152.702 155.367 154.705 155.367C156.708 155.367 158.281 156.936 158.281 158.932V198.576C158.281 200.43 156.708 202.141 154.705 202.141Z" fill="#15A06B"/>
<path d="M157.422 281C185.073 281 207.488 258.654 207.488 231.089C207.488 203.524 185.073 181.178 157.422 181.178C129.771 181.178 107.355 203.524 107.355 231.089C107.355 258.654 129.771 281 157.422 281Z" fill="#000612"/>
<path d="M159.569 275.296C185.639 275.296 206.774 254.227 206.774 228.237C206.774 202.247 185.639 181.178 159.569 181.178C133.498 181.178 112.363 202.247 112.363 228.237C112.363 254.227 133.498 275.296 159.569 275.296Z" fill="#1AC486"/>
<path d="M160.283 266.74C181.613 266.74 198.905 249.501 198.905 228.237C198.905 206.973 181.613 189.734 160.283 189.734C138.952 189.734 121.66 206.973 121.66 228.237C121.66 249.501 138.952 266.74 160.283 266.74Z" fill="#03422A"/>
<path d="M160.279 264.656C180.478 264.656 196.853 248.288 196.853 228.097C196.853 207.906 180.478 191.538 160.279 191.538C140.08 191.538 123.705 207.906 123.705 228.097C123.705 248.288 140.08 264.656 160.279 264.656Z" fill="#106F4A"/>
<path d="M244.109 189.449C250.271 189.449 255.266 184.469 255.266 178.326C255.266 172.183 250.271 167.203 244.109 167.203C237.947 167.203 232.951 172.183 232.951 178.326C232.951 184.469 237.947 189.449 244.109 189.449Z" fill="#1B6019"/>
<path d="M245.749 176.877C247.247 176.797 248.397 175.52 248.316 174.025C248.235 172.531 246.955 171.385 245.456 171.466C243.957 171.547 242.808 172.824 242.888 174.318C242.969 175.813 244.25 176.958 245.749 176.877Z" fill="#1AC486"/>
<path d="M248.757 184.855L236.957 181.208C238.089 178.291 241.432 176.539 244.493 177.516C247.705 178.628 249.453 181.819 248.757 184.855Z" fill="#1AC486"/>
<path d="M166.449 212.183C166.342 212.183 166.342 212.183 166.449 212.183C166.342 212.183 166.342 212.183 166.234 212.183C166.234 212.183 166.235 212.183 166.127 212.183C166.127 212.183 166.127 212.183 166.02 212.183H165.913C165.805 212.183 165.698 212.183 165.591 212.183H145.964C144.14 212.183 142.639 213.675 142.639 215.488C142.639 217.3 144.14 218.793 145.964 218.793H165.591C165.698 218.793 165.805 218.793 165.913 218.793C166.02 218.793 166.127 218.793 166.234 218.793C169.988 218.793 172.991 221.778 172.991 225.51C172.991 229.242 169.988 232.227 166.234 232.227H159.478V228.922H166.234C168.058 228.922 169.559 227.429 169.559 225.617C169.559 223.804 168.058 222.311 166.234 222.311H156.153H150.575C148.752 222.311 147.251 223.804 147.251 225.617C147.251 227.429 148.752 228.922 150.575 228.922H152.828V232.227V238.944V246.727C152.828 248.539 154.329 250.032 156.153 250.032C157.976 250.032 159.478 248.539 159.478 246.727V238.944H166.234C173.635 238.944 179.641 232.973 179.641 225.617C179.748 218.26 173.85 212.289 166.449 212.183Z" fill="white"/>
</g>
<defs>
<filter id="filter0_f_1743_18799" x="0.0136719" y="0" width="323.744" height="323.684" filterUnits="userSpaceOnUse" color-interpolation-filters="sRGB">
<feFlood flood-opacity="0" result="BackgroundImageFix"/>
<feBlend mode="normal" in="SourceGraphic" in2="BackgroundImageFix" result="shape"/>
<feGaussianBlur stdDeviation="43.5" result="effect1_foregroundBlur_1743_18799"/>
</filter>
<clipPath id="clip0_1743_18799">
<rect width="216" height="160" fill="white" transform="translate(54 121)"/>
</clipPath>
</defs>
</svg>
