<svg width="334" height="334" viewBox="0 0 334 334" fill="none" xmlns="http://www.w3.org/2000/svg">
<g filter="url(#filter0_f_1743_18846)">
<ellipse cx="167.3" cy="167.447" rx="79.5344" ry="79.5531" fill="#1AC486" fill-opacity="0.2"/>
</g>
<path d="M81.9791 161.725L107.311 178.805C107.311 178.805 97.0939 212.612 124.608 237.136C124.608 237.146 66.5727 226.413 81.9791 161.725Z" fill="#1AC486"/>
<path d="M112.53 135.492C115.979 133.581 120.213 136.116 120.143 140.069L119.73 163.435L119.318 186.802C119.248 190.755 114.934 193.149 111.544 191.107L91.5121 179.067L71.4898 167.036C68.1007 165.004 68.1913 160.065 71.6406 158.144L92.0753 146.818L112.53 135.492Z" fill="#1AC486"/>
<path d="M111.615 202.604C111.615 202.604 115.115 224.512 129.576 237.649C129.576 237.649 160.67 248.382 189.14 220.126C189.13 220.126 140.96 229.773 111.615 202.604Z" fill="#106E4A"/>
<path d="M250.01 164.924L224.678 147.845C224.678 147.845 234.895 114.037 207.381 89.5137C207.381 89.5036 265.406 100.236 250.01 164.924Z" fill="#1AC486"/>
<path d="M219.459 191.167C216.01 193.078 211.776 190.544 211.847 186.591L212.259 163.224L212.671 139.857C212.742 135.904 217.056 133.51 220.445 135.552L240.477 147.593L260.51 159.633C263.899 161.665 263.808 166.604 260.359 168.525L239.924 179.851L219.459 191.167Z" fill="#1AC486"/>
<path d="M220.375 124.045C220.375 124.045 216.875 102.137 202.414 89.0004C202.414 89.0004 171.319 78.2677 142.85 106.523C142.85 106.523 191.03 96.8865 220.375 124.045Z" fill="#106E4A"/>
<path d="M200.583 167.591C200.583 186.914 184.925 202.575 165.607 202.575C162.127 202.575 158.758 202.062 155.591 201.117C152.473 200.191 149.537 198.834 146.852 197.113C143.784 195.162 141.039 192.738 138.726 189.952C136.755 187.588 135.096 184.962 133.798 182.126C133.225 180.889 132.732 179.611 132.31 178.294C131.928 177.097 131.606 175.859 131.345 174.602C130.882 172.329 130.641 169.985 130.641 167.571C130.641 148.248 146.298 132.586 165.617 132.586C168.02 132.586 170.374 132.828 172.646 133.291C173.903 133.552 175.13 133.874 176.337 134.256C177.644 134.679 178.922 135.172 180.168 135.745C182.994 137.042 185.629 138.702 187.992 140.674C190.778 142.987 193.192 145.733 195.153 148.801C196.862 151.487 198.22 154.424 199.155 157.542C200.07 160.741 200.583 164.111 200.583 167.591Z" fill="#000612"/>
<path d="M200.583 163.304C200.583 182.627 184.925 198.289 165.607 198.289C162.127 198.289 158.758 197.776 155.591 196.83C152.473 195.905 149.537 194.547 146.852 192.827C143.784 190.875 141.039 188.451 138.726 185.665C136.755 183.301 135.096 180.676 133.798 177.839C133.225 176.602 132.732 175.325 132.31 174.007C131.928 172.81 131.606 171.573 131.345 170.315C130.882 168.042 130.641 165.698 130.641 163.284C130.641 143.961 146.298 128.3 165.617 128.3C168.02 128.3 170.374 128.541 172.646 129.004C173.903 129.265 175.13 129.587 176.337 129.97C177.644 130.392 178.922 130.885 180.168 131.458C182.994 132.756 185.629 134.416 187.992 136.387C190.778 138.701 193.192 141.447 195.153 144.515C196.862 147.2 198.22 150.137 199.155 153.256C200.07 156.454 200.583 159.824 200.583 163.304Z" fill="#1AC486"/>
<path d="M165.607 189.105C179.853 189.105 191.402 177.554 191.402 163.304C191.402 149.055 179.853 137.503 165.607 137.503C151.361 137.503 139.812 149.055 139.812 163.304C139.812 177.554 151.361 189.105 165.607 189.105Z" fill="#03422A"/>
<path d="M165.608 187.646C179.049 187.646 189.945 176.748 189.945 163.304C189.945 149.86 179.049 138.962 165.608 138.962C152.167 138.962 141.271 149.86 141.271 163.304C141.271 176.748 152.167 187.646 165.608 187.646Z" fill="#106E4A"/>
<path opacity="0.1" d="M187.973 136.407L138.717 185.675C136.746 183.311 135.086 180.686 133.789 177.849L180.149 131.478C182.975 132.776 185.61 134.435 187.973 136.407Z" fill="white"/>
<path opacity="0.1" d="M199.125 153.286L191.311 161.112L189.933 162.49L164.792 187.637L163.414 189.015L155.6 196.83C152.483 195.905 149.546 194.547 146.861 192.827L153.569 186.118L154.645 185.041L187.328 152.33L188.414 151.244L195.122 144.535C196.832 147.22 198.189 150.158 199.125 153.286Z" fill="white"/>
<path opacity="0.1" d="M176.318 129.99L168.635 137.674L167.297 139.012L141.332 164.994L139.994 166.332L132.311 174.017C131.929 172.82 131.607 171.583 131.346 170.325L139.863 161.805L141.473 160.196L164.12 137.544L172.637 129.024L176.318 129.99Z" fill="white"/>
<path d="M169.679 151.357C169.604 151.357 169.604 151.357 169.679 151.357C169.604 151.357 169.604 151.357 169.529 151.357C169.529 151.357 169.529 151.357 169.454 151.357C169.454 151.357 169.454 151.357 169.379 151.357H169.304C169.229 151.357 169.154 151.357 169.079 151.357H155.332C154.056 151.357 153.004 152.415 153.004 153.699C153.004 154.983 154.056 156.041 155.332 156.041H169.079C169.154 156.041 169.229 156.041 169.304 156.041C169.379 156.041 169.454 156.041 169.529 156.041C172.158 156.041 174.261 158.156 174.261 160.8C174.261 163.443 172.158 165.558 169.529 165.558H164.797V163.217H169.529C170.806 163.217 171.858 162.159 171.858 160.875C171.858 159.591 170.806 158.533 169.529 158.533H162.468H158.562C157.285 158.533 156.234 159.591 156.234 160.875C156.234 162.159 157.285 163.217 158.562 163.217H160.14V165.558V170.317V175.831C160.14 177.116 161.191 178.173 162.468 178.173C163.745 178.173 164.797 177.116 164.797 175.831V170.317H169.529C174.712 170.317 178.919 166.087 178.919 160.875C178.994 155.663 174.862 151.433 169.679 151.357Z" fill="white"/>
<defs>
<filter id="filter0_f_1743_18846" x="0.765625" y="0.894043" width="333.068" height="333.106" filterUnits="userSpaceOnUse" color-interpolation-filters="sRGB">
<feFlood flood-opacity="0" result="BackgroundImageFix"/>
<feBlend mode="normal" in="SourceGraphic" in2="BackgroundImageFix" result="shape"/>
<feGaussianBlur stdDeviation="43.5" result="effect1_foregroundBlur_1743_18846"/>
</filter>
</defs>
</svg>
