<svg width="352" height="353" viewBox="0 0 352 353" fill="none" xmlns="http://www.w3.org/2000/svg">
<g filter="url(#filter0_f_1743_18928)">
<ellipse cx="176" cy="176.626" rx="89" ry="88.657" fill="#1AC486" fill-opacity="0.2"/>
</g>
<path d="M190.195 261.114C190.267 264.204 182.818 268.01 176.507 269.87C173.298 270.813 170.376 271.254 168.879 270.849C164.436 269.632 159.874 251.5 156.329 243.089C152.772 234.679 148.329 227.713 146.222 225.721C144.701 224.289 139.049 215.295 135.995 210.368C134.797 208.447 134.007 207.135 134.007 207.135C133.229 198.403 126.57 197.186 126.57 197.186L162.879 199.62C167.43 202.936 170.759 214.114 170.759 214.114C162.772 225.613 173.202 222.953 177.202 236.123C181.202 249.281 190.195 261.114 190.195 261.114Z" fill="#15754E"/>
<path opacity="0.2" d="M176.509 269.871C173.299 270.813 170.377 271.255 168.88 270.849C164.437 269.632 159.875 251.5 156.33 243.09C152.774 234.68 148.331 227.713 146.223 225.721C144.702 224.289 139.05 215.295 135.996 210.368C140.175 210.666 144.511 212.325 144.511 212.325C144.511 212.325 152.893 219.685 158.378 231.411C162.593 240.43 172.88 258.347 176.509 269.871Z" fill="black"/>
<path d="M139.564 214.425C139.564 214.425 141.564 218.54 135.265 220.842C128.966 223.145 128.966 223.145 128.966 223.145C128.966 223.145 121.542 223.204 121.027 216.87C106.034 223.014 94.154 217.299 88.4777 201.696C82.8014 186.093 94.9564 176.931 99.998 174.211C98.7885 167.173 99.2316 163.308 108.692 159.157C120.536 160.457 139.564 214.425 139.564 214.425Z" fill="#15754E"/>
<path d="M107.542 174.462C104.537 170.132 103.974 163.893 108.488 159.228C108.56 159.192 108.62 159.169 108.692 159.133C111.219 159.407 114.081 162.091 117.003 166.135L139.756 216.834C139.481 217.991 138.582 219.351 136.223 220.437C133.313 220.234 129.816 218.54 127.373 214.484C115.231 210.214 110.369 203.426 107.53 195.827C104.692 188.228 105.554 178.351 107.542 174.462Z" fill="#0C4115"/>
<path d="M171.921 207.398L135.001 219.077C135.001 219.077 130.642 218.099 128.606 213.78C123.361 212.17 118.846 209.247 115.313 205.454C107.805 197.378 104.823 185.365 109.17 173.698C105.362 168.235 108.008 161.447 108.008 161.447C108.008 161.447 136.462 145.367 147.659 143.565C155.802 142.265 166.544 167.078 172.112 183.969C174.196 190.304 175.549 195.517 175.777 197.831C176.591 206.325 171.921 207.398 171.921 207.398Z" fill="#1AC486"/>
<path d="M167.837 199.966C167.837 199.966 202.925 189.552 233.917 196.733C216.481 177.599 194.566 130.049 203.38 100.56C191.117 125.743 156.437 151.533 147.599 152.989C142.629 165.92 154.832 199.023 167.837 199.966Z" fill="#15754E"/>
<path d="M233.918 196.745C211.943 191.651 187.921 195.397 175.79 198.01C170.808 199.083 167.838 199.966 167.838 199.966C163.898 199.68 160.03 196.435 156.689 191.699C155.024 189.337 153.492 186.593 152.15 183.671C173.526 178.148 195.25 173.996 217.512 172.219C222.721 182.192 228.541 190.828 233.918 196.745Z" fill="#15754E"/>
<path d="M252.636 194.725C264.202 190.125 264.937 164.84 254.279 138.249C243.621 111.657 225.605 93.8301 214.039 98.4301C202.474 103.03 201.738 128.316 212.396 154.907C223.054 181.498 241.07 199.326 252.636 194.725Z" fill="white"/>
<path d="M254.25 203.95C269.022 198.075 270.83 167.946 258.289 136.656C245.747 105.365 223.605 84.7625 208.833 90.6378C194.061 96.513 192.253 126.642 204.794 157.932C217.336 189.222 239.478 209.825 254.25 203.95Z" fill="#1AC486"/>
<path d="M252.636 194.725C264.202 190.125 264.937 164.84 254.279 138.249C243.621 111.657 225.605 93.8301 214.039 98.4301C202.474 103.03 201.738 128.316 212.396 154.907C223.054 181.498 241.07 199.326 252.636 194.725Z" fill="#0C4115"/>
<path d="M232.444 154.182C225.235 136.193 214.648 122.212 204.984 116.474C205.595 107.253 208.637 100.573 214.05 98.4254C225.618 93.8207 243.629 111.655 254.287 138.245C264.945 164.835 264.214 190.113 252.646 194.718C248.91 196.209 244.491 195.35 239.868 192.606C240.563 182.12 238.12 168.342 232.444 154.182Z" fill="#0C4115"/>
<path d="M240.001 159.825L220.5 171.646C220.5 171.646 208.808 152.709 207 138.275C220.772 135.245 227.738 132.614 227.738 132.614C227.738 132.614 239.953 148.337 240.001 159.825Z" fill="#E6E6E6"/>
<path opacity="0.4" d="M239.187 154.23C239.69 156.151 239.989 158.036 240.001 159.813L220.5 171.646C220.5 171.646 216.916 165.907 213 157.7C222.413 157.414 229.966 156.402 239.187 154.23Z" fill="#CCCCCC"/>
<path d="M238.937 160.548C242.291 159.214 242.503 151.878 239.41 144.163C236.318 136.447 231.092 131.274 227.738 132.608C224.385 133.942 224.173 141.278 227.265 148.993C230.358 156.709 235.584 161.882 238.937 160.548Z" fill="#1AC486"/>
<path opacity="0.2" d="M171.922 207.398L135.002 219.077C135.002 219.077 130.643 218.098 128.607 213.78C123.362 212.17 118.847 209.247 115.314 205.454C130.822 202.471 145.708 196.709 156.689 191.699C160.03 196.435 163.898 199.68 167.838 199.966C167.838 199.966 170.808 199.083 175.79 198.01C176.52 206.336 171.922 207.398 171.922 207.398Z" fill="black"/>
<path d="M179.091 158.263C179.041 158.283 179.041 158.283 179.091 158.263C179.041 158.283 179.041 158.283 178.991 158.304C178.991 158.304 178.991 158.304 178.941 158.325C178.941 158.325 178.941 158.325 178.891 158.346L178.841 158.367C178.791 158.387 178.741 158.408 178.691 158.429L169.549 162.231C168.699 162.585 168.294 163.576 168.65 164.427C169.007 165.277 170 165.687 170.849 165.333L179.991 161.531C180.041 161.51 180.091 161.489 180.141 161.469C180.191 161.448 180.241 161.427 180.291 161.406C182.04 160.679 184.026 161.498 184.76 163.249C185.494 165.001 184.682 166.983 182.933 167.711L179.786 169.02L179.136 167.469L182.283 166.16C183.133 165.806 183.538 164.815 183.182 163.964C182.825 163.114 181.832 162.704 180.983 163.057L176.287 165.011L173.689 166.091C172.84 166.444 172.434 167.436 172.791 168.286C173.147 169.137 174.14 169.546 174.989 169.193L176.038 168.757L176.689 170.308L178.01 173.46L179.541 177.113C179.897 177.963 180.89 178.373 181.739 178.019C182.589 177.666 182.995 176.675 182.638 175.824L181.107 172.172L184.255 170.863C187.702 169.429 189.325 165.464 187.878 162.011C186.481 158.538 182.559 156.879 179.091 158.263Z" fill="white"/>
<path d="M195.699 160.884C198.913 169.818 194.173 179.72 185.056 182.974C175.939 186.229 165.965 181.578 162.751 172.644C159.538 163.709 164.277 153.807 173.394 150.553C182.511 147.299 192.485 151.949 195.699 160.884Z" stroke="white" stroke-width="3"/>
<defs>
<filter id="filter0_f_1743_18928" x="0" y="0.969238" width="352" height="351.314" filterUnits="userSpaceOnUse" color-interpolation-filters="sRGB">
<feFlood flood-opacity="0" result="BackgroundImageFix"/>
<feBlend mode="normal" in="SourceGraphic" in2="BackgroundImageFix" result="shape"/>
<feGaussianBlur stdDeviation="43.5" result="effect1_foregroundBlur_1743_18928"/>
</filter>
</defs>
</svg>
