<svg id="Layer_1" data-name="Layer 1" xmlns="http://www.w3.org/2000/svg" viewBox="0 0 260.91 244.99"><defs><style>.cls-1{fill:#f3ba2c;}.cls-2{fill:#fff;}.cls-3{fill:#f5ac37;}.cls-4{fill:#fefefd;}</style></defs><title>dai-busd</title><circle class="cls-1" cx="64.07" cy="65.58" r="64.07"/><g id="Layer_2" data-name="Layer 2"><g id="Layer_1-2" data-name="Layer 1-2"><path class="cls-2" d="M64.07,16.68,76.15,29.05,45.73,59.47,33.65,47.39Z"/><path class="cls-2" d="M82.41,35,94.49,47.39,45.73,96.14,33.65,84.06Z"/><path class="cls-2" d="M27.39,53.36,39.47,65.73,27.39,77.81,15.32,65.73Z"/><path class="cls-2" d="M100.75,53.36l12.07,12.37L64.07,114.48,52,102.4Z"/></g></g><g id="Layer_1-2-2" data-name="Layer_1"><path class="cls-3" d="M162.32,47a98.25,98.25,0,1,1-98.25,98.25A98.25,98.25,0,0,1,162.32,47Z"/><path class="cls-4" d="M165.94,152.17h37.33c.8,0,1.18,0,1.23-1a70.23,70.23,0,0,0,0-11.42c0-.73-.36-1-1.16-1H129c-.92,0-1.17.31-1.17,1.17v10.93c0,1.41,0,1.41,1.47,1.41Zm34.39-26.28a1.16,1.16,0,0,0,0-.86,23.93,23.93,0,0,0-2.22-3.87,31.31,31.31,0,0,0-4.54-5.71,15.16,15.16,0,0,0-2.83-2.77,44.14,44.14,0,0,0-18.42-9.33,45.84,45.84,0,0,0-10.44-1.1h-33c-.92,0-1,.36-1,1.16v21.8c0,.92,0,1.17,1.17,1.17h70.86s.62-.13.74-.49Zm0,39.05a14.89,14.89,0,0,0-3.13,0H129.1c-.92,0-1.23,0-1.23,1.23v21.31c0,1,0,1.23,1.23,1.23h31.44a15.7,15.7,0,0,0,4.48-.31,46.3,46.3,0,0,0,13.33-3,24.27,24.27,0,0,0,4.48-2.08h.42a39.93,39.93,0,0,0,17.14-17.25s.43-.93-.06-1.17Zm-84.8,34.82v-34c0-.8,0-.92-1-.92H101.22c-.74,0-1,0-1-1V152.23h14.24c.8,0,1.11,0,1.11-1V139.65c0-.74,0-.92-1-.92H101.22c-.74,0-1,0-1-1v-10.8c0-.68,0-.86,1-.86h13.2c.92,0,1.17,0,1.17-1.17V91.82c0-1,0-1.23,1.23-1.23h46.05a70.76,70.76,0,0,1,9.95,1.1A59.87,59.87,0,0,1,192,98.82a54,54,0,0,1,10.8,8.35,57.82,57.82,0,0,1,6.57,8.16,48.7,48.7,0,0,1,4.8,9.4A1.6,1.6,0,0,0,216,126h11c1.41,0,1.41,0,1.47,1.35v10.07c0,1-.37,1.23-1.35,1.23h-8.48c-.86,0-1.1,0-1,1.11a63.82,63.82,0,0,1,0,11.23c0,1.05,0,1.17,1.17,1.17h9.69c.43.55,0,1.11,0,1.66a11,11,0,0,1,0,2.15v7.43c0,1-.3,1.35-1.22,1.35H215.61a1.53,1.53,0,0,0-1.78,1.17,49.21,49.21,0,0,1-12.9,18.79,74,74,0,0,1-6.57,5.28c-2.46,1.41-4.85,2.89-7.37,4.05a66.44,66.44,0,0,1-14.49,4.61,76,76,0,0,1-14.37,1.16H115.51v-.06Z"/></g></svg>