<svg id="Layer_1" data-name="Layer 1" xmlns="http://www.w3.org/2000/svg" viewBox="0 0 260.91 244.99"><defs><style>.cls-1{fill:#f3ba2c;}.cls-2{fill:#fff;}.cls-3{fill:#2775ca;}</style></defs><title>usdc-busd</title><circle class="cls-1" cx="64.07" cy="65.58" r="64.07"/><g id="Layer_2" data-name="Layer 2"><g id="Layer_1-2" data-name="Layer 1-2"><path class="cls-2" d="M64.07,16.68,76.15,29.05,45.73,59.47,33.65,47.39Z"/><path class="cls-2" d="M82.41,35,94.49,47.39,45.73,96.14,33.65,84.06Z"/><path class="cls-2" d="M27.39,53.36,39.47,65.73,27.39,77.81,15.32,65.73Z"/><path class="cls-2" d="M100.75,53.36l12.07,12.37L64.07,114.48,52,102.4Z"/></g></g><path class="cls-3" d="M162.32,243.48a98.25,98.25,0,1,0-98.25-98.25A98,98,0,0,0,162.32,243.48Z"/><path class="cls-2" d="M189.34,160.79c0-14.33-8.6-19.24-25.79-21.29-12.28-1.64-14.74-4.91-14.74-10.65s4.09-9.41,12.28-9.41c7.37,0,11.46,2.46,13.51,8.6a3.09,3.09,0,0,0,2.87,2H184a2.8,2.8,0,0,0,2.86-2.86v-.41A20.45,20.45,0,0,0,168.46,110V100.2c0-1.64-1.23-2.87-3.27-3.28h-6.14c-1.64,0-2.87,1.23-3.28,3.28v9.41c-12.28,1.64-20.06,9.83-20.06,20.06,0,13.51,8.19,18.83,25.38,20.88,11.46,2,15.15,4.5,15.15,11.06s-5.73,11-13.51,11c-10.64,0-14.33-4.51-15.56-10.65a3,3,0,0,0-2.86-2.45h-7a2.8,2.8,0,0,0-2.87,2.86v.41c1.64,10.24,8.19,17.61,21.7,19.65v9.83c0,1.64,1.23,2.86,3.27,3.27h6.14c1.64,0,2.87-1.23,3.28-3.27v-9.83c12.28-2,20.47-10.64,20.47-21.69Z"/><path class="cls-2" d="M141.44,203.77a61.26,61.26,0,0,1,0-115,4.12,4.12,0,0,0,2.46-4.1V78.91a3.11,3.11,0,0,0-2.46-3.27,2.47,2.47,0,0,0-1.64.41,73.67,73.67,0,0,0,0,140.41,2.49,2.49,0,0,0,3.69-1.64c.41-.41.41-.82.41-1.63v-5.74C143.9,206.23,142.67,204.59,141.44,203.77Zm43.4-127.72a2.49,2.49,0,0,0-3.69,1.63c-.41.41-.41.82-.41,1.64v5.73a5.44,5.44,0,0,0,2.46,4.1,61.26,61.26,0,0,1,0,115,4.11,4.11,0,0,0-2.46,4.09V214a3.12,3.12,0,0,0,2.46,3.28,2.47,2.47,0,0,0,1.64-.41,74,74,0,0,0,0-140.82Z"/></svg>