<svg id="Layer_1" data-name="Layer 1" xmlns="http://www.w3.org/2000/svg" viewBox="0 0 260.91 244.99"><defs><style>.cls-1{fill:#f3ba2c;}.cls-2{fill:#fff;}.cls-3{fill:#50af95;}</style></defs><title>usdt-busd</title><circle class="cls-1" cx="64.07" cy="65.58" r="64.07"/><g id="Layer_2" data-name="Layer 2"><g id="Layer_1-2" data-name="Layer 1-2"><path class="cls-2" d="M64.07,16.68,76.15,29.05,45.73,59.47,33.65,47.39Z"/><path class="cls-2" d="M82.41,35,94.49,47.39,45.73,96.14,33.65,84.06Z"/><path class="cls-2" d="M27.39,53.36,39.47,65.73,27.39,77.81,15.32,65.73Z"/><path class="cls-2" d="M100.75,53.36l12.07,12.37L64.07,114.48,52,102.4Z"/></g></g><circle class="cls-3" cx="162.32" cy="145.23" r="98.25"/><path class="cls-2" d="M175.14,158.53h0c-.72.06-4.42.28-12.67.28-6.56,0-11.22-.2-12.86-.28h0c-25.36-1.11-44.29-5.53-44.29-10.81s18.93-9.7,44.29-10.83v17.25c1.66.12,6.41.4,13,.4,7.87,0,11.82-.33,12.53-.4V136.9c25.3,1.13,44.19,5.54,44.19,10.82s-18.88,9.69-44.19,10.81h0Zm0-23.41V119.68h35.32V96.14H114.29v23.54h35.32v15.43c-28.71,1.32-50.29,7-50.29,13.82s21.58,12.49,50.29,13.82v49.46h25.52V162.73c28.64-1.32,50.19-7,50.19-13.81s-21.53-12.49-50.19-13.81h0Zm0,0Z"/></svg>