<svg width="124" height="124" viewBox="0 0 124 124" fill="none" xmlns="http://www.w3.org/2000/svg">
<path opacity="0.56" d="M62.0169 117.395C92.6085 117.395 117.408 93.5405 117.408 64.1143C117.408 34.688 92.6085 10.8334 62.0169 10.8334C31.4253 10.8334 6.62598 34.688 6.62598 64.1143C6.62598 93.5405 31.4253 117.395 62.0169 117.395Z" fill="url(#paint0_linear_1059_29376)"/>
<path d="M95.2151 50.5316L94.8735 101.617C94.8735 102.723 94.0988 103.588 92.5742 104.021L45.2641 116.305C41.8569 117.195 35.9337 115.44 32.0266 112.387C29.844 110.672 28.7526 108.917 28.8193 107.579L29.1692 56.4615L95.2151 50.5316Z" fill="url(#paint1_linear_1059_29376)"/>
<path d="M45.6141 65.2041L92.8826 52.8956C96.2898 52.0061 95.89 48.8167 91.9828 45.7637C88.0757 42.7106 82.1526 40.9556 78.7537 41.8371L31.4769 54.1537C28.0696 55.0351 28.4778 58.2325 32.3766 61.2856C36.2837 64.3306 42.2068 66.0936 45.6141 65.2041Z" fill="url(#paint2_linear_1059_29376)" stroke="white" stroke-width="0.25" stroke-miterlimit="10"/>
<path d="M87.6257 33.391L87.6923 24.3119C87.6923 18.5663 85.393 13.5579 81.1194 10.2163C79.02 8.57068 76.5353 7.44206 73.8803 6.92822C71.2253 6.41438 68.4802 6.53081 65.8825 7.26743L55.0526 10.0961C45.0141 12.6684 37.1082 22.8775 37.0666 33.2708L36.8833 55.9406C36.9659 57.035 37.3999 58.0777 38.1251 58.9246C38.8504 59.7716 39.8312 60.3809 40.932 60.6685C43.1813 61.2455 45.0141 60.0755 45.0307 58.0482L45.1807 35.3463C45.239 27.5974 51.5953 19.4157 59.0597 17.4684L69.8896 14.6477C72.7554 13.9025 75.3379 14.207 76.979 15.4491C78.6202 16.6912 79.5532 19.2314 79.5532 22.2044L79.4699 32.7019C79.4699 32.7019 85.3847 38.0227 87.6257 33.391Z" fill="url(#paint3_linear_1059_29376)"/>
<defs>
<linearGradient id="paint0_linear_1059_29376" x1="-5.08701" y1="1.58594" x2="131.743" y2="139.384" gradientUnits="userSpaceOnUse">
<stop offset="0.01" stop-color="#20A6C0"/>
<stop offset="1" stop-color="#3C9BBA" stop-opacity="0"/>
</linearGradient>
<linearGradient id="paint1_linear_1059_29376" x1="28.8193" y1="83.5307" x2="95.2151" y2="83.5307" gradientUnits="userSpaceOnUse">
<stop offset="0.03" stop-color="#4FFFBE"/>
<stop offset="0.43" stop-color="#3C9BBA"/>
</linearGradient>
<linearGradient id="paint2_linear_1059_29376" x1="29.1693" y1="53.5206" x2="95.2235" y2="53.5206" gradientUnits="userSpaceOnUse">
<stop stop-color="#7BFFD3"/>
<stop offset="1" stop-color="#59EFC7"/>
</linearGradient>
<linearGradient id="paint3_linear_1059_29376" x1="24.0457" y1="4.19831" x2="82.0912" y2="57.8274" gradientUnits="userSpaceOnUse">
<stop offset="0.03" stop-color="#8191BC"/>
<stop offset="0.36" stop-color="#AEF2E5"/>
<stop offset="0.71" stop-color="#3CC2BA"/>
</linearGradient>
</defs>
</svg>
