<svg width="300" height="117" viewBox="0 0 300 117" fill="none" xmlns="http://www.w3.org/2000/svg">
<g clip-path="url(#clip0_101_37)">
<rect width="444" height="117" rx="16" fill="#2D3748"/>
<path opacity="0.1" d="M259.291 7.96255C259.35 7.92865 259.394 7.90322 259.452 7.86932C259.511 7.83542 259.57 7.80152 259.614 7.7761C259.643 7.75915 259.687 7.73372 259.717 7.71677C259.746 7.69982 259.79 7.67439 259.819 7.65744C259.878 7.62354 259.945 7.60432 260.004 7.57042C260.195 7.46024 260.363 7.34386 260.553 7.23368L297.766 -14.2509C301.289 -16.285 305.804 -15.0751 307.838 -11.5521C309.872 -8.02899 308.662 -3.51383 305.139 -1.47979L267.927 20.0048C267.736 20.115 267.551 20.202 267.352 20.2975C267.184 20.4139 267.002 20.5387 266.826 20.6404C259.765 24.717 257.352 33.7242 261.428 40.785C265.505 47.8458 274.512 50.2593 281.573 46.1827L294.344 38.8093L290.657 32.4237L277.915 39.7802L277.901 39.7887L277.886 39.7971C274.378 41.8227 269.839 40.6067 267.814 37.0983C265.788 33.5899 267.004 29.0516 270.513 27.026L270.527 27.0175L270.542 27.0091L289.669 15.9659L300.312 9.82138C303.835 7.78734 308.35 8.99717 310.384 12.5202C312.418 16.0433 311.208 20.5585 307.685 22.5925L303.428 25.0503L307.115 31.4359L314.488 44.207L323.091 59.1066C325.116 62.615 323.9 67.1533 320.392 69.1789C316.883 71.2045 312.345 69.9885 310.32 66.4801L301.717 51.5804L288.946 58.9538C274.839 67.0985 256.802 62.2654 248.657 48.1584C240.546 34.1102 245.308 16.1529 259.291 7.96255Z" fill="#27DC8A"/>
<path opacity="0.1" d="M16.6605 58.277C16.5895 58.3061 16.5363 58.328 16.4654 58.3571C16.3944 58.3863 16.3235 58.4155 16.2703 58.4373C16.2348 58.4519 16.1816 58.4738 16.1461 58.4884C16.1106 58.5029 16.0574 58.5248 16.022 58.5394C15.951 58.5685 15.8874 58.6154 15.8164 58.6446C15.5858 58.7393 15.3657 58.8091 15.1352 58.9038L-29.8258 77.382C-34.0825 79.1314 -36.1196 84.0113 -34.3702 88.268C-32.6208 92.5246 -27.7409 94.5618 -23.4842 92.8124L21.4768 74.3342C21.7073 74.2395 21.9129 74.1343 22.1362 74.0218C22.3563 73.952 22.5941 73.875 22.807 73.7875C31.338 70.2814 41.0729 74.3453 44.579 82.8763C48.0851 91.4074 44.0212 101.142 35.4902 104.648L20.0598 110.99L16.889 103.275L32.2839 96.9477L32.3016 96.9404L32.3194 96.9331C36.5583 95.191 38.6059 90.2861 36.8638 86.0471C35.1216 81.8082 30.2167 79.7606 25.9778 81.5027L25.96 81.51L25.9423 81.5173L2.83218 91.0151L-10.0265 96.2998C-14.2831 98.0492 -16.3203 102.929 -14.5709 107.186C-12.8215 111.442 -7.94154 113.48 -3.68488 111.73L1.45859 109.616L4.62939 117.332L10.971 132.762L18.3695 150.764C20.1116 155.003 25.0166 157.051 29.2555 155.308C33.4945 153.566 35.542 148.661 33.7999 144.422L26.4014 126.42L41.8318 120.079C58.8762 113.074 67.0143 93.5791 60.0094 76.5347C53.0336 59.5613 33.6599 51.4149 16.6605 58.277Z" fill="#27DC8A"/>
</g>
<defs>
<clipPath id="clip0_101_37">
<rect width="300" height="117" rx="16" fill="white"/>
</clipPath>
</defs>
</svg>
