<svg width="18" height="18" viewBox="0 0 18 18" fill="none" xmlns="http://www.w3.org/2000/svg">
<path d="M16.5 15.5C16.5 16.6 15.6 17.5 14.5 17.5H3.5C2.4 17.5 1.5 16.6 1.5 15.5V7C1.5 5.9 2.4 5 3.5 5H14.5C15.6 5 16.5 5.9 16.5 7V15.5Z" fill="#FDD888"/>
<path d="M18 5.5C18 6.6 17.1 7.5 16 7.5H2C0.9 7.5 0 6.6 0 5.5C0 4.4 0.9 3.5 2 3.5H16C17.1 3.5 18 4.4 18 5.5Z" fill="#FDD888"/>
<path d="M1.5 7.5H16.5V8.5H1.5V7.5Z" fill="#FCAB40"/>
<path d="M9.5 1.5H8.5C8.10217 1.5 7.72064 1.65804 7.43934 1.93934C7.15804 2.22064 7 2.60218 7 3V17.5H11V3C11 2.60218 10.842 2.22064 10.5607 1.93934C10.2794 1.65804 9.89782 1.5 9.5 1.5Z" fill="#DA2F47"/>
<path d="M8.00006 3.5008C8.55006 3.5008 8.63156 3.2428 8.18056 2.9273L4.81956 0.574296C4.71643 0.499209 4.59849 0.446968 4.47358 0.421056C4.34868 0.395143 4.21968 0.396154 4.0952 0.424022C3.97072 0.45189 3.8536 0.505975 3.75167 0.582669C3.64974 0.659364 3.56532 0.756907 3.50406 0.868796L2.49606 2.6328C2.22306 3.1103 2.45006 3.5008 3.00006 3.5008H8.00006ZM10.0001 3.5008C9.45006 3.5008 9.36856 3.2428 9.81956 2.9273L13.1811 0.574296C13.2842 0.499289 13.4022 0.447115 13.527 0.421247C13.6519 0.395379 13.7809 0.396411 13.9054 0.424273C14.0298 0.452136 14.1469 0.50619 14.2488 0.582838C14.3508 0.659485 14.4352 0.756968 14.4966 0.868796L15.5046 2.6323C15.7771 3.1103 15.5501 3.5008 15.0001 3.5008H10.0001Z" fill="#DA2F47"/>
</svg>
