<svg width="520" height="410" viewBox="0 0 520 410" fill="none" xmlns="http://www.w3.org/2000/svg">
<path d="M261.5 408.528C403.452 408.528 518.527 387.442 518.527 361.43C518.527 335.419 403.452 314.332 261.5 314.332C119.548 314.332 4.47266 335.419 4.47266 361.43C4.47266 387.442 119.548 408.528 261.5 408.528Z" stroke="url(#paint0_linear_11851_20498)" stroke-miterlimit="10"/>
<path d="M262.824 390.464C401.017 390.464 513.045 372.384 513.045 350.081C513.045 327.777 401.017 309.697 262.824 309.697C124.63 309.697 12.6025 327.777 12.6025 350.081C12.6025 372.384 124.63 390.464 262.824 390.464Z" fill="#4C4C68"/>
<path d="M262.824 379.114C401.017 379.114 513.045 361.034 513.045 338.731C513.045 316.428 401.017 298.348 262.824 298.348C124.63 298.348 12.6025 316.428 12.6025 338.731C12.6025 361.034 124.63 379.114 262.824 379.114Z" fill="#323249"/>
<path opacity="0.38" d="M262.918 372.399C401.164 372.399 513.234 354.319 513.234 332.016C513.234 309.713 401.164 291.633 262.918 291.633C124.673 291.633 12.6025 309.713 12.6025 332.016C12.6025 354.319 124.673 372.399 262.918 372.399Z" fill="url(#paint1_linear_11851_20498)"/>
<path d="M262.729 372.306C400.974 372.306 513.044 354.225 513.044 331.922C513.044 309.619 400.974 291.539 262.729 291.539C124.483 291.539 12.4131 309.619 12.4131 331.922C12.4131 354.225 124.483 372.306 262.729 372.306Z" stroke="url(#paint2_linear_11851_20498)" stroke-miterlimit="10"/>
<path d="M105.809 60.3984L108.645 65.6L113.844 68.5318L108.645 71.3691L105.809 76.5707L102.878 71.3691L97.6792 68.5318L102.878 65.6L105.809 60.3984Z" fill="url(#paint3_linear_11851_20498)"/>
<path d="M29.9012 206.516L31.7918 210.015L35.3839 212.001L31.7918 213.892L29.9012 217.486L27.9161 213.892L24.4185 212.001L27.9161 210.015L29.9012 206.516Z" fill="url(#paint4_linear_11851_20498)"/>
<path d="M445.361 141.449L447.252 144.948L450.844 146.84L447.252 148.826L445.361 152.325L443.376 148.826L439.878 146.84L443.376 144.948L445.361 141.449Z" fill="url(#paint5_linear_11851_20498)"/>
<path d="M506.144 245.764L508.129 249.263L511.627 251.249L508.129 253.14L506.144 256.734L504.253 253.14L500.661 251.249L504.253 249.263L506.144 245.764Z" fill="url(#paint6_linear_11851_20498)"/>
<path d="M394.882 239.522H316.894C308.292 239.522 301.297 232.523 301.297 223.917V212.757C301.297 204.151 308.292 197.152 316.894 197.152H394.882C403.484 197.152 410.479 204.151 410.479 212.757V223.917C410.479 232.523 403.484 239.522 394.882 239.522Z" fill="#0A3F3E"/>
<path d="M356.503 321.992H145.228C124.053 321.992 106.754 304.685 106.754 283.5V156.203C106.754 135.018 124.053 117.711 145.228 117.711H356.503C377.678 117.711 394.977 135.018 394.977 156.203V283.5C394.977 304.685 377.678 321.992 356.503 321.992Z" fill="#087D7D"/>
<path d="M331.074 240.563L243.917 209.448C238.057 207.367 234.937 200.841 237.017 194.978L292.033 40.5376C294.113 34.674 300.635 31.5531 306.496 33.6337L393.653 64.7487C399.514 66.8293 402.633 73.3549 400.554 79.2186L345.537 233.659C343.458 239.522 336.935 242.643 331.074 240.563Z" fill="#348994"/>
<path d="M314.342 247.373L227.185 216.258C221.325 214.177 218.205 207.652 220.285 201.788L275.301 47.3482C277.381 41.4846 283.903 38.3636 289.764 40.4442L376.921 71.5592C382.782 73.6399 385.901 80.1655 383.822 86.0291L328.805 240.469C326.726 246.333 320.203 249.454 314.342 247.373Z" fill="#51ECC7"/>
<path d="M344.888 112.739L333.94 108.831C331.631 108.004 330.439 105.448 331.258 103.118L339.451 79.9668C340.271 77.6367 342.803 76.434 345.112 77.2608L356.06 81.1695C358.369 81.9963 359.561 84.5519 358.742 86.8821L350.549 110.033C349.729 112.363 347.197 113.566 344.888 112.739Z" fill="#0E6377"/>
<path d="M224.255 184.669C264.43 184.669 297.043 152.23 297.043 112.225C297.043 72.2203 264.43 39.7812 224.255 39.7812C184.08 39.7812 151.467 72.2203 151.467 112.225C151.467 152.23 184.08 184.669 224.255 184.669Z" fill="#0F5454"/>
<path d="M224.255 184.669C264.43 184.669 297.043 152.23 297.043 112.225C297.043 72.2203 264.43 39.7812 224.255 39.7812C184.08 39.7812 151.467 72.2203 151.467 112.225C151.467 152.23 184.08 184.669 224.255 184.669Z" fill="#0F5454"/>
<path d="M224.255 174.55C264.43 174.55 297.043 142.111 297.043 102.106C297.043 62.1011 264.525 29.6621 224.255 29.6621C184.08 29.6621 151.467 62.1011 151.467 102.106C151.467 142.111 184.08 174.55 224.255 174.55Z" fill="#00757A"/>
<path d="M224.255 174.55C264.43 174.55 297.043 142.111 297.043 102.106C297.043 62.1011 264.525 29.6621 224.255 29.6621C184.08 29.6621 151.467 62.1011 151.467 102.106C151.467 142.111 184.08 174.55 224.255 174.55Z" fill="#00757A"/>
<path d="M224.255 157.714C255.166 157.714 280.217 132.841 280.217 102.105C280.217 71.368 255.166 46.4004 224.255 46.4004C193.343 46.4004 168.293 71.2735 168.293 102.01C168.293 132.747 193.343 157.714 224.255 157.714Z" fill="#073837"/>
<path d="M224.255 157.714C255.166 157.714 280.217 132.841 280.217 102.105C280.217 71.368 255.166 46.4004 224.255 46.4004C193.343 46.4004 168.293 71.2735 168.293 102.01C168.293 132.747 193.343 157.714 224.255 157.714Z" fill="#073837"/>
<path d="M224.255 153.649C252.898 153.649 276.058 130.572 276.058 102.106C276.058 73.6387 252.898 50.5625 224.255 50.5625C195.613 50.5625 172.453 73.6387 172.453 102.106C172.453 130.572 195.613 153.649 224.255 153.649Z" fill="#0A5959"/>
<path d="M224.255 153.649C252.898 153.649 276.058 130.572 276.058 102.106C276.058 73.6387 252.898 50.5625 224.255 50.5625C195.613 50.5625 172.453 73.6387 172.453 102.106C172.453 130.572 195.613 153.649 224.255 153.649Z" fill="#0A5959"/>
<path d="M251.385 170.01C242.688 173.509 233.235 175.306 223.31 175.117C203.647 174.833 185.403 167.078 171.696 153.176C157.989 139.273 150.522 120.737 150.805 101.16C151.278 60.8711 184.647 28.4321 225.2 28.9995C265.754 29.4724 298.367 62.668 297.705 102.957C297.421 133.504 278.326 159.418 251.385 170.01ZM197.787 35.336C171.413 45.8338 152.696 71.2743 152.412 101.16C152.129 120.264 159.407 138.422 172.831 152.135C186.254 165.754 204.215 173.509 223.593 173.793C263.391 174.266 296.098 142.583 296.571 102.957C297.043 63.4246 265.187 30.7964 225.389 30.3236C215.558 30.229 206.294 32.0259 197.787 35.336Z" fill="url(#paint7_linear_11851_20498)"/>
<path d="M251.385 170.01C242.688 173.509 233.235 175.306 223.31 175.117C203.647 174.833 185.403 167.078 171.696 153.176C157.989 139.273 150.522 120.737 150.805 101.16C151.278 60.8711 184.647 28.4321 225.2 28.9995C265.754 29.4724 298.367 62.668 297.705 102.957C297.421 133.504 278.326 159.418 251.385 170.01ZM197.787 35.336C171.413 45.8338 152.696 71.2743 152.412 101.16C152.129 120.264 159.407 138.422 172.831 152.135C186.254 165.754 204.215 173.509 223.593 173.793C263.391 174.266 296.098 142.583 296.571 102.957C297.043 63.4246 265.187 30.7964 225.389 30.3236C215.558 30.229 206.294 32.0259 197.787 35.336Z" fill="url(#paint8_linear_11851_20498)"/>
<path d="M236.922 72.0315H236.733H236.544C236.544 72.0315 236.544 72.0315 236.355 72.0315C236.355 72.0315 236.355 72.0315 236.166 72.0315H235.977C235.788 72.0315 235.693 72.0315 235.504 72.0315L199.583 71.5586C196.274 71.5586 193.344 74.3013 193.344 77.6114C193.344 80.9215 196.085 83.8533 199.394 83.8533L235.315 84.3261C235.504 84.3261 235.599 84.3261 235.788 84.3261C235.977 84.3261 236.071 84.3261 236.26 84.3261C243.161 84.5153 248.644 89.906 248.455 96.7154C248.266 103.525 242.783 109.01 235.977 108.821L223.593 108.632V102.39L235.977 102.579C239.285 102.579 242.216 99.8363 242.216 96.5262C242.216 93.2161 239.474 90.2843 236.166 90.2843L207.334 90.0006C204.026 90.0006 201.095 92.7433 201.095 96.0534C201.095 99.3635 203.837 102.295 207.145 102.295H211.304V108.537L211.115 120.832L210.926 135.207C210.926 138.517 213.668 141.449 216.976 141.449C220.285 141.449 223.215 138.706 223.215 135.396L223.404 121.021L235.788 121.21C249.495 121.399 260.649 110.429 260.744 96.9991C261.311 83.475 250.44 72.2206 236.922 72.0315Z" fill="#073837"/>
<path d="M234.275 69.2873H234.086H233.897C233.897 69.2873 233.897 69.2873 233.708 69.2873C233.708 69.2873 233.708 69.2873 233.519 69.2873H233.33C233.141 69.2873 233.046 69.2873 232.857 69.2873L196.936 68.8145C193.627 68.8145 190.697 71.5571 190.697 74.8672C190.697 78.1773 193.438 81.1091 196.747 81.1091L232.668 81.582C232.857 81.582 232.952 81.582 233.141 81.582C233.33 81.582 233.424 81.582 233.613 81.582C240.514 81.7711 245.997 87.1619 245.808 93.9712C245.619 100.781 240.136 106.266 233.33 106.077L220.946 105.888V99.6457L233.33 99.8349C236.638 99.8349 239.569 97.0922 239.569 93.7821C239.569 90.472 236.827 87.5402 233.519 87.5402L204.687 87.2565C201.379 87.2565 198.448 89.9991 198.448 93.3092C198.448 96.6193 201.19 99.5511 204.498 99.5511H208.657V105.793L208.468 118.088L208.279 132.463C208.279 135.773 211.021 138.705 214.329 138.705C217.638 138.705 220.568 135.962 220.568 132.652L220.757 118.277L233.141 118.466C246.848 118.655 258.002 107.685 258.097 94.255C258.853 80.7308 248.077 69.6656 234.275 69.2873Z" fill="url(#paint9_linear_11851_20498)"/>
<path opacity="0.5" d="M346.01 325.963H145.228C124.053 325.963 106.754 308.656 106.754 287.471V167.74C106.754 146.555 124.053 129.248 145.228 129.248H345.916C367.09 129.248 384.389 146.555 384.389 167.74V287.566C384.389 308.656 367.09 325.963 346.01 325.963Z" fill="black"/>
<path d="M346.01 321.614H145.228C124.053 321.614 106.754 304.307 106.754 283.122V163.296C106.754 142.112 124.053 124.805 145.228 124.805H345.916C367.09 124.805 384.389 142.112 384.389 163.296V283.122C384.389 304.307 367.09 321.614 346.01 321.614Z" fill="url(#paint10_linear_11851_20498)"/>
<path d="M339.298 304.4H154.208C140.123 304.4 128.685 292.862 128.685 278.865V171.334C128.685 157.242 140.218 145.799 154.208 145.799H339.298C353.383 145.799 364.821 157.337 364.821 171.334V278.865C364.821 292.862 353.289 304.4 339.298 304.4Z" fill="#54FFB4"/>
<path d="M384.389 205.287V247.656H314.153C308.86 247.656 304.511 243.306 304.511 238.01V214.934C304.511 209.638 308.86 205.287 314.153 205.287H384.389Z" fill="url(#paint11_linear_11851_20498)"/>
<path d="M394.882 242.266H316.894C308.292 242.266 301.297 235.267 301.297 226.661V215.501C301.297 206.895 308.292 199.896 316.894 199.896H394.882C403.484 199.896 410.479 206.895 410.479 215.501V226.661C410.479 235.173 403.484 242.266 394.882 242.266Z" fill="#007A7C"/>
<path opacity="0.5" d="M384.389 205.287V247.656H314.153C308.86 247.656 304.511 243.306 304.511 238.01V214.934C304.511 209.638 308.86 205.287 314.153 205.287H384.389Z" fill="#007A7C"/>
<path opacity="0.12" d="M340.905 237.631C349.572 237.631 356.597 230.602 356.597 221.932C356.597 213.261 349.572 206.232 340.905 206.232C332.239 206.232 325.213 213.261 325.213 221.932C325.213 230.602 332.239 237.631 340.905 237.631Z" fill="black"/>
<path d="M338.448 235.266C347.114 235.266 354.14 228.237 354.14 219.567C354.14 210.896 347.114 203.867 338.448 203.867C329.781 203.867 322.756 210.896 322.756 219.567C322.756 228.237 329.781 235.266 338.448 235.266Z" fill="url(#paint12_linear_11851_20498)"/>
<path opacity="0.8" d="M322.85 219.473C322.85 210.772 329.845 203.773 338.542 203.773C347.239 203.773 354.234 210.772 354.234 219.473C354.234 219.851 354.234 220.324 354.14 220.702C353.478 212.569 346.766 206.232 338.542 206.232C330.318 206.232 323.512 212.569 322.945 220.702C322.85 220.324 322.85 219.946 322.85 219.473Z" fill="white"/>
<path opacity="0.26" d="M296.854 117.9H151.656L152.507 124.71H296.004L296.854 117.9Z" fill="black"/>
<path d="M394.882 242.266H384.389V247.656H394.882V242.266Z" fill="#0B3D3C"/>
<path opacity="0.32" d="M180.299 340.529V340.718C179.92 349.135 154.208 355.85 122.73 355.755C93.1419 355.661 69.0367 349.513 66.6734 341.853C66.5789 341.38 66.4844 340.907 66.4844 340.434C66.4844 340.056 66.5789 339.772 66.6734 339.299C69.1312 331.45 94.0872 325.397 124.148 325.491C155.343 325.491 180.299 332.301 180.299 340.529Z" fill="black"/>
<path opacity="0.5" d="M434.112 344.974V345.163C433.734 353.58 408.022 360.295 376.543 360.2C346.955 360.106 322.85 353.959 320.487 346.298C320.392 345.825 320.298 345.352 320.298 344.879C320.298 344.501 320.392 344.217 320.487 343.744C322.945 335.895 347.901 329.842 377.961 329.937C409.156 329.842 434.112 336.651 434.112 344.974Z" fill="black"/>
<path d="M175.572 319.721V337.974C175.289 345.729 151.562 351.876 122.73 351.781C95.5999 351.687 73.3853 346.107 71.3057 339.014V319.721H175.572Z" fill="#0F5454"/>
<path d="M175.572 337.784V337.974C175.289 345.729 151.656 351.782 122.825 351.687C95.789 351.592 73.6689 346.012 71.4947 338.919C71.4002 338.447 71.3057 338.068 71.3057 337.595C71.3057 337.312 71.4002 336.933 71.4947 336.555C73.7635 329.367 96.6397 323.787 124.148 323.882C152.696 323.977 175.572 330.219 175.572 337.784Z" fill="#0F5454"/>
<path d="M123.392 333.719C151.94 333.719 175.1 327.477 175.1 319.722C175.1 311.967 151.94 305.725 123.392 305.725C94.8435 305.725 71.6836 311.967 71.6836 319.722C71.7781 327.477 94.8435 333.719 123.392 333.719Z" fill="#00757A"/>
<path d="M123.392 333.719C151.94 333.719 175.1 327.477 175.1 319.722C175.1 311.967 151.94 305.725 123.392 305.725C94.8435 305.725 71.6836 311.967 71.6836 319.722C71.7781 327.477 94.8435 333.719 123.392 333.719Z" fill="#00757A"/>
<path d="M123.392 330.502C145.323 330.502 163.094 325.679 163.094 319.721C163.094 313.763 145.323 308.939 123.392 308.939C101.461 308.939 83.689 313.763 83.689 319.721C83.7835 325.679 101.555 330.502 123.392 330.502Z" fill="#073837"/>
<path d="M123.392 330.502C145.323 330.502 163.094 325.679 163.094 319.721C163.094 313.763 145.323 308.939 123.392 308.939C101.461 308.939 83.689 313.763 83.689 319.721C83.7835 325.679 101.555 330.502 123.392 330.502Z" fill="#073837"/>
<path d="M123.392 330.408C143.716 330.408 160.164 325.963 160.164 320.477C160.164 314.992 143.716 310.547 123.392 310.547C103.068 310.547 86.6196 314.992 86.6196 320.477C86.6196 325.963 103.162 330.408 123.392 330.408Z" fill="#0A5959"/>
<path d="M142.676 332.773C136.531 333.435 129.82 333.719 122.825 333.719C108.834 333.719 95.8835 332.205 86.1469 329.557C76.4103 326.909 71.1166 323.315 71.3057 319.532C71.5893 311.777 95.3163 305.535 124.053 305.63C152.791 305.725 175.951 312.061 175.478 319.816C175.289 325.774 161.676 330.692 142.676 332.773ZM104.486 306.954C85.7688 309.035 72.44 313.858 72.251 319.627C72.0619 323.315 77.2611 326.815 86.7141 329.463C96.2616 332.016 109.023 333.529 122.73 333.624C150.995 333.719 174.249 327.571 174.533 320.005C174.816 312.345 152.223 306.103 124.053 306.008C117.153 305.819 110.536 306.292 104.486 306.954Z" fill="url(#paint13_linear_11851_20498)"/>
<path d="M142.676 332.773C136.531 333.435 129.82 333.719 122.825 333.719C108.834 333.719 95.8835 332.205 86.1469 329.557C76.4103 326.909 71.1166 323.315 71.3057 319.532C71.5893 311.777 95.3163 305.535 124.053 305.63C152.791 305.725 175.951 312.061 175.478 319.816C175.289 325.774 161.676 330.692 142.676 332.773ZM104.486 306.954C85.7688 309.035 72.44 313.858 72.251 319.627C72.0619 323.315 77.2611 326.815 86.7141 329.463C96.2616 332.016 109.023 333.529 122.73 333.624C150.995 333.719 174.249 327.571 174.533 320.005C174.816 312.345 152.223 306.103 124.053 306.008C117.153 305.819 110.536 306.292 104.486 306.954Z" fill="url(#paint14_linear_11851_20498)"/>
<path d="M131.994 314.237H131.899H131.805C131.805 314.237 131.805 314.237 131.71 314.237C131.71 314.237 131.71 314.237 131.616 314.237H131.521C131.427 314.237 131.332 314.237 131.238 314.237L107.132 314.143C104.864 314.143 102.973 314.615 102.973 315.277C102.973 315.94 104.769 316.412 107.038 316.412L131.049 316.507C131.143 316.507 131.238 316.507 131.332 316.507C131.427 316.507 131.521 316.507 131.616 316.507C136.153 316.507 139.84 317.547 139.745 318.777C139.651 320.006 135.964 321.046 131.427 321.046H123.203V319.912H131.427C133.695 319.912 135.586 319.439 135.586 318.777C135.586 318.209 133.79 317.642 131.521 317.642L112.332 317.547C110.063 317.547 108.172 318.02 108.172 318.682C108.172 319.25 109.968 319.817 112.237 319.817H114.978V320.952L114.884 323.222L114.789 325.87C114.789 326.437 116.585 327.005 118.854 327.005C121.123 327.005 123.014 326.532 123.014 325.87L123.108 323.222H131.332C140.502 323.222 147.875 321.33 147.969 318.871C148.253 316.223 141.069 314.237 131.994 314.237Z" fill="#073837"/>
<path d="M105.526 313.102H102.879V315.277H105.526V313.102Z" fill="#073837"/>
<path d="M135.586 316.506H131.521V318.965H135.586V316.506Z" fill="#073837"/>
<path d="M112.143 316.412H108.078V318.682H112.143V316.412Z" fill="#073837"/>
<path d="M147.97 316.412H143.905V318.682H147.97V316.412Z" fill="#073837"/>
<path d="M131.899 312.061H131.805H131.71C131.71 312.061 131.71 312.061 131.616 312.061C131.616 312.061 131.616 312.061 131.521 312.061H131.427C131.332 312.061 131.238 312.061 131.143 312.061L107.132 311.967C104.864 311.967 102.973 312.44 102.973 313.102C102.973 313.669 104.769 314.237 107.038 314.237L131.049 314.331C131.143 314.331 131.238 314.331 131.332 314.331C131.427 314.331 131.521 314.331 131.616 314.331C136.153 314.331 139.84 315.371 139.745 316.601C139.651 317.83 135.964 318.871 131.427 318.871H123.203V317.736H131.427C133.695 317.736 135.586 317.263 135.586 316.601C135.586 316.033 133.79 315.466 131.521 315.466L112.332 315.371C110.063 315.371 108.172 315.844 108.172 316.506C108.172 317.168 109.968 317.641 112.237 317.641H114.978V318.776L114.884 321.046L114.789 323.694C114.789 324.261 116.585 324.829 118.854 324.829C121.123 324.829 123.014 324.356 123.014 323.694L123.108 321.046H131.332C140.502 321.046 147.875 319.154 147.969 316.696C148.159 314.237 140.974 312.156 131.899 312.061Z" fill="url(#paint15_linear_11851_20498)"/>
<path d="M175.572 297.117V315.37C175.289 323.125 151.562 329.272 122.73 329.178C95.5999 329.083 73.3853 323.503 71.3057 316.41V297.117H175.572Z" fill="#0F5454"/>
<path d="M175.572 315.181V315.37C175.289 323.125 151.656 329.178 122.825 329.083C95.789 328.989 73.6689 323.409 71.4947 316.316C71.4002 315.843 71.3057 315.465 71.3057 314.992C71.3057 314.708 71.4002 314.33 71.4947 313.951C73.7635 306.764 96.6397 301.184 124.148 301.279C152.696 301.373 175.572 307.615 175.572 315.181Z" fill="#0F5454"/>
<path d="M123.392 311.115C151.94 311.115 175.1 304.873 175.1 297.118C175.1 289.363 151.94 283.121 123.392 283.121C94.8435 283.121 71.6836 289.363 71.6836 297.118C71.6836 304.873 94.8435 311.115 123.392 311.115Z" fill="#00757A"/>
<path d="M123.392 311.115C151.94 311.115 175.1 304.873 175.1 297.118C175.1 289.363 151.94 283.121 123.392 283.121C94.8435 283.121 71.6836 289.363 71.6836 297.118C71.6836 304.873 94.8435 311.115 123.392 311.115Z" fill="#00757A"/>
<path d="M123.392 307.899C145.323 307.899 163.094 303.076 163.094 297.117C163.094 291.159 145.323 286.336 123.392 286.336C101.461 286.336 83.689 291.159 83.689 297.117C83.7835 303.076 101.555 307.899 123.392 307.899Z" fill="#073837"/>
<path d="M123.392 307.899C145.323 307.899 163.094 303.076 163.094 297.117C163.094 291.159 145.323 286.336 123.392 286.336C101.461 286.336 83.689 291.159 83.689 297.117C83.7835 303.076 101.555 307.899 123.392 307.899Z" fill="#073837"/>
<path d="M123.392 307.804C143.716 307.804 160.164 303.359 160.164 297.874C160.164 292.388 143.716 287.943 123.392 287.943C103.068 287.943 86.6196 292.388 86.6196 297.874C86.6196 303.359 103.162 307.804 123.392 307.804Z" fill="#0A5959"/>
<path d="M142.676 310.169C136.531 310.831 129.82 311.115 122.825 311.115C108.834 311.115 95.8835 309.602 86.1469 306.954C76.4103 304.306 71.1166 300.712 71.3057 296.929C71.5893 289.174 95.3163 282.932 124.053 283.026C152.791 283.121 175.951 289.458 175.478 297.213C175.289 303.171 161.676 308.089 142.676 310.169ZM104.486 284.35C85.7688 286.431 72.44 291.254 72.251 297.023C72.0619 300.712 77.2611 304.211 86.7141 306.859C96.2616 309.413 109.023 310.926 122.73 311.02C150.995 311.115 174.249 304.968 174.533 297.402C174.816 289.741 152.223 283.499 124.053 283.405C117.153 283.216 110.536 283.688 104.486 284.35Z" fill="url(#paint16_linear_11851_20498)"/>
<path d="M142.676 310.169C136.531 310.831 129.82 311.115 122.825 311.115C108.834 311.115 95.8835 309.602 86.1469 306.954C76.4103 304.306 71.1166 300.712 71.3057 296.929C71.5893 289.174 95.3163 282.932 124.053 283.026C152.791 283.121 175.951 289.458 175.478 297.213C175.289 303.171 161.676 308.089 142.676 310.169ZM104.486 284.35C85.7688 286.431 72.44 291.254 72.251 297.023C72.0619 300.712 77.2611 304.211 86.7141 306.859C96.2616 309.413 109.023 310.926 122.73 311.02C150.995 311.115 174.249 304.968 174.533 297.402C174.816 289.741 152.223 283.499 124.053 283.405C117.153 283.216 110.536 283.688 104.486 284.35Z" fill="url(#paint17_linear_11851_20498)"/>
<path d="M131.994 291.634H131.899H131.805C131.805 291.634 131.805 291.634 131.71 291.634C131.71 291.634 131.71 291.634 131.616 291.634H131.521C131.427 291.634 131.332 291.634 131.238 291.634L107.132 291.539C104.864 291.539 102.973 292.012 102.973 292.674C102.973 293.336 104.769 293.809 107.038 293.809L131.049 293.903C131.143 293.903 131.238 293.903 131.332 293.903C131.427 293.903 131.521 293.903 131.616 293.903C136.153 293.903 139.84 294.944 139.745 296.173C139.651 297.403 135.964 298.443 131.427 298.443H123.203V297.308H131.427C133.695 297.308 135.586 296.835 135.586 296.173C135.586 295.511 133.79 295.038 131.521 295.038L112.332 294.944C110.063 294.944 108.172 295.417 108.172 296.079C108.172 296.646 109.968 297.214 112.237 297.214H114.978V298.348L114.884 300.618L114.789 303.266C114.789 303.834 116.585 304.401 118.854 304.401C121.123 304.401 123.014 303.928 123.014 303.266L123.108 300.618H131.332C140.502 300.618 147.875 298.727 147.969 296.268C148.253 293.714 141.069 291.634 131.994 291.634Z" fill="#073837"/>
<path d="M105.526 290.498H102.879V292.673H105.526V290.498Z" fill="#073837"/>
<path d="M135.586 293.902H131.521V296.361H135.586V293.902Z" fill="#073837"/>
<path d="M112.143 293.809H108.078V296.078H112.143V293.809Z" fill="#073837"/>
<path d="M147.97 293.809H143.905V296.078H147.97V293.809Z" fill="#073837"/>
<path d="M131.899 289.458H131.805H131.71C131.71 289.458 131.71 289.458 131.616 289.458C131.616 289.458 131.616 289.458 131.521 289.458H131.427C131.332 289.458 131.238 289.458 131.143 289.458L107.132 289.363C104.864 289.363 102.973 289.836 102.973 290.498C102.973 291.066 104.769 291.633 107.038 291.633L131.049 291.728C131.143 291.728 131.238 291.728 131.332 291.728C131.427 291.728 131.521 291.728 131.616 291.728C136.153 291.728 139.84 292.768 139.745 293.997C139.651 295.227 135.964 296.267 131.427 296.267H123.203V295.132H131.427C133.695 295.132 135.586 294.659 135.586 293.997C135.586 293.43 133.79 292.863 131.521 292.863L112.332 292.768C110.063 292.768 108.172 293.241 108.172 293.903C108.172 294.47 109.968 295.038 112.237 295.038H114.978V296.173L114.884 298.442L114.789 301.091C114.789 301.658 116.585 302.225 118.854 302.225C121.123 302.225 123.014 301.753 123.014 301.091L123.108 298.442H131.332C140.502 298.442 147.875 296.551 147.969 294.092C148.159 291.633 140.974 289.552 131.899 289.458Z" fill="url(#paint18_linear_11851_20498)"/>
<path d="M175.572 274.514V292.861C175.289 300.616 151.562 306.764 122.73 306.669C95.5999 306.574 73.3853 300.995 71.3057 293.901V274.608H175.572V274.514Z" fill="#0F5454"/>
<path d="M175.572 292.577V292.767C175.289 300.522 151.656 306.574 122.825 306.48C95.789 306.385 73.6689 300.805 71.4947 293.712C71.4002 293.239 71.3057 292.861 71.3057 292.388C71.3057 292.105 71.4002 291.726 71.4947 291.348C73.7635 284.16 96.6397 278.58 124.148 278.675C152.696 278.77 175.572 285.012 175.572 292.577Z" fill="#0F5454"/>
<path d="M123.392 288.512C151.94 288.512 175.1 282.27 175.1 274.515C175.1 266.759 151.94 260.518 123.392 260.518C94.8435 260.518 71.6836 266.759 71.6836 274.515C71.7781 282.27 94.8435 288.512 123.392 288.512Z" fill="#00757A"/>
<path d="M123.392 288.512C151.94 288.512 175.1 282.27 175.1 274.515C175.1 266.759 151.94 260.518 123.392 260.518C94.8435 260.518 71.6836 266.759 71.6836 274.515C71.7781 282.27 94.8435 288.512 123.392 288.512Z" fill="#00757A"/>
<path d="M123.392 285.295C145.323 285.295 163.094 280.472 163.094 274.514C163.094 268.556 145.323 263.732 123.392 263.732C101.461 263.732 83.689 268.556 83.689 274.514C83.7835 280.472 101.555 285.295 123.392 285.295Z" fill="#073837"/>
<path d="M123.392 285.295C145.323 285.295 163.094 280.472 163.094 274.514C163.094 268.556 145.323 263.732 123.392 263.732C101.461 263.732 83.689 268.556 83.689 274.514C83.7835 280.472 101.555 285.295 123.392 285.295Z" fill="#073837"/>
<path d="M123.392 285.201C143.716 285.201 160.164 280.755 160.164 275.27C160.164 269.785 143.716 265.34 123.392 265.34C103.068 265.34 86.6196 269.785 86.6196 275.27C86.6196 280.85 103.162 285.201 123.392 285.201Z" fill="#0A5959"/>
<path d="M142.676 287.566C136.531 288.228 129.82 288.512 122.825 288.512C108.834 288.512 95.8835 286.998 86.1469 284.35C76.4103 281.702 71.1166 278.108 71.3057 274.325C71.5893 266.57 95.3163 260.328 124.053 260.423C152.791 260.518 175.951 266.854 175.478 274.609C175.289 280.567 161.676 285.485 142.676 287.566ZM104.486 261.747C85.7688 263.828 72.44 268.651 72.251 274.42C72.0619 278.108 77.2611 281.608 86.7141 284.256C96.2616 286.809 109.023 288.322 122.73 288.417C150.995 288.512 174.249 282.364 174.533 274.798C174.816 267.138 152.223 260.896 124.053 260.801C117.153 260.612 110.536 261.085 104.486 261.747Z" fill="url(#paint19_linear_11851_20498)"/>
<path d="M142.676 287.566C136.531 288.228 129.82 288.512 122.825 288.512C108.834 288.512 95.8835 286.998 86.1469 284.35C76.4103 281.702 71.1166 278.108 71.3057 274.325C71.5893 266.57 95.3163 260.328 124.053 260.423C152.791 260.518 175.951 266.854 175.478 274.609C175.289 280.567 161.676 285.485 142.676 287.566ZM104.486 261.747C85.7688 263.828 72.44 268.651 72.251 274.42C72.0619 278.108 77.2611 281.608 86.7141 284.256C96.2616 286.809 109.023 288.322 122.73 288.417C150.995 288.512 174.249 282.364 174.533 274.798C174.816 267.138 152.223 260.896 124.053 260.801C117.153 260.612 110.536 261.085 104.486 261.747Z" fill="url(#paint20_linear_11851_20498)"/>
<path d="M131.994 269.03H131.899H131.805C131.805 269.03 131.805 269.03 131.71 269.03C131.71 269.03 131.71 269.03 131.616 269.03H131.521C131.427 269.03 131.332 269.03 131.238 269.03L107.132 268.936C104.864 268.936 102.973 269.408 102.973 270.07C102.973 270.732 104.769 271.205 107.038 271.205L131.049 271.3C131.143 271.3 131.238 271.3 131.332 271.3C131.427 271.3 131.521 271.3 131.616 271.3C136.153 271.3 139.84 272.34 139.745 273.57C139.651 274.799 135.964 275.839 131.427 275.839H123.203V274.705H131.427C133.695 274.705 135.586 274.232 135.586 273.57C135.586 272.908 133.79 272.435 131.521 272.435L112.332 272.34C110.063 272.34 108.172 272.813 108.172 273.475C108.172 274.043 109.968 274.61 112.237 274.61H114.978V275.745L114.884 278.015L114.789 280.663C114.789 281.23 116.585 281.798 118.854 281.798C121.123 281.798 123.014 281.325 123.014 280.663L123.108 278.015H131.332C140.502 278.015 147.875 276.123 147.969 273.664C148.253 271.111 141.069 269.03 131.994 269.03Z" fill="#073837"/>
<path d="M105.526 267.895H102.879V270.07H105.526V267.895Z" fill="#073837"/>
<path d="M135.586 271.299H131.521V273.758H135.586V271.299Z" fill="#073837"/>
<path d="M112.143 271.205H108.078V273.475H112.143V271.205Z" fill="#073837"/>
<path d="M147.97 271.205H143.905V273.475H147.97V271.205Z" fill="#073837"/>
<path d="M131.899 266.854H131.805H131.71C131.71 266.854 131.71 266.854 131.616 266.854C131.616 266.854 131.616 266.854 131.521 266.854H131.427C131.332 266.854 131.238 266.854 131.143 266.854L107.132 266.76C104.864 266.76 102.973 267.233 102.973 267.895C102.973 268.462 104.769 269.03 107.038 269.03L131.049 269.124C131.143 269.124 131.238 269.124 131.332 269.124C131.427 269.124 131.521 269.124 131.616 269.124C136.153 269.124 139.84 270.164 139.745 271.394C139.651 272.623 135.964 273.664 131.427 273.664H123.203V272.529H131.427C133.695 272.529 135.586 272.056 135.586 271.394C135.586 270.826 133.79 270.259 131.521 270.259L112.332 270.164C110.063 270.164 108.172 270.637 108.172 271.299C108.172 271.961 109.968 272.434 112.237 272.434H114.978V273.569L114.884 275.839L114.789 278.487C114.789 279.054 116.585 279.622 118.854 279.622C121.123 279.622 123.014 279.149 123.014 278.487L123.108 275.839H131.332C140.502 275.839 147.875 273.947 147.969 271.488C148.159 269.03 140.974 266.949 131.899 266.854Z" fill="url(#paint21_linear_11851_20498)"/>
<path d="M175.572 251.91V270.163C175.289 277.918 151.562 284.065 122.73 283.971C95.5999 283.876 73.3853 278.296 71.3057 271.203V251.91H175.572Z" fill="#0F5454"/>
<path d="M175.572 269.974V270.163C175.289 277.918 151.656 283.971 122.825 283.876C95.789 283.782 73.6689 278.202 71.4947 271.109C71.4002 270.636 71.3057 270.258 71.3057 269.785C71.3057 269.501 71.4002 269.123 71.4947 268.744C73.7635 261.557 96.6397 255.977 124.148 256.071C152.696 256.166 175.572 262.408 175.572 269.974Z" fill="#0F5454"/>
<path d="M123.392 265.908C151.94 265.908 175.1 259.666 175.1 251.911C175.1 244.156 151.94 237.914 123.392 237.914C94.8435 237.914 71.6836 244.156 71.6836 251.911C71.7781 259.666 94.8435 265.908 123.392 265.908Z" fill="#00757A"/>
<path d="M123.392 265.908C151.94 265.908 175.1 259.666 175.1 251.911C175.1 244.156 151.94 237.914 123.392 237.914C94.8435 237.914 71.6836 244.156 71.6836 251.911C71.7781 259.666 94.8435 265.908 123.392 265.908Z" fill="#00757A"/>
<path d="M123.392 262.692C145.323 262.692 163.094 257.869 163.094 251.91C163.094 245.952 145.323 241.129 123.392 241.129C101.461 241.129 83.689 245.952 83.689 251.91C83.7835 257.869 101.555 262.692 123.392 262.692Z" fill="#073837"/>
<path d="M123.392 262.692C145.323 262.692 163.094 257.869 163.094 251.91C163.094 245.952 145.323 241.129 123.392 241.129C101.461 241.129 83.689 245.952 83.689 251.91C83.7835 257.869 101.555 262.692 123.392 262.692Z" fill="#073837"/>
<path d="M123.392 262.599C143.716 262.599 160.164 258.154 160.164 252.669C160.164 247.183 143.716 242.738 123.392 242.738C103.068 242.738 86.6196 247.183 86.6196 252.669C86.6196 258.248 103.162 262.599 123.392 262.599Z" fill="#0A5959"/>
<path d="M142.676 264.962C136.531 265.624 129.82 265.908 122.825 265.908C108.834 265.908 95.8835 264.395 86.1469 261.747C76.4103 259.099 71.1166 255.505 71.3057 251.722C71.5893 243.967 95.3163 237.725 124.053 237.819C152.791 237.914 175.951 244.25 175.478 252.006C175.289 257.964 161.676 262.882 142.676 264.962ZM104.486 239.143C85.7688 241.224 72.44 246.047 72.251 251.816C72.0619 255.505 77.2611 259.004 86.7141 261.652C96.2616 264.206 109.023 265.719 122.73 265.813C150.995 265.908 174.249 259.761 174.533 252.195C174.816 244.534 152.223 238.292 124.053 238.198C117.153 238.009 110.536 238.481 104.486 239.143Z" fill="url(#paint22_linear_11851_20498)"/>
<path d="M142.676 264.962C136.531 265.624 129.82 265.908 122.825 265.908C108.834 265.908 95.8835 264.395 86.1469 261.747C76.4103 259.099 71.1166 255.505 71.3057 251.722C71.5893 243.967 95.3163 237.725 124.053 237.819C152.791 237.914 175.951 244.25 175.478 252.006C175.289 257.964 161.676 262.882 142.676 264.962ZM104.486 239.143C85.7688 241.224 72.44 246.047 72.251 251.816C72.0619 255.505 77.2611 259.004 86.7141 261.652C96.2616 264.206 109.023 265.719 122.73 265.813C150.995 265.908 174.249 259.761 174.533 252.195C174.816 244.534 152.223 238.292 124.053 238.198C117.153 238.009 110.536 238.481 104.486 239.143Z" fill="url(#paint23_linear_11851_20498)"/>
<path d="M131.994 246.427H131.899H131.805C131.805 246.427 131.805 246.427 131.71 246.427C131.71 246.427 131.71 246.427 131.616 246.427H131.521C131.427 246.427 131.332 246.427 131.238 246.427L107.132 246.332C104.864 246.332 102.973 246.805 102.973 247.467C102.973 248.034 104.769 248.602 107.038 248.602L131.049 248.696C131.143 248.696 131.238 248.696 131.332 248.696C131.427 248.696 131.521 248.696 131.616 248.696C136.153 248.696 139.84 249.737 139.745 250.966C139.651 252.196 135.964 253.236 131.427 253.236H123.203V252.101H131.427C133.695 252.101 135.586 251.628 135.586 250.966C135.586 250.304 133.79 249.831 131.521 249.831L112.332 249.737C110.063 249.737 108.172 250.21 108.172 250.872C108.172 251.439 109.968 252.006 112.237 252.006H114.978V253.141L114.884 255.411L114.789 258.059C114.789 258.627 116.585 259.194 118.854 259.194C121.123 259.194 123.014 258.721 123.014 258.059L123.108 255.411H131.332C140.502 255.411 147.875 253.52 147.969 251.061C148.253 248.507 141.069 246.427 131.994 246.427Z" fill="#073837"/>
<path d="M105.526 245.291H102.879V247.466H105.526V245.291Z" fill="#073837"/>
<path d="M135.586 248.695H131.521V251.154H135.586V248.695Z" fill="#073837"/>
<path d="M112.143 248.602H108.078V250.871H112.143V248.602Z" fill="#073837"/>
<path d="M147.97 248.602H143.905V250.871H147.97V248.602Z" fill="#073837"/>
<path d="M131.899 244.251H131.805H131.71C131.71 244.251 131.71 244.251 131.616 244.251C131.616 244.251 131.616 244.251 131.521 244.251H131.427C131.332 244.251 131.238 244.251 131.143 244.251L107.132 244.156C104.864 244.156 102.973 244.629 102.973 245.291C102.973 245.859 104.769 246.426 107.038 246.426L131.049 246.521C131.143 246.521 131.238 246.521 131.332 246.521C131.427 246.521 131.521 246.521 131.616 246.521C136.153 246.521 139.84 247.561 139.745 248.79C139.651 250.02 135.964 251.06 131.427 251.06H123.203V249.925H131.427C133.695 249.925 135.586 249.452 135.586 248.79C135.586 248.223 133.79 247.655 131.521 247.655L112.332 247.561C110.063 247.561 108.172 248.034 108.172 248.696C108.172 249.263 109.968 249.831 112.237 249.831H114.978V250.966L114.884 253.235L114.789 255.883C114.789 256.451 116.585 257.018 118.854 257.018C121.123 257.018 123.014 256.545 123.014 255.883L123.108 253.235H131.332C140.502 253.235 147.875 251.344 147.969 248.885C148.159 246.426 140.974 244.345 131.899 244.251Z" fill="url(#paint24_linear_11851_20498)"/>
<path d="M430.803 324.732V342.985C430.52 350.74 406.793 356.888 377.961 356.793C350.831 356.699 328.616 351.119 326.537 344.026V324.732H430.803Z" fill="#0F5454"/>
<path d="M430.803 342.796V342.985C430.52 350.74 406.887 356.793 378.056 356.699C351.02 356.604 328.9 351.024 326.726 343.931C326.631 343.458 326.537 343.08 326.537 342.607C326.537 342.323 326.631 341.945 326.726 341.567C328.994 334.379 351.871 328.799 379.379 328.894C407.927 328.988 430.803 335.23 430.803 342.796Z" fill="#0F5454"/>
<path d="M378.622 338.73C407.171 338.73 430.33 332.488 430.33 324.733C430.33 316.978 407.171 310.736 378.622 310.736C350.074 310.736 326.915 316.978 326.915 324.733C326.915 332.488 350.074 338.73 378.622 338.73Z" fill="#00757A"/>
<path d="M378.622 338.73C407.171 338.73 430.33 332.488 430.33 324.733C430.33 316.978 407.171 310.736 378.622 310.736C350.074 310.736 326.915 316.978 326.915 324.733C326.915 332.488 350.074 338.73 378.622 338.73Z" fill="#00757A"/>
<path d="M378.623 335.514C400.554 335.514 418.325 330.691 418.325 324.733C418.325 318.774 400.554 313.951 378.623 313.951C356.692 313.951 338.92 318.774 338.92 324.733C339.014 330.691 356.786 335.514 378.623 335.514Z" fill="#073837"/>
<path d="M378.623 335.514C400.554 335.514 418.325 330.691 418.325 324.733C418.325 318.774 400.554 313.951 378.623 313.951C356.692 313.951 338.92 318.774 338.92 324.733C339.014 330.691 356.786 335.514 378.623 335.514Z" fill="#073837"/>
<path d="M378.623 335.419C398.947 335.419 415.395 330.974 415.395 325.489C415.395 320.004 398.947 315.559 378.623 315.559C358.299 315.559 341.851 320.004 341.851 325.489C341.851 330.974 358.393 335.419 378.623 335.419Z" fill="#0A5959"/>
<path d="M397.907 337.785C391.762 338.447 385.051 338.73 378.056 338.73C364.065 338.73 351.114 337.217 341.378 334.569C331.641 331.921 326.348 328.327 326.537 324.544C326.82 316.789 350.547 310.547 379.284 310.642C408.022 310.736 431.181 317.073 430.709 324.828C430.52 330.786 416.907 335.704 397.907 337.785ZM359.717 311.966C341 314.046 327.671 318.87 327.482 324.639C327.293 328.327 332.492 331.826 341.945 334.474C351.398 337.123 364.254 338.541 377.961 338.636C406.225 338.73 429.48 332.583 429.763 325.017C430.047 317.356 407.454 311.115 379.284 311.02C372.384 310.831 365.767 311.304 359.717 311.966Z" fill="url(#paint25_linear_11851_20498)"/>
<path d="M397.907 337.785C391.762 338.447 385.051 338.73 378.056 338.73C364.065 338.73 351.114 337.217 341.378 334.569C331.641 331.921 326.348 328.327 326.537 324.544C326.82 316.789 350.547 310.547 379.284 310.642C408.022 310.736 431.181 317.073 430.709 324.828C430.52 330.786 416.907 335.704 397.907 337.785ZM359.717 311.966C341 314.046 327.671 318.87 327.482 324.639C327.293 328.327 332.492 331.826 341.945 334.474C351.398 337.123 364.254 338.541 377.961 338.636C406.225 338.73 429.48 332.583 429.763 325.017C430.047 317.356 407.454 311.115 379.284 311.02C372.384 310.831 365.767 311.304 359.717 311.966Z" fill="url(#paint26_linear_11851_20498)"/>
<path d="M387.225 319.249H387.13H387.036C387.036 319.249 387.036 319.249 386.941 319.249C386.941 319.249 386.941 319.249 386.847 319.249H386.752C386.658 319.249 386.563 319.249 386.469 319.249L362.363 319.154C360.095 319.154 358.204 319.627 358.204 320.289C358.204 320.951 360 321.424 362.269 321.424L386.28 321.519C386.374 321.519 386.469 321.519 386.563 321.519C386.658 321.519 386.752 321.519 386.847 321.519C391.384 321.519 395.071 322.559 394.976 323.788C394.882 325.018 391.195 326.058 386.658 326.058H378.434V324.923H386.658C388.926 324.923 390.817 324.45 390.817 323.788C390.817 323.126 389.021 322.654 386.752 322.654L367.563 322.559C365.294 322.559 363.403 323.032 363.403 323.694C363.403 324.261 365.199 324.829 367.468 324.829H370.209V325.964L370.115 328.233L370.02 330.882C370.02 331.449 371.816 332.016 374.085 332.016C376.354 332.016 378.244 331.544 378.244 330.882L378.339 328.233H386.563C395.733 328.233 403.106 326.342 403.2 323.883C403.484 321.235 396.3 319.249 387.225 319.249Z" fill="#073837"/>
<path d="M360.757 318.113H358.11V320.288H360.757V318.113Z" fill="#073837"/>
<path d="M390.817 321.424H386.752V323.883H390.817V321.424Z" fill="#073837"/>
<path d="M367.373 321.424H363.309V323.694H367.373V321.424Z" fill="#073837"/>
<path d="M403.201 321.424H399.136V323.694H403.201V321.424Z" fill="#073837"/>
<path d="M387.13 317.073H387.036H386.941C386.941 317.073 386.941 317.073 386.847 317.073C386.847 317.073 386.847 317.073 386.752 317.073H386.658C386.563 317.073 386.469 317.073 386.374 317.073L362.363 316.979C360.095 316.979 358.204 317.451 358.204 318.113C358.204 318.681 360 319.248 362.269 319.248L386.28 319.343C386.374 319.343 386.469 319.343 386.563 319.343C386.658 319.343 386.752 319.343 386.847 319.343C391.384 319.343 395.071 320.383 394.976 321.613C394.882 322.842 391.195 323.882 386.658 323.882H378.434V322.748H386.658C388.926 322.748 390.817 322.275 390.817 321.613C390.817 321.045 389.021 320.478 386.752 320.478L367.563 320.383C365.294 320.383 363.403 320.856 363.403 321.518C363.403 322.086 365.199 322.653 367.468 322.653H370.209V323.788L370.115 326.058L370.02 328.706C370.02 329.273 371.816 329.841 374.085 329.841C376.354 329.841 378.244 329.368 378.244 328.706L378.339 326.058H386.563C395.733 326.058 403.106 324.166 403.2 321.707C403.389 319.154 396.205 317.168 387.13 317.073Z" fill="url(#paint27_linear_11851_20498)"/>
<path d="M430.803 302.131V320.384C430.52 328.139 406.793 334.286 377.961 334.192C350.831 334.097 328.616 328.517 326.537 321.424V302.131H430.803Z" fill="#0F5454"/>
<path d="M430.803 320.195V320.384C430.52 328.139 406.887 334.192 378.056 334.097C351.02 334.003 328.9 328.423 326.726 321.33C326.631 320.857 326.537 320.478 326.537 320.005C326.537 319.722 326.631 319.343 326.726 318.965C328.994 311.778 351.871 306.198 379.379 306.292C407.927 306.387 430.803 312.629 430.803 320.195Z" fill="#0F5454"/>
<path d="M378.622 316.129C407.171 316.129 430.33 309.887 430.33 302.132C430.33 294.377 407.171 288.135 378.622 288.135C350.074 288.135 326.915 294.377 326.915 302.132C327.009 309.887 350.074 316.129 378.622 316.129Z" fill="#00757A"/>
<path d="M378.622 316.129C407.171 316.129 430.33 309.887 430.33 302.132C430.33 294.377 407.171 288.135 378.622 288.135C350.074 288.135 326.915 294.377 326.915 302.132C327.009 309.887 350.074 316.129 378.622 316.129Z" fill="#00757A"/>
<path d="M378.623 312.913C400.554 312.913 418.325 308.089 418.325 302.131C418.325 296.173 400.554 291.35 378.623 291.35C356.692 291.35 338.92 296.173 338.92 302.131C339.014 308.089 356.786 312.913 378.623 312.913Z" fill="#073837"/>
<path d="M378.623 312.913C400.554 312.913 418.325 308.089 418.325 302.131C418.325 296.173 400.554 291.35 378.623 291.35C356.692 291.35 338.92 296.173 338.92 302.131C339.014 308.089 356.786 312.913 378.623 312.913Z" fill="#073837"/>
<path d="M378.623 312.818C398.947 312.818 415.395 308.373 415.395 302.887C415.395 297.402 398.947 292.957 378.623 292.957C358.299 292.957 341.851 297.402 341.851 302.887C341.851 308.373 358.393 312.818 378.623 312.818Z" fill="#0A5959"/>
<path d="M397.907 315.183C391.762 315.845 385.051 316.129 378.056 316.129C364.065 316.129 351.114 314.616 341.378 311.967C331.641 309.319 326.348 305.726 326.537 301.943C326.82 294.187 350.547 287.946 379.284 288.04C408.022 288.135 431.181 294.471 430.709 302.226C430.52 308.184 416.907 313.102 397.907 315.183ZM359.717 289.364C341 291.445 327.671 296.268 327.482 302.037C327.293 305.726 332.492 309.225 341.945 311.873C351.398 314.521 364.254 315.94 377.961 316.034C406.225 316.129 429.48 309.981 429.763 302.415C430.047 294.755 407.454 288.513 379.284 288.418C372.384 288.229 365.767 288.702 359.717 289.364Z" fill="url(#paint28_linear_11851_20498)"/>
<path d="M397.907 315.183C391.762 315.845 385.051 316.129 378.056 316.129C364.065 316.129 351.114 314.616 341.378 311.967C331.641 309.319 326.348 305.726 326.537 301.943C326.82 294.187 350.547 287.946 379.284 288.04C408.022 288.135 431.181 294.471 430.709 302.226C430.52 308.184 416.907 313.102 397.907 315.183ZM359.717 289.364C341 291.445 327.671 296.268 327.482 302.037C327.293 305.726 332.492 309.225 341.945 311.873C351.398 314.521 364.254 315.94 377.961 316.034C406.225 316.129 429.48 309.981 429.763 302.415C430.047 294.755 407.454 288.513 379.284 288.418C372.384 288.229 365.767 288.702 359.717 289.364Z" fill="url(#paint29_linear_11851_20498)"/>
<path d="M387.225 296.647H387.13H387.036C387.036 296.647 387.036 296.647 386.941 296.647C386.941 296.647 386.941 296.647 386.847 296.647H386.752C386.658 296.647 386.563 296.647 386.469 296.647L362.363 296.553C360.095 296.553 358.204 297.026 358.204 297.688C358.204 298.255 360 298.823 362.269 298.823L386.28 298.917C386.374 298.917 386.469 298.917 386.563 298.917C386.658 298.917 386.752 298.917 386.847 298.917C391.384 298.917 395.071 299.957 394.976 301.187C394.882 302.416 391.195 303.457 386.658 303.457H378.434V302.322H386.658C388.926 302.322 390.817 301.849 390.817 301.187C390.817 300.525 389.021 300.052 386.752 300.052L367.563 299.957C365.294 299.957 363.403 300.43 363.403 301.092C363.403 301.66 365.199 302.227 367.468 302.227H370.209V303.362L370.115 305.632L370.02 308.28C370.02 308.847 371.816 309.415 374.085 309.415C376.354 309.415 378.244 308.942 378.244 308.28L378.339 305.632H386.563C395.733 305.632 403.106 303.74 403.2 301.281C403.484 298.633 396.3 296.647 387.225 296.647Z" fill="#073837"/>
<path d="M360.757 295.512H358.11V297.687H360.757V295.512Z" fill="#073837"/>
<path d="M390.817 298.916H386.752V301.375H390.817V298.916Z" fill="#073837"/>
<path d="M367.373 298.822H363.309V301.092H367.373V298.822Z" fill="#073837"/>
<path d="M403.201 298.822H399.136V301.092H403.201V298.822Z" fill="#073837"/>
<path d="M387.13 294.472H387.036H386.941C386.941 294.472 386.941 294.472 386.847 294.472C386.847 294.472 386.847 294.472 386.752 294.472H386.658C386.563 294.472 386.469 294.472 386.374 294.472L362.363 294.377C360.095 294.377 358.204 294.85 358.204 295.512C358.204 296.079 360 296.647 362.269 296.647L386.28 296.741C386.374 296.741 386.469 296.741 386.563 296.741C386.658 296.741 386.752 296.741 386.847 296.741C391.384 296.741 395.071 297.782 394.976 299.011C394.882 300.241 391.195 301.281 386.658 301.281H378.434V300.146H386.658C388.926 300.146 390.817 299.673 390.817 299.011C390.817 298.444 389.021 297.876 386.752 297.876L367.563 297.782C365.294 297.782 363.403 298.254 363.403 298.917C363.403 299.579 365.199 300.051 367.468 300.051H370.209V301.186L370.115 303.456L370.02 306.104C370.02 306.672 371.816 307.239 374.085 307.239C376.354 307.239 378.244 306.766 378.244 306.104L378.339 303.456H386.563C395.733 303.456 403.106 301.565 403.2 299.106C403.389 296.647 396.205 294.566 387.13 294.472Z" fill="url(#paint30_linear_11851_20498)"/>
<path d="M212.628 188.737H163.472C161.676 188.737 160.164 187.318 160.164 185.427V183.252C160.164 181.455 161.582 179.941 163.472 179.941H212.628C214.424 179.941 215.936 181.36 215.936 183.252V185.427C215.936 187.318 214.424 188.737 212.628 188.737Z" fill="#338585"/>
<path d="M212.628 204.247H163.472C161.676 204.247 160.164 202.828 160.164 200.936V198.761C160.164 196.964 161.582 195.451 163.472 195.451H212.628C214.424 195.451 215.936 196.87 215.936 198.761V200.936C215.936 202.733 214.424 204.247 212.628 204.247Z" fill="#338585"/>
<path d="M212.628 219.663H163.472C161.676 219.663 160.164 218.244 160.164 216.353V214.177C160.164 212.38 161.582 210.867 163.472 210.867H212.628C214.424 210.867 215.936 212.286 215.936 214.177V216.353C215.936 218.244 214.424 219.663 212.628 219.663Z" fill="#338585"/>
<defs>
<linearGradient id="paint0_linear_11851_20498" x1="4.00001" y1="361.391" x2="519.032" y2="361.391" gradientUnits="userSpaceOnUse">
<stop stop-color="#00A8A1"/>
<stop offset="1" stop-color="#41FF7A"/>
</linearGradient>
<linearGradient id="paint1_linear_11851_20498" x1="12.6693" y1="332.017" x2="513.232" y2="332.017" gradientUnits="userSpaceOnUse">
<stop stop-color="#00A8A1"/>
<stop offset="1" stop-color="#41FF7A"/>
</linearGradient>
<linearGradient id="paint2_linear_11851_20498" x1="12.0117" y1="331.903" x2="513.519" y2="331.903" gradientUnits="userSpaceOnUse">
<stop stop-color="#00A8A1"/>
<stop offset="1" stop-color="#41FF7A"/>
</linearGradient>
<linearGradient id="paint3_linear_11851_20498" x1="97.6737" y1="68.4845" x2="113.855" y2="68.4845" gradientUnits="userSpaceOnUse">
<stop stop-color="#00A8A1"/>
<stop offset="1" stop-color="#41FF7A"/>
</linearGradient>
<linearGradient id="paint4_linear_11851_20498" x1="24.413" y1="211.973" x2="35.3393" y2="211.973" gradientUnits="userSpaceOnUse">
<stop stop-color="#00A8A1"/>
<stop offset="1" stop-color="#41FF7A"/>
</linearGradient>
<linearGradient id="paint5_linear_11851_20498" x1="439.873" y1="146.875" x2="450.799" y2="146.875" gradientUnits="userSpaceOnUse">
<stop stop-color="#00A8A1"/>
<stop offset="1" stop-color="#41FF7A"/>
</linearGradient>
<linearGradient id="paint6_linear_11851_20498" x1="500.687" y1="251.221" x2="511.613" y2="251.221" gradientUnits="userSpaceOnUse">
<stop stop-color="#00A8A1"/>
<stop offset="1" stop-color="#41FF7A"/>
</linearGradient>
<linearGradient id="paint7_linear_11851_20498" x1="150.828" y1="101.174" x2="297.701" y2="102.982" gradientUnits="userSpaceOnUse">
<stop offset="0.00121702" stop-color="#00FFED"/>
<stop offset="0.3575" stop-color="#00FFEB" stop-opacity="0.8571"/>
<stop offset="0.5109" stop-color="#00FEE4" stop-opacity="0.7956"/>
<stop offset="0.6253" stop-color="#00FCD7" stop-opacity="0.7497"/>
<stop offset="0.7205" stop-color="#00F9C5" stop-opacity="0.7116"/>
<stop offset="0.8036" stop-color="#00F6AE" stop-opacity="0.6783"/>
<stop offset="0.8783" stop-color="#00F292" stop-opacity="0.6483"/>
<stop offset="0.9452" stop-color="#00EE71" stop-opacity="0.6215"/>
<stop offset="0.9988" stop-color="#00E950" stop-opacity="0.6"/>
</linearGradient>
<linearGradient id="paint8_linear_11851_20498" x1="150.828" y1="101.174" x2="297.701" y2="102.982" gradientUnits="userSpaceOnUse">
<stop offset="0.00121702" stop-color="#00FFED"/>
<stop offset="0.3575" stop-color="#00FFEB" stop-opacity="0.8571"/>
<stop offset="0.5109" stop-color="#00FEE4" stop-opacity="0.7956"/>
<stop offset="0.6253" stop-color="#00FCD7" stop-opacity="0.7497"/>
<stop offset="0.7205" stop-color="#00F9C5" stop-opacity="0.7116"/>
<stop offset="0.8036" stop-color="#00F6AE" stop-opacity="0.6783"/>
<stop offset="0.8783" stop-color="#00F292" stop-opacity="0.6483"/>
<stop offset="0.9452" stop-color="#00EE71" stop-opacity="0.6215"/>
<stop offset="0.9988" stop-color="#00E950" stop-opacity="0.6"/>
</linearGradient>
<linearGradient id="paint9_linear_11851_20498" x1="266.248" y1="47.9035" x2="145.671" y2="165.025" gradientUnits="userSpaceOnUse">
<stop stop-color="#00A8A1"/>
<stop offset="1" stop-color="#41FF7A"/>
</linearGradient>
<linearGradient id="paint10_linear_11851_20498" x1="404.747" y1="373.814" x2="-155.119" y2="-155.541" gradientUnits="userSpaceOnUse">
<stop stop-color="#00A8A1"/>
<stop offset="1" stop-color="#41FF7A"/>
</linearGradient>
<linearGradient id="paint11_linear_11851_20498" x1="379.136" y1="263.559" x2="298.983" y2="170.821" gradientUnits="userSpaceOnUse">
<stop stop-color="#00A8A1"/>
<stop offset="1" stop-color="#41FF7A"/>
</linearGradient>
<linearGradient id="paint12_linear_11851_20498" x1="351.312" y1="233.969" x2="320.116" y2="198.909" gradientUnits="userSpaceOnUse">
<stop stop-color="#00A8A1"/>
<stop offset="1" stop-color="#41FF7A"/>
</linearGradient>
<linearGradient id="paint13_linear_11851_20498" x1="71.3085" y1="319.036" x2="175.543" y2="320.32" gradientUnits="userSpaceOnUse">
<stop offset="0.00121702" stop-color="#00FFED"/>
<stop offset="0.3575" stop-color="#00FFEB" stop-opacity="0.8571"/>
<stop offset="0.5109" stop-color="#00FEE4" stop-opacity="0.7956"/>
<stop offset="0.6253" stop-color="#00FCD7" stop-opacity="0.7497"/>
<stop offset="0.7205" stop-color="#00F9C5" stop-opacity="0.7116"/>
<stop offset="0.8036" stop-color="#00F6AE" stop-opacity="0.6783"/>
<stop offset="0.8783" stop-color="#00F292" stop-opacity="0.6483"/>
<stop offset="0.9452" stop-color="#00EE71" stop-opacity="0.6215"/>
<stop offset="0.9988" stop-color="#00E950" stop-opacity="0.6"/>
</linearGradient>
<linearGradient id="paint14_linear_11851_20498" x1="71.3085" y1="319.036" x2="175.543" y2="320.32" gradientUnits="userSpaceOnUse">
<stop offset="0.00121702" stop-color="#00FFED"/>
<stop offset="0.3575" stop-color="#00FFEB" stop-opacity="0.8571"/>
<stop offset="0.5109" stop-color="#00FEE4" stop-opacity="0.7956"/>
<stop offset="0.6253" stop-color="#00FCD7" stop-opacity="0.7497"/>
<stop offset="0.7205" stop-color="#00F9C5" stop-opacity="0.7116"/>
<stop offset="0.8036" stop-color="#00F6AE" stop-opacity="0.6783"/>
<stop offset="0.8783" stop-color="#00F292" stop-opacity="0.6483"/>
<stop offset="0.9452" stop-color="#00EE71" stop-opacity="0.6215"/>
<stop offset="0.9988" stop-color="#00E950" stop-opacity="0.6"/>
</linearGradient>
<linearGradient id="paint15_linear_11851_20498" x1="146.004" y1="295.02" x2="94.4067" y2="345.139" gradientUnits="userSpaceOnUse">
<stop stop-color="#00A8A1"/>
<stop offset="1" stop-color="#41FF7A"/>
</linearGradient>
<linearGradient id="paint16_linear_11851_20498" x1="71.3085" y1="296.438" x2="175.543" y2="297.721" gradientUnits="userSpaceOnUse">
<stop offset="0.00121702" stop-color="#00FFED"/>
<stop offset="0.3575" stop-color="#00FFEB" stop-opacity="0.8571"/>
<stop offset="0.5109" stop-color="#00FEE4" stop-opacity="0.7956"/>
<stop offset="0.6253" stop-color="#00FCD7" stop-opacity="0.7497"/>
<stop offset="0.7205" stop-color="#00F9C5" stop-opacity="0.7116"/>
<stop offset="0.8036" stop-color="#00F6AE" stop-opacity="0.6783"/>
<stop offset="0.8783" stop-color="#00F292" stop-opacity="0.6483"/>
<stop offset="0.9452" stop-color="#00EE71" stop-opacity="0.6215"/>
<stop offset="0.9988" stop-color="#00E950" stop-opacity="0.6"/>
</linearGradient>
<linearGradient id="paint17_linear_11851_20498" x1="71.3085" y1="296.438" x2="175.543" y2="297.721" gradientUnits="userSpaceOnUse">
<stop offset="0.00121702" stop-color="#00FFED"/>
<stop offset="0.3575" stop-color="#00FFEB" stop-opacity="0.8571"/>
<stop offset="0.5109" stop-color="#00FEE4" stop-opacity="0.7956"/>
<stop offset="0.6253" stop-color="#00FCD7" stop-opacity="0.7497"/>
<stop offset="0.7205" stop-color="#00F9C5" stop-opacity="0.7116"/>
<stop offset="0.8036" stop-color="#00F6AE" stop-opacity="0.6783"/>
<stop offset="0.8783" stop-color="#00F292" stop-opacity="0.6483"/>
<stop offset="0.9452" stop-color="#00EE71" stop-opacity="0.6215"/>
<stop offset="0.9988" stop-color="#00E950" stop-opacity="0.6"/>
</linearGradient>
<linearGradient id="paint18_linear_11851_20498" x1="146.004" y1="272.422" x2="94.4066" y2="322.541" gradientUnits="userSpaceOnUse">
<stop stop-color="#00A8A1"/>
<stop offset="1" stop-color="#41FF7A"/>
</linearGradient>
<linearGradient id="paint19_linear_11851_20498" x1="71.3085" y1="273.839" x2="175.543" y2="275.122" gradientUnits="userSpaceOnUse">
<stop offset="0.00121702" stop-color="#00FFED"/>
<stop offset="0.3575" stop-color="#00FFEB" stop-opacity="0.8571"/>
<stop offset="0.5109" stop-color="#00FEE4" stop-opacity="0.7956"/>
<stop offset="0.6253" stop-color="#00FCD7" stop-opacity="0.7497"/>
<stop offset="0.7205" stop-color="#00F9C5" stop-opacity="0.7116"/>
<stop offset="0.8036" stop-color="#00F6AE" stop-opacity="0.6783"/>
<stop offset="0.8783" stop-color="#00F292" stop-opacity="0.6483"/>
<stop offset="0.9452" stop-color="#00EE71" stop-opacity="0.6215"/>
<stop offset="0.9988" stop-color="#00E950" stop-opacity="0.6"/>
</linearGradient>
<linearGradient id="paint20_linear_11851_20498" x1="71.3085" y1="273.839" x2="175.543" y2="275.122" gradientUnits="userSpaceOnUse">
<stop offset="0.00121702" stop-color="#00FFED"/>
<stop offset="0.3575" stop-color="#00FFEB" stop-opacity="0.8571"/>
<stop offset="0.5109" stop-color="#00FEE4" stop-opacity="0.7956"/>
<stop offset="0.6253" stop-color="#00FCD7" stop-opacity="0.7497"/>
<stop offset="0.7205" stop-color="#00F9C5" stop-opacity="0.7116"/>
<stop offset="0.8036" stop-color="#00F6AE" stop-opacity="0.6783"/>
<stop offset="0.8783" stop-color="#00F292" stop-opacity="0.6483"/>
<stop offset="0.9452" stop-color="#00EE71" stop-opacity="0.6215"/>
<stop offset="0.9988" stop-color="#00E950" stop-opacity="0.6"/>
</linearGradient>
<linearGradient id="paint21_linear_11851_20498" x1="146.004" y1="249.823" x2="94.4066" y2="299.942" gradientUnits="userSpaceOnUse">
<stop stop-color="#00A8A1"/>
<stop offset="1" stop-color="#41FF7A"/>
</linearGradient>
<linearGradient id="paint22_linear_11851_20498" x1="71.3085" y1="251.24" x2="175.543" y2="252.523" gradientUnits="userSpaceOnUse">
<stop offset="0.00121702" stop-color="#00FFED"/>
<stop offset="0.3575" stop-color="#00FFEB" stop-opacity="0.8571"/>
<stop offset="0.5109" stop-color="#00FEE4" stop-opacity="0.7956"/>
<stop offset="0.6253" stop-color="#00FCD7" stop-opacity="0.7497"/>
<stop offset="0.7205" stop-color="#00F9C5" stop-opacity="0.7116"/>
<stop offset="0.8036" stop-color="#00F6AE" stop-opacity="0.6783"/>
<stop offset="0.8783" stop-color="#00F292" stop-opacity="0.6483"/>
<stop offset="0.9452" stop-color="#00EE71" stop-opacity="0.6215"/>
<stop offset="0.9988" stop-color="#00E950" stop-opacity="0.6"/>
</linearGradient>
<linearGradient id="paint23_linear_11851_20498" x1="71.3085" y1="251.24" x2="175.543" y2="252.523" gradientUnits="userSpaceOnUse">
<stop offset="0.00121702" stop-color="#00FFED"/>
<stop offset="0.3575" stop-color="#00FFEB" stop-opacity="0.8571"/>
<stop offset="0.5109" stop-color="#00FEE4" stop-opacity="0.7956"/>
<stop offset="0.6253" stop-color="#00FCD7" stop-opacity="0.7497"/>
<stop offset="0.7205" stop-color="#00F9C5" stop-opacity="0.7116"/>
<stop offset="0.8036" stop-color="#00F6AE" stop-opacity="0.6783"/>
<stop offset="0.8783" stop-color="#00F292" stop-opacity="0.6483"/>
<stop offset="0.9452" stop-color="#00EE71" stop-opacity="0.6215"/>
<stop offset="0.9988" stop-color="#00E950" stop-opacity="0.6"/>
</linearGradient>
<linearGradient id="paint24_linear_11851_20498" x1="146.004" y1="227.224" x2="94.4066" y2="277.343" gradientUnits="userSpaceOnUse">
<stop stop-color="#00A8A1"/>
<stop offset="1" stop-color="#41FF7A"/>
</linearGradient>
<linearGradient id="paint25_linear_11851_20498" x1="326.539" y1="324.04" x2="430.774" y2="325.323" gradientUnits="userSpaceOnUse">
<stop offset="0.00121702" stop-color="#00FFED"/>
<stop offset="0.3575" stop-color="#00FFEB" stop-opacity="0.8571"/>
<stop offset="0.5109" stop-color="#00FEE4" stop-opacity="0.7956"/>
<stop offset="0.6253" stop-color="#00FCD7" stop-opacity="0.7497"/>
<stop offset="0.7205" stop-color="#00F9C5" stop-opacity="0.7116"/>
<stop offset="0.8036" stop-color="#00F6AE" stop-opacity="0.6783"/>
<stop offset="0.8783" stop-color="#00F292" stop-opacity="0.6483"/>
<stop offset="0.9452" stop-color="#00EE71" stop-opacity="0.6215"/>
<stop offset="0.9988" stop-color="#00E950" stop-opacity="0.6"/>
</linearGradient>
<linearGradient id="paint26_linear_11851_20498" x1="326.539" y1="324.04" x2="430.774" y2="325.323" gradientUnits="userSpaceOnUse">
<stop offset="0.00121702" stop-color="#00FFED"/>
<stop offset="0.3575" stop-color="#00FFEB" stop-opacity="0.8571"/>
<stop offset="0.5109" stop-color="#00FEE4" stop-opacity="0.7956"/>
<stop offset="0.6253" stop-color="#00FCD7" stop-opacity="0.7497"/>
<stop offset="0.7205" stop-color="#00F9C5" stop-opacity="0.7116"/>
<stop offset="0.8036" stop-color="#00F6AE" stop-opacity="0.6783"/>
<stop offset="0.8783" stop-color="#00F292" stop-opacity="0.6483"/>
<stop offset="0.9452" stop-color="#00EE71" stop-opacity="0.6215"/>
<stop offset="0.9988" stop-color="#00E950" stop-opacity="0.6"/>
</linearGradient>
<linearGradient id="paint27_linear_11851_20498" x1="401.235" y1="300.024" x2="349.638" y2="350.143" gradientUnits="userSpaceOnUse">
<stop stop-color="#00A8A1"/>
<stop offset="1" stop-color="#41FF7A"/>
</linearGradient>
<linearGradient id="paint28_linear_11851_20498" x1="326.539" y1="301.443" x2="430.774" y2="302.727" gradientUnits="userSpaceOnUse">
<stop offset="0.00121702" stop-color="#00FFED"/>
<stop offset="0.3575" stop-color="#00FFEB" stop-opacity="0.8571"/>
<stop offset="0.5109" stop-color="#00FEE4" stop-opacity="0.7956"/>
<stop offset="0.6253" stop-color="#00FCD7" stop-opacity="0.7497"/>
<stop offset="0.7205" stop-color="#00F9C5" stop-opacity="0.7116"/>
<stop offset="0.8036" stop-color="#00F6AE" stop-opacity="0.6783"/>
<stop offset="0.8783" stop-color="#00F292" stop-opacity="0.6483"/>
<stop offset="0.9452" stop-color="#00EE71" stop-opacity="0.6215"/>
<stop offset="0.9988" stop-color="#00E950" stop-opacity="0.6"/>
</linearGradient>
<linearGradient id="paint29_linear_11851_20498" x1="326.539" y1="301.443" x2="430.774" y2="302.727" gradientUnits="userSpaceOnUse">
<stop offset="0.00121702" stop-color="#00FFED"/>
<stop offset="0.3575" stop-color="#00FFEB" stop-opacity="0.8571"/>
<stop offset="0.5109" stop-color="#00FEE4" stop-opacity="0.7956"/>
<stop offset="0.6253" stop-color="#00FCD7" stop-opacity="0.7497"/>
<stop offset="0.7205" stop-color="#00F9C5" stop-opacity="0.7116"/>
<stop offset="0.8036" stop-color="#00F6AE" stop-opacity="0.6783"/>
<stop offset="0.8783" stop-color="#00F292" stop-opacity="0.6483"/>
<stop offset="0.9452" stop-color="#00EE71" stop-opacity="0.6215"/>
<stop offset="0.9988" stop-color="#00E950" stop-opacity="0.6"/>
</linearGradient>
<linearGradient id="paint30_linear_11851_20498" x1="401.235" y1="277.427" x2="349.638" y2="327.546" gradientUnits="userSpaceOnUse">
<stop stop-color="#00A8A1"/>
<stop offset="1" stop-color="#41FF7A"/>
</linearGradient>
</defs>
</svg>
