<svg width="494" height="368" viewBox="0 0 494 368" fill="none" xmlns="http://www.w3.org/2000/svg">
<g clip-path="url(#clip0_11008_9347)">
<path d="M276.528 186.06C282.908 202.577 279.295 219.376 268.342 223.604C257.446 227.832 243.388 217.854 237.008 201.337C230.629 184.82 234.242 168.021 245.195 163.793C256.091 159.565 270.149 169.543 276.528 186.06Z" fill="url(#paint0_linear_11008_9347)"/>
<path d="M263.148 224.845C253.211 224.845 242.258 215.487 236.782 201.45C233.677 193.389 232.83 185.046 234.354 177.943C235.935 170.783 239.718 165.653 245.081 163.624C256.09 159.34 270.318 169.43 276.754 186.06C283.19 202.69 279.464 219.658 268.455 223.943C266.761 224.506 264.954 224.845 263.148 224.845ZM250.445 163.117C248.695 163.117 246.944 163.399 245.307 164.075C240.113 166.104 236.443 171.065 234.919 178.055C233.395 185.102 234.242 193.332 237.29 201.281C243.613 217.629 257.502 227.55 268.285 223.379C279.012 219.207 282.625 202.521 276.302 186.173C270.939 172.305 260.155 163.117 250.445 163.117Z" fill="url(#paint1_linear_11008_9347)"/>
<path d="M365.447 49.4688L246.492 169.824C246.492 169.824 239.379 179.295 246.831 198.631C254.283 217.91 267.156 216.895 267.156 216.895L437.656 237.471L405.532 115.65L365.447 49.4688Z" fill="#323A51"/>
<path d="M482.935 111.873C503.768 165.596 491.855 220.334 456.344 234.033C420.832 247.731 375.215 215.317 354.382 161.537C333.549 107.814 345.462 53.0767 380.973 39.3781C416.485 25.6796 462.159 58.1502 482.935 111.873Z" fill="url(#paint2_linear_11008_9347)"/>
<path d="M439.294 237.979C435.68 237.979 432.011 237.584 428.228 236.851C418.574 234.878 408.863 230.481 399.435 223.773C380.07 210.018 363.811 188.033 353.648 161.876C343.542 135.719 340.72 108.547 345.801 85.3217C348.285 73.9908 352.463 64.2384 358.278 56.2898C364.319 48.0031 371.884 42.1403 380.691 38.7016C389.498 35.3192 399.096 34.5864 409.146 36.6722C418.8 38.6452 428.51 43.0423 437.939 49.7506C457.304 63.5055 473.563 85.4908 483.725 111.648C493.831 137.805 496.654 164.976 491.573 188.202C489.089 199.532 484.911 209.285 479.096 217.233C473.055 225.52 465.49 231.383 456.682 234.822C451.15 236.908 445.335 237.979 439.294 237.979ZM398.024 37.0668C392.265 37.0668 386.619 38.0815 381.256 40.1673C346.196 53.6967 334.509 108.04 355.116 161.312C375.723 214.584 421.058 246.885 456.061 233.356C491.121 219.827 502.808 165.483 482.201 112.211C464.756 67.1134 429.64 37.0668 398.024 37.0668Z" fill="url(#paint3_linear_11008_9347)"/>
<path d="M480.692 114.512C498.985 161.752 488.54 209.781 457.319 221.845C426.155 233.909 386.014 205.384 367.722 158.144C349.43 110.904 359.874 62.8743 391.095 50.8106C422.316 38.7469 462.4 67.2714 480.692 114.512Z" fill="url(#paint4_linear_11008_9347)"/>
<path d="M225.66 262.275C220.691 275.128 223.514 288.263 232.039 291.532C240.564 294.802 251.46 287.023 256.429 274.17C261.397 261.317 258.574 248.182 250.049 244.912C241.524 241.643 230.628 249.422 225.66 262.275Z" fill="url(#paint5_linear_11008_9347)"/>
<path d="M236.047 292.547C234.636 292.547 233.224 292.322 231.869 291.758C227.692 290.123 224.699 286.177 223.457 280.54C222.272 274.959 222.893 268.42 225.32 262.163C227.748 255.905 231.644 250.606 236.33 247.28C241.016 243.954 245.927 242.996 250.105 244.631C254.283 246.266 257.275 250.212 258.517 255.849C259.703 261.43 259.082 267.969 256.654 274.226C252.42 285.219 243.838 292.547 236.047 292.547ZM225.659 262.275L225.885 262.388C223.514 268.589 222.836 274.959 224.022 280.427C225.207 285.839 228.087 289.729 232.095 291.251C233.394 291.758 234.749 291.984 236.104 291.984C243.613 291.984 252.025 284.824 256.202 274.057C258.574 267.856 259.251 261.486 258.066 256.018C256.88 250.606 254.001 246.717 249.992 245.194C245.984 243.616 241.241 244.574 236.725 247.788C232.152 251.057 228.313 256.244 225.941 262.388L225.659 262.275Z" fill="url(#paint6_linear_11008_9347)"/>
<path d="M166.04 171.516L249.032 249.648C249.032 249.648 254.565 257.033 248.75 272.084C242.935 287.136 232.886 286.346 232.886 286.346L102.3 301.398L125.053 207.425L166.04 171.516Z" fill="#323A51"/>
<path d="M64.8136 204.494C48.6104 246.378 57.8694 288.996 85.5334 299.651C113.197 310.305 148.765 285.05 164.969 243.165C181.172 201.28 171.913 158.663 144.249 148.008C116.585 137.298 81.0168 162.609 64.8136 204.494Z" fill="url(#paint7_linear_11008_9347)"/>
<path d="M98.8572 302.921C94.1148 302.921 89.5418 302.075 85.1946 300.384C71.5884 295.141 61.8778 282.176 57.9258 263.911C53.9738 245.759 56.1756 224.563 64.0796 204.156C71.9836 183.749 84.6865 166.612 99.817 155.845C115.06 145.021 130.925 141.977 144.588 147.22C158.194 152.462 167.904 165.428 171.856 183.693C175.808 201.845 173.606 223.041 165.702 243.448C157.798 263.855 145.096 280.992 129.965 291.759C119.633 299.144 108.963 302.921 98.8572 302.921ZM64.8136 204.494L65.5475 204.776C49.5137 246.21 58.6033 288.433 85.8156 298.918C89.9935 300.553 94.3971 301.286 98.8572 301.286C123.416 301.286 150.685 277.891 164.291 242.884C180.325 201.45 171.235 159.227 144.023 148.742C130.925 143.668 115.512 146.656 100.777 157.198C85.8721 167.796 73.395 184.707 65.604 204.776L64.8136 204.494Z" fill="url(#paint8_linear_11008_9347)"/>
<path d="M70.8539 206.861C56.5703 243.673 64.7566 281.104 89.0331 290.462C113.31 299.82 144.587 277.609 158.871 240.854C173.154 204.099 164.968 166.611 140.691 157.253C116.415 147.839 85.1376 170.05 70.8539 206.861Z" fill="url(#paint9_linear_11008_9347)"/>
<path d="M382.102 279.356L300.691 259.908C292.222 257.878 283.585 263.177 281.552 271.633L270.486 317.746C270.43 317.915 270.43 318.028 270.374 318.197L263.542 346.665C261.792 353.937 269.922 359.518 276.132 355.347L297.755 340.577L363.641 356.305C372.109 358.334 380.747 353.035 382.78 344.579L393.845 298.467C395.934 290.011 390.627 281.386 382.102 279.356Z" fill="#323A51"/>
<path opacity="0.8" d="M377.699 265.433L296.288 245.984C287.819 243.955 279.181 249.254 277.149 257.71L266.083 303.822C266.027 303.991 266.027 304.104 265.97 304.273L259.139 332.741C257.389 340.013 265.519 345.594 271.729 341.423L293.352 326.653L359.237 342.381C367.706 344.411 376.344 339.112 378.376 330.656L389.442 284.543C391.531 276.087 386.224 267.462 377.699 265.433Z" fill="url(#paint10_linear_11008_9347)"/>
<path d="M267.1 343.677C265.349 343.677 263.599 343.113 262.018 342.042C258.913 339.9 257.502 336.235 258.405 332.571L265.236 304.047C265.236 303.934 265.293 303.765 265.349 303.596L276.415 257.483C278.56 248.576 287.594 243.052 296.514 245.194L377.925 264.642C382.216 265.657 385.885 268.363 388.257 272.14C390.628 275.917 391.305 280.427 390.289 284.711L379.223 330.824C378.207 335.108 375.497 338.772 371.715 341.14C367.932 343.451 363.415 344.184 359.125 343.169L293.522 327.498L272.181 342.098C270.6 343.113 268.85 343.677 267.1 343.677ZM292.562 246.321C285.73 246.321 279.52 251 277.883 257.878L266.817 303.99C266.761 304.159 266.761 304.272 266.704 304.441L259.873 332.966C259.026 336.574 260.833 339.392 262.865 340.745C264.898 342.155 268.172 342.887 271.221 340.745L293.126 325.75L359.463 341.591C363.359 342.549 367.424 341.873 370.868 339.787C374.312 337.701 376.739 334.375 377.643 330.485L388.708 284.373C389.668 280.483 388.991 276.424 386.902 272.985C384.813 269.547 381.482 267.123 377.586 266.221L296.175 246.772C294.933 246.434 293.747 246.321 292.562 246.321Z" fill="url(#paint11_linear_11008_9347)"/>
<path d="M192.293 149.982C189.583 149.982 186.93 148.967 184.841 146.938L162.032 125.291L77.911 131.661C72.4911 132.055 67.1841 130.308 63.0063 126.756C58.8284 123.205 56.3443 118.244 55.8927 112.776L51.4326 54.0356C51.0374 48.6238 52.7875 43.3248 56.3443 39.1533C59.9011 34.9817 64.8694 32.5013 70.3457 32.0503L174.057 24.2145C185.349 23.3689 195.229 31.8248 196.076 43.0993L199.407 87.1263C199.463 87.4082 199.463 87.69 199.52 87.9155L203.302 138.087C203.641 142.71 201.27 146.825 197.092 148.798C195.511 149.643 193.874 149.982 192.293 149.982ZM162.597 123.656L185.913 145.754C188.793 148.46 192.801 149.136 196.415 147.445C199.971 145.754 202.06 142.259 201.721 138.256L197.939 88.0846C197.939 87.8591 197.882 87.6337 197.826 87.3518V87.2954L194.495 43.2121C193.705 32.8395 184.615 25.0037 174.17 25.793L70.4586 33.6851C65.4339 34.0797 60.8609 36.391 57.5299 40.2243C54.199 44.0577 52.6182 48.9621 53.0134 53.9792L57.4735 112.719C57.8687 117.737 60.1834 122.303 64.0225 125.629C67.8616 128.955 72.7734 130.533 77.798 130.139L162.597 123.656Z" fill="url(#paint12_linear_11008_9347)"/>
<path opacity="0.7" d="M185.406 74.104L182.075 30.0207C181.228 19.1972 171.743 11.0231 160.903 11.8687L57.1913 19.6481C46.3516 20.4374 38.1653 29.9643 39.0121 40.7878L43.4722 99.528C44.2626 110.352 53.8039 118.526 64.6437 117.68L149.047 111.31L172.138 133.182C178.913 139.553 189.979 134.31 189.301 125.065L185.518 74.8932C185.462 74.6114 185.462 74.3295 185.406 74.104Z" fill="url(#paint13_linear_11008_9347)"/>
<path d="M303.175 68.242C299.336 55.6709 278.898 50.7665 257.501 57.3057C236.16 63.8449 221.933 79.3474 225.828 91.9184C229.668 104.49 250.105 109.394 271.502 102.855C292.843 96.3155 307.07 80.8131 303.175 68.242Z" fill="#0F5454"/>
<path d="M300.352 59.9549C296.513 47.3838 276.075 42.4794 254.678 49.0186C233.337 55.5578 219.11 71.0603 223.006 83.6313C226.845 96.2024 247.282 101.107 268.679 94.5676C290.02 88.0284 304.247 72.526 300.352 59.9549Z" fill="#00757A"/>
<path d="M250.162 97.7247C236.443 97.7247 225.49 92.5948 222.78 83.6879C220.861 77.487 223.175 70.4968 229.216 63.8448C235.257 57.2492 244.234 51.8938 254.622 48.737C265.01 45.5801 275.511 44.96 284.149 47.0458C292.844 49.1316 298.715 53.6977 300.578 59.8424C304.474 72.5262 290.19 88.1977 268.736 94.7933C262.357 96.7664 255.977 97.7247 250.162 97.7247ZM273.309 46.3693C267.381 46.3693 261.058 47.3276 254.791 49.2443C244.516 52.4012 235.54 57.7002 229.612 64.183C223.684 70.6659 221.425 77.487 223.288 83.5188C225.942 92.2002 236.669 97.161 250.106 97.161C255.921 97.161 262.187 96.259 268.623 94.286C289.795 87.8031 303.966 72.4134 300.127 60.0115C298.263 54.036 292.561 49.5825 284.036 47.5531C280.705 46.7639 277.092 46.3693 273.309 46.3693Z" fill="url(#paint14_linear_11008_9347)"/>
<path d="M294.368 61.8154C291.094 51.2174 273.818 47.0458 255.808 52.5703C237.742 58.0948 225.773 71.1733 229.047 81.8277C232.322 92.4257 249.598 96.5973 267.607 91.0728C285.674 85.4919 297.643 72.4135 294.368 61.8154Z" fill="#073837"/>
<path d="M292.843 63.3379C289.738 53.2472 273.422 49.3575 256.372 54.5438C239.322 59.7864 227.974 72.132 231.079 82.2227C234.184 92.3134 250.5 96.2031 267.55 91.0168C284.657 85.8305 295.948 73.4286 292.843 63.3379Z" fill="#0A5959"/>
<path d="M275.399 61.4207C275.286 61.3643 275.286 61.3643 275.229 61.4207C275.229 61.4207 275.229 61.4207 275.173 61.4207C275.173 61.4207 275.173 61.4207 275.116 61.4207H275.06C274.947 61.3643 274.891 61.4207 274.891 61.4207L260.212 58.8839C258.857 58.602 256.768 59.504 255.582 60.7442C254.397 61.9844 254.622 63.2809 256.034 63.5064L270.713 66.0432C270.769 66.0432 270.882 66.0432 270.939 66.0432C271.051 66.0996 271.108 66.0432 271.108 66.0432C273.874 66.5506 274.27 69.0309 271.955 71.5677C269.64 74.1608 265.519 75.7957 262.752 75.3447L257.671 74.4991L259.76 72.1878L264.728 73.0898C266.083 73.3716 268.172 72.4697 269.358 71.2295C270.543 69.9893 270.318 68.6927 268.906 68.4672L261.397 67.1707L257.163 66.4378C255.808 66.1559 253.719 67.0579 252.534 68.2981C251.348 69.5383 251.574 70.8349 252.985 71.0604L254.679 71.3422L252.59 73.6535L248.412 78.3324L243.5 83.8006C242.315 85.0407 242.541 86.3373 243.952 86.5628C245.307 86.8447 247.396 85.9427 248.582 84.7025L253.493 79.2344L258.574 80.08C264.164 81.0947 272.406 77.6559 277.036 72.526C281.609 67.3961 280.931 62.4354 275.399 61.4207Z" fill="#073837"/>
<path d="M274.721 60.2937C274.664 60.2373 274.664 60.2373 274.721 60.2937C274.608 60.2373 274.608 60.2373 274.551 60.2937C274.551 60.2937 274.551 60.2937 274.495 60.2937C274.495 60.2937 274.495 60.2937 274.438 60.2937H274.382C274.269 60.2373 274.213 60.2937 274.213 60.2937L259.534 57.7569C258.179 57.4751 256.09 58.377 254.904 59.6172C253.719 60.8574 253.944 62.154 255.356 62.3795L270.035 64.9162C270.091 64.9162 270.204 64.9162 270.261 64.9162C270.374 64.9726 270.43 64.9162 270.43 64.9162C273.196 65.4236 273.592 67.904 271.277 70.4408C268.962 73.0339 264.841 74.6687 262.074 74.2177L256.993 73.3721L259.082 71.0609L264.05 71.9628C265.405 72.2447 267.494 71.3427 268.68 70.1025C269.865 68.8623 269.64 67.5658 268.228 67.3403L260.719 66.0437L256.485 65.3109C255.13 65.029 253.041 65.931 251.856 67.1712C250.67 68.4113 250.896 69.7079 252.307 69.9334L254.001 70.2153L251.912 72.5265L247.734 77.2055L242.822 82.6736C241.637 83.9138 241.863 85.2104 243.274 85.4359C244.629 85.7177 246.718 84.8158 247.904 83.5756L252.815 78.1074L257.896 78.953C263.486 79.9677 271.728 76.529 276.358 71.3991C280.987 66.2128 280.197 61.252 274.721 60.2937Z" fill="url(#paint15_linear_11008_9347)"/>
<path d="M37.9394 163.173C29.4708 159.171 17.1067 167.514 10.3319 181.832C3.50054 196.151 4.85551 210.977 13.3241 214.979C21.7927 218.982 34.1568 210.639 40.9316 196.32C47.7065 182.058 46.408 167.176 37.9394 163.173Z" fill="#0F5454"/>
<path d="M32.238 160.692C23.7694 156.689 11.4053 165.032 4.63044 179.351C-2.20087 193.67 -0.845901 208.496 7.62267 212.498C16.0912 216.5 28.4554 208.157 35.2302 193.839C42.0051 179.52 40.7066 164.694 32.238 160.692Z" fill="#00757A"/>
<path d="M12.1387 213.739C10.5014 213.739 8.92065 213.401 7.45276 212.724C3.27494 210.751 0.677908 206.129 0.113337 199.815C-0.451234 193.501 1.07311 186.173 4.34762 179.239C11.1789 164.807 23.7689 156.408 32.3504 160.467C40.9318 164.526 42.2868 179.577 35.4555 194.008C29.7533 205.903 20.1556 213.739 12.1387 213.739ZM27.6644 159.959C19.8733 159.959 10.445 167.682 4.85574 179.464C1.58122 186.342 0.113337 193.557 0.621451 199.758C1.18602 205.903 3.67014 210.356 7.67859 212.273C9.09002 212.95 10.5579 213.231 12.1387 213.231C19.9298 213.231 29.3581 205.508 34.9474 193.727C41.6658 179.577 40.4237 164.864 32.0681 160.918C30.7131 160.241 29.2452 159.959 27.6644 159.959Z" fill="url(#paint16_linear_11008_9347)"/>
<path d="M30.3178 164.695C23.2042 161.312 12.7032 168.359 7.00101 180.479C1.24238 192.599 2.37152 205.114 9.54158 208.496C16.6552 211.879 27.1562 204.832 32.8584 192.712C38.617 180.648 37.4879 168.077 30.3178 164.695Z" fill="#073837"/>
<path d="M30.4309 166.217C23.6561 163.003 13.7761 169.655 8.35618 181.099C2.93629 192.543 4.00898 204.381 10.7838 207.594C17.5587 210.807 27.4387 204.155 32.8586 192.712C38.2785 181.324 37.2058 169.43 30.4309 166.217Z" fill="#0A5959"/>
<path d="M21.0587 174.447C21.0022 174.447 21.0022 174.447 20.9458 174.504C20.9458 174.504 20.9458 174.504 20.9458 174.56C20.9458 174.56 20.9458 174.56 20.9458 174.616V174.673C20.8893 174.673 20.8329 174.729 20.8329 174.729L12.4208 181.212C11.6304 181.776 11.0658 183.298 11.1787 184.538C11.2916 185.778 12.0256 186.285 12.8724 185.609L21.2845 179.126C21.2845 179.07 21.3974 179.07 21.3974 179.013C21.4539 179.013 21.5104 178.957 21.5104 178.957C23.0912 177.717 24.6155 178.731 24.7849 181.155C25.0672 183.636 23.938 186.567 22.3572 187.807L19.4779 190.062L19.3085 187.864L22.1314 185.665C22.9218 185.102 23.4864 183.579 23.3734 182.339C23.2605 181.099 22.5266 180.592 21.6797 181.268L17.389 184.594L14.9613 186.454C14.1709 187.018 13.6064 188.54 13.7193 189.78C13.8322 191.021 14.5661 191.528 15.413 190.852L16.3728 190.119L16.5986 192.317L17.0502 196.714L17.5584 201.901C17.6713 203.141 18.4052 203.648 19.2521 202.972C20.0425 202.408 20.607 200.886 20.4941 199.646L19.986 194.459L22.8653 192.204C26.0834 189.78 28.2288 183.805 27.7771 178.901C27.1561 174.053 24.2203 172.023 21.0587 174.447Z" fill="#073837"/>
<path d="M20.0995 174.278C20.043 174.278 20.043 174.278 20.0995 174.278C20.043 174.278 20.043 174.278 19.9866 174.334C19.9866 174.334 19.9866 174.334 19.9866 174.391C19.9866 174.391 19.9866 174.391 19.9866 174.447V174.504C19.9301 174.504 19.8736 174.56 19.8736 174.56L11.4615 181.043C10.6711 181.606 10.1066 183.129 10.2195 184.369C10.3324 185.609 11.0663 186.116 11.9132 185.44L20.3253 179.013C20.3253 178.957 20.4382 178.957 20.4382 178.901C20.4947 178.901 20.5511 178.844 20.5511 178.844C22.1319 177.604 23.6563 178.619 23.8256 181.043C24.1079 183.523 22.9788 186.455 21.398 187.695L18.5187 189.95L18.2928 187.751L21.1157 185.553C21.9061 184.989 22.4707 183.467 22.3578 182.227C22.2448 180.986 21.5109 180.479 20.664 181.155L16.3733 184.481L13.9456 186.342C13.1552 186.905 12.5907 188.428 12.7036 189.668C12.8165 190.908 13.5504 191.415 14.3973 190.739L15.3571 190.006L15.5829 192.205L16.0346 196.602L16.5427 201.788C16.6556 203.028 17.3895 203.535 18.2364 202.859C19.0268 202.295 19.5914 200.773 19.4784 199.533L18.9703 194.347L21.8496 192.092C25.0677 189.668 27.2131 183.692 26.7614 178.788C26.2533 173.827 23.2611 171.854 20.0995 174.278Z" fill="url(#paint17_linear_11008_9347)"/>
<path d="M345.868 29.643C349.609 24.692 345.868 15.5283 337.474 9.18752C329.079 2.84676 319.249 1.67415 315.465 6.62516C311.725 11.5762 315.465 20.7399 323.86 27.0806C332.254 33.4214 342.084 34.594 345.868 29.643Z" fill="#0F5454"/>
<path d="M348.26 26.2543C352.001 21.3033 348.26 12.1396 339.866 5.79885C331.471 -0.541914 321.641 -1.71452 317.857 3.23649C314.117 8.1875 317.857 17.3512 326.252 23.692C334.646 30.0762 344.52 31.2053 348.26 26.2543Z" fill="#00757A"/>
<path d="M340.909 29.5123C336.473 29.5123 331.079 27.558 326.165 23.8664C317.683 17.4388 313.899 8.1448 317.683 3.15036C319.553 0.718285 322.902 -0.367462 327.121 0.110266C331.297 0.587996 335.864 2.58577 339.952 5.66929C348.434 12.0969 352.218 21.3909 348.391 26.4288C346.825 28.5134 344.128 29.5123 340.909 29.5123ZM325.208 0.370846C322.032 0.370846 319.51 1.41316 318.031 3.36751C314.334 8.23166 318.118 17.2651 326.382 23.519C334.69 29.8163 344.389 30.9455 348.086 26.1248C351.783 21.2606 347.999 12.2272 339.735 5.9733C335.69 2.93321 331.21 0.978865 327.121 0.501136C326.426 0.414276 325.817 0.370846 325.208 0.370846Z" fill="url(#paint18_linear_11008_9347)"/>
<path d="M345.911 24.4742C349.087 20.3049 345.911 12.5744 338.822 7.18908C331.732 1.80377 323.424 0.848316 320.249 5.01759C317.074 9.18686 320.249 16.9174 327.339 22.3027C334.429 27.688 342.736 28.6435 345.911 24.4742Z" fill="#073837"/>
<path d="M344.869 24.344C347.87 20.3919 344.869 13.0522 338.17 7.97093C331.472 2.88963 323.6 1.9776 320.598 5.92972C317.597 9.88184 320.598 17.2215 327.297 22.3028C333.995 27.3841 341.868 28.2961 344.869 24.344Z" fill="#0A5959"/>
<path d="M340.823 17.1351C340.823 17.0917 340.823 17.0917 340.779 17.0483C340.779 17.0483 340.779 17.0483 340.736 17.0483C340.736 17.0483 340.736 17.0483 340.692 17.0483H340.649C340.649 17.0049 340.605 16.9614 340.605 16.9614L337.517 10.6641C337.256 10.0561 336.343 9.49148 335.516 9.40462C334.69 9.31776 334.255 9.75206 334.559 10.3601L337.647 16.6574C337.691 16.6574 337.691 16.7443 337.734 16.7443C337.734 16.7877 337.778 16.8311 337.778 16.8311C338.343 18.0472 337.517 18.8723 335.908 18.6552C334.255 18.4815 332.515 17.3523 331.906 16.1797L330.819 14.0082L332.254 14.1819L333.298 16.31C333.559 16.918 334.472 17.4826 335.299 17.5694C336.125 17.6563 336.56 17.222 336.256 16.614L334.69 13.4002L333.82 11.5761C333.559 10.9681 332.646 10.4035 331.819 10.3166C330.993 10.2298 330.558 10.6641 330.862 11.2721L331.21 12.0104L329.775 11.8367L326.861 11.5327L323.425 11.1418C322.598 11.055 322.163 11.4893 322.468 12.0973C322.729 12.7053 323.642 13.2699 324.468 13.3567L327.905 13.7476L328.992 15.9191C330.166 18.3078 333.733 20.5227 336.995 20.9135C340.257 21.1741 341.953 19.5238 340.823 17.1351Z" fill="#073837"/>
<path d="M341.041 16.5702C341.084 16.5267 341.084 16.5267 341.041 16.5702C341.041 16.5267 341.041 16.5267 340.997 16.4833C340.997 16.4833 340.997 16.4833 340.954 16.4833C340.954 16.4833 340.954 16.4833 340.91 16.4833H340.867C340.867 16.4399 340.824 16.3965 340.824 16.3965L337.822 10.0557C337.561 9.44767 336.648 8.88308 335.822 8.79622C334.995 8.70936 334.56 9.14366 334.865 9.75168L337.953 16.0924C337.996 16.0924 337.996 16.1793 338.04 16.1793C338.04 16.2227 338.083 16.2662 338.083 16.2662C338.649 17.4822 337.822 18.3074 336.213 18.0902C334.56 17.9165 332.82 16.7873 332.211 15.6147L331.124 13.4432L332.559 13.6169L333.603 15.745C333.864 16.353 334.778 16.9176 335.604 17.0045C336.431 17.0913 336.865 16.657 336.561 16.049L334.995 12.8352L334.125 11.0111C333.864 10.4031 332.951 9.83854 332.125 9.75168C331.298 9.66482 330.863 10.0991 331.168 10.7071L331.516 11.4454L330.08 11.2717L327.166 10.9677L323.73 10.5769C322.904 10.49 322.469 10.9243 322.773 11.5323C323.034 12.1403 323.947 12.7049 324.774 12.7918L328.21 13.1826L329.297 15.3541C330.472 17.7428 334.038 19.9577 337.3 20.3486C340.519 20.6092 342.215 18.9154 341.041 16.5702Z" fill="url(#paint19_linear_11008_9347)"/>
<path d="M150.798 47.158L76.387 52.2315C73.8464 52.4007 71.5882 50.484 71.4188 47.8909L71.2494 45.5232C71.08 42.9864 72.9996 40.7315 75.5966 40.5624L150.007 35.4889C152.548 35.3198 154.806 37.2364 154.975 39.8296L155.145 42.1972C155.314 44.734 153.338 46.9889 150.798 47.158Z" fill="url(#paint20_linear_11008_9347)"/>
<path d="M152.491 69.3123L78.0806 74.3858C75.54 74.555 73.2818 72.6383 73.1124 70.0452L72.943 67.6775C72.7736 65.1407 74.6932 62.8858 77.2902 62.7167L151.701 57.6432C154.241 57.4741 156.5 59.3907 156.669 61.9839L156.838 64.3515C157.008 66.8883 155.032 69.1432 152.491 69.3123Z" fill="url(#paint21_linear_11008_9347)"/>
<path d="M152.491 91.4666L78.0806 96.5401C75.54 96.7093 73.2818 94.7926 73.1124 92.1995L72.943 89.8318C72.7736 87.295 74.6932 85.0401 77.2902 84.871L151.701 79.7975C154.241 79.6284 156.5 81.545 156.669 84.1382L156.838 86.5058C157.008 89.099 155.032 91.2975 152.491 91.4666Z" fill="url(#paint22_linear_11008_9347)"/>
<path d="M363.528 289.73L302.159 275.129C300.014 274.622 298.659 272.423 299.167 270.281L299.675 268.083C300.183 265.941 302.385 264.588 304.53 265.095L365.899 279.695C368.045 280.203 369.4 282.401 368.891 284.543L368.383 286.742C367.875 288.884 365.673 290.237 363.528 289.73Z" fill="url(#paint23_linear_11008_9347)"/>
<path d="M359.294 307.034L297.925 292.434C295.779 291.927 294.424 289.728 294.933 287.586L295.441 285.387C295.949 283.245 298.151 281.892 300.296 282.4L361.665 297C363.81 297.507 365.165 299.706 364.657 301.848L364.149 304.047C363.697 306.189 361.496 307.542 359.294 307.034Z" fill="url(#paint24_linear_11008_9347)"/>
<path d="M354.777 324.511L293.408 309.91C291.263 309.403 289.908 307.205 290.416 305.062L290.924 302.864C291.432 300.722 293.634 299.369 295.78 299.876L357.148 314.477C359.294 314.984 360.649 317.183 360.141 319.325L359.633 321.523C359.124 323.665 356.923 325.018 354.777 324.511Z" fill="url(#paint25_linear_11008_9347)"/>
<path d="M443.584 323.834C458.488 323.834 470.571 311.769 470.571 296.887C470.571 282.006 458.488 269.941 443.584 269.941C428.68 269.941 416.598 282.006 416.598 296.887C416.598 311.769 428.68 323.834 443.584 323.834Z" fill="#0F5454"/>
<path d="M443.584 323.834C458.488 323.834 470.571 311.769 470.571 296.887C470.571 282.006 458.488 269.941 443.584 269.941C428.68 269.941 416.598 282.006 416.598 296.887C416.598 311.769 428.68 323.834 443.584 323.834Z" fill="#0F5454"/>
<path d="M445.052 320.339C459.956 320.339 472.039 308.275 472.039 293.393C472.039 278.511 459.956 266.447 445.052 266.447C430.148 266.447 418.066 278.511 418.066 293.393C418.066 308.275 430.148 320.339 445.052 320.339Z" fill="#00757A"/>
<path d="M445.052 320.339C459.956 320.339 472.039 308.275 472.039 293.393C472.039 278.511 459.956 266.447 445.052 266.447C430.148 266.447 418.066 278.511 418.066 293.393C418.066 308.275 430.148 320.339 445.052 320.339Z" fill="#00757A"/>
<path d="M445.052 314.081C456.496 314.081 465.772 304.818 465.772 293.392C465.772 281.966 456.496 272.703 445.052 272.703C433.609 272.703 424.333 281.966 424.333 293.392C424.333 304.818 433.609 314.081 445.052 314.081Z" fill="#073837"/>
<path d="M445.052 314.081C456.496 314.081 465.772 304.818 465.772 293.392C465.772 281.966 456.496 272.703 445.052 272.703C433.609 272.703 424.333 281.966 424.333 293.392C424.333 304.818 433.609 314.081 445.052 314.081Z" fill="#073837"/>
<path d="M445.052 312.56C455.653 312.56 464.247 303.979 464.247 293.393C464.247 282.808 455.653 274.227 445.052 274.227C434.451 274.227 425.856 282.808 425.856 293.393C425.856 303.979 434.451 312.56 445.052 312.56Z" fill="#0A5959"/>
<path d="M445.052 312.56C455.653 312.56 464.247 303.979 464.247 293.393C464.247 282.808 455.653 274.227 445.052 274.227C434.451 274.227 425.856 282.808 425.856 293.393C425.856 303.979 434.451 312.56 445.052 312.56Z" fill="#0A5959"/>
<path d="M444.996 320.564C441.552 320.564 438.051 319.888 434.664 318.535C427.945 315.773 422.695 310.53 419.929 303.822C417.162 297.113 417.106 289.729 419.929 283.02C425.631 269.153 441.608 262.557 455.497 268.251C469.385 273.944 475.991 289.898 470.288 303.765C465.885 314.194 455.722 320.564 444.996 320.564ZM445.052 266.672C434.551 266.672 424.558 272.873 420.324 283.189C417.614 289.785 417.614 297.001 420.324 303.596C423.09 310.192 428.228 315.265 434.777 318.028C448.383 323.665 464.022 317.126 469.667 303.54C475.313 289.954 468.764 274.339 455.158 268.702C451.883 267.349 448.439 266.672 445.052 266.672Z" fill="url(#paint26_linear_11008_9347)"/>
<path d="M444.996 320.564C441.552 320.564 438.051 319.888 434.664 318.535C427.945 315.773 422.695 310.53 419.929 303.822C417.162 297.113 417.106 289.729 419.929 283.02C425.631 269.153 441.608 262.557 455.497 268.251C469.385 273.944 475.991 289.898 470.288 303.765C465.885 314.194 455.722 320.564 444.996 320.564ZM445.052 266.672C434.551 266.672 424.558 272.873 420.324 283.189C417.614 289.785 417.614 297.001 420.324 303.596C423.09 310.192 428.228 315.265 434.777 318.028C448.383 323.665 464.022 317.126 469.667 303.54C475.313 289.954 468.764 274.339 455.158 268.702C451.883 267.349 448.439 266.672 445.052 266.672Z" fill="url(#paint27_linear_11008_9347)"/>
<path d="M453.52 284.711C453.464 284.711 453.464 284.711 453.52 284.711C453.464 284.655 453.407 284.655 453.407 284.655C453.407 284.655 453.407 284.655 453.351 284.655C453.351 284.655 453.351 284.655 453.295 284.655H453.238C453.182 284.598 453.125 284.598 453.069 284.598L440.761 279.525C439.576 279.017 438.277 279.581 437.769 280.765C437.261 281.949 437.825 283.245 439.011 283.753L451.319 288.826C451.375 288.826 451.432 288.882 451.488 288.882C451.544 288.939 451.601 288.939 451.657 288.939C453.972 289.897 455.101 292.603 454.141 294.914C453.182 297.226 450.472 298.353 448.157 297.395L443.923 295.647L444.77 293.561L449.004 295.309C450.189 295.816 451.488 295.253 451.996 294.069C452.504 292.885 451.94 291.588 450.754 291.081L440.874 287.022C439.688 286.515 438.39 287.079 437.882 288.262C437.374 289.446 437.938 290.743 439.124 291.25L440.535 291.814L439.688 293.9L437.938 298.128L435.906 303.032C435.398 304.216 435.962 305.512 437.148 306.02C438.333 306.527 439.632 305.963 440.14 304.779L442.173 299.875L446.407 301.623C451.093 303.539 456.456 301.341 458.376 296.662C460.352 291.983 458.15 286.628 453.52 284.711Z" fill="#073837"/>
<path d="M453.013 283.471C452.956 283.471 452.956 283.414 453.013 283.471C452.956 283.414 452.9 283.414 452.9 283.414C452.9 283.414 452.9 283.414 452.843 283.414C452.843 283.414 452.843 283.414 452.787 283.414H452.73C452.674 283.358 452.617 283.358 452.561 283.358L440.253 278.284C439.068 277.777 437.769 278.341 437.261 279.525C436.753 280.708 437.317 282.005 438.503 282.512L450.811 287.586C450.867 287.586 450.924 287.642 450.98 287.642C451.037 287.699 451.093 287.699 451.149 287.699C453.464 288.657 454.593 291.363 453.634 293.674C452.674 295.985 449.964 297.113 447.649 296.155L443.415 294.407L444.262 292.321L448.496 294.069C449.682 294.576 450.98 294.012 451.488 292.829C451.996 291.645 451.432 290.348 450.246 289.841L440.366 285.782C439.181 285.275 437.882 285.838 437.374 287.022C436.866 288.206 437.43 289.503 438.616 290.01L440.027 290.574L439.181 292.659L437.43 296.887L435.398 301.792C434.89 302.976 435.454 304.272 436.64 304.78C437.826 305.287 439.124 304.723 439.632 303.539L441.665 298.635L445.899 300.382C450.585 302.299 455.948 300.101 457.868 295.422C459.844 290.743 457.642 285.387 453.013 283.471Z" fill="url(#paint28_linear_11008_9347)"/>
<path d="M174.002 367.973C189.436 367.973 201.948 355.48 201.948 340.068C201.948 324.657 189.436 312.164 174.002 312.164C158.568 312.164 146.056 324.657 146.056 340.068C146.056 355.48 158.568 367.973 174.002 367.973Z" fill="#0F5454"/>
<path d="M174.002 367.973C189.436 367.973 201.948 355.48 201.948 340.068C201.948 324.657 189.436 312.164 174.002 312.164C158.568 312.164 146.056 324.657 146.056 340.068C146.056 355.48 158.568 367.973 174.002 367.973Z" fill="#0F5454"/>
<path d="M171.574 364.873C187.008 364.873 199.52 352.38 199.52 336.969C199.52 321.558 187.008 309.064 171.574 309.064C156.139 309.064 143.627 321.558 143.627 336.969C143.627 352.38 156.139 364.873 171.574 364.873Z" fill="#00757A"/>
<path d="M171.574 364.873C187.008 364.873 199.52 352.38 199.52 336.969C199.52 321.558 187.008 309.064 171.574 309.064C156.139 309.064 143.627 321.558 143.627 336.969C143.627 352.38 156.139 364.873 171.574 364.873Z" fill="#00757A"/>
<path d="M171.574 358.39C183.422 358.39 193.027 348.799 193.027 336.968C193.027 325.138 183.422 315.547 171.574 315.547C159.725 315.547 150.12 325.138 150.12 336.968C150.12 348.799 159.725 358.39 171.574 358.39Z" fill="#073837"/>
<path d="M171.574 358.39C183.422 358.39 193.027 348.799 193.027 336.968C193.027 325.138 183.422 315.547 171.574 315.547C159.725 315.547 150.12 325.138 150.12 336.968C150.12 348.799 159.725 358.39 171.574 358.39Z" fill="#073837"/>
<path d="M171.574 356.811C182.55 356.811 191.447 347.927 191.447 336.968C191.447 326.009 182.55 317.125 171.574 317.125C160.599 317.125 151.701 326.009 151.701 336.968C151.701 347.927 160.599 356.811 171.574 356.811Z" fill="#0A5959"/>
<path d="M171.574 356.811C182.55 356.811 191.447 347.927 191.447 336.968C191.447 326.009 182.55 317.125 171.574 317.125C160.599 317.125 151.701 326.009 151.701 336.968C151.701 347.927 160.599 356.811 171.574 356.811Z" fill="#0A5959"/>
<path d="M171.574 365.154C163.275 365.154 155.089 361.546 149.499 354.613C144.813 348.75 142.668 341.365 143.515 333.924C144.362 326.426 148.031 319.774 153.903 315.039C166.041 305.343 183.825 307.316 193.536 319.436C203.246 331.556 201.27 349.314 189.132 359.01C183.995 363.125 177.784 365.154 171.574 365.154ZM171.518 309.345C165.251 309.345 159.266 311.431 154.298 315.377C148.539 320 144.87 326.539 144.079 333.924C143.289 341.252 145.378 348.468 149.951 354.218C154.58 359.968 161.129 363.632 168.525 364.421C175.865 365.211 183.091 363.125 188.85 358.559C200.762 349.032 202.682 331.613 193.197 319.718C188.568 313.968 182.019 310.304 174.623 309.515C173.606 309.402 172.534 309.345 171.518 309.345Z" fill="url(#paint29_linear_11008_9347)"/>
<path d="M171.574 365.154C163.275 365.154 155.089 361.546 149.499 354.613C144.813 348.75 142.668 341.365 143.515 333.924C144.362 326.426 148.031 319.774 153.903 315.039C166.041 305.343 183.825 307.316 193.536 319.436C203.246 331.556 201.27 349.314 189.132 359.01C183.995 363.125 177.784 365.154 171.574 365.154ZM171.518 309.345C165.251 309.345 159.266 311.431 154.298 315.377C148.539 320 144.87 326.539 144.079 333.924C143.289 341.252 145.378 348.468 149.951 354.218C154.58 359.968 161.129 363.632 168.525 364.421C175.865 365.211 183.091 363.125 188.85 358.559C200.762 349.032 202.682 331.613 193.197 319.718C188.568 313.968 182.019 310.304 174.623 309.515C173.606 309.402 172.534 309.345 171.518 309.345Z" fill="url(#paint30_linear_11008_9347)"/>
<path d="M167.961 324.961C167.961 325.017 167.905 325.017 167.961 324.961C167.905 325.017 167.905 325.017 167.848 325.017C167.848 325.017 167.848 325.017 167.792 325.017C167.792 325.017 167.792 325.017 167.735 325.017L167.679 325.073C167.623 325.13 167.566 325.13 167.51 325.186L156.726 333.811C155.71 334.6 155.541 336.122 156.331 337.137C157.121 338.152 158.646 338.321 159.662 337.532L170.445 328.907C170.502 328.85 170.558 328.794 170.615 328.794C170.671 328.738 170.728 328.738 170.784 328.681C172.817 327.046 175.809 327.385 177.446 329.414C179.083 331.443 178.745 334.431 176.712 336.066L172.986 338.997L171.518 337.137L175.188 334.206C176.204 333.417 176.373 331.894 175.583 330.88C174.793 329.865 173.268 329.696 172.252 330.485L163.727 337.475C162.711 338.265 162.541 339.787 163.332 340.801C164.122 341.816 165.647 341.985 166.663 341.196L167.905 340.238L169.373 342.098L172.308 345.818L175.752 350.159C176.543 351.174 178.067 351.343 179.083 350.554C180.1 349.765 180.269 348.242 179.479 347.228L176.035 342.887L179.761 339.956C183.826 336.686 184.503 330.711 181.229 326.652C177.954 322.424 172.026 321.747 167.961 324.961Z" fill="#073837"/>
<path d="M166.55 324.791C166.55 324.848 166.55 324.848 166.55 324.791C166.493 324.848 166.493 324.848 166.437 324.848C166.437 324.848 166.437 324.848 166.38 324.848C166.38 324.848 166.38 324.848 166.324 324.848L166.267 324.904C166.211 324.96 166.154 324.96 166.098 325.017L155.315 333.642C154.298 334.431 154.129 335.953 154.919 336.968C155.71 337.983 157.234 338.152 158.25 337.362L169.034 328.737C169.09 328.681 169.147 328.625 169.203 328.625C169.26 328.568 169.316 328.568 169.372 328.512C171.405 326.877 174.397 327.215 176.034 329.245C177.672 331.274 177.333 334.262 175.3 335.897L171.574 338.828L170.106 336.968L173.776 334.036C174.792 333.247 174.962 331.725 174.171 330.71C173.381 329.696 171.857 329.527 170.84 330.316L162.202 337.193C161.186 337.983 161.017 339.505 161.807 340.519C162.598 341.534 164.122 341.703 165.138 340.914L166.38 339.956L167.848 341.816L170.784 345.536L174.228 349.877C175.018 350.892 176.543 351.061 177.559 350.272C178.575 349.483 178.744 347.96 177.954 346.946L174.51 342.605L178.236 339.674C182.301 336.404 182.979 330.429 179.704 326.37C176.599 322.255 170.671 321.578 166.55 324.791Z" fill="url(#paint31_linear_11008_9347)"/>
</g>
<defs>
<linearGradient id="paint0_linear_11008_9347" x1="233.888" y1="193.7" x2="279.692" y2="193.7" gradientUnits="userSpaceOnUse">
<stop offset="0.00510364" stop-color="#00FFED" stop-opacity="0.3"/>
<stop offset="0.36" stop-color="#00FFEB" stop-opacity="0.4071"/>
<stop offset="0.5128" stop-color="#00FEE4" stop-opacity="0.4533"/>
<stop offset="0.6268" stop-color="#00FCD7" stop-opacity="0.4877"/>
<stop offset="0.7215" stop-color="#00F9C5" stop-opacity="0.5163"/>
<stop offset="0.8043" stop-color="#00F6AE" stop-opacity="0.5413"/>
<stop offset="0.8787" stop-color="#00F292" stop-opacity="0.5638"/>
<stop offset="0.9454" stop-color="#00EE71" stop-opacity="0.5839"/>
<stop offset="0.9988" stop-color="#00E950" stop-opacity="0.6"/>
</linearGradient>
<linearGradient id="paint1_linear_11008_9347" x1="233.618" y1="193.7" x2="279.944" y2="193.7" gradientUnits="userSpaceOnUse">
<stop offset="0.00121702" stop-color="#00FFED"/>
<stop offset="0.3575" stop-color="#00FFEB" stop-opacity="0.8571"/>
<stop offset="0.5109" stop-color="#00FEE4" stop-opacity="0.7956"/>
<stop offset="0.6253" stop-color="#00FCD7" stop-opacity="0.7497"/>
<stop offset="0.7205" stop-color="#00F9C5" stop-opacity="0.7116"/>
<stop offset="0.8036" stop-color="#00F6AE" stop-opacity="0.6783"/>
<stop offset="0.8783" stop-color="#00F292" stop-opacity="0.6483"/>
<stop offset="0.9452" stop-color="#00EE71" stop-opacity="0.6215"/>
<stop offset="0.9988" stop-color="#00E950" stop-opacity="0.6"/>
</linearGradient>
<linearGradient id="paint2_linear_11008_9347" x1="344.151" y1="136.725" x2="493.21" y2="136.725" gradientUnits="userSpaceOnUse">
<stop offset="0.00510364" stop-color="#176465"/>
<stop offset="0.1673" stop-color="#177165"/>
<stop offset="0.467" stop-color="#179366"/>
<stop offset="0.868" stop-color="#18CA67"/>
<stop offset="0.9988" stop-color="#18DD67"/>
</linearGradient>
<linearGradient id="paint3_linear_11008_9347" x1="343.339" y1="136.725" x2="494.022" y2="136.725" gradientUnits="userSpaceOnUse">
<stop offset="0.00121702" stop-color="#00FFED"/>
<stop offset="0.3575" stop-color="#00FFEB" stop-opacity="0.8571"/>
<stop offset="0.5109" stop-color="#00FEE4" stop-opacity="0.7956"/>
<stop offset="0.6253" stop-color="#00FCD7" stop-opacity="0.7497"/>
<stop offset="0.7205" stop-color="#00F9C5" stop-opacity="0.7116"/>
<stop offset="0.8036" stop-color="#00F6AE" stop-opacity="0.6783"/>
<stop offset="0.8783" stop-color="#00F292" stop-opacity="0.6483"/>
<stop offset="0.9452" stop-color="#00EE71" stop-opacity="0.6215"/>
<stop offset="0.9988" stop-color="#00E950" stop-opacity="0.6"/>
</linearGradient>
<linearGradient id="paint4_linear_11008_9347" x1="468.293" y1="105.967" x2="290.061" y2="229.109" gradientUnits="userSpaceOnUse">
<stop stop-color="#161C2B"/>
<stop offset="0.4255" stop-color="#163739"/>
<stop offset="0.9934" stop-color="#16614F"/>
</linearGradient>
<linearGradient id="paint5_linear_11008_9347" x1="223.176" y1="268.223" x2="258.865" y2="268.223" gradientUnits="userSpaceOnUse">
<stop offset="0.00510364" stop-color="#00FFED" stop-opacity="0.3"/>
<stop offset="0.36" stop-color="#00FFEB" stop-opacity="0.4071"/>
<stop offset="0.5128" stop-color="#00FEE4" stop-opacity="0.4533"/>
<stop offset="0.6268" stop-color="#00FCD7" stop-opacity="0.4877"/>
<stop offset="0.7215" stop-color="#00F9C5" stop-opacity="0.5163"/>
<stop offset="0.8043" stop-color="#00F6AE" stop-opacity="0.5413"/>
<stop offset="0.8787" stop-color="#00F292" stop-opacity="0.5638"/>
<stop offset="0.9454" stop-color="#00EE71" stop-opacity="0.5839"/>
<stop offset="0.9988" stop-color="#00E950" stop-opacity="0.6"/>
</linearGradient>
<linearGradient id="paint6_linear_11008_9347" x1="222.907" y1="268.219" x2="259.133" y2="268.219" gradientUnits="userSpaceOnUse">
<stop offset="0.00121702" stop-color="#00FFED"/>
<stop offset="0.3575" stop-color="#00FFEB" stop-opacity="0.8571"/>
<stop offset="0.5109" stop-color="#00FEE4" stop-opacity="0.7956"/>
<stop offset="0.6253" stop-color="#00FCD7" stop-opacity="0.7497"/>
<stop offset="0.7205" stop-color="#00F9C5" stop-opacity="0.7116"/>
<stop offset="0.8036" stop-color="#00F6AE" stop-opacity="0.6783"/>
<stop offset="0.8783" stop-color="#00F292" stop-opacity="0.6483"/>
<stop offset="0.9452" stop-color="#00EE71" stop-opacity="0.6215"/>
<stop offset="0.9988" stop-color="#00E950" stop-opacity="0.6"/>
</linearGradient>
<linearGradient id="paint7_linear_11008_9347" x1="145.194" y1="170.278" x2="83.4829" y2="279.623" gradientUnits="userSpaceOnUse">
<stop offset="0.00510364" stop-color="#176465"/>
<stop offset="0.1673" stop-color="#177165"/>
<stop offset="0.467" stop-color="#179366"/>
<stop offset="0.868" stop-color="#18CA67"/>
<stop offset="0.9988" stop-color="#18DD67"/>
</linearGradient>
<linearGradient id="paint8_linear_11008_9347" x1="56.0005" y1="223.831" x2="173.759" y2="223.831" gradientUnits="userSpaceOnUse">
<stop offset="0.00121702" stop-color="#00FFED"/>
<stop offset="0.3575" stop-color="#00FFEB" stop-opacity="0.8571"/>
<stop offset="0.5109" stop-color="#00FEE4" stop-opacity="0.7956"/>
<stop offset="0.6253" stop-color="#00FCD7" stop-opacity="0.7497"/>
<stop offset="0.7205" stop-color="#00F9C5" stop-opacity="0.7116"/>
<stop offset="0.8036" stop-color="#00F6AE" stop-opacity="0.6783"/>
<stop offset="0.8783" stop-color="#00F292" stop-opacity="0.6483"/>
<stop offset="0.9452" stop-color="#00EE71" stop-opacity="0.6215"/>
<stop offset="0.9988" stop-color="#00E950" stop-opacity="0.6"/>
</linearGradient>
<linearGradient id="paint9_linear_11008_9347" x1="94.0858" y1="213.288" x2="170.549" y2="252.173" gradientUnits="userSpaceOnUse">
<stop stop-color="#161C2B"/>
<stop offset="0.4255" stop-color="#163739"/>
<stop offset="0.9934" stop-color="#16614F"/>
</linearGradient>
<linearGradient id="paint10_linear_11008_9347" x1="258.911" y1="294.191" x2="389.905" y2="294.191" gradientUnits="userSpaceOnUse">
<stop offset="0.00510364" stop-color="#00FFED" stop-opacity="0.3"/>
<stop offset="0.36" stop-color="#00FFEB" stop-opacity="0.4071"/>
<stop offset="0.5128" stop-color="#00FEE4" stop-opacity="0.4533"/>
<stop offset="0.6268" stop-color="#00FCD7" stop-opacity="0.4877"/>
<stop offset="0.7215" stop-color="#00F9C5" stop-opacity="0.5163"/>
<stop offset="0.8043" stop-color="#00F6AE" stop-opacity="0.5413"/>
<stop offset="0.8787" stop-color="#00F292" stop-opacity="0.5638"/>
<stop offset="0.9454" stop-color="#00EE71" stop-opacity="0.5839"/>
<stop offset="0.9988" stop-color="#00E950" stop-opacity="0.6"/>
</linearGradient>
<linearGradient id="paint11_linear_11008_9347" x1="258.118" y1="294.193" x2="390.702" y2="294.193" gradientUnits="userSpaceOnUse">
<stop offset="0.00121702" stop-color="#00FFED"/>
<stop offset="0.3575" stop-color="#00FFEB" stop-opacity="0.8571"/>
<stop offset="0.5109" stop-color="#00FEE4" stop-opacity="0.7956"/>
<stop offset="0.6253" stop-color="#00FCD7" stop-opacity="0.7497"/>
<stop offset="0.7205" stop-color="#00F9C5" stop-opacity="0.7116"/>
<stop offset="0.8036" stop-color="#00F6AE" stop-opacity="0.6783"/>
<stop offset="0.8783" stop-color="#00F292" stop-opacity="0.6483"/>
<stop offset="0.9452" stop-color="#00EE71" stop-opacity="0.6215"/>
<stop offset="0.9988" stop-color="#00E950" stop-opacity="0.6"/>
</linearGradient>
<linearGradient id="paint12_linear_11008_9347" x1="51.3859" y1="87.0985" x2="203.335" y2="87.0985" gradientUnits="userSpaceOnUse">
<stop offset="0.00121702" stop-color="#00FFED"/>
<stop offset="0.3575" stop-color="#00FFEB" stop-opacity="0.8571"/>
<stop offset="0.5109" stop-color="#00FEE4" stop-opacity="0.7956"/>
<stop offset="0.6253" stop-color="#00FCD7" stop-opacity="0.7497"/>
<stop offset="0.7205" stop-color="#00F9C5" stop-opacity="0.7116"/>
<stop offset="0.8036" stop-color="#00F6AE" stop-opacity="0.6783"/>
<stop offset="0.8783" stop-color="#00F292" stop-opacity="0.6483"/>
<stop offset="0.9452" stop-color="#00EE71" stop-opacity="0.6215"/>
<stop offset="0.9988" stop-color="#00E950" stop-opacity="0.6"/>
</linearGradient>
<linearGradient id="paint13_linear_11008_9347" x1="188.193" y1="158.904" x2="60.5063" y2="-0.944017" gradientUnits="userSpaceOnUse">
<stop offset="0.00510364" stop-color="#00FFED" stop-opacity="0.3"/>
<stop offset="0.36" stop-color="#00FFEB" stop-opacity="0.4071"/>
<stop offset="0.5128" stop-color="#00FEE4" stop-opacity="0.4533"/>
<stop offset="0.6268" stop-color="#00FCD7" stop-opacity="0.4877"/>
<stop offset="0.7215" stop-color="#00F9C5" stop-opacity="0.5163"/>
<stop offset="0.8043" stop-color="#00F6AE" stop-opacity="0.5413"/>
<stop offset="0.8787" stop-color="#00F292" stop-opacity="0.5638"/>
<stop offset="0.9454" stop-color="#00EE71" stop-opacity="0.5839"/>
<stop offset="0.9988" stop-color="#00E950" stop-opacity="0.6"/>
</linearGradient>
<linearGradient id="paint14_linear_11008_9347" x1="273.015" y1="108.722" x2="250.421" y2="34.8273" gradientUnits="userSpaceOnUse">
<stop offset="0.00121702" stop-color="#00FFED"/>
<stop offset="0.3575" stop-color="#00FFEB" stop-opacity="0.8571"/>
<stop offset="0.5109" stop-color="#00FEE4" stop-opacity="0.7956"/>
<stop offset="0.6253" stop-color="#00FCD7" stop-opacity="0.7497"/>
<stop offset="0.7205" stop-color="#00F9C5" stop-opacity="0.7116"/>
<stop offset="0.8036" stop-color="#00F6AE" stop-opacity="0.6783"/>
<stop offset="0.8783" stop-color="#00F292" stop-opacity="0.6483"/>
<stop offset="0.9452" stop-color="#00EE71" stop-opacity="0.6215"/>
<stop offset="0.9988" stop-color="#00E950" stop-opacity="0.6"/>
</linearGradient>
<linearGradient id="paint15_linear_11008_9347" x1="259.493" y1="63.9542" x2="261.422" y2="81.1041" gradientUnits="userSpaceOnUse">
<stop stop-color="#00A8A1"/>
<stop offset="1" stop-color="#41FF7A"/>
</linearGradient>
<linearGradient id="paint16_linear_11008_9347" x1="44.6728" y1="198.405" x2="-5.15692" y2="174.7" gradientUnits="userSpaceOnUse">
<stop offset="0.00121702" stop-color="#00FFED"/>
<stop offset="0.3575" stop-color="#00FFEB" stop-opacity="0.8571"/>
<stop offset="0.5109" stop-color="#00FEE4" stop-opacity="0.7956"/>
<stop offset="0.6253" stop-color="#00FCD7" stop-opacity="0.7497"/>
<stop offset="0.7205" stop-color="#00F9C5" stop-opacity="0.7116"/>
<stop offset="0.8036" stop-color="#00F6AE" stop-opacity="0.6783"/>
<stop offset="0.8783" stop-color="#00F292" stop-opacity="0.6483"/>
<stop offset="0.9452" stop-color="#00EE71" stop-opacity="0.6215"/>
<stop offset="0.9988" stop-color="#00E950" stop-opacity="0.6"/>
</linearGradient>
<linearGradient id="paint17_linear_11008_9347" x1="14.5829" y1="183.977" x2="24.5018" y2="191.196" gradientUnits="userSpaceOnUse">
<stop stop-color="#00A8A1"/>
<stop offset="1" stop-color="#41FF7A"/>
</linearGradient>
<linearGradient id="paint18_linear_11008_9347" x1="321.949" y1="29.3234" x2="344.111" y2="0.0671736" gradientUnits="userSpaceOnUse">
<stop offset="0.00121702" stop-color="#00FFED"/>
<stop offset="0.3575" stop-color="#00FFEB" stop-opacity="0.8571"/>
<stop offset="0.5109" stop-color="#00FEE4" stop-opacity="0.7956"/>
<stop offset="0.6253" stop-color="#00FCD7" stop-opacity="0.7497"/>
<stop offset="0.7205" stop-color="#00F9C5" stop-opacity="0.7116"/>
<stop offset="0.8036" stop-color="#00F6AE" stop-opacity="0.6783"/>
<stop offset="0.8783" stop-color="#00F292" stop-opacity="0.6483"/>
<stop offset="0.9452" stop-color="#00EE71" stop-opacity="0.6215"/>
<stop offset="0.9988" stop-color="#00E950" stop-opacity="0.6"/>
</linearGradient>
<linearGradient id="paint19_linear_11008_9347" x1="335.446" y1="11.7144" x2="329.419" y2="17.1908" gradientUnits="userSpaceOnUse">
<stop stop-color="#00A8A1"/>
<stop offset="1" stop-color="#41FF7A"/>
</linearGradient>
<linearGradient id="paint20_linear_11008_9347" x1="150.815" y1="20.1785" x2="-26.9148" y2="100.743" gradientUnits="userSpaceOnUse">
<stop offset="0.00510364" stop-color="#00FFED"/>
<stop offset="0.36" stop-color="#00FFEB" stop-opacity="0.8571"/>
<stop offset="0.5128" stop-color="#00FEE4" stop-opacity="0.7956"/>
<stop offset="0.6268" stop-color="#00FCD7" stop-opacity="0.7497"/>
<stop offset="0.7215" stop-color="#00F9C5" stop-opacity="0.7116"/>
<stop offset="0.8043" stop-color="#00F6AE" stop-opacity="0.6783"/>
<stop offset="0.8787" stop-color="#00F292" stop-opacity="0.6483"/>
<stop offset="0.9454" stop-color="#00EE71" stop-opacity="0.6215"/>
<stop offset="0.9988" stop-color="#00E950" stop-opacity="0.6"/>
</linearGradient>
<linearGradient id="paint21_linear_11008_9347" x1="152.537" y1="42.3499" x2="-25.193" y2="122.915" gradientUnits="userSpaceOnUse">
<stop offset="0.00510364" stop-color="#00FFED"/>
<stop offset="0.36" stop-color="#00FFEB" stop-opacity="0.8571"/>
<stop offset="0.5128" stop-color="#00FEE4" stop-opacity="0.7956"/>
<stop offset="0.6268" stop-color="#00FCD7" stop-opacity="0.7497"/>
<stop offset="0.7215" stop-color="#00F9C5" stop-opacity="0.7116"/>
<stop offset="0.8043" stop-color="#00F6AE" stop-opacity="0.6783"/>
<stop offset="0.8787" stop-color="#00F292" stop-opacity="0.6483"/>
<stop offset="0.9454" stop-color="#00EE71" stop-opacity="0.6215"/>
<stop offset="0.9988" stop-color="#00E950" stop-opacity="0.6"/>
</linearGradient>
<linearGradient id="paint22_linear_11008_9347" x1="152.537" y1="64.5185" x2="-25.193" y2="145.083" gradientUnits="userSpaceOnUse">
<stop offset="0.00510364" stop-color="#00FFED"/>
<stop offset="0.36" stop-color="#00FFEB" stop-opacity="0.8571"/>
<stop offset="0.5128" stop-color="#00FEE4" stop-opacity="0.7956"/>
<stop offset="0.6268" stop-color="#00FCD7" stop-opacity="0.7497"/>
<stop offset="0.7215" stop-color="#00F9C5" stop-opacity="0.7116"/>
<stop offset="0.8043" stop-color="#00F6AE" stop-opacity="0.6783"/>
<stop offset="0.8787" stop-color="#00F292" stop-opacity="0.6483"/>
<stop offset="0.9454" stop-color="#00EE71" stop-opacity="0.6215"/>
<stop offset="0.9988" stop-color="#00E950" stop-opacity="0.6"/>
</linearGradient>
<linearGradient id="paint23_linear_11008_9347" x1="370.72" y1="266.931" x2="205.174" y2="284.926" gradientUnits="userSpaceOnUse">
<stop offset="0.00510364" stop-color="#00FFED"/>
<stop offset="0.36" stop-color="#00FFEB" stop-opacity="0.8571"/>
<stop offset="0.5128" stop-color="#00FEE4" stop-opacity="0.7956"/>
<stop offset="0.6268" stop-color="#00FCD7" stop-opacity="0.7497"/>
<stop offset="0.7215" stop-color="#00F9C5" stop-opacity="0.7116"/>
<stop offset="0.8043" stop-color="#00F6AE" stop-opacity="0.6783"/>
<stop offset="0.8787" stop-color="#00F292" stop-opacity="0.6483"/>
<stop offset="0.9454" stop-color="#00EE71" stop-opacity="0.6215"/>
<stop offset="0.9988" stop-color="#00E950" stop-opacity="0.6"/>
</linearGradient>
<linearGradient id="paint24_linear_11008_9347" x1="366.501" y1="284.247" x2="200.954" y2="302.242" gradientUnits="userSpaceOnUse">
<stop offset="0.00510364" stop-color="#00FFED"/>
<stop offset="0.36" stop-color="#00FFEB" stop-opacity="0.8571"/>
<stop offset="0.5128" stop-color="#00FEE4" stop-opacity="0.7956"/>
<stop offset="0.6268" stop-color="#00FCD7" stop-opacity="0.7497"/>
<stop offset="0.7215" stop-color="#00F9C5" stop-opacity="0.7116"/>
<stop offset="0.8043" stop-color="#00F6AE" stop-opacity="0.6783"/>
<stop offset="0.8787" stop-color="#00F292" stop-opacity="0.6483"/>
<stop offset="0.9454" stop-color="#00EE71" stop-opacity="0.6215"/>
<stop offset="0.9988" stop-color="#00E950" stop-opacity="0.6"/>
</linearGradient>
<linearGradient id="paint25_linear_11008_9347" x1="361.969" y1="301.721" x2="196.423" y2="319.716" gradientUnits="userSpaceOnUse">
<stop offset="0.00510364" stop-color="#00FFED"/>
<stop offset="0.36" stop-color="#00FFEB" stop-opacity="0.8571"/>
<stop offset="0.5128" stop-color="#00FEE4" stop-opacity="0.7956"/>
<stop offset="0.6268" stop-color="#00FCD7" stop-opacity="0.7497"/>
<stop offset="0.7215" stop-color="#00F9C5" stop-opacity="0.7116"/>
<stop offset="0.8043" stop-color="#00F6AE" stop-opacity="0.6783"/>
<stop offset="0.8787" stop-color="#00F292" stop-opacity="0.6483"/>
<stop offset="0.9454" stop-color="#00EE71" stop-opacity="0.6215"/>
<stop offset="0.9988" stop-color="#00E950" stop-opacity="0.6"/>
</linearGradient>
<linearGradient id="paint26_linear_11008_9347" x1="419.869" y1="282.978" x2="470.202" y2="303.781" gradientUnits="userSpaceOnUse">
<stop offset="0.00121702" stop-color="#00FFED"/>
<stop offset="0.3575" stop-color="#00FFEB" stop-opacity="0.8571"/>
<stop offset="0.5109" stop-color="#00FEE4" stop-opacity="0.7956"/>
<stop offset="0.6253" stop-color="#00FCD7" stop-opacity="0.7497"/>
<stop offset="0.7205" stop-color="#00F9C5" stop-opacity="0.7116"/>
<stop offset="0.8036" stop-color="#00F6AE" stop-opacity="0.6783"/>
<stop offset="0.8783" stop-color="#00F292" stop-opacity="0.6483"/>
<stop offset="0.9452" stop-color="#00EE71" stop-opacity="0.6215"/>
<stop offset="0.9988" stop-color="#00E950" stop-opacity="0.6"/>
</linearGradient>
<linearGradient id="paint27_linear_11008_9347" x1="419.869" y1="282.978" x2="470.202" y2="303.781" gradientUnits="userSpaceOnUse">
<stop offset="0.00121702" stop-color="#00FFED"/>
<stop offset="0.3575" stop-color="#00FFEB" stop-opacity="0.8571"/>
<stop offset="0.5109" stop-color="#00FEE4" stop-opacity="0.7956"/>
<stop offset="0.6253" stop-color="#00FCD7" stop-opacity="0.7497"/>
<stop offset="0.7205" stop-color="#00F9C5" stop-opacity="0.7116"/>
<stop offset="0.8036" stop-color="#00F6AE" stop-opacity="0.6783"/>
<stop offset="0.8783" stop-color="#00F292" stop-opacity="0.6483"/>
<stop offset="0.9452" stop-color="#00EE71" stop-opacity="0.6215"/>
<stop offset="0.9988" stop-color="#00E950" stop-opacity="0.6"/>
</linearGradient>
<linearGradient id="paint28_linear_11008_9347" x1="467.016" y1="280.541" x2="409.267" y2="304.26" gradientUnits="userSpaceOnUse">
<stop stop-color="#00A8A1"/>
<stop offset="1" stop-color="#41FF7A"/>
</linearGradient>
<linearGradient id="paint29_linear_11008_9347" x1="149.521" y1="354.537" x2="193.514" y2="319.306" gradientUnits="userSpaceOnUse">
<stop offset="0.00121702" stop-color="#00FFED"/>
<stop offset="0.3575" stop-color="#00FFEB" stop-opacity="0.8571"/>
<stop offset="0.5109" stop-color="#00FEE4" stop-opacity="0.7956"/>
<stop offset="0.6253" stop-color="#00FCD7" stop-opacity="0.7497"/>
<stop offset="0.7205" stop-color="#00F9C5" stop-opacity="0.7116"/>
<stop offset="0.8036" stop-color="#00F6AE" stop-opacity="0.6783"/>
<stop offset="0.8783" stop-color="#00F292" stop-opacity="0.6483"/>
<stop offset="0.9452" stop-color="#00EE71" stop-opacity="0.6215"/>
<stop offset="0.9988" stop-color="#00E950" stop-opacity="0.6"/>
</linearGradient>
<linearGradient id="paint30_linear_11008_9347" x1="149.521" y1="354.537" x2="193.514" y2="319.306" gradientUnits="userSpaceOnUse">
<stop offset="0.00121702" stop-color="#00FFED"/>
<stop offset="0.3575" stop-color="#00FFEB" stop-opacity="0.8571"/>
<stop offset="0.5109" stop-color="#00FEE4" stop-opacity="0.7956"/>
<stop offset="0.6253" stop-color="#00FCD7" stop-opacity="0.7497"/>
<stop offset="0.7205" stop-color="#00F9C5" stop-opacity="0.7116"/>
<stop offset="0.8036" stop-color="#00F6AE" stop-opacity="0.6783"/>
<stop offset="0.8783" stop-color="#00F292" stop-opacity="0.6483"/>
<stop offset="0.9452" stop-color="#00EE71" stop-opacity="0.6215"/>
<stop offset="0.9988" stop-color="#00E950" stop-opacity="0.6"/>
</linearGradient>
<linearGradient id="paint31_linear_11008_9347" x1="170.919" y1="310.653" x2="163.478" y2="374.794" gradientUnits="userSpaceOnUse">
<stop stop-color="#00A8A1"/>
<stop offset="1" stop-color="#41FF7A"/>
</linearGradient>
<clipPath id="clip0_11008_9347">
<rect width="494" height="368" fill="white"/>
</clipPath>
</defs>
</svg>
