<svg width="76" height="76" viewBox="0 0 76 76" fill="none" xmlns="http://www.w3.org/2000/svg">
<path d="M0 12C0 5.37258 5.37258 0 12 0H64C70.6274 0 76 5.37258 76 12V64C76 70.6274 70.6274 76 64 76H12C5.37258 76 0 70.6274 0 64V12Z" fill="url(#paint0_linear_2625_64326)"/>
<path d="M2 12C2 6.47715 6.47715 2 12 2H64C69.5228 2 74 6.47715 74 12V64C74 69.5229 69.5228 74 64 74H12C6.47715 74 2 69.5229 2 64V12Z" fill="url(#paint1_linear_2625_64326)"/>
<path d="M38 17C25.8692 17 16 26.8692 16 39C16 51.1308 25.8692 61 38 61C50.1308 61 60 51.1308 60 39C60 26.8692 50.1308 17 38 17ZM20.4 39C20.4 37.0222 20.7432 35.1236 21.3482 33.3482L24.8 36.8L29.2 41.2V45.6L33.6 50L35.8 52.2V56.4482C27.1342 55.3592 20.4 47.9584 20.4 39ZM51.926 49.7206C50.4894 48.5634 48.3114 47.8 46.8 47.8V45.6C46.8 44.433 46.3364 43.3139 45.5113 42.4887C44.6861 41.6636 43.567 41.2 42.4 41.2H33.6V34.6C34.767 34.6 35.8861 34.1364 36.7113 33.3113C37.5364 32.4861 38 31.367 38 30.2V28H40.2C41.367 28 42.4861 27.5364 43.3113 26.7113C44.1364 25.8861 44.6 24.767 44.6 23.6V22.6958C51.0416 25.3116 55.6 31.63 55.6 39C55.5996 42.8823 54.307 46.6541 51.926 49.7206Z" fill="#69FFC8"/>
<defs>
<linearGradient id="paint0_linear_2625_64326" x1="38" y1="0" x2="38" y2="76" gradientUnits="userSpaceOnUse">
<stop stop-color="#4DFFBE"/>
<stop offset="1" stop-color="#466D85"/>
</linearGradient>
<linearGradient id="paint1_linear_2625_64326" x1="38" y1="2" x2="38" y2="74" gradientUnits="userSpaceOnUse">
<stop stop-color="#2E4858"/>
<stop offset="1" stop-color="#2E4858" stop-opacity="0"/>
</linearGradient>
</defs>
</svg>
