<svg id="eSMVH4GjkdI1" xmlns="http://www.w3.org/2000/svg" xmlns:xlink="http://www.w3.org/1999/xlink" viewBox="0 0 32 32" shape-rendering="geometricPrecision" text-rendering="geometricPrecision"><style><![CDATA[#eSMVH4GjkdI5_to {animation: eSMVH4GjkdI5_to__to 1800ms linear 1 normal forwards}@keyframes eSMVH4GjkdI5_to__to { 0% {transform: translate(15.578567px,14.550522px)} 16.666667% {transform: translate(15.578567px,11.298947px)} 33.333333% {transform: translate(15.598567px,14.81253px)} 50% {transform: translate(15.578567px,11.298947px)} 66.666667% {transform: translate(15.578567px,14.81253px)} 83.333333% {transform: translate(15.578567px,11.298947px)} 100% {transform: translate(15.578568px,14.81253px)}} #eSMVH4GjkdI7_to {animation: eSMVH4GjkdI7_to__to 1800ms linear 1 normal forwards}@keyframes eSMVH4GjkdI7_to__to { 0% {transform: translate(28.225996px,18.738899px)} 16.666667% {transform: translate(28.225996px,18.258908px)} 33.333333% {transform: translate(28.225996px,18.7389px)} 50% {transform: translate(28.225996px,18.218921px)} 66.666667% {transform: translate(28.225996px,18.7389px)} 83.333333% {transform: translate(28.225996px,18.258907px)} 100% {transform: translate(28.225996px,18.7389px)}}]]></style><path d="M7.42302,25.8729c2.63998,0,4.78018-2.1402,4.78018-4.7802s-2.1402-4.7802-4.78018-4.7802-4.7802,2.1402-4.7802,4.7802s2.14017,4.7802,4.7802,4.7802Zm0,1.5c3.46848,0,6.28018-2.8117,6.28018-6.2802s-2.8117-6.2802-6.28018-6.2802-6.2802,2.8117-6.2802,6.2802s2.81174,6.2802,6.2802,6.2802Z" clip-rule="evenodd" fill="#1ac486" fill-rule="evenodd"/><path d="M9.77814,21.094c0,1.3006-1.0544,2.355-2.35507,2.355s-2.35508-1.0544-2.35508-2.355c0-1.3007,1.05441-2.3551,2.35508-2.3551s2.35507,1.0544,2.35507,2.3551Z" fill="#1ac486"/><path d="M16.058,21.2723h7.0652v2h-7.0652v-2Z" clip-rule="evenodd" fill="#1ac486" fill-rule="evenodd"/><g id="eSMVH4GjkdI5_to" transform="translate(15.578567,14.550522)"><path d="M2.97087,5.78529c0-.56807.4605-1.02858,1.02857-1.02858h5.97446.00008.00014.0002.00026.00032.00037.00042.00049.00054.00059.00065.00071.00076.00082.00087.00093.00098.00104.00109.00115.0012.00125.00131.00137.00141.00147.00152.00158.00163.00165.0018.0018.0018.0019.0019.002.0021.0021.0021.0022.0023.0023.0024.0024.0024.0025.0026.0026.0027.0027.0027.0028.0029.0029.0029.0031.003.0031.0032.0032.0032.0033.0033.0034.0035.0035.0035.0036.0036.0037.0037.0038.0038.0038.0039.004.004.004.0041.0042.0041.0043.0042.0043.0044.0044.0044.0045.0046.0045.0047.0046.0047.0048.0048.0048.0049.0049.005.005.005.0051.0052.0051.0053.0052.0053.0054.0053.0055.0054.0055.0056.0055.0057.0056.0057.0058.0058.0058.0058.0059.006.0059.0061.006.0061.0061.0062.0062.0062.0063.0063.0064.0064.0064.0065.0065.0065.0066.0066.0066.0067.0067.0068.0067.0069.0068.0069.0069.007.007.007.0071.0071.0071.0071.0072.0073.0072.0073.0074.0073.0074.0074.0075.0075.0075.0076.0075.0077.0076.0077.0077.0077.0078.0078.0078.0079.0079.0079.0079.008.008.0081.008.0081.0082.0081.0082.0082.0083.0082.0083.0083.0084.0084.0084.0084.0085.0085.0085.0085.0086.0086.0086.0086.0087.0087.0087.0088.0087.0088.0088.0089.0089.0089.0089.0089.009.009.009.009.0091.0091.0091.0091.0092.0091.0092.0092.0093.0093.0092.0093.0094.0093.0094.0094.0094.0094.0095.0095.0095.0095.0095.0096.0095.0096.0096.0097.0096.0097.0097.0097.0097.0098.0097.0098.0098.0098.0099.0098.0099.0099.0099.0099.0099.01.0099.01.01.01.0101.01.0101.01.0101.0101.0102.0101.0102.0101.0102.0102.0102.0102.0103.0102.0103.0102.0103.0103.0103.0104.0103.0104.0103.0104.0104.0104.0104.0104.0104.0105.0104.0105.0105.0104.0105.0105.0106.0105.0105.0106.0105.0106.0105.0106.0106.0106.0106.0106.0106.0107.0106.0106.0107.0107.0106.0107.0107.0107.0106.0107.0107.0108.0107.0107.0107.0108.0107.0107.0108.0107.0108.0108.0107.0108.0108.0108.0107.0108.0108.0108.0108.0108.0108.0108.0108.0108.0109.0108.0108.0108.0108.0108.0109.0108.0108.0108.0109.0108.0108.0109.0108.0108.0108.0109.0108.0108.0108.0109.0108.0108.0108.0109.0108.0108.0108.0108.0108.0108.0108.0108.0108.0108.0108.0108.0108.0108.0108.0107.0108.0108.0107.0108.0107.0108.0107.0107.0108.0107.0107.0107.0107.0107.0107.0107.0107.0107.0106.0107.0107.0106.0106.0107.0106.0106.0106.0106.0106.0106.0106.0105.0106.0105.0106.0105.0105.0105.0105.0105.0105.0104.0105.0105.0104.0104.0104.0104.0104.0104.0104.0103.0104.0103.0103.0103.0103.0103.0102.0103.0102.0103.0102.0102.0102.0101.0102.0101.0102.0101.0101.01.0101.0101.01.01.01.01.01.0099.01.0099.0099.0099.0099.0098.0099.0098.0098.0098.0098.0097.0097.0098.0097.0096.0097.0096.0097.0096.0095.0096.0095.0096.0095.0094.0095.0094.0054.0054.0054.0055.0054.0055.0054.0055.0055.0055.0055.0055.0055.0055.0056.0055.0056.0056.0056.0056.0056.0056.0056.0056.0057.0056.0057.0057.0057.0057.0057.0057.0057.0057.0058.0057.0058.0057.0058.0058.0058.0058.0058.0058.0058.0058.0059.0058.0059.0058.0059.0059.0059.0059.0059.0059.0059.0059.0059.0059.006.0059.006.0059.006.006.0059.006.006.006.006.006.006.006.006.0061.006.006.0061.006.0061.006.0061.0061.006.0061.0061.0061.006.0061.0061.0061.0061.0061.0061.0061.0062.0061.0061.0061.0062.0061.0061.0062.0061.0061.0062.0061.0062.0061.0062.0062.0061.0062.0061.0062.0062.0061.0062.0062.0061.0062.0062.0062.0061.0062.0062.0062.0062.0061.0062.0062.0062.0062.0061.0062.0062.0062.0062.0061.0062.0062.0062.0062.0061.0062.0062.0062.0061.0062.0062.0062.0061.0062.0062.0061.0062.0061.0062.0062.0061.0062.0061.0062.0061.0061.0062.0061.0061.0062.0061.0061.0061.0062.0061.0061.0061.0061.0061.0061.0061.0061.0061.006.0061.0061.0061.006.0061.006.0061.006.0061.006.006.0061.006.006.006.006.006.006.006.0059.006.006.0059.006.0059.006.0059.0059.006.0059.0059.0059.0059.0059.0059.0058.0059.0059.0058.0058.0059.0058.0058.0058.0058.0058.0058.0058.0058.0057.0058.0057.0058.0057.0057.0057.0057.0057.0057.0057.0056.0057.0056.0056.0057.0056.0056.0056.0056.0055.0056.0056.0055.0055.0055.0056.0055.0054.0055.0055.0054.0055.0054.0054.0054.0054.0054.0054.0054.0053.0053.0054.0053.0053.0053.0052.0053.0053.0052.0052.0052.0052.0052.0052.0052.0051.0051.0051.0052.005.0051.0051.005.0051.005.005.005.005.0049.005.0049.0049.0049.0049.0049.0049.0048.0048.0049.0048.0047.0048.0048.0047.0047.0047.0047.0047.0046.0047.0046.0046.0046.0046.0045.0045.0046.0045.0045.0044.0045.0044.0044.0044.0044.0044.0043.0044.0043.0043.0042.0043.0042.0043.0042.0041.0042.0041.0042.0041.0041.004.0041.004.004.004.004.004.0039.0039.0039.0039.0038.0038.0039.0038.0037.0038.0037.0037.0037.0037.0036.0036.0037.0035.0036.0035.0036.0035.0034.0035.0034.0034.0034.0034.0033.0034.0033.0032.0033.0032.0032.0032.0032.0031.0031.0031.0031.0031.003.003.003.0029.0029.0029.0029.0029.0028.0028.0028.0028.0027.0027.0027.0027.0026.0026.0026.0026.0025.0025.0025.0025.0024.0024.0024.0024.0023.0023.0023.0023.0022.0022.0022.0021.0021.0021.0021.0021.002.002.0019.002.0019.0018.0019.0018.0018.0018.0017.0018.0016.0017.0016.0016.0016.0016.0015.0015.0014.0015.0014.0013.0014.0013.0013.0012.0013.0012.0011.0012.0011.0011.001.001.001.001.0009.0009.0009.0008.0008.0008.0008.0007.0007.0006.0006.0006.0006.0005.0005.0005.0004.0004.0004.0003.0003.0003.0003.0002.0002.0001.0001.0001.0001c.568,0,1.0285.46051,1.0285,1.02858s-.4605,1.02857-1.0286,1.02857h-.0001-.0001-.0001-.0002-.0002-.0003-.0003-.0003-.0003-.0004-.0004-.0004-.0005-.0005-.0005-.0006-.0006-.0006-.0006-.0007-.0007-.0008-.0008-.0008-.0008-.0009-.0009-.0009-.001-.001-.001-.001-.0011-.0011-.0012-.0011-.0012-.0013-.0012-.0013-.0013-.0014-.0013-.0014-.0015-.0014-.0015-.0015-.0016-.0016-.0016-.0016-.0017-.0016-.0018-.0017-.0018-.0018-.0018-.0019-.0018-.0019-.002-.0019-.002-.002-.0021-.0021-.0021-.0021-.0021-.0022-.0022-.0022-.0023-.0023-.0023-.0023-.0024-.0024-.0024-.0024-.0025-.0025-.0025-.0025-.0026-.0026-.0026-.0026-.0027-.0027-.0027-.0027-.0028-.0028-.0028-.0028-.0029-.0029-.0029-.0029-.0029-.003-.003-.003-.0031-.0031-.0031-.0031-.0031-.0032-.0032-.0032-.0032-.0033-.0032-.0033-.0034-.0033-.0034-.0034-.0034-.0034-.0035-.0034-.0035-.0036-.0035-.0036-.0035-.0037-.0036-.0036-.0037-.0037-.0037-.0037-.0038-.0037-.0038-.0039-.0038-.0038-.0039-.0039-.0039-.0039-.004-.004-.004-.004-.004-.0041-.004-.0041-.0041-.0042-.0041-.0042-.0041-.0042-.0043-.0042-.0043-.0042-.0043-.0043-.0044-.0043-.0044-.0044-.0044-.0044-.0044-.0045-.0044-.0045-.0045-.0046-.0045-.0045-.0046-.0046-.0046-.0046-.0047-.0046-.0047-.0047-.0047-.0047-.0047-.0048-.0048-.0047-.0048-.0049-.0048-.0048-.0049-.0049-.0049-.0049-.0049-.0049-.005-.0049-.005-.005-.005-.005-.0051-.005-.0051-.0051-.005-.0052-.0051-.0051-.0051-.0052-.0052-.0052-.0052-.0052-.0052-.0052-.0053-.0053-.0052-.0053-.0053-.0053-.0054-.0053-.0053-.0054-.0054-.0054-.0054-.0054-.0054-.0054-.0055-.0054-.0055-.0055-.0054-.0055-.0056-.0055-.0055-.0055-.0056-.0056-.0055-.0056-.0056-.0056-.0056-.0057-.0011l1.2663,3.43684.693,1.881.0747.203l8.9212,1.6011c1.5793.2835,2.7288,1.6576,2.7288,3.2622v2.7177h-2.0572v-2.7177c0-.6086-.436-1.1299-1.035-1.2374l-9.4108-1.689h-.0028-.0038-.0039-.0039-.004-.0041-.0041-.0043-.0043-.0043-.0045-.0045-.0045-.0047-.0047-.0047-.0049-.0049-.005-.005-.0051-.0052-.0053-.0053-.0054-.0054-.0055-.0056-.0057-.0057-.0057-.0059-.0059-.006-.006-.0061-.0062-.0062-.0063-.0063-.0064-.0065-.0066-.0066-.0066-.0067-.0068-.0069-.0069-.007-.007-.0071-.0071-.0073-.0072-.0074-.0074-.0074-.0075-.0076-.0076-.0077-.0077-.0078-.0079-.0079-.008-.008-.0081-.0082-.0082-.0082-.0083-.0084-.0084-.0085-.0085-.0086-.0087-.0087-.0087-.0088-.0089-.0089-.009-.009-.0091-.0091-.0092-.0092-.0093-.0093-.0094-.0095-.0095-.0095-.0096-.0096-.0097-.0098-.0098-.0098-.0099-.0099-.01-.0101-.0101-.0101-.0102-.0102-.0103-.0103-.0104-.0104-.0105-.0105-.0105-.0107-.0106-.0107-.0107-.0108-.0109-.0108-.011-.0109-.0111-.011-.0111-.0112-.0111-.0113-.0112-.0114-.0113-.0114-.0115-.0114-.0116-.0115-.0116-.0117-.0117-.0117-.0118-.0118-.0118-.0119-.012-.0119-.012-.0121-.0121-.0121-.0122-.0122-.0122-.0123-.0123-.0123-.0124-.0124-.0125-.0125-.0125-.0126-.0126-.0126-.0127-.0127-.0127-.0128-.0128-.0129-.0128-.013-.0129-.013-.013-.013-.0131-.0131-.0131-.0132-.0132-.0133-.0132-.0133-.0133-.0134-.0134-.0134-.0134-.0135-.0135-.0136-.0135-.0136-.0136-.0137-.0137-.0137-.0137-.0138-.0138-.0138-.0138-.0115c1.086,1.1254,1.8815,2.5108,2.3023,4.0362.3824,1.3858.44,2.831.1808,4.226-.0698.376-.1626.7483-.2783,1.1148-.0186.0589-.0378.1177-.0576.1763-.1495.443-.6531.636-1.0809.4474-.3806-.1679-.5722-.5813-.5107-.9845.0077-.0499.0192-.0997.0347-.1488.0997-.3161.1788-.6374.237-.9619.2025-1.1296.1523-2.298-.157-3.4191-.4735-1.7163-1.5253-3.2165-2.9773-4.2468-1.4521-1.0304-3.21542-1.5276-4.99185-1.4078-1.16034.0783-2.27976.4168-3.27909.981-.28709.1621-.56428.3428-.82967.5414-.04126.0308-.08444.0581-.12905.0818-.36022.1912-.81372.1469-1.09784-.157-.3193-.3414-.30345-.8805.06531-1.1679.04878-.038.09791-.0756.14738-.1126.30776-.2302.62851-.4408.96031-.6309.13213-.0757.26601-.1481.40151-.2172l.71798-4.30788.21671-1.30026h-.63886c-.56807,0-1.02857-.46051-1.02857-1.02857ZM5.92256,11.6214c.46769-.105.94505-.1746,1.42822-.2072c1.54616-.1043,3.08412.1749,4.48172.8002h.006.0149.0149.0149.0149.015.015.0149.015.015.0151.015.0151.015.0151.0151.0151.0151.0151.0152.0151.0152.0152.0152.0152.0152.0152.0152.0153.0152.0153.0152.0153.0153.0153.0153.0153.0153.0154.0153.0154.0153.0154.0153.0154.0154.0154.0153.0154.0154.0155.0154.0154.0154.0154.0155.0154.0154.0155.0154.0155.0154.0155.0154.0155.0154.0155.0155.0154.0155.0155.0154.0155.0155.0154.0155.0155.0154.0155.0155.0154.0155.0155.0154.0155.0154.0155.0154.0155.0154.0155.0154.0154.0155.0154.0154.0154.0154.0154.0154.0154.0154.0154.0154.0154.0153.0154.0153.0154.0153.0153.0153.0154.0153.0152.0153.0153.0153.0152.0153.0152.0152.0152.0153.0151.0152.0152.0152.0151.0151.0152.0151.0151.0151.015.0151.0151.015.015.015.015.015.0149.015.0149.0149.0149.0149.0149.0148.0149.0148.0148.0148.0148.0147.0147.0148.0146.0147.0147.0146.0146.0146.0146.0146.0145.0146.0145.0144.0145.0144.0145.0144.0143.0144.0143.0143.0143.0143.0142.0142.0142.0142.0141.0142.014.0141.0141.014.014.014.0139.0139.0139.0139.0138.0138.0138.0138.0137.0137.0137.0137.0136.0136.0135.0136.0135.0135.0134.0134.0134.0134.0133.0133.0132.0133.0132.0132.0131.0131.0131.013.013.013.0129.013.0128.0129.0128.0128.0127.0127.0127.0126.0126.0126.0125.0125.0118l-.4614-1.2525L13.378,6.81386h-.0058-.0105-.0106-.0105-.0106-.0105-.0106-.0106-.0106-.0106-.0106-.0106-.0106-.0107-.0106-.0106-.0107-.0107-.0106-.0107-.0107-.0107-.0107-.0107-.0107-.0107-.0107-.0107-.0108-.0107-.0107-.0108-.0107-.0108-.0107-.0108-.0108-.0107-.0108-.0108-.0108-.0108-.0108-.0108-.0108-.0108-.0108-.0108-.0108-.0108-.0108-.0108-.0108-.0109-.0108-.0108-.0108-.0109-.0108-.0108-.0108-.0109-.0108-.0108-.0108-.0109-.0108-.0108-.0109-.0108-.0108-.0108-.0109-.0108-.0108-.0108-.0108-.0108-.0109-.0108-.0108-.0108-.0108-.0108-.0108-.0108-.0108-.0108-.0107-.0108-.0108-.0108-.0107-.0108-.0108-.0107-.0108-.0107-.0107-.0108-.0107-.0107-.0107-.0108-.0107-.0107-.0106-.0107-.0107-.0107-.0106-.0107-.0107-.0106-.0106-.0107-.0106-.0106-.0106-.0106-.0106-.0106-.0105-.0106-.0105-.0106-.0105-.0105-.0106-.0105-.0105-.0104-.0105-.0105-.0104-.0105-.0104-.0104-.0104-.0104-.0104-.0104-.0103-.0104-.0103-.0104-.0103-.0103-.0103-.0102-.0103-.0102-.0103-.0102-.0102-.0102-.0102-.0101-.0102-.0101-.0102-.0101-.0101-.01-.0101-.01-.0101-.01-.01-.01-.0099-.01-.0099-.0099-.0099-.0099-.0099-.0098-.0099-.0098-.0098-.0098-.0097-.0098-.0097-.0097-.0097-.0097-.0096-.0097-.0096-.0096-.0095-.0096-.0095-.0095-.0095-.0095-.0095-.0094-.0094-.0094-.0094-.0093-.0094-.0093-.0092-.0093-.0093-.0092-.0092-.0091-.0092-.0091-.0091-.0091-.0091-.009-.009-.009-.009-.0089-.0089-.0089-.0089-.0089-.0088-.0088-.0087-.0088-.0087-.0087-.0087-.0086-.0086-.0086-.0086-.0085-.0085-.0085-.0085-.0084-.0084-.0084-.0084-.0083-.0083-.0082-.0083-.0082-.0082-.0081-.0082-.0081-.008-.0081-.008-.008-.0079-.0079-.0079-.0079-.0078-.0078-.0078-.0077-.0077-.0077-.0076-.0077-.0075-.0076-.0075-.0075-.0075-.0074-.0074-.0073-.0074-.0073-.0072-.0073-.0072-.0071-.0071-.0071-.0071-.007-.007-.007-.0069-.0069-.0068-.0069-.0067-.0068-.0067-.0067-.0066-.0066-.0066-.0065-.0065-.0065-.0064-.0064-.0064-.0063-.0063-.0062-.0062-.0062-.0061-.0061-.006-.0061-.0059-.006-.0059-.0058-.0058-.0058-.0058-.0057-.0056-.0057-.0055-.0056-.0055-.0054-.0055-.0053-.0054-.0053-.0052-.0053-.0051-.0052-.0051-.005-.005-.005-.0049-.0049-.0048-.0048-.0048-.0047-.0046-.0047-.0045-.0046-.0045-.0044-.0044-.0044-.0043-.0042-.0043-.0041-.0042-.0041-.004-.004-.004-.0039-.0038-.0038-.0038-.0037-.0037-.0036-.0036-.0035-.0035-.0035-.0034-.0033-.0033-.0032-.0032-.0032-.0031-.003-.0031-.0029-.0029-.0029-.0028-.0027-.0027-.0027-.0026-.0026-.0025-.0024-.0024-.0024-.0023-.0023-.0022-.0021-.0021-.0021-.002-.0019-.0019-.0018-.0018-.0018-.00165-.00163-.00158-.00152-.00147-.00141-.00137-.00131-.00125-.0012-.00115-.00109-.00104-.00098-.00093-.00087-.00082-.00076-.00071-.00065-.00059-.00054-.00049-.00042-.00037-.00032-.00026-.0002-.00014-.00008-.00003-3.25005L6.45074,8.45231L5.92256,11.6214Z" transform="translate(-15.578567,-14.550522)" clip-rule="evenodd" fill="#1ac486" fill-rule="evenodd"/></g><path d="M26.6569,25.5742c1.3904,0,2.5176-1.1272,2.5176-2.5177s-1.1272-2.5176-2.5176-2.5176-2.5177,1.1272-2.5177,2.5176s1.1272,2.5177,2.5177,2.5177Zm0,1.8c2.3845,0,4.3176-1.9331,4.3176-4.3177s-1.9331-4.3176-4.3176-4.3176-4.3177,1.9331-4.3177,4.3176s1.9331,4.3177,4.3177,4.3177Z" clip-rule="evenodd" fill="#1ac486" fill-rule="evenodd"/><g id="eSMVH4GjkdI7_to" transform="translate(28.225996,18.738899)"><rect width="2.056609" height="2.676635" rx="0" ry="0" transform="scale(1,1.203917) translate(-1.028305,-1.338317)" fill="#1ac486" stroke-width="0"/></g></svg>