<svg width="124" height="124" viewBox="0 0 124 124" fill="none" xmlns="http://www.w3.org/2000/svg">
<path opacity="0.61" d="M60.2304 113.036C87.3687 113.036 109.369 91.0361 109.369 63.8979C109.369 36.7596 87.3687 14.7597 60.2304 14.7597C33.0922 14.7597 11.0923 36.7596 11.0923 63.8979C11.0923 91.0361 33.0922 113.036 60.2304 113.036Z" fill="url(#paint0_linear_1059_29315)"/>
<path d="M57.1706 15.7278L61.4126 32.2525L46.8094 41.0026L42.5747 24.4779L57.1706 15.7278Z" fill="#4EFFFC"/>
<path d="M46.8091 41.0026L34.5559 36.0141L30.3213 19.4894L42.5744 24.4779L46.8091 41.0026Z" fill="#1B6CA6"/>
<path d="M42.5744 24.4779L30.3213 19.4894L44.9245 10.7467L57.1703 15.7277L42.5744 24.4779Z" fill="#3493DC"/>
<path d="M57.1703 15.7277L44.9245 10.7467L30.3213 19.4894L34.5559 36.0141L46.8165 41.0026L61.4123 32.2525L57.1703 15.7277Z" fill="url(#paint1_linear_1059_29315)"/>
<path d="M33.4616 83.2013L37.6963 99.726L23.093 108.469L18.8584 91.944L33.4616 83.2013Z" fill="#4EFFFC"/>
<path d="M23.0937 108.469L10.8479 103.48L6.61328 86.9555L18.859 91.944L23.0937 108.469Z" fill="#1B6CA6"/>
<path d="M18.859 91.944L6.61328 86.9556L21.2165 78.2128L33.4623 83.2013L18.859 91.944Z" fill="#3493DC"/>
<path d="M113.152 80.4299L117.386 96.9546L102.783 105.697L98.5483 89.1726L113.152 80.4299Z" fill="#4EFFFC"/>
<path d="M102.783 105.697L90.5374 100.709L86.3027 84.1842L98.5485 89.1726L102.783 105.697Z" fill="#1B6CA6"/>
<path d="M98.5485 89.1726L86.3027 84.1842L100.899 75.4414L113.152 80.4299L98.5485 89.1726Z" fill="#3493DC"/>
<path d="M113.152 80.4299L100.899 75.4415L86.3032 84.1842L90.5379 100.709L102.798 105.697L117.387 96.9546L113.152 80.4299Z" fill="url(#paint2_linear_1059_29315)"/>
<path d="M70.5979 61.7769L74.8325 78.3017L60.2293 87.0444L55.9946 70.5197L70.5979 61.7769Z" fill="#4EFFFC"/>
<path d="M60.2299 87.0444L47.9842 82.0633L43.7495 65.5386L55.9952 70.5197L60.2299 87.0444Z" fill="#1B6CA6"/>
<path d="M55.9952 70.5197L43.7495 65.5386L58.3528 56.7885L70.5985 61.7769L55.9952 70.5197Z" fill="#3493DC"/>
<path d="M70.599 61.777L58.3532 56.7885L43.75 65.5386L47.9846 82.0633L60.2452 87.0444L74.8336 78.3017L70.599 61.777Z" fill="url(#paint3_linear_1059_29315)"/>
<path d="M51.9897 76.7348C51.2464 77.38 50.4334 77.9402 49.5657 78.405C48.0211 79.3657 45.8705 80.6221 43.4761 82.041C41.0816 83.4599 38.8941 84.6498 37.2904 85.5071C36.4559 86.0325 35.563 86.4591 34.6299 86.7782C35.3751 86.132 36.1907 85.5717 37.0613 85.108C38.5985 84.1472 40.7564 82.8909 43.1509 81.472C45.5454 80.053 47.7329 78.8632 49.3292 78.0059C50.1655 77.4836 51.0579 77.0571 51.9897 76.7348Z" fill="#7D9EEB"/>
<path d="M57.1778 64.5703C56.6866 63.3549 56.3033 62.0987 56.0323 60.8161C55.3819 58.5029 54.5912 55.229 53.7265 51.6373C52.8618 48.0456 52.1154 44.7791 51.6055 42.4068C51.2753 41.1423 51.0552 39.8516 50.9478 38.5491C51.4331 39.7684 51.8139 41.0269 52.0859 42.3108C52.714 44.6535 53.5639 47.8978 54.3916 51.4895C55.2194 55.0812 55.9732 58.3403 56.4831 60.72C56.8174 61.9828 57.0497 63.2704 57.1778 64.5703Z" fill="#7D9EEB"/>
<path d="M87.1971 83.6299C86.0718 83.3631 84.9753 82.9869 83.9232 82.5066C81.9352 81.7676 79.2082 80.6294 76.2077 79.3731C73.2072 78.1167 70.5098 76.9786 68.5735 76.0844C67.4944 75.6719 66.4595 75.1519 65.4844 74.5324C66.6054 74.8059 67.6988 75.1819 68.7509 75.6558C70.7389 76.3948 73.4659 77.5329 76.4664 78.7893C79.4668 80.0456 82.1643 81.2207 84.1006 82.1001C85.1781 82.5126 86.2148 83.0247 87.1971 83.6299Z" fill="#7D9EEB"/>
<path d="M66.0608 74.5327C66.0608 74.6599 66.0231 74.7842 65.9525 74.8899C65.8818 74.9957 65.7814 75.0781 65.6639 75.1267C65.5464 75.1754 65.4171 75.1881 65.2924 75.1633C65.1677 75.1385 65.0531 75.0773 64.9632 74.9874C64.8733 74.8975 64.8121 74.7829 64.7873 74.6582C64.7624 74.5334 64.7752 74.4042 64.8238 74.2867C64.8725 74.1692 64.9549 74.0688 65.0607 73.9981C65.1664 73.9275 65.2907 73.8898 65.4179 73.8898C65.5884 73.8898 65.7519 73.9575 65.8725 74.0781C65.9931 74.1987 66.0608 74.3622 66.0608 74.5327Z" fill="#7D9EEB"/>
<path d="M57.8137 64.5705C57.8152 64.6983 57.7785 64.8236 57.7084 64.9304C57.6384 65.0373 57.538 65.1208 57.4202 65.1704C57.3024 65.22 57.1726 65.2334 57.0472 65.2088C56.9218 65.1842 56.8065 65.1228 56.7161 65.0325C56.6258 64.9421 56.5644 64.8269 56.5398 64.7015C56.5153 64.576 56.5286 64.4462 56.5782 64.3284C56.6278 64.2106 56.7113 64.1103 56.8182 64.0402C56.925 63.9701 57.0504 63.9334 57.1781 63.9349C57.3461 63.9368 57.5067 64.0044 57.6254 64.1232C57.7442 64.242 57.8118 64.4025 57.8137 64.5705Z" fill="#7D9EEB"/>
<path d="M52.6331 76.7347C52.6331 76.8618 52.5954 76.9861 52.5247 77.0919C52.4541 77.1976 52.3537 77.28 52.2362 77.3287C52.1187 77.3773 51.9894 77.3901 51.8647 77.3653C51.74 77.3405 51.6254 77.2792 51.5355 77.1893C51.4456 77.0994 51.3843 76.9848 51.3595 76.8601C51.3347 76.7354 51.3474 76.6061 51.3961 76.4886C51.4448 76.3711 51.5272 76.2707 51.6329 76.2001C51.7387 76.1294 51.863 76.0917 51.9901 76.0917C52.1606 76.0917 52.3242 76.1594 52.4448 76.28C52.5653 76.4006 52.6331 76.5641 52.6331 76.7347Z" fill="#7D9EEB"/>
<defs>
<linearGradient id="paint0_linear_1059_29315" x1="-10.7313" y1="13.7768" x2="130.18" y2="113.295" gradientUnits="userSpaceOnUse">
<stop stop-color="#3F95DD"/>
<stop offset="1" stop-color="#7396FF" stop-opacity="0"/>
</linearGradient>
<linearGradient id="paint1_linear_1059_29315" x1="62.6701" y1="16.0059" x2="37.3719" y2="31.0433" gradientUnits="userSpaceOnUse">
<stop stop-color="#3FFF9F"/>
<stop offset="1" stop-color="#7396FF" stop-opacity="0"/>
</linearGradient>
<linearGradient id="paint2_linear_1059_29315" x1="4351.29" y1="2511.95" x2="3370.63" y2="3240.54" gradientUnits="userSpaceOnUse">
<stop stop-color="#3FFF9F"/>
<stop offset="1" stop-color="#7396FF" stop-opacity="0"/>
</linearGradient>
<linearGradient id="paint3_linear_1059_29315" x1="2456.15" y1="1888.18" x2="1475.48" y2="2616.46" gradientUnits="userSpaceOnUse">
<stop stop-color="#3FFF9F"/>
<stop offset="1" stop-color="#7396FF" stop-opacity="0"/>
</linearGradient>
</defs>
</svg>
