<svg width="76" height="76" viewBox="0 0 76 76" fill="none" xmlns="http://www.w3.org/2000/svg">
<path d="M0 12C0 5.37258 5.37258 0 12 0H64C70.6274 0 76 5.37258 76 12V64C76 70.6274 70.6274 76 64 76H12C5.37258 76 0 70.6274 0 64V12Z" fill="url(#paint0_linear_2845_64478)"/>
<path d="M2 12C2 6.47715 6.47715 2 12 2H64C69.5228 2 74 6.47715 74 12V64C74 69.5229 69.5228 74 64 74H12C6.47715 74 2 69.5229 2 64V12Z" fill="url(#paint1_linear_2845_64478)"/>
<path d="M28.1429 15C30.3214 15 32.4108 15.8654 33.9512 17.4059C35.4917 18.9464 36.3571 21.0357 36.3571 23.2143C36.3571 25.3928 35.4917 27.4822 33.9512 29.0227C32.4108 30.5631 30.3214 31.4286 28.1429 31.4286C25.9643 31.4286 23.875 30.5631 22.3345 29.0227C20.794 27.4822 19.9286 25.3928 19.9286 23.2143C19.9286 21.0357 20.794 18.9464 22.3345 17.4059C23.875 15.8654 25.9643 15 28.1429 15ZM39.7579 29.329C38.9162 28.4234 38.3471 27.2987 38.116 26.0842C37.8848 24.8696 38.001 23.6145 38.4511 22.4631C38.9012 21.3116 39.667 20.3104 40.6605 19.5746C41.6541 18.8388 42.835 18.3982 44.0677 18.3034C45.3004 18.2086 46.5348 18.4635 47.6291 19.0387C48.7235 19.614 49.6334 20.4863 50.2542 21.5554C50.8751 22.6245 51.1818 23.8471 51.139 25.0827C51.0963 26.3183 50.7058 27.5168 50.0126 28.5404C46.5898 27.8087 43.0285 28.0825 39.7579 29.329ZM28.823 51.1429H28.34C19.7511 51.1429 15 48.1791 15 42.1926V39.6429C15 38.3357 15.5193 37.0821 16.4435 36.1578C17.3678 35.2335 18.6214 34.7143 19.9286 34.7143H32.273C29.5974 37.9487 28.1365 42.0166 28.1429 46.2143C28.1429 47.9229 28.3794 49.5756 28.823 51.1429ZM46.2143 61C50.1357 61 53.8965 59.4422 56.6694 56.6694C59.4422 53.8965 61 50.1357 61 46.2143C61 42.2929 59.4422 38.5321 56.6694 35.7592C53.8965 32.9863 50.1357 31.4286 46.2143 31.4286C42.2929 31.4286 38.5321 32.9863 35.7592 35.7592C32.9863 38.5321 31.4286 42.2929 31.4286 46.2143C31.4286 50.1357 32.9863 53.8965 35.7592 56.6694C38.5321 59.4422 42.2929 61 46.2143 61ZM53.9489 42.4489L44.0917 52.306C43.9391 52.459 43.7578 52.5804 43.5582 52.6632C43.3586 52.746 43.1447 52.7887 42.9286 52.7887C42.7125 52.7887 42.4985 52.746 42.2989 52.6632C42.0993 52.5804 41.918 52.459 41.7654 52.306L38.4797 49.0203C38.1712 48.7118 37.9979 48.2934 37.9979 47.8571C37.9979 47.4209 38.1712 47.0025 38.4797 46.694C38.7882 46.3855 39.2066 46.2122 39.6429 46.2122C40.0791 46.2122 40.4975 46.3855 40.806 46.694L42.9286 48.8199L51.6226 40.1226C51.9311 39.8141 52.3495 39.6408 52.7857 39.6408C53.222 39.6408 53.6404 39.8141 53.9489 40.1226C54.2573 40.4311 54.4306 40.8495 54.4306 41.2857C54.4306 41.722 54.2573 42.1404 53.9489 42.4489Z" fill="#69FFC8"/>
<defs>
<linearGradient id="paint0_linear_2845_64478" x1="38" y1="0" x2="38" y2="76" gradientUnits="userSpaceOnUse">
<stop stop-color="#4DFFBE"/>
<stop offset="1" stop-color="#466D85"/>
</linearGradient>
<linearGradient id="paint1_linear_2845_64478" x1="38" y1="2" x2="38" y2="74" gradientUnits="userSpaceOnUse">
<stop stop-color="#2E4858"/>
<stop offset="1" stop-color="#2E4858" stop-opacity="0"/>
</linearGradient>
</defs>
</svg>
