<svg width="124" height="124" viewBox="0 0 124 124" fill="none" xmlns="http://www.w3.org/2000/svg">
<path opacity="0.36" d="M61.9917 117.37C92.5763 117.37 117.37 92.5764 117.37 61.9917C117.37 31.4071 92.5763 6.61334 61.9917 6.61334C31.407 6.61334 6.61328 31.4071 6.61328 61.9917C6.61328 92.5764 31.407 117.37 61.9917 117.37Z" fill="url(#paint0_linear_1059_29343)"/>
<path d="M102.337 72.6277L113.589 42.6439L100.196 56.8029C99.0217 42.0109 88.2276 27.4521 71.5033 20.3393C71.8907 19.4156 71.9866 18.3956 71.7781 17.4158C70.8453 13.4263 44.0181 14.5424 44.0181 14.5424L40.2285 17.5491C45.1054 17.8794 49.892 19.0281 54.3875 20.9473C71.1535 28.0351 80.9065 43.9598 78.4828 58.6102L62.9412 45.0009L77.0253 73.8104L91.0844 102.611L102.337 72.6277Z" fill="url(#paint1_linear_1059_29343)"/>
<path d="M94.8737 99.6214L91.084 102.628L62.9409 45.0009L66.7222 42.0025L94.8737 99.6214Z" fill="url(#paint2_linear_1059_29343)"/>
<path d="M117.37 39.5705L113.589 42.5772L103.894 52.8134L102.986 54.4125L103.977 53.7129L117.37 39.5705Z" fill="url(#paint3_linear_1059_29343)"/>
<path d="M58.1438 17.8573C74.9097 24.9534 84.6628 40.8781 82.2474 55.5202L66.7225 42.0025L80.7982 70.812L94.8739 99.6214L106.126 69.6376L117.37 39.6538L103.977 53.8128C102.845 38.8959 91.9671 24.3204 75.1846 17.2076C65.3698 12.9316 54.4297 11.9668 44.0181 14.4591C48.8824 14.8013 53.656 15.9496 58.1438 17.8573Z" fill="url(#paint4_linear_1059_29343)"/>
<path d="M23.887 51.3808L12.6348 81.4063L26.0359 67.2472C27.2102 82.0309 38.0044 96.5897 54.7287 103.711C54.3372 104.631 54.2411 105.649 54.4538 106.626C55.3867 110.624 82.2138 109.499 82.2138 109.499L85.9951 106.493C81.1193 106.161 76.3334 105.015 71.8361 103.103C55.0951 96.0233 45.3754 80.1236 47.7658 65.4482L63.2907 78.9742L49.215 50.1398L35.1393 21.3554L23.887 51.3808Z" fill="url(#paint5_linear_1059_29343)"/>
<path d="M31.3584 24.3538L35.1397 21.3554L63.2911 78.9742L59.5015 81.9726L31.3584 24.3538Z" fill="url(#paint6_linear_1059_29343)"/>
<path d="M8.85352 84.4046L12.6348 81.4062L22.3379 71.1701L23.2374 69.5627L22.2463 70.2623L8.85352 84.4046Z" fill="url(#paint7_linear_1059_29343)"/>
<path d="M68.0798 106.118C51.3139 99.0217 41.5692 83.1053 43.9845 68.4632L59.5344 81.9726L45.4337 53.1632L31.358 24.3204L20.1058 54.3792L8.85352 84.4046L22.2463 70.2456C23.429 85.1209 34.2565 99.6714 51.039 106.776C60.8568 111.052 71.7994 112.017 82.2139 109.524C77.3457 109.184 72.5687 108.032 68.0798 106.118Z" fill="url(#paint8_linear_1059_29343)"/>
<defs>
<linearGradient id="paint0_linear_1059_29343" x1="-67.6133" y1="-46.1665" x2="177.254" y2="158.165" gradientUnits="userSpaceOnUse">
<stop offset="0.44" stop-color="#8D9BEB"/>
<stop offset="0.78" stop-color="#D6EDFF" stop-opacity="0"/>
</linearGradient>
<linearGradient id="paint1_linear_1059_29343" x1="41.0655" y1="-3.26737" x2="144.748" y2="125.73" gradientUnits="userSpaceOnUse">
<stop offset="0.03" stop-color="#4FFFBE"/>
<stop offset="0.43" stop-color="#3C9BBA"/>
</linearGradient>
<linearGradient id="paint2_linear_1059_29343" x1="56.2707" y1="30.0241" x2="109.517" y2="130.626" gradientUnits="userSpaceOnUse">
<stop offset="0.03" stop-color="#9EFFFC"/>
<stop offset="0.49" stop-color="#3C9BBA"/>
</linearGradient>
<linearGradient id="paint3_linear_1059_29343" x1="87.0212" y1="66.8749" x2="151.524" y2="11.433" gradientUnits="userSpaceOnUse">
<stop offset="0.12" stop-color="#4FFFBE"/>
<stop offset="0.43" stop-color="#3C9BBA"/>
</linearGradient>
<linearGradient id="paint4_linear_1059_29343" x1="-85844.6" y1="244740" x2="-109141" y2="255544" gradientUnits="userSpaceOnUse">
<stop offset="0.03" stop-color="#4FFFBE"/>
<stop offset="0.43" stop-color="#3C9BBA"/>
</linearGradient>
<linearGradient id="paint5_linear_1059_29343" x1="84.8413" y1="127.259" x2="-18.8405" y2="-1.74704" gradientUnits="userSpaceOnUse">
<stop offset="0.03" stop-color="#D6EDFF"/>
<stop offset="0.43" stop-color="#8D9BEB"/>
</linearGradient>
<linearGradient id="paint6_linear_1059_29343" x1="69.6372" y1="93.9588" x2="16.3913" y2="-6.64335" gradientUnits="userSpaceOnUse">
<stop offset="0.03" stop-color="#D6EDFF"/>
<stop offset="0.49" stop-color="#8D9BEB"/>
</linearGradient>
<linearGradient id="paint7_linear_1059_29343" x1="38.894" y1="57.1173" x2="-25.6168" y2="112.558" gradientUnits="userSpaceOnUse">
<stop offset="0.12" stop-color="#D6EDFF"/>
<stop offset="0.43" stop-color="#8D9BEB"/>
</linearGradient>
<linearGradient id="paint8_linear_1059_29343" x1="200081" y1="96537.8" x2="176779" y2="107341" gradientUnits="userSpaceOnUse">
<stop offset="0.03" stop-color="#D6EDFF"/>
<stop offset="0.43" stop-color="#8D9BEB"/>
</linearGradient>
</defs>
</svg>
