<svg width="195" height="150" viewBox="0 0 195 150" fill="none" xmlns="http://www.w3.org/2000/svg">
<path d="M59.1992 47.5973C60.4704 48.2594 62.1799 47.9504 63.3196 47.0677C64.547 46.1408 65.2703 44.7283 65.8182 43.3379C67.5936 38.8358 67.8347 33.3184 64.6566 29.5224C62.706 27.1831 59.6813 25.8148 56.6129 25.4396C54.0485 25.1306 51.3965 25.5058 49.1171 26.6534C45.5665 28.4631 43.2871 32.1266 42.5419 35.9226C41.7967 39.7406 42.4103 43.691 43.5501 47.4429C47.1664 59.4045 55.78 69.5123 65.6648 77.6559C67.1771 78.9139 68.8867 80.547 68.4703 82.4009C68.2511 83.3278 67.5059 84.0561 66.9799 84.8727C66.4539 85.6892 66.1908 86.8368 66.8703 87.5651C67.5278 88.2493 70.6839 85.8879 71.1223 85.4465C72.262 84.3209 73.314 82.6657 72.9195 81.0988C72.0428 77.5897 68.0977 74.6986 65.4895 72.3593C57.8841 65.584 51.1335 57.5727 47.9336 48.1491C46.9034 45.1256 46.2678 41.9034 46.7062 38.7475C47.1665 35.6136 48.8541 32.546 51.6595 30.8908C54.465 29.2576 58.454 29.3459 60.8868 31.5308C63.1224 33.5391 63.6484 36.8274 62.969 39.6744C62.2895 42.5214 60.6019 45.0152 58.9142 47.4208C59.0238 47.5091 59.1115 47.5532 59.1992 47.5973Z" fill="#FCC734"/>
<path d="M45.2158 39.2344C45.698 61.2377 65.0511 72.14 65.4676 72.3828C57.8841 65.6074 51.1116 57.5962 47.9336 48.1726C46.9035 45.1491 46.2679 41.9269 46.7062 38.771C47.1665 35.6371 48.8541 32.5695 51.6596 30.9143C54.465 29.2811 58.454 29.3694 60.8868 31.5543C57.4458 28.0011 52.4924 29.2811 52.4924 29.2811C45.8733 31.466 45.2158 39.2344 45.2158 39.2344Z" fill="#FB9F29"/>
<mask id="mask0_11173_9509" style="mask-type:alpha" maskUnits="userSpaceOnUse" x="155" y="70" width="26" height="27">
<path d="M155.921 71.3759C155.833 71.3538 155.811 71.5083 155.768 71.3538C155.965 71.0889 156.754 70.3386 157.126 70.3827C157.631 70.4489 158.573 71.5524 158.946 71.9055C160.546 73.3621 162.189 74.7745 163.811 76.2091C168.282 80.1374 172.71 84.1541 177.203 88.0383C178.211 88.899 179.351 89.7376 180.293 90.7087C180.775 91.2163 180.841 91.0839 180.512 91.6356C179.241 93.9087 176.151 94.4384 174.989 96.9102C172.556 93.9529 170.343 90.6645 168.019 87.5969C164.995 83.5802 161.883 79.6077 158.836 75.5911C157.784 74.1787 156.863 72.8104 155.921 71.3759Z" fill="url(#paint0_linear_11173_9509)"/>
</mask>
<g mask="url(#mask0_11173_9509)">
<path opacity="0.48" d="M155.921 71.3759C155.833 71.3538 155.811 71.5083 155.768 71.3538C155.965 71.0889 156.754 70.3386 157.126 70.3827C157.631 70.4489 158.573 71.5524 158.946 71.9055C160.546 73.3621 162.189 74.7745 163.811 76.2091C168.282 80.1374 172.71 84.1541 177.203 88.0383C178.211 88.899 179.351 89.7376 180.293 90.7087C180.775 91.2163 180.841 91.0839 180.512 91.6356C179.241 93.9087 176.151 94.4384 174.989 96.9102C172.556 93.9529 170.343 90.6645 168.019 87.5969C164.995 83.5802 161.883 79.6077 158.836 75.5911C157.784 74.1787 156.863 72.8104 155.921 71.3759Z" fill="url(#paint1_linear_11173_9509)"/>
</g>
<mask id="mask1_11173_9509" style="mask-type:alpha" maskUnits="userSpaceOnUse" x="163" y="61" width="32" height="13">
<path d="M163.351 63.1214C163.264 63.1435 163.351 63.298 163.198 63.1877C163.22 62.8345 163.439 61.7752 163.768 61.6207C164.228 61.378 165.609 61.7752 166.113 61.8414C168.261 62.1283 170.387 62.349 172.535 62.5918C178.43 63.2539 184.326 64.0263 190.222 64.6442C191.537 64.7767 192.962 64.8208 194.255 65.0636C194.934 65.196 194.912 65.0636 194.956 65.7036C195.197 68.3078 192.962 70.4927 193.378 73.2072C189.718 72.1699 186.036 70.7354 182.397 69.5437C177.641 67.9767 172.841 66.476 168.063 64.9311C166.463 64.3353 164.929 63.7394 163.351 63.1214Z" fill="url(#paint2_linear_11173_9509)"/>
</mask>
<g mask="url(#mask1_11173_9509)">
<path opacity="0.48" d="M163.351 63.1214C163.264 63.1435 163.351 63.298 163.198 63.1877C163.22 62.8345 163.439 61.7752 163.768 61.6207C164.228 61.378 165.609 61.7752 166.113 61.8414C168.261 62.1283 170.387 62.349 172.535 62.5918C178.43 63.2539 184.326 64.0263 190.222 64.6442C191.537 64.7767 192.962 64.8208 194.255 65.0636C194.934 65.196 194.912 65.0636 194.956 65.7036C195.197 68.3078 192.962 70.4927 193.378 73.2072C189.718 72.1699 186.036 70.7354 182.397 69.5437C177.641 67.9767 172.841 66.476 168.063 64.9311C166.463 64.3353 164.929 63.7394 163.351 63.1214Z" fill="url(#paint3_linear_11173_9509)"/>
</g>
<mask id="mask2_11173_9509" style="mask-type:alpha" maskUnits="userSpaceOnUse" x="163" y="40" width="32" height="15">
<path d="M163.482 54.0952C163.417 54.1614 163.57 54.2497 163.395 54.2276C163.241 53.9187 162.913 52.8814 163.11 52.5724C163.373 52.131 164.798 51.7779 165.258 51.5793C167.252 50.7627 169.225 49.88 171.219 49.0413C176.677 46.6799 182.178 44.4288 187.614 42.0232C188.819 41.4936 190.068 40.8094 191.34 40.3901C191.997 40.1694 191.909 40.059 192.26 40.5887C193.751 42.7295 192.874 45.753 194.561 47.8937C190.857 48.8206 186.956 49.3944 183.208 50.1669C178.299 51.1821 173.389 52.2635 168.48 53.2787C166.77 53.6097 165.17 53.8525 163.482 54.0952Z" fill="url(#paint4_linear_11173_9509)"/>
</mask>
<g mask="url(#mask2_11173_9509)">
<path opacity="0.48" d="M163.482 54.0952C163.417 54.1614 163.57 54.2497 163.395 54.2276C163.241 53.9187 162.913 52.8814 163.11 52.5724C163.373 52.131 164.798 51.7779 165.258 51.5793C167.252 50.7627 169.225 49.88 171.219 49.0413C176.677 46.6799 182.178 44.4288 187.614 42.0232C188.819 41.4936 190.068 40.8094 191.34 40.3901C191.997 40.1694 191.909 40.059 192.26 40.5887C193.751 42.7295 192.874 45.753 194.561 47.8937C190.857 48.8206 186.956 49.3944 183.208 50.1669C178.299 51.1821 173.389 52.2635 168.48 53.2787C166.77 53.6097 165.17 53.8525 163.482 54.0952Z" fill="url(#paint5_linear_11173_9509)"/>
</g>
<mask id="mask3_11173_9509" style="mask-type:alpha" maskUnits="userSpaceOnUse" x="5" y="50" width="31" height="19">
<path d="M35.7475 51.7573C35.8352 51.7573 35.7913 51.9339 35.9009 51.7794C35.8133 51.4484 35.3311 50.4773 34.9585 50.389C34.4544 50.2566 33.2051 50.9849 32.7229 51.1835C30.7065 51.978 28.6901 52.7284 26.6737 53.5008C21.1066 55.5974 15.5834 57.8044 10.0164 59.8568C8.78898 60.3203 7.40818 60.6955 6.20272 61.2693C5.56711 61.5782 5.56711 61.4238 5.6767 62.0638C6.07121 64.6459 8.78898 66.2349 9.03008 68.9495C12.3396 67.0515 15.5615 64.7342 18.7834 62.6817C23.0134 59.9892 27.3093 57.363 31.5613 54.6705C33.0297 53.7215 34.3667 52.7505 35.7475 51.7573Z" fill="url(#paint6_linear_11173_9509)"/>
</mask>
<g mask="url(#mask3_11173_9509)">
<path opacity="0.48" d="M35.7475 51.7573C35.8352 51.7573 35.7913 51.9339 35.9009 51.7794C35.8133 51.4484 35.3311 50.4773 34.9585 50.389C34.4544 50.2566 33.2051 50.9849 32.7229 51.1835C30.7065 51.978 28.6901 52.7284 26.6737 53.5008C21.1066 55.5974 15.5834 57.8044 10.0164 59.8568C8.78898 60.3203 7.40818 60.6955 6.20272 61.2693C5.56711 61.5782 5.56711 61.4238 5.6767 62.0638C6.07121 64.6459 8.78898 66.2349 9.03008 68.9495C12.3396 67.0515 15.5615 64.7342 18.7834 62.6817C23.0134 59.9892 27.3093 57.363 31.5613 54.6705C33.0297 53.7215 34.3667 52.7505 35.7475 51.7573Z" fill="url(#paint7_linear_11173_9509)"/>
</g>
<mask id="mask4_11173_9509" style="mask-type:alpha" maskUnits="userSpaceOnUse" x="0" y="32" width="32" height="10">
<path d="M31.6708 41.4054C31.7365 41.4716 31.627 41.5819 31.7804 41.5157C31.89 41.1847 32.0434 40.1253 31.8023 39.8384C31.4735 39.4412 30.027 39.3308 29.5229 39.1984C27.4188 38.7129 25.3366 38.1612 23.2326 37.6315C17.4682 36.1749 11.682 34.8066 5.93964 33.3059C4.66843 32.9749 3.30954 32.4893 2.01641 32.2686C1.31505 32.1583 1.40272 32.0259 1.13971 32.5997C0 34.9832 1.33697 37.8301 0 40.2136C3.79173 40.5447 7.73688 40.5005 11.5724 40.655C16.5915 40.8757 21.5887 41.1626 26.6078 41.3833C28.3174 41.4495 29.9612 41.4274 31.6708 41.4054Z" fill="url(#paint8_linear_11173_9509)"/>
</mask>
<g mask="url(#mask4_11173_9509)">
<path opacity="0.48" d="M31.6708 41.4054C31.7365 41.4716 31.627 41.5819 31.7804 41.5157C31.89 41.1847 32.0434 40.1253 31.8023 39.8384C31.4735 39.4412 30.027 39.3308 29.5229 39.1984C27.4188 38.7129 25.3366 38.1612 23.2326 37.6315C17.4682 36.1749 11.682 34.8066 5.93964 33.3059C4.66843 32.9749 3.30954 32.4893 2.01641 32.2686C1.31505 32.1583 1.40272 32.0259 1.13971 32.5997C0 34.9832 1.33697 37.8301 0 40.2136C3.79173 40.5447 7.73688 40.5005 11.5724 40.655C16.5915 40.8757 21.5887 41.1626 26.6078 41.3833C28.3174 41.4495 29.9612 41.4274 31.6708 41.4054Z" fill="url(#paint9_linear_11173_9509)"/>
</g>
<mask id="mask5_11173_9509" style="mask-type:alpha" maskUnits="userSpaceOnUse" x="7" y="9" width="29" height="25">
<path d="M34.6734 32.9095C34.7173 32.9978 34.5419 33.0199 34.7173 33.064C34.9803 32.8213 35.6378 31.9826 35.5501 31.6074C35.4405 31.0998 34.257 30.2833 33.8844 29.9302C32.2844 28.4515 30.7502 26.9508 29.194 25.4501C24.8982 21.3231 20.5366 17.2623 16.2846 13.0912C15.3422 12.1642 14.3997 11.0828 13.3696 10.2442C12.8217 9.80281 12.9532 9.7366 12.4272 10.0897C10.3012 11.5904 10.0601 14.7243 7.73682 16.1147C10.871 18.2995 14.334 20.1975 17.5778 22.25C21.8298 24.9204 26.0379 27.6791 30.2899 30.3495C31.7584 31.2764 33.183 32.0709 34.6734 32.9095Z" fill="url(#paint10_linear_11173_9509)"/>
</mask>
<g mask="url(#mask5_11173_9509)">
<path opacity="0.48" d="M34.6734 32.9095C34.7173 32.9978 34.5419 33.0199 34.7173 33.064C34.9803 32.8213 35.6378 31.9826 35.5501 31.6074C35.4405 31.0998 34.257 30.2833 33.8844 29.9302C32.2844 28.4515 30.7502 26.9508 29.194 25.4501C24.8982 21.3231 20.5366 17.2623 16.2846 13.0912C15.3422 12.1642 14.3997 11.0828 13.3696 10.2442C12.8217 9.80281 12.9532 9.7366 12.4272 10.0897C10.3012 11.5904 10.0601 14.7243 7.73682 16.1147C10.871 18.2995 14.334 20.1975 17.5778 22.25C21.8298 24.9204 26.0379 27.6791 30.2899 30.3495C31.7584 31.2764 33.183 32.0709 34.6734 32.9095Z" fill="url(#paint11_linear_11173_9509)"/>
</g>
<path d="M116.689 143.952L47.2761 133.866L49.3583 131.35C69.6539 125.414 77.851 112.591 81.1167 104.337C82.3003 101.314 82.8263 98.9083 83.0455 97.6724C83.0893 97.3634 83.1332 97.0545 83.177 96.7676L92.6673 98.158C92.6673 98.158 92.6234 98.6214 92.5138 99.3938C92.3823 100.718 92.2508 103.035 92.5358 106.015C93.3467 114.865 97.5987 129.497 115.418 140.951L116.689 143.952Z" fill="#FCC734"/>
<path d="M116.689 143.954L97.6424 141.195L96.5684 137.708C82.9796 126.254 87.4069 99.5944 87.4069 99.5944L87.7357 97.4316L92.6671 98.1599C92.6671 98.1599 92.6233 98.6234 92.5137 99.3958C92.3822 100.72 92.2507 103.037 92.5356 106.017C93.3466 114.867 97.5985 129.499 115.417 140.953L116.689 143.954Z" fill="#FDBA15"/>
<path d="M92.5358 105.993C90.629 106.544 88.6125 107.008 86.5304 107.339C84.6236 106.412 82.8263 105.419 81.1387 104.337C82.3222 101.314 82.8482 98.9083 83.0674 97.6724C83.1112 97.3634 83.1551 97.0545 83.1989 96.7676L92.6892 98.158C92.6892 98.158 92.6454 98.6214 92.5358 99.3938C92.3824 100.696 92.2728 103.013 92.5358 105.993Z" fill="#FB9F29"/>
<path d="M87.451 103.126C81.8401 100.499 77.2813 97.1227 73.5772 93.2164C48.7008 67.1744 62.1144 18.2906 62.1144 18.2906C62.1144 18.2906 62.3116 18.2685 62.6623 18.2243C75.5717 16.7898 88.0866 17.5181 98.9358 19.0851C105.095 19.9016 111.67 21.1154 118.42 22.9031C121.949 23.83 125.5 24.9335 129.072 26.1914C130.76 26.7873 132.448 27.4273 134.113 28.1115C134.442 28.2439 134.617 28.3101 134.617 28.3101C134.617 28.3101 134.333 95.2909 87.451 103.126Z" fill="#FCC734"/>
<path d="M65.7964 20.8278C65.7964 20.8278 55.0788 68.5861 73.7525 88.4927C73.7525 88.4927 63.4074 41.4406 86.1578 21.0264C86.1578 21.0485 77.8949 18.687 65.7964 20.8278Z" fill="#FBE4A1"/>
<path d="M81.6863 107.297C81.6863 107.297 76.5357 127.226 64.9632 132.257L56.1743 130.977C56.1743 130.977 76.1412 124.997 81.6863 107.297Z" fill="#FBE4A1"/>
<path d="M56.0548 131.824L55.6978 134.314L64.2226 135.554L64.5796 133.064L56.0548 131.824Z" fill="#FBE4A1"/>
<path d="M47.2756 133.874L46.4111 139.902L115.825 149.994L116.689 143.966L47.2756 133.874Z" fill="#FB9F29"/>
<path d="M87.4509 103.125C81.84 100.499 77.2812 97.1219 73.5771 93.2156C81.6647 97.6075 88.1961 97.6737 88.1961 97.6737C112.042 90.148 117.303 40.1165 118.42 22.9023C121.949 23.8293 125.5 24.9327 129.072 26.1907C130.76 26.7866 132.448 27.4266 134.113 28.1107C134.442 28.2432 134.617 28.3094 134.617 28.3094C134.617 28.3094 134.332 95.2902 87.4509 103.125Z" fill="#FDBA15"/>
<path d="M151.844 62.6269C146.299 70.4616 138.277 76.1555 129.291 80.2825C125.675 81.9377 121.905 83.3502 118.069 84.5419C116.009 85.1819 113.62 86.1309 113.51 88.2937C113.445 89.3751 114.015 90.4786 114.321 91.56C114.628 92.6635 114.541 93.9877 113.576 94.429C112.634 94.8704 109.96 90.9421 109.631 90.3241C108.754 88.6248 108.141 86.4178 109.083 84.9392C111.187 81.6288 116.404 80.3487 119.998 79.0687C130.453 75.339 140.381 69.9099 146.891 61.4131C148.995 58.6765 150.726 55.5868 151.23 52.0557C151.735 48.5466 150.902 44.5521 148.359 41.5727C145.817 38.5933 141.455 36.8939 138.102 38.1078C135.012 39.2333 133.39 42.4555 133.214 45.7438C133.039 49.0322 134.069 52.4088 135.143 55.7192C135.033 55.7413 134.924 55.7633 134.814 55.7633C133.214 55.8958 131.461 54.7923 130.497 53.3798C129.444 51.857 129.116 50.0473 128.962 48.3259C128.48 42.7865 129.992 36.8719 134.661 34.2677C137.532 32.6787 141.258 32.5683 144.743 33.5615C147.636 34.378 150.42 35.967 152.502 38.196C155.789 41.7051 157.082 46.5604 156.688 50.9081C156.25 55.2999 154.277 59.1841 151.844 62.6269Z" fill="#FBCA4F"/>
<path d="M152.699 53.2262C145.094 76.2005 120.502 79.0254 119.976 79.0916C130.431 75.3619 140.359 69.9328 146.869 61.4361C148.973 58.6994 150.704 55.6097 151.208 52.0786C151.713 48.5696 150.88 44.575 148.337 41.5956C145.795 38.6162 141.433 36.9169 138.08 38.1307C142.968 35.9238 147.965 39.4769 147.965 39.4769C154.496 44.7736 152.699 53.2262 152.699 53.2262Z" fill="#FB9F29"/>
<path d="M97.6486 141.2L96.7842 147.229L115.83 149.997L116.694 143.969L97.6486 141.2Z" fill="#F88D10"/>
<path opacity="0.12" d="M100.93 39.6073C100.843 39.6073 100.843 39.6073 100.755 39.6073C100.755 39.6073 100.755 39.6073 100.667 39.6073C100.667 39.6073 100.667 39.6073 100.579 39.6073H100.492C100.404 39.6073 100.316 39.6073 100.229 39.6073L83.1113 37.908C81.4675 37.7535 79.9113 38.9453 79.6702 40.6225C79.4291 42.3219 80.5031 43.7785 82.1469 43.955L99.2645 45.6544C99.3521 45.6544 99.4398 45.6544 99.5275 45.6544C99.6151 45.6544 99.7028 45.6544 99.7905 45.6544C103.012 45.9634 105.204 48.9207 104.744 52.2973C104.262 55.6739 101.149 58.0574 97.8617 57.7484L91.944 57.1526L92.4262 54.129L98.3439 54.7249C99.9877 54.8794 101.544 53.6877 101.785 52.0104C102.026 50.311 100.952 48.8544 99.3083 48.6779L90.5194 47.773L85.6537 47.3096C84.0099 47.1551 82.4537 48.3468 82.2127 50.0241C81.9716 51.7235 83.0455 53.1801 84.6893 53.3566L86.6838 53.5332L86.2016 56.5567L85.2373 62.6037L84.0756 69.6218C83.8345 71.3212 84.9085 72.7777 86.5523 72.9543C88.1961 73.1088 89.7523 71.917 89.9934 70.2398L91.155 63.2217L97.0727 63.8175C103.582 64.4355 109.697 59.6023 110.727 52.849C111.757 46.1399 107.352 40.2253 100.93 39.6073Z" fill="#232020"/>
<path d="M99.3081 38.1952C99.2205 38.1952 99.2204 38.1952 99.1328 38.1952C99.1328 38.1952 99.1328 38.1952 99.0451 38.1952C99.0451 38.1952 99.0451 38.1952 98.9574 38.1952H98.8698C98.7821 38.1952 98.6944 38.1952 98.6068 38.1952L81.4892 36.4959C79.8454 36.3414 78.2892 37.5331 78.0482 39.2104C77.8071 40.9098 78.881 42.3664 80.5248 42.5429L97.6424 44.2423C97.7301 44.2423 97.8177 44.2423 97.9054 44.2423C97.9931 44.2423 98.0807 44.2423 98.1684 44.2423C101.39 44.5512 103.582 47.5085 103.122 50.8852C102.64 54.2618 99.5273 56.6453 96.2397 56.3363L90.5411 55.8287L91.0233 52.8052L96.941 53.4011C98.5848 53.5556 100.141 52.3638 100.382 50.6865C100.623 48.9872 99.5492 47.5306 97.9054 47.3541L89.1165 46.4492L84.2508 45.9858C82.607 45.8313 81.0509 47.023 80.8098 48.7003C80.5687 50.3996 81.6426 51.8562 83.2864 52.0328L85.2809 52.2093L84.7987 55.2329L83.8344 61.2799L82.6727 68.298C82.4317 69.9973 83.5056 71.4539 85.1494 71.6305C86.7932 71.785 88.3494 70.5932 88.5905 68.9159L89.7521 61.8978L95.6698 62.4937C102.179 63.1117 108.294 58.2784 109.324 51.5252C110.201 44.8381 105.796 38.9235 99.3081 38.1952Z" fill="#EA8005"/>
<g filter="url(#filter0_f_11173_9509)">
<path d="M25.1644 88.0586C22.6083 88.224 22.0888 88.645 21.0518 91.3665C21.0268 88.4516 20.6803 87.8729 18.3436 86.8164C20.8997 86.651 21.4244 86.2377 22.4614 83.5162C22.4863 86.4311 22.8277 87.0021 25.1644 88.0586Z" fill="#FBE4A1"/>
</g>
<g filter="url(#filter1_f_11173_9509)">
<path d="M151.493 13.9912C148.964 14.1549 148.45 14.5715 147.423 17.2648C147.399 14.3801 147.056 13.8075 144.743 12.762C147.273 12.5983 147.792 12.1893 148.818 9.49604C148.843 12.3807 149.181 12.9457 151.493 13.9912Z" fill="#FBE4A1"/>
</g>
<g filter="url(#filter2_f_11173_9509)">
<path d="M138.878 108.857C135.308 109.088 134.583 109.676 133.134 113.477C133.099 109.406 132.615 108.597 129.352 107.122C132.922 106.891 133.655 106.314 135.103 102.513C135.138 106.584 135.615 107.381 138.878 108.857Z" fill="#FBE4A1"/>
</g>
<g filter="url(#filter3_f_11173_9509)">
<path d="M167.347 119.666C165.893 119.008 165.681 118.649 165.665 116.835C165.02 118.529 164.693 118.79 163.102 118.893C164.556 119.55 164.773 119.907 164.788 121.721C165.434 120.027 165.756 119.769 167.347 119.666Z" fill="#FBE4A1"/>
</g>
<g filter="url(#filter4_f_11173_9509)">
<path d="M140.133 138.883C138.914 138.331 138.736 138.03 138.723 136.509C138.182 137.929 137.908 138.148 136.574 138.234C137.793 138.786 137.975 139.084 137.988 140.606C138.529 139.185 138.799 138.969 140.133 138.883Z" fill="#FBE4A1"/>
</g>
<g filter="url(#filter5_f_11173_9509)">
<path d="M20.2118 121.177C19.4126 120.816 19.2963 120.618 19.2877 119.621C18.9331 120.552 18.7532 120.696 17.879 120.752C18.6782 121.114 18.7971 121.309 18.8056 122.306C19.1603 121.376 19.3376 121.234 20.2118 121.177Z" fill="#FBE4A1"/>
</g>
<g filter="url(#filter6_f_11173_9509)">
<path d="M51.719 113.744C50.2645 113.087 50.0528 112.727 50.0372 110.913C49.3918 112.607 49.0645 112.868 47.4735 112.971C48.9279 113.629 49.1443 113.985 49.1599 115.799C49.8053 114.105 50.128 113.847 51.719 113.744Z" fill="#FBE4A1"/>
</g>
<g filter="url(#filter7_f_11173_9509)">
<path d="M48.5206 6.00032C47.1465 5.37906 46.9464 5.03943 46.9317 3.32527C46.3219 4.9257 46.0127 5.17259 44.5096 5.26987C45.8837 5.89113 46.0881 6.22758 46.1028 7.94173C46.7126 6.34131 47.0174 6.0976 48.5206 6.00032Z" fill="#FBE4A1"/>
</g>
<defs>
<filter id="filter0_f_11173_9509" x="17.5437" y="82.7156" width="8.42056" height="9.45156" filterUnits="userSpaceOnUse" color-interpolation-filters="sRGB">
<feFlood flood-opacity="0" result="BackgroundImageFix"/>
<feBlend mode="normal" in="SourceGraphic" in2="BackgroundImageFix" result="shape"/>
<feGaussianBlur stdDeviation="0.4" result="effect1_foregroundBlur_11173_9509"/>
</filter>
<filter id="filter1_f_11173_9509" x="143.943" y="8.69609" width="8.34976" height="9.36953" filterUnits="userSpaceOnUse" color-interpolation-filters="sRGB">
<feFlood flood-opacity="0" result="BackgroundImageFix"/>
<feBlend mode="normal" in="SourceGraphic" in2="BackgroundImageFix" result="shape"/>
<feGaussianBlur stdDeviation="0.4" result="effect1_foregroundBlur_11173_9509"/>
</filter>
<filter id="filter2_f_11173_9509" x="128.552" y="101.714" width="11.1259" height="12.5629" filterUnits="userSpaceOnUse" color-interpolation-filters="sRGB">
<feFlood flood-opacity="0" result="BackgroundImageFix"/>
<feBlend mode="normal" in="SourceGraphic" in2="BackgroundImageFix" result="shape"/>
<feGaussianBlur stdDeviation="0.4" result="effect1_foregroundBlur_11173_9509"/>
</filter>
<filter id="filter3_f_11173_9509" x="162.302" y="116.034" width="5.84561" height="6.48672" filterUnits="userSpaceOnUse" color-interpolation-filters="sRGB">
<feFlood flood-opacity="0" result="BackgroundImageFix"/>
<feBlend mode="normal" in="SourceGraphic" in2="BackgroundImageFix" result="shape"/>
<feGaussianBlur stdDeviation="0.4" result="effect1_foregroundBlur_11173_9509"/>
</filter>
<filter id="filter4_f_11173_9509" x="135.773" y="135.708" width="5.15981" height="5.69766" filterUnits="userSpaceOnUse" color-interpolation-filters="sRGB">
<feFlood flood-opacity="0" result="BackgroundImageFix"/>
<feBlend mode="normal" in="SourceGraphic" in2="BackgroundImageFix" result="shape"/>
<feGaussianBlur stdDeviation="0.4" result="effect1_foregroundBlur_11173_9509"/>
</filter>
<filter id="filter5_f_11173_9509" x="17.0789" y="118.821" width="3.93276" height="4.28555" filterUnits="userSpaceOnUse" color-interpolation-filters="sRGB">
<feFlood flood-opacity="0" result="BackgroundImageFix"/>
<feBlend mode="normal" in="SourceGraphic" in2="BackgroundImageFix" result="shape"/>
<feGaussianBlur stdDeviation="0.4" result="effect1_foregroundBlur_11173_9509"/>
</filter>
<filter id="filter6_f_11173_9509" x="46.6734" y="110.112" width="5.84561" height="6.48672" filterUnits="userSpaceOnUse" color-interpolation-filters="sRGB">
<feFlood flood-opacity="0" result="BackgroundImageFix"/>
<feBlend mode="normal" in="SourceGraphic" in2="BackgroundImageFix" result="shape"/>
<feGaussianBlur stdDeviation="0.4" result="effect1_foregroundBlur_11173_9509"/>
</filter>
<filter id="filter7_f_11173_9509" x="43.7095" y="2.52617" width="5.61099" height="6.21523" filterUnits="userSpaceOnUse" color-interpolation-filters="sRGB">
<feFlood flood-opacity="0" result="BackgroundImageFix"/>
<feBlend mode="normal" in="SourceGraphic" in2="BackgroundImageFix" result="shape"/>
<feGaussianBlur stdDeviation="0.4" result="effect1_foregroundBlur_11173_9509"/>
</filter>
<linearGradient id="paint0_linear_11173_9509" x1="176.842" y1="92.9842" x2="157.537" y2="72.2145" gradientUnits="userSpaceOnUse">
<stop offset="0.00507614"/>
<stop offset="0.1058" stop-color="#2D2D2D"/>
<stop offset="0.3185" stop-color="#868686"/>
<stop offset="0.4918" stop-color="#C7C7C7"/>
<stop offset="0.6171" stop-color="#F0F0F0"/>
<stop offset="0.6817" stop-color="white"/>
<stop offset="0.748" stop-color="#FCFCFC"/>
<stop offset="0.791" stop-color="#F4F4F4"/>
<stop offset="0.8273" stop-color="#E5E5E5"/>
<stop offset="0.86" stop-color="#D0D0D0"/>
<stop offset="0.8902" stop-color="#B4B4B4"/>
<stop offset="0.9187" stop-color="#939393"/>
<stop offset="0.9456" stop-color="#6B6B6B"/>
<stop offset="0.9715" stop-color="#3D3D3D"/>
<stop offset="0.9957" stop-color="#0A0A0A"/>
<stop offset="1"/>
</linearGradient>
<linearGradient id="paint1_linear_11173_9509" x1="176.842" y1="92.9842" x2="157.537" y2="72.2145" gradientUnits="userSpaceOnUse">
<stop offset="0.00507614" stop-color="#FAEC21" stop-opacity="0"/>
<stop offset="0.9586" stop-color="#FAEC21"/>
</linearGradient>
<linearGradient id="paint2_linear_11173_9509" x1="192.768" y1="68.9254" x2="165.18" y2="62.7922" gradientUnits="userSpaceOnUse">
<stop offset="0.00507614"/>
<stop offset="0.1058" stop-color="#2D2D2D"/>
<stop offset="0.3185" stop-color="#868686"/>
<stop offset="0.4918" stop-color="#C7C7C7"/>
<stop offset="0.6171" stop-color="#F0F0F0"/>
<stop offset="0.6817" stop-color="white"/>
<stop offset="0.748" stop-color="#FCFCFC"/>
<stop offset="0.791" stop-color="#F4F4F4"/>
<stop offset="0.8273" stop-color="#E5E5E5"/>
<stop offset="0.86" stop-color="#D0D0D0"/>
<stop offset="0.8902" stop-color="#B4B4B4"/>
<stop offset="0.9187" stop-color="#939393"/>
<stop offset="0.9456" stop-color="#6B6B6B"/>
<stop offset="0.9715" stop-color="#3D3D3D"/>
<stop offset="0.9957" stop-color="#0A0A0A"/>
<stop offset="1"/>
</linearGradient>
<linearGradient id="paint3_linear_11173_9509" x1="192.768" y1="68.9254" x2="165.18" y2="62.7922" gradientUnits="userSpaceOnUse">
<stop offset="0.00507614" stop-color="#FAEC21" stop-opacity="0"/>
<stop offset="1" stop-color="#FAEC21"/>
</linearGradient>
<linearGradient id="paint4_linear_11173_9509" x1="191.876" y1="44.5089" x2="164.825" y2="52.7107" gradientUnits="userSpaceOnUse">
<stop offset="0.00507614"/>
<stop offset="0.1058" stop-color="#2D2D2D"/>
<stop offset="0.3185" stop-color="#868686"/>
<stop offset="0.4918" stop-color="#C7C7C7"/>
<stop offset="0.6171" stop-color="#F0F0F0"/>
<stop offset="0.6817" stop-color="white"/>
<stop offset="0.748" stop-color="#FCFCFC"/>
<stop offset="0.791" stop-color="#F4F4F4"/>
<stop offset="0.8273" stop-color="#E5E5E5"/>
<stop offset="0.86" stop-color="#D0D0D0"/>
<stop offset="0.8902" stop-color="#B4B4B4"/>
<stop offset="0.9187" stop-color="#939393"/>
<stop offset="0.9456" stop-color="#6B6B6B"/>
<stop offset="0.9715" stop-color="#3D3D3D"/>
<stop offset="0.9957" stop-color="#0A0A0A"/>
<stop offset="1"/>
</linearGradient>
<linearGradient id="paint5_linear_11173_9509" x1="191.876" y1="44.5089" x2="164.825" y2="52.7107" gradientUnits="userSpaceOnUse">
<stop offset="0.00507614" stop-color="#FAEC21" stop-opacity="0"/>
<stop offset="0.9586" stop-color="#FAEC21"/>
</linearGradient>
<linearGradient id="paint6_linear_11173_9509" x1="8.67813" y1="64.6082" x2="33.9666" y2="51.9243" gradientUnits="userSpaceOnUse">
<stop offset="0.00507614"/>
<stop offset="0.1058" stop-color="#2D2D2D"/>
<stop offset="0.3185" stop-color="#868686"/>
<stop offset="0.4918" stop-color="#C7C7C7"/>
<stop offset="0.6171" stop-color="#F0F0F0"/>
<stop offset="0.6817" stop-color="white"/>
<stop offset="0.748" stop-color="#FCFCFC"/>
<stop offset="0.791" stop-color="#F4F4F4"/>
<stop offset="0.8273" stop-color="#E5E5E5"/>
<stop offset="0.86" stop-color="#D0D0D0"/>
<stop offset="0.8902" stop-color="#B4B4B4"/>
<stop offset="0.9187" stop-color="#939393"/>
<stop offset="0.9456" stop-color="#6B6B6B"/>
<stop offset="0.9715" stop-color="#3D3D3D"/>
<stop offset="0.9957" stop-color="#0A0A0A"/>
<stop offset="1"/>
</linearGradient>
<linearGradient id="paint7_linear_11173_9509" x1="8.67813" y1="64.6082" x2="33.9666" y2="51.9243" gradientUnits="userSpaceOnUse">
<stop offset="0.00507614" stop-color="#FAEC21" stop-opacity="0"/>
<stop offset="0.9586" stop-color="#FAEC21"/>
</linearGradient>
<linearGradient id="paint8_linear_11173_9509" x1="2.06196" y1="36.448" x2="30.0516" y2="40.2932" gradientUnits="userSpaceOnUse">
<stop offset="0.00507614"/>
<stop offset="0.1058" stop-color="#2D2D2D"/>
<stop offset="0.3185" stop-color="#868686"/>
<stop offset="0.4918" stop-color="#C7C7C7"/>
<stop offset="0.6171" stop-color="#F0F0F0"/>
<stop offset="0.6817" stop-color="white"/>
<stop offset="0.748" stop-color="#FCFCFC"/>
<stop offset="0.791" stop-color="#F4F4F4"/>
<stop offset="0.8273" stop-color="#E5E5E5"/>
<stop offset="0.86" stop-color="#D0D0D0"/>
<stop offset="0.8902" stop-color="#B4B4B4"/>
<stop offset="0.9187" stop-color="#939393"/>
<stop offset="0.9456" stop-color="#6B6B6B"/>
<stop offset="0.9715" stop-color="#3D3D3D"/>
<stop offset="0.9957" stop-color="#0A0A0A"/>
<stop offset="1"/>
</linearGradient>
<linearGradient id="paint9_linear_11173_9509" x1="2.06196" y1="36.448" x2="30.0516" y2="40.2932" gradientUnits="userSpaceOnUse">
<stop offset="0.00507614" stop-color="#FAEC21" stop-opacity="0"/>
<stop offset="0.9586" stop-color="#FAEC21"/>
</linearGradient>
<linearGradient id="paint10_linear_11173_9509" x1="11.4675" y1="13.9446" x2="34.0023" y2="31.103" gradientUnits="userSpaceOnUse">
<stop offset="0.00507614"/>
<stop offset="0.1058" stop-color="#2D2D2D"/>
<stop offset="0.3185" stop-color="#868686"/>
<stop offset="0.4918" stop-color="#C7C7C7"/>
<stop offset="0.6171" stop-color="#F0F0F0"/>
<stop offset="0.6817" stop-color="white"/>
<stop offset="0.748" stop-color="#FCFCFC"/>
<stop offset="0.791" stop-color="#F4F4F4"/>
<stop offset="0.8273" stop-color="#E5E5E5"/>
<stop offset="0.86" stop-color="#D0D0D0"/>
<stop offset="0.8902" stop-color="#B4B4B4"/>
<stop offset="0.9187" stop-color="#939393"/>
<stop offset="0.9456" stop-color="#6B6B6B"/>
<stop offset="0.9715" stop-color="#3D3D3D"/>
<stop offset="0.9957" stop-color="#0A0A0A"/>
<stop offset="1"/>
</linearGradient>
<linearGradient id="paint11_linear_11173_9509" x1="11.4675" y1="13.9446" x2="34.0023" y2="31.103" gradientUnits="userSpaceOnUse">
<stop offset="0.00507614" stop-color="#FAEC21" stop-opacity="0"/>
<stop offset="0.9586" stop-color="#FAEC21"/>
</linearGradient>
</defs>
</svg>
