<svg width="124" height="124" viewBox="0 0 124 124" fill="none" xmlns="http://www.w3.org/2000/svg">
<path opacity="0.61" d="M63.971 112.617C93.4715 112.617 117.386 88.7026 117.386 59.2021C117.386 29.7016 93.4715 5.78668 63.971 5.78668C34.4705 5.78668 10.5557 29.7016 10.5557 59.2021C10.5557 88.7026 34.4705 112.617 63.971 112.617Z" fill="url(#paint0_linear_1059_29354)"/>
<path d="M105.364 33.8974L68.0116 13.4069L31.3096 25.1498C31.3096 25.1498 26.3145 71.4799 69.7973 101.492C112.268 81.6347 105.364 33.8974 105.364 33.8974Z" fill="url(#paint1_linear_1059_29354)"/>
<path d="M31.3094 25.1498L23.1543 32.6054L59.848 20.8542L68.0114 13.4069L31.3094 25.1498Z" fill="url(#paint2_linear_1059_29354)"/>
<path d="M97.2003 41.353L59.8482 20.8542L44.756 25.4214L23.1463 32.6055C23.1463 32.6055 18.1594 78.9355 61.6422 108.939C104.113 89.0903 97.2003 41.353 97.2003 41.353Z" fill="url(#paint3_linear_1059_29354)"/>
<path d="M97.2005 41.353L59.8485 20.8543L23.1465 32.6055L24.1751 31.6509L61.3873 19.768L98.7394 40.2586C98.7394 40.2586 104.5 80.1699 73.0315 102.183C102.788 79.9724 97.2005 41.353 97.2005 41.353Z" fill="#BAFFFF"/>
<path opacity="0.5" d="M92.7645 43.6407L59.1814 25.2157L45.6116 29.3303L26.1825 35.7655C26.1825 35.7655 21.6977 77.4214 60.7943 104.397C98.9775 86.564 92.7645 43.6407 92.7645 43.6407Z" fill="url(#paint4_linear_1059_29354)"/>
<path d="M43.2829 86.3993L42.46 87.0659C42.1375 85.9452 41.5342 84.9255 40.7072 84.1034C37.4155 80.606 30.9721 78.6639 26.2979 79.7667C25.1784 79.9938 24.1325 80.4941 23.2531 81.2232L22.8911 80.2686L22.3562 82.0461C21.8542 83.5685 22.3562 85.4036 24.0596 87.1893C27.3513 90.6785 33.7947 92.6206 38.4688 91.5261C40.7977 90.9747 42.246 89.7651 42.6986 88.2344L43.2829 86.3993Z" fill="#F4A856"/>
<path d="M39.0281 89.6581C34.3539 90.7608 27.9023 88.8352 24.6189 85.3214C21.3354 81.8075 22.4546 78.1044 27.0876 77.0099C31.7206 75.9155 38.2052 77.8329 41.4968 81.3385C44.7885 84.8441 43.694 88.5554 39.0281 89.6581Z" fill="#FCCC6B"/>
<path d="M39.0281 89.6581C34.3539 90.7608 27.9023 88.8352 24.6189 85.3214C21.3354 81.8075 22.4546 78.1044 27.0876 77.0099C31.7206 75.9155 38.2052 77.8329 41.4968 81.3385C44.7885 84.8441 43.694 88.5554 39.0281 89.6581Z" fill="url(#paint5_radial_1059_29354)"/>
<path d="M31.6307 88.3744C29.4583 87.7934 27.4737 86.6593 25.8703 85.0827C24.5124 83.6426 23.9858 82.1038 24.3972 80.746C24.8087 79.3882 26.0431 78.4007 28.0181 77.9481C30.1988 77.5503 32.4427 77.6739 34.5665 78.3089C36.6903 78.9439 38.6338 80.0723 40.2383 81.6018C41.5961 83.0419 42.1228 84.5807 41.7114 85.9303C41.2999 87.2799 40.0161 88.2756 38.0905 88.7282C35.9421 89.16 33.7191 89.0383 31.6307 88.3744ZM34.4697 78.4994C32.4108 77.8439 30.2192 77.7221 28.1004 78.1456C26.2323 78.5817 24.998 79.528 24.6112 80.82C24.2244 82.112 24.7264 83.585 26.0431 84.9757C27.6206 86.4776 29.5294 87.5871 31.6152 88.2147C33.7009 88.8423 35.905 88.9703 38.0494 88.5883C39.9174 88.1522 41.1518 87.1976 41.5385 85.9139C41.9253 84.6301 41.4151 83.1489 40.1067 81.7581C38.5434 80.1927 36.6014 79.0586 34.4697 78.4665V78.4994Z" fill="#F4A856"/>
<path d="M41.6188 85.9112C42.4401 83.1825 39.2779 79.8184 34.556 78.3973C29.8341 76.9761 25.3405 78.0361 24.5192 80.7648C23.698 83.4935 26.8601 86.8576 31.582 88.2788C36.3039 89.6999 40.7976 88.6399 41.6188 85.9112Z" fill="url(#paint6_radial_1059_29354)"/>
<path d="M27.9516 78.4336C30.112 78.0433 32.3339 78.1694 34.4363 78.8015C36.5386 79.4336 38.4616 80.5539 40.0485 82.0708C41.3569 83.4616 41.826 84.8852 41.5544 86.1114C42.0482 84.8029 41.6285 83.2065 40.1719 81.6594C38.5821 80.1469 36.6588 79.0295 34.5574 78.3977C32.456 77.7658 30.2354 77.6372 28.0751 78.0221C26.0096 78.5076 24.7834 79.6103 24.4707 80.9681C24.9151 79.7996 26.1001 78.8697 27.9516 78.4336Z" fill="#F4A856"/>
<path d="M39.1686 89.2549C34.4944 90.3576 28.051 88.432 24.7593 84.9181C23.1876 83.2723 22.628 81.5277 22.9736 80.0629C22.414 81.6018 22.9325 83.4862 24.6194 85.3049C27.9111 88.8023 34.3545 90.7443 39.0287 89.6416C41.4974 89.0656 42.9293 87.7819 43.3078 86.1854C42.7976 87.609 41.374 88.7447 39.1686 89.2549Z" fill="#FCE586"/>
<path d="M27.8456 101.928L27.7633 102.965C26.755 102.412 25.6213 102.129 24.4716 102.142C19.7481 102.084 13.9712 105.326 11.5601 109.383C10.9536 110.331 10.5917 111.414 10.5068 112.535L9.54395 112.173L10.4409 113.769C11.1815 115.16 12.8438 116.041 15.2467 116.074C19.9703 116.131 25.7554 112.889 28.1665 108.832C29.368 106.799 29.5078 104.948 28.7508 103.598L27.8456 101.928Z" fill="#F4A856"/>
<path d="M21.6669 112.337C26.7133 109.508 29.4798 104.852 27.8461 101.938C26.2123 99.0244 20.797 98.9563 15.7506 101.786C10.7042 104.615 7.93769 109.271 9.57143 112.185C11.2052 115.099 16.6205 115.167 21.6669 112.337Z" fill="#FCCC6B"/>
<path d="M21.6669 112.337C26.7133 109.508 29.4798 104.852 27.8461 101.938C26.2123 99.0244 20.797 98.9563 15.7506 101.786C10.7042 104.615 7.93769 109.271 9.57143 112.185C11.2052 115.099 16.6205 115.167 21.6669 112.337Z" fill="url(#paint7_radial_1059_29354)"/>
<path d="M21.2945 111.523C19.398 112.647 17.2444 113.265 15.0403 113.317C13.09 113.317 11.6417 112.609 10.9669 111.4C10.2921 110.19 10.4567 108.593 11.4607 106.915C12.6704 105.105 14.2896 103.607 16.1869 102.54C18.0842 101.473 20.2062 100.869 22.3807 100.776C24.331 100.776 25.7794 101.483 26.4542 102.693C27.129 103.903 26.9644 105.491 25.9686 107.17C24.8003 108.99 23.193 110.487 21.2945 111.523ZM16.2089 102.734C14.3406 103.748 12.7584 105.217 11.6088 107.005C10.646 108.651 10.4732 110.157 11.1233 111.309C11.7734 112.461 13.1641 113.119 15.0486 113.119C17.191 113.029 19.282 112.435 21.152 111.385C23.022 110.336 24.6186 108.861 25.8123 107.079C26.7751 105.433 26.9479 103.936 26.2978 102.784C25.6477 101.632 24.257 100.981 22.3725 100.957C20.1996 101.011 18.0771 101.623 16.2089 102.734Z" fill="#F4A856"/>
<path d="M21.1919 111.49C25.4257 109.116 27.746 105.209 26.3746 102.763C25.0031 100.317 20.4592 100.259 16.2254 102.633C11.9917 105.007 9.67135 108.914 11.0428 111.36C12.4143 113.806 16.9582 113.864 21.1919 111.49Z" fill="url(#paint8_radial_1059_29354)"/>
<path d="M11.7409 107.359C12.942 105.563 14.5505 104.076 16.4353 103.019C18.3201 101.962 20.4279 101.365 22.5869 101.278C24.4549 101.278 25.7963 101.936 26.4711 102.923C25.8868 101.681 24.4632 100.891 22.3565 100.866C20.1979 100.956 18.0908 101.553 16.2064 102.61C14.3219 103.667 12.7131 105.153 11.5105 106.948C10.4407 108.741 10.3749 110.371 11.132 111.515C10.63 110.42 10.7781 108.939 11.7409 107.359Z" fill="#F4A856"/>
<path d="M27.0633 106.816C24.6522 110.873 18.8341 114.115 14.1518 114.058C11.8888 114.058 10.2841 113.235 9.48584 112C10.1935 113.449 11.8805 114.37 14.341 114.403C19.0646 114.461 24.8497 111.218 27.2608 107.162C28.5198 105.047 28.6104 103.121 27.7381 101.763C28.3882 103.096 28.2236 104.89 27.0633 106.816Z" fill="#FCE586"/>
<defs>
<linearGradient id="paint0_linear_1059_29354" x1="-0.734721" y1="-3.47933" x2="136.371" y2="129.339" gradientUnits="userSpaceOnUse">
<stop stop-color="#31CACF"/>
<stop offset="1" stop-color="#7396FF" stop-opacity="0"/>
</linearGradient>
<linearGradient id="paint1_linear_1059_29354" x1="55.8459" y1="51.9808" x2="154.963" y2="80.8356" gradientUnits="userSpaceOnUse">
<stop stop-color="#2592BA"/>
<stop offset="0.91" stop-color="#3CC0CF"/>
<stop offset="1" stop-color="#4FA9D6"/>
</linearGradient>
<linearGradient id="paint2_linear_1059_29354" x1="71.3282" y1="4.92574" x2="26.0031" y2="5.89011" gradientUnits="userSpaceOnUse">
<stop stop-color="#4FA9D6"/>
<stop offset="1" stop-color="#2592BA"/>
</linearGradient>
<linearGradient id="paint3_linear_1059_29354" x1="21.0004" y1="60.5938" x2="95.7575" y2="59.2094" gradientUnits="userSpaceOnUse">
<stop stop-color="#7BC6FF"/>
<stop offset="1" stop-color="#59E0EF"/>
</linearGradient>
<linearGradient id="paint4_linear_1059_29354" x1="26.0262" y1="64.8143" x2="93.1431" y2="64.8143" gradientUnits="userSpaceOnUse">
<stop stop-color="#3F8BCF"/>
<stop offset="1" stop-color="#7396FF" stop-opacity="0"/>
</linearGradient>
<radialGradient id="paint5_radial_1059_29354" cx="0" cy="0" r="1" gradientUnits="userSpaceOnUse" gradientTransform="translate(28.1375 78.2259) rotate(-0.59) scale(15.191)">
<stop stop-color="#FCE586"/>
<stop offset="0.23" stop-color="#FCDB7B"/>
<stop offset="0.62" stop-color="#FCD06F"/>
<stop offset="1" stop-color="#FCCC6B"/>
</radialGradient>
<radialGradient id="paint6_radial_1059_29354" cx="0" cy="0" r="1" gradientUnits="userSpaceOnUse" gradientTransform="translate(-1564.91 -10531.5) rotate(-0.775567) scale(451.523 781.343)">
<stop stop-color="#FCE586"/>
<stop offset="0.23" stop-color="#FCDB7B"/>
<stop offset="0.62" stop-color="#FCD06F"/>
<stop offset="1" stop-color="#FCCC6B"/>
</radialGradient>
<radialGradient id="paint7_radial_1059_29354" cx="0" cy="0" r="1" gradientUnits="userSpaceOnUse" gradientTransform="translate(15124.6 -21025) rotate(-46.61) scale(380.687 219.8)">
<stop stop-color="#FCE586"/>
<stop offset="0.23" stop-color="#FCDB7B"/>
<stop offset="0.62" stop-color="#FCD06F"/>
<stop offset="1" stop-color="#FCCC6B"/>
</radialGradient>
<radialGradient id="paint8_radial_1059_29354" cx="0" cy="0" r="1" gradientUnits="userSpaceOnUse" gradientTransform="translate(12844.3 -17460.4) rotate(-46.61) scale(759.873 438.99)">
<stop stop-color="#FCE586"/>
<stop offset="0.23" stop-color="#FCDB7B"/>
<stop offset="0.62" stop-color="#FCD06F"/>
<stop offset="1" stop-color="#FCCC6B"/>
</radialGradient>
</defs>
</svg>
