<svg width="20" height="20" viewBox="0 0 20 20" fill="none" xmlns="http://www.w3.org/2000/svg">
<path d="M4 13.0002C3.17 13.0002 2.42 13.3402 1.88 13.8802C0.7 15.0602 0 20.0002 0 20.0002C0 20.0002 4.94 19.3002 6.12 18.1202C6.54099 17.7014 6.82802 17.1669 6.94467 16.5847C7.06131 16.0024 7.0023 15.3987 6.77513 14.85C6.54796 14.3014 6.16287 13.8326 5.66876 13.5032C5.17465 13.1739 4.59382 12.9988 4 13.0002ZM4.71 16.7102C4.43 16.9902 2.54 17.4702 2.54 17.4702C2.54 17.4702 3.01 15.5902 3.3 15.3002C3.47 15.1102 3.72 15.0002 4 15.0002C4.19798 15.0005 4.39145 15.0593 4.55604 15.1694C4.72062 15.2794 4.84896 15.4357 4.92488 15.6186C5.0008 15.8014 5.02091 16.0026 4.98267 16.1969C4.94443 16.3911 4.84956 16.5697 4.71 16.7102ZM15.42 11.6502C21.78 5.29018 19.66 0.340177 19.66 0.340177C19.66 0.340177 14.71 -1.77982 8.35 4.58018L5.86 4.08018C5.53632 4.01803 5.20237 4.03563 4.88702 4.13145C4.57166 4.22728 4.28438 4.39845 4.05 4.63018L0 8.69018L5 10.8302L9.17 15.0002L11.31 20.0002L15.36 15.9502C15.83 15.4802 16.04 14.8002 15.91 14.1402L15.42 11.6502ZM5.41 8.83018L3.5 8.01018L5.47 6.04018L6.91 6.33018C6.34 7.16018 5.83 8.03018 5.41 8.83018ZM11.99 16.5002L11.17 14.5902C11.97 14.1702 12.84 13.6602 13.66 13.0902L13.95 14.5302L11.99 16.5002ZM14 10.2402C12.68 11.5602 10.62 12.6402 9.96 12.9702L7.03 10.0402C7.35 9.39018 8.43 7.33018 9.76 6.00018C14.44 1.32018 17.99 2.01018 17.99 2.01018C17.99 2.01018 18.68 5.56018 14 10.2402ZM13 9.00018C14.1 9.00018 15 8.10018 15 7.00018C15 5.90018 14.1 5.00018 13 5.00018C11.9 5.00018 11 5.90018 11 7.00018C11 8.10018 11.9 9.00018 13 9.00018Z" fill="white"/>
</svg>
