<svg width="76" height="76" viewBox="0 0 76 76" fill="none" xmlns="http://www.w3.org/2000/svg">
<path d="M0 12C0 5.37258 5.37258 0 12 0H64C70.6274 0 76 5.37258 76 12V64C76 70.6274 70.6274 76 64 76H12C5.37258 76 0 70.6274 0 64V12Z" fill="url(#paint0_linear_2845_64472)"/>
<path d="M2 12C2 6.47715 6.47715 2 12 2H64C69.5228 2 74 6.47715 74 12V64C74 69.5228 69.5228 74 64 74H12C6.47715 74 2 69.5228 2 64V12Z" fill="url(#paint1_linear_2845_64472)"/>
<g clip-path="url(#clip0_2845_64472)">
<path d="M38.5391 15C38.8505 15.1557 39.1979 15.1917 39.5214 15.3594C40.7193 15.9703 41.4859 17.276 41.4021 18.5818C41.3062 19.9833 40.3839 21.2172 39.0542 21.6245C38.7427 21.7203 38.6708 21.8521 38.6708 22.1516C38.6828 23.4932 38.6828 24.8469 38.6828 26.1885C38.6828 26.3203 38.6828 26.4641 38.6708 26.5958C38.6229 27.0031 38.3833 27.2427 38 27.2427C37.6286 27.2427 37.3531 27.0031 37.3411 26.5958C37.3172 25.937 37.3292 25.2781 37.3292 24.6193C37.3292 23.7688 37.3292 22.9182 37.3292 22.0557C37.3292 21.8521 37.3052 21.7323 37.0776 21.6604C35.4964 21.0974 34.5979 19.8995 34.5979 18.4021C34.5979 16.8807 35.5203 15.6828 37.1135 15.1198C37.1854 15.0958 37.2693 15.1078 37.2812 15C37.7005 15 38.1198 15 38.5391 15ZM38.012 16.3536C36.8859 16.3417 35.9516 17.2641 35.9396 18.3901C35.9396 19.5042 36.874 20.4505 38 20.4505C39.1021 20.4505 40.0245 19.5281 40.0484 18.426C40.0724 17.3 39.138 16.3536 38.012 16.3536Z" fill="#69FFC8"/>
<path d="M15 37.2812C15.1557 37.2213 15.1318 37.0536 15.1677 36.9458C15.6469 35.5443 16.9286 34.6099 18.4021 34.5979C19.8516 34.5979 21.1813 35.5443 21.6125 36.9458C21.7203 37.2812 21.876 37.3411 22.1755 37.3292C23.601 37.3172 25.0146 37.3172 26.4401 37.3292C26.9911 37.3292 27.3146 37.6646 27.2068 38.1318C27.1109 38.587 26.7635 38.6828 26.3563 38.6828C25.2182 38.6828 24.0802 38.6828 22.9422 38.6828C22.8344 38.6828 22.7266 38.6948 22.6307 38.6828C22.0078 38.575 21.6844 38.7786 21.4448 39.4255C20.9656 40.6953 19.6 41.4739 18.2583 41.4021C16.8568 41.3302 15.6349 40.4198 15.1797 39.1021C15.1318 38.9703 15.1557 38.8026 15 38.7187C15 38.2396 15 37.7604 15 37.2812ZM18.3901 35.9515C17.2641 35.9635 16.3417 36.8979 16.3536 38.0239C16.3656 39.15 17.312 40.0724 18.426 40.0604C19.5281 40.0364 20.4385 39.114 20.4505 38.012C20.4505 36.8859 19.5042 35.9396 18.3901 35.9515Z" fill="#69FFC8"/>
<path d="M61 38.7188C60.8443 38.7787 60.8682 38.9464 60.8323 39.0542C60.3531 40.4557 59.0713 41.3901 57.6099 41.4021C56.1604 41.4021 54.8307 40.4557 54.3875 39.0542C54.2917 38.7427 54.1599 38.6708 53.8604 38.6708C52.5187 38.6828 51.1651 38.6828 49.8234 38.6708C49.6557 38.6708 49.488 38.6708 49.3323 38.6469C48.949 38.575 48.7573 38.3354 48.7813 37.9521C48.8052 37.5927 49.0208 37.3651 49.3802 37.3412C49.8115 37.3172 50.2427 37.3292 50.6859 37.3292C51.7641 37.3292 52.8422 37.3292 53.9203 37.3292C54.124 37.3292 54.2917 37.3412 54.3635 37.0776C54.663 35.8078 55.9448 34.562 57.7057 34.5979C59.275 34.6339 60.4609 35.6281 60.9281 37.2813C60.9401 37.3172 60.988 37.3412 61.012 37.3651C61 37.8203 61 38.2755 61 38.7188ZM59.6463 37.9761C59.6344 36.85 58.688 35.9276 57.5739 35.9396C56.4719 35.9636 55.5615 36.8859 55.5495 37.988C55.5495 39.1141 56.4958 40.0484 57.6099 40.0484C58.7359 40.0484 59.6583 39.1021 59.6463 37.9761Z" fill="#69FFC8"/>
<path d="M37.3292 45.1157C37.3292 44.984 37.3292 44.8522 37.3292 44.7204C37.3292 42.0371 37.3172 39.3657 37.3411 36.6824C37.3411 36.3709 37.2333 36.2392 36.9578 36.1314C34.9932 35.4126 33.0406 34.6819 31.088 33.9392C30.7526 33.8074 30.6687 33.8673 30.6927 34.2147C30.7167 34.4662 30.7047 34.7298 30.6927 34.9814C30.6568 35.4006 30.3812 35.6761 30.0099 35.6642C29.6385 35.6522 29.363 35.3886 29.363 34.9574C29.351 34.2506 29.363 33.5558 29.363 32.8491C29.363 32.5017 29.5427 32.286 29.8542 32.1782C32.4656 31.1959 35.0771 30.2256 37.6885 29.2433C37.9281 29.1595 38.1437 29.1715 38.3833 29.2673C40.9708 30.2376 43.5463 31.2079 46.1338 32.1662C46.5052 32.31 46.6729 32.5496 46.6729 32.9449C46.6609 34.5022 46.6729 36.0595 46.6729 37.6168C46.6729 38.084 46.4213 38.3595 46.026 38.3715C45.6187 38.3834 45.3312 38.0959 45.3312 37.6048C45.3193 36.4428 45.3312 35.2689 45.3312 34.1069C45.3312 34.035 45.3193 33.9631 45.3073 33.8314C44.6604 34.0709 44.0255 34.2985 43.4026 34.5261C41.9651 35.0652 40.5276 35.6043 39.0901 36.1433C38.8266 36.2392 38.6948 36.359 38.6948 36.6824C38.7068 39.3777 38.7068 42.073 38.6948 44.7683C38.6948 45.1157 38.7427 45.1996 39.1021 45.0678C41.0547 44.3131 43.0073 43.5944 44.9719 42.8636C45.2354 42.7678 45.3552 42.648 45.3312 42.3605C45.3073 41.8933 45.3193 41.4381 45.3312 40.9709C45.3432 40.4798 45.5948 40.1803 46.0021 40.1803C46.4094 40.1803 46.6729 40.4678 46.6729 40.959C46.6849 41.6777 46.6729 42.3965 46.6729 43.1152C46.6729 43.4985 46.5052 43.7261 46.1458 43.8579C43.5463 44.8282 40.9469 45.7985 38.3474 46.7808C38.0958 46.8767 37.8562 46.8527 37.6047 46.7569C35.0411 45.7866 32.4656 44.8282 29.8901 43.8699C29.5187 43.7261 29.3391 43.4985 29.3391 43.1032C29.3391 41.486 29.3391 39.8689 29.3391 38.2517C29.3391 37.7965 29.6026 37.497 29.9859 37.497C30.3812 37.485 30.6807 37.7845 30.6807 38.2636C30.6927 39.6053 30.6927 40.959 30.6807 42.3006C30.6807 42.6121 30.7526 42.7678 31.0641 42.8756C32.9687 43.5704 34.8615 44.2892 36.7661 45.0079C36.9458 45.0439 37.1016 45.1517 37.3292 45.1157ZM31.9385 32.8251C33.4719 33.4001 34.9333 33.8673 36.3229 34.5022C37.4729 35.0293 38.5031 35.0412 39.6531 34.5022C41.0547 33.8673 42.5281 33.3881 44.0495 32.8251C42.4562 32.2261 40.9109 31.711 39.4255 31.0642C38.4193 30.6209 37.5568 30.6209 36.5505 31.0642C35.0891 31.723 33.5437 32.2261 31.9385 32.8251Z" fill="#69FFC8"/>
<path d="M25.0146 55.6333C23.05 55.6094 21.313 54.3875 20.6542 52.5427C19.9953 50.6979 20.5464 48.6255 22.0438 47.3797C23.5651 46.1099 25.7094 45.9182 27.3865 46.9484C27.7698 47.188 27.9615 47.1161 28.225 46.8286C28.5844 46.4333 28.9797 46.062 29.363 45.6786C29.7104 45.3432 30.1177 45.3193 30.3932 45.6068C30.6688 45.8943 30.6448 46.2896 30.2974 46.637C29.8661 47.0802 29.4349 47.5114 28.9917 47.9307C28.824 48.0984 28.8 48.2062 28.9318 48.4099C30.7406 51.3568 29.1115 54.9745 25.7214 55.5614C25.4938 55.6094 25.2542 55.6094 25.0146 55.6333ZM25.0266 54.2677C26.8594 54.2677 28.3448 52.8182 28.3688 50.9854C28.3927 49.1646 26.8594 47.6312 25.0385 47.6312C23.2177 47.6432 21.7323 49.1286 21.7323 50.9495C21.7203 52.7943 23.1938 54.2677 25.0266 54.2677Z" fill="#69FFC8"/>
<path d="M50.9734 20.3787C52.938 20.3787 54.687 21.6005 55.3458 23.4453C56.0167 25.3021 55.4536 27.3865 53.9443 28.6323C52.4349 29.8781 50.3026 30.0698 48.6255 29.0516C48.2542 28.824 48.0625 28.8479 47.787 29.1594C47.4276 29.5787 47.0203 29.95 46.613 30.3333C46.2896 30.6448 45.8943 30.6568 45.6188 30.3932C45.3432 30.1177 45.3552 29.7224 45.6547 29.399C46.0859 28.9438 46.5292 28.5005 46.9844 28.0693C47.176 27.8896 47.176 27.7698 47.0323 27.5542C45.2594 24.7151 46.8286 21.1094 50.1109 20.4625C50.3984 20.3906 50.6859 20.3906 50.9734 20.3787ZM50.9734 21.7323C49.1406 21.7323 47.6552 23.1938 47.6432 25.0266C47.6193 26.8474 49.1646 28.3807 50.9854 28.3688C52.8062 28.3568 54.2797 26.8714 54.2797 25.0386C54.2677 23.1938 52.8062 21.7323 50.9734 21.7323Z" fill="#69FFC8"/>
<path d="M25.0385 20.3787C26.8354 20.4386 28.237 21.2173 29.0995 22.7985C29.962 24.3558 29.9021 25.949 28.9917 27.4824C28.812 27.7699 28.824 27.9256 29.0635 28.1412C29.4828 28.5245 29.8781 28.9318 30.2734 29.3391C30.6328 29.6985 30.6687 30.1178 30.3693 30.4053C30.0818 30.6808 29.6865 30.6449 29.3391 30.3094C28.9198 29.9022 28.5005 29.4949 28.1052 29.0636C27.8896 28.824 27.7578 28.836 27.4823 29.0037C25.8172 29.986 24.1161 29.998 22.487 28.9438C20.8937 27.9136 20.175 26.3683 20.4026 24.4876C20.6302 22.5949 21.7323 21.3011 23.5292 20.6303C24.0203 20.4386 24.5234 20.3667 25.0385 20.3787ZM25.0505 21.7324C23.2177 21.7324 21.7443 23.1938 21.7323 25.0146C21.7203 26.8594 23.2297 28.3688 25.0505 28.3568C26.8594 28.3449 28.3568 26.8355 28.3568 25.0266C28.3568 23.2178 26.8713 21.7324 25.0505 21.7324Z" fill="#69FFC8"/>
<path d="M55.6214 50.65C55.6094 52.9619 54.3755 54.6989 52.4948 55.3578C50.662 56.0046 48.5656 55.4177 47.3557 53.9083C46.0979 52.351 45.9422 50.2307 46.9844 48.5536C47.188 48.2302 47.1641 48.0625 46.8885 47.8229C46.4693 47.4515 46.074 47.0323 45.6786 46.625C45.3432 46.2896 45.3312 45.8703 45.6187 45.5948C45.8943 45.3312 46.2896 45.3552 46.613 45.6666C47.0323 46.0739 47.4516 46.4812 47.8469 46.9005C48.0505 47.1161 48.1943 47.188 48.5057 46.9963C50.051 46.0619 51.6563 46.014 53.2255 46.8885C54.8188 47.7869 55.5734 49.1885 55.6214 50.65ZM54.2677 50.9494C54.2677 49.1286 52.7823 47.6432 50.9615 47.6312C49.1526 47.6312 47.6432 49.1286 47.6432 50.9375C47.6312 52.7703 49.1406 54.2677 50.9854 54.2557C52.8182 54.2677 54.2797 52.7823 54.2677 50.9494Z" fill="#69FFC8"/>
<path d="M37.3292 51.7043C37.3292 50.9975 37.3292 50.3027 37.3292 49.5959C37.3292 49.0569 37.5807 48.7694 38.012 48.7814C38.4432 48.7814 38.6828 49.0569 38.6828 49.6079C38.6948 51.0454 38.6948 52.4829 38.6828 53.9204C38.6828 54.184 38.7547 54.2918 39.0302 54.3756C40.7073 54.8907 41.6896 56.5798 41.3422 58.3288C41.0188 59.9579 39.4375 61.1319 37.7484 61.0001C36.0354 60.8683 34.6698 59.4308 34.6219 57.6939C34.574 56.2204 35.5323 54.8548 36.9698 54.3876C37.2812 54.2918 37.3651 54.16 37.3531 53.8605C37.3052 53.1418 37.3292 52.423 37.3292 51.7043ZM37.976 59.6465C39.1021 59.6584 40.0484 58.748 40.0604 57.622C40.0724 56.5079 39.138 55.5616 38.012 55.5496C36.9099 55.5496 35.9755 56.46 35.9516 57.5621C35.9276 58.6881 36.85 59.6345 37.976 59.6465Z" fill="#69FFC8"/>
<path d="M38.012 16.3536C39.138 16.3656 40.0604 17.312 40.0484 18.426C40.0365 19.5281 39.1021 20.4385 38 20.4505C36.8859 20.4505 35.9396 19.5161 35.9396 18.3901C35.9516 17.264 36.8859 16.3417 38.012 16.3536Z" fill="#69FFC8"/>
<path d="M18.3901 35.9515C19.5042 35.9395 20.4505 36.8859 20.4505 38.0119C20.4505 39.114 19.5401 40.0484 18.426 40.0604C17.312 40.0843 16.3536 39.15 16.3536 38.0239C16.3417 36.8859 17.2641 35.9515 18.3901 35.9515Z" fill="#69FFC8"/>
<path d="M59.6463 37.976C59.6583 39.1021 58.7359 40.0484 57.6099 40.0484C56.4958 40.0604 55.5495 39.1141 55.5495 37.988C55.5495 36.8859 56.4599 35.9635 57.574 35.9396C58.688 35.9276 59.6463 36.85 59.6463 37.976Z" fill="#69FFC8"/>
<path d="M31.9385 32.825C33.5318 32.2261 35.0771 31.723 36.5625 31.0641C37.5568 30.6209 38.4312 30.6209 39.4375 31.0641C40.9229 31.723 42.4682 32.2261 44.0615 32.825C42.5401 33.4 41.0667 33.8672 39.6651 34.5021C38.5031 35.0292 37.4849 35.0292 36.3349 34.5021C34.9453 33.8672 33.4719 33.4 31.9385 32.825Z" fill="#69FFC8"/>
<path d="M25.0266 54.2676C23.1938 54.2676 21.7323 52.7942 21.7323 50.9494C21.7323 49.1286 23.2057 47.6432 25.0385 47.6312C26.8594 47.6192 28.3927 49.1645 28.3688 50.9853C28.3328 52.8181 26.8474 54.2796 25.0266 54.2676Z" fill="#69FFC8"/>
<path d="M50.9734 21.7323C52.8062 21.7323 54.2797 23.2057 54.2797 25.0385C54.2797 26.8593 52.8062 28.3567 50.9854 28.3687C49.1646 28.3807 47.6312 26.8354 47.6432 25.0265C47.6552 23.1937 49.1406 21.7203 50.9734 21.7323Z" fill="#69FFC8"/>
<path d="M25.0505 21.7323C26.8833 21.7323 28.3687 23.2177 28.3687 25.0385C28.3687 26.8474 26.8714 28.3567 25.0625 28.3687C23.2177 28.3687 21.7203 26.8593 21.7323 25.0145C21.7323 23.1817 23.2057 21.7203 25.0505 21.7323Z" fill="#69FFC8"/>
<path d="M54.2677 50.9494C54.2677 52.7822 52.8062 54.2676 50.9734 54.2676C49.1286 54.2796 47.6193 52.7822 47.6313 50.9494C47.6432 49.1405 49.1406 47.6312 50.9495 47.6431C52.7823 47.6431 54.2677 49.1286 54.2677 50.9494Z" fill="#69FFC8"/>
<path d="M37.976 59.6464C36.85 59.6344 35.9276 58.6761 35.9516 57.5621C35.9755 56.46 36.9099 55.5496 38.012 55.5496C39.138 55.5496 40.0724 56.5079 40.0604 57.622C40.0364 58.748 39.1021 59.6584 37.976 59.6464Z" fill="#69FFC8"/>
</g>
<defs>
<linearGradient id="paint0_linear_2845_64472" x1="38" y1="0" x2="38" y2="76" gradientUnits="userSpaceOnUse">
<stop stop-color="#4DFFBE"/>
<stop offset="1" stop-color="#466D85"/>
</linearGradient>
<linearGradient id="paint1_linear_2845_64472" x1="38" y1="2" x2="38" y2="74" gradientUnits="userSpaceOnUse">
<stop stop-color="#2E4858"/>
<stop offset="1" stop-color="#2E4858" stop-opacity="0"/>
</linearGradient>
<clipPath id="clip0_2845_64472">
<rect width="46" height="46" fill="white" transform="translate(15 15)"/>
</clipPath>
</defs>
</svg>
