<svg width="110" height="32" viewBox="0 0 110 32" fill="none" xmlns="http://www.w3.org/2000/svg">
<g clip-path="url(#clip0_1558_16938)">
<path d="M26.0055 10.2375C26.0055 15.532 21.7717 19.8237 16.5488 19.8237C15.2444 19.8237 14.1846 18.7494 14.1846 17.4272C14.1846 16.1049 15.2444 15.0306 16.5488 15.0306C19.1575 15.0306 21.2772 12.882 21.2772 10.2375C21.2772 7.59308 19.1575 5.44445 16.5488 5.44445C15.2444 5.44445 14.1846 4.37014 14.1846 3.04791C14.1846 1.74772 15.2118 0.684423 16.489 0.651367C16.5107 0.651367 16.527 0.651367 16.5488 0.651367C16.5705 0.651367 16.5922 0.651367 16.6085 0.651367C21.8043 0.684423 26.0055 4.96514 26.0055 10.2375Z" fill="url(#paint0_linear_1558_16938)"/>
<path d="M18.9123 3.04791C18.9123 4.37014 17.8526 5.44445 16.5484 5.44445C15.2442 5.44445 14.1846 4.37014 14.1846 3.04791C14.1846 1.74772 15.2116 0.684423 16.4887 0.651367C16.5104 0.651367 16.5267 0.651367 16.5484 0.651367C16.5702 0.651367 16.5919 0.651367 16.6082 0.651367C17.8853 0.684423 18.9123 1.74772 18.9123 3.04791Z" fill="url(#paint1_linear_1558_16938)"/>
<path d="M16.5484 19.8236C17.854 19.8236 18.9123 18.7506 18.9123 17.4271C18.9123 16.1035 17.854 15.0305 16.5484 15.0305C15.2429 15.0305 14.1846 16.1035 14.1846 17.4271C14.1846 18.7506 15.2429 19.8236 16.5484 19.8236Z" fill="url(#paint2_linear_1558_16938)"/>
<path d="M16.5491 15.0305H7.09229V19.8236H16.5491V15.0305Z" fill="url(#paint3_linear_1558_16938)"/>
<path d="M9.45616 27.8125C8.15739 27.8125 7.09229 26.7327 7.09229 25.4159V10.2378C7.09229 8.92113 8.15739 7.84131 9.45616 7.84131C10.7549 7.84131 11.82 8.92113 11.82 10.2378V25.4159C11.82 26.7327 10.7549 27.8125 9.45616 27.8125Z" fill="url(#paint4_linear_1558_16938)"/>
<path d="M16.5484 7.84131C15.2497 7.84131 14.1846 8.92113 14.1846 10.2379C14.1846 11.5546 15.2497 12.6344 16.5484 12.6344C17.8472 12.6344 18.9123 11.5546 18.9123 10.2379C18.9123 8.92113 17.8472 7.84131 16.5484 7.84131Z" fill="url(#paint5_linear_1558_16938)"/>
<path d="M16.5381 12.6344H5.51605C4.21167 12.6344 3.15186 11.5601 3.15186 10.2379C3.15186 8.91562 4.21167 7.84131 5.51605 7.84131H16.5381C17.8425 7.84131 18.9023 8.91562 18.9023 10.2379C18.9023 11.5601 17.8425 12.6344 16.5381 12.6344Z" fill="url(#paint6_linear_1558_16938)"/>
<path d="M16.5484 0.651367C15.2497 0.651367 14.1846 1.73119 14.1846 3.04791C14.1846 4.36463 15.2497 5.44445 16.5484 5.44445C17.8472 5.44445 18.9123 4.36463 18.9123 3.04791C18.9123 1.73119 17.8472 0.651367 16.5484 0.651367Z" fill="url(#paint7_linear_1558_16938)"/>
<path d="M16.1417 5.44445H2.36419C1.05981 5.44445 0 4.37014 0 3.04791C0 1.72568 1.05981 0.651367 2.36419 0.651367H16.1417C17.4461 0.651367 18.5059 1.72568 18.5059 3.04791C18.5059 4.37014 17.4461 5.44445 16.1417 5.44445Z" fill="url(#paint8_linear_1558_16938)"/>
</g>
<path d="M44.3324 5.65904C44.3324 6.36714 44.169 7.0172 43.8422 7.60923C43.5155 8.18964 43.0136 8.65978 42.3367 9.01963C41.6598 9.37949 40.8196 9.55942 39.8159 9.55942H37.9603V13.9473H34.9668V1.72383H39.8159C40.7962 1.72383 41.6248 1.89215 42.3017 2.22879C42.9786 2.56543 43.4863 3.02976 43.8247 3.62178C44.1632 4.21381 44.3324 4.89289 44.3324 5.65904ZM39.5883 7.19133C40.1602 7.19133 40.5862 7.05784 40.8662 6.79084C41.1463 6.52385 41.2864 6.14658 41.2864 5.65904C41.2864 5.17149 41.1463 4.79422 40.8662 4.52723C40.5862 4.26024 40.1602 4.12674 39.5883 4.12674H37.9603V7.19133H39.5883Z" fill="#27DC8A"/>
<path d="M51.0375 14.0866C50.0805 14.0866 49.2169 13.8835 48.4467 13.4772C47.6881 13.0709 47.087 12.4905 46.6436 11.736C46.2118 10.9814 45.9959 10.0992 45.9959 9.08928C45.9959 8.09097 46.2176 7.21455 46.6611 6.46001C47.1046 5.69386 47.7114 5.10764 48.4817 4.70135C49.2519 4.29506 50.1155 4.09192 51.0725 4.09192C52.0295 4.09192 52.8931 4.29506 53.6634 4.70135C54.4336 5.10764 55.0405 5.69386 55.484 6.46001C55.9275 7.21455 56.1492 8.09097 56.1492 9.08928C56.1492 10.0876 55.9216 10.9698 55.4665 11.736C55.023 12.4905 54.4103 13.0709 53.6284 13.4772C52.8581 13.8835 51.9945 14.0866 51.0375 14.0866ZM51.0375 11.5096C51.6094 11.5096 52.0937 11.3007 52.4905 10.8828C52.899 10.4649 53.1032 9.86704 53.1032 9.08928C53.1032 8.31153 52.9048 7.7137 52.508 7.2958C52.1229 6.87791 51.6444 6.66896 51.0725 6.66896C50.489 6.66896 50.0047 6.87791 49.6196 7.2958C49.2344 7.70209 49.0419 8.29992 49.0419 9.08928C49.0419 9.86704 49.2286 10.4649 49.602 10.8828C49.9872 11.3007 50.4657 11.5096 51.0375 11.5096Z" fill="#27DC8A"/>
<path d="M62.4114 14.0866C61.5594 14.0866 60.8008 13.9415 60.1356 13.6513C59.4704 13.3611 58.9452 12.9664 58.5601 12.4673C58.175 11.9565 57.9591 11.3877 57.9124 10.7609H60.8708C60.9059 11.0975 61.0634 11.3703 61.3435 11.5793C61.6236 11.7882 61.9679 11.8927 62.3763 11.8927C62.7498 11.8927 63.0357 11.823 63.2341 11.6837C63.4442 11.5328 63.5492 11.3413 63.5492 11.1091C63.5492 10.8305 63.4034 10.6274 63.1116 10.4997C62.8198 10.3604 62.3472 10.2095 61.6936 10.047C60.9934 9.88445 60.4099 9.71613 59.943 9.54201C59.4762 9.35627 59.0736 9.07187 58.7351 8.6888C58.3967 8.29412 58.2275 7.76594 58.2275 7.10427C58.2275 6.54707 58.3792 6.04211 58.6826 5.58939C58.9977 5.12506 59.4529 4.75939 60.0481 4.4924C60.6549 4.22541 61.3727 4.09192 62.2013 4.09192C63.4267 4.09192 64.3895 4.39373 65.0897 4.99737C65.8016 5.601 66.2101 6.40197 66.3151 7.40028H63.5492C63.5026 7.06364 63.3508 6.79665 63.0941 6.59931C62.849 6.40197 62.5222 6.3033 62.1138 6.3033C61.7636 6.3033 61.4952 6.37295 61.3085 6.51225C61.1218 6.63994 61.0284 6.81986 61.0284 7.05203C61.0284 7.33063 61.1743 7.53958 61.466 7.67888C61.7695 7.81818 62.2363 7.95748 62.8665 8.09678C63.5901 8.28251 64.1794 8.46824 64.6346 8.65397C65.0897 8.8281 65.4865 9.11831 65.825 9.52459C66.1751 9.91928 66.356 10.4533 66.3677 11.1265C66.3677 11.6953 66.2043 12.2061 65.8775 12.6588C65.5624 13.0999 65.1014 13.4482 64.4945 13.7036C63.8993 13.959 63.205 14.0866 62.4114 14.0866Z" fill="#27DC8A"/>
<path d="M70.4048 3.2213C69.8796 3.2213 69.4478 3.07039 69.1094 2.76857C68.7826 2.45515 68.6192 2.07208 68.6192 1.61936C68.6192 1.15502 68.7826 0.771951 69.1094 0.470136C69.4478 0.156712 69.8796 0 70.4048 0C70.9183 0 71.3384 0.156712 71.6652 0.470136C72.0037 0.771951 72.1729 1.15502 72.1729 1.61936C72.1729 2.07208 72.0037 2.45515 71.6652 2.76857C71.3384 3.07039 70.9183 3.2213 70.4048 3.2213ZM71.8928 4.23122V13.9473H68.8993V4.23122H71.8928Z" fill="#27DC8A"/>
<path d="M80.2067 11.4225V13.9473H78.6837C77.5983 13.9473 76.7522 13.6862 76.1453 13.1638C75.5385 12.6298 75.235 11.765 75.235 10.5693V6.70378H74.0446V4.23122H75.235V1.86313H78.2285V4.23122H80.1892V6.70378H78.2285V10.6042C78.2285 10.8944 78.2985 11.1033 78.4386 11.231C78.5786 11.3587 78.812 11.4225 79.1388 11.4225H80.2067Z" fill="#27DC8A"/>
<path d="M84.0798 3.2213C83.5547 3.2213 83.1228 3.07039 82.7844 2.76857C82.4576 2.45515 82.2942 2.07208 82.2942 1.61936C82.2942 1.15502 82.4576 0.771951 82.7844 0.470136C83.1228 0.156712 83.5547 0 84.0798 0C84.5933 0 85.0135 0.156712 85.3402 0.470136C85.6787 0.771951 85.8479 1.15502 85.8479 1.61936C85.8479 2.07208 85.6787 2.45515 85.3402 2.76857C85.0135 3.07039 84.5933 3.2213 84.0798 3.2213ZM85.5678 4.23122V13.9473H82.5743V4.23122H85.5678Z" fill="#27DC8A"/>
<path d="M92.8839 14.0866C91.9269 14.0866 91.0633 13.8835 90.293 13.4772C89.5344 13.0709 88.9334 12.4905 88.4899 11.736C88.0581 10.9814 87.8422 10.0992 87.8422 9.08928C87.8422 8.09097 88.0639 7.21455 88.5074 6.46001C88.9509 5.69386 89.5578 5.10764 90.328 4.70135C91.0983 4.29506 91.9619 4.09192 92.9189 4.09192C93.8759 4.09192 94.7395 4.29506 95.5097 4.70135C96.28 5.10764 96.8869 5.69386 97.3303 6.46001C97.7738 7.21455 97.9956 8.09097 97.9956 9.08928C97.9956 10.0876 97.768 10.9698 97.3128 11.736C96.8694 12.4905 96.2566 13.0709 95.4747 13.4772C94.7045 13.8835 93.8409 14.0866 92.8839 14.0866ZM92.8839 11.5096C93.4557 11.5096 93.9401 11.3007 94.3368 10.8828C94.7453 10.4649 94.9496 9.86704 94.9496 9.08928C94.9496 8.31153 94.7512 7.7137 94.3544 7.2958C93.9692 6.87791 93.4907 6.66896 92.9189 6.66896C92.3354 6.66896 91.851 6.87791 91.4659 7.2958C91.0808 7.70209 90.8882 8.29992 90.8882 9.08928C90.8882 9.86704 91.0749 10.4649 91.4484 10.8828C91.8335 11.3007 92.312 11.5096 92.8839 11.5096Z" fill="#27DC8A"/>
<path d="M106.236 4.12674C107.38 4.12674 108.29 4.49821 108.967 5.24114C109.655 5.97246 110 6.98238 110 8.2709V13.9473H107.024V8.67139C107.024 8.02132 106.854 7.51636 106.516 7.15651C106.178 6.79665 105.722 6.61672 105.151 6.61672C104.579 6.61672 104.123 6.79665 103.785 7.15651C103.447 7.51636 103.277 8.02132 103.277 8.67139V13.9473H100.284V4.23122H103.277V5.51974C103.581 5.09023 103.989 4.75359 104.503 4.50982C105.016 4.25443 105.594 4.12674 106.236 4.12674Z" fill="#27DC8A"/>
<path d="M36.1108 20.9135V23.8063H39.304V24.7374H36.1108V27.717H39.6811V28.6482H34.9668V19.9824H39.6811V20.9135H36.1108Z" fill="white"/>
<path d="M47.1448 28.6482L45.5105 26.1155L43.9391 28.6482H42.7448L44.9699 25.2712L42.7448 21.8447H44.0396L45.674 24.3649L47.2328 21.8447H48.4271L46.2145 25.2092L48.4397 28.6482H47.1448Z" fill="white"/>
<path d="M51.2748 25.234C51.2748 24.5305 51.4173 23.918 51.7022 23.3966C51.9872 22.8668 52.3811 22.4571 52.8839 22.1674C53.3952 21.8778 53.9777 21.7329 54.6314 21.7329C55.4779 21.7329 56.1735 21.9357 56.7183 22.3413C57.2714 22.7468 57.636 23.3096 57.812 24.0297H56.58C56.4627 23.6159 56.2322 23.289 55.8886 23.0489C55.5533 22.8089 55.1343 22.6889 54.6314 22.6889C53.9777 22.6889 53.4497 22.9124 53.0474 23.3593C52.6451 23.798 52.4439 24.4229 52.4439 25.234C52.4439 26.0534 52.6451 26.6866 53.0474 27.1335C53.4497 27.5805 53.9777 27.8039 54.6314 27.8039C55.1343 27.8039 55.5533 27.6881 55.8886 27.4563C56.2238 27.2246 56.4543 26.8935 56.58 26.4631H57.812C57.6276 27.1584 57.2589 27.717 56.7057 28.1392C56.1526 28.553 55.4611 28.7599 54.6314 28.7599C53.9777 28.7599 53.3952 28.6151 52.8839 28.3254C52.3811 28.0357 51.9872 27.626 51.7022 27.0963C51.4173 26.5666 51.2748 25.9458 51.2748 25.234Z" fill="white"/>
<path d="M64.8951 21.7205C65.4147 21.7205 65.8841 21.8322 66.3031 22.0557C66.7222 22.2709 67.049 22.5978 67.2837 23.0365C67.5268 23.4752 67.6483 24.009 67.6483 24.6381V28.6482H66.5168V24.7995C66.5168 24.1208 66.345 23.6035 66.0014 23.2476C65.6578 22.8834 65.1884 22.7013 64.5934 22.7013C63.99 22.7013 63.508 22.8875 63.1477 23.26C62.7957 23.6324 62.6197 24.1746 62.6197 24.8864V28.6482H61.4756V19.4609H62.6197V22.813C62.8459 22.4654 63.156 22.1964 63.55 22.0061C63.9522 21.8157 64.4006 21.7205 64.8951 21.7205Z" fill="white"/>
<path d="M71.2268 25.2216C71.2268 24.5263 71.3692 23.918 71.6542 23.3966C71.9391 22.8668 72.3289 22.4571 72.8234 22.1674C73.3262 21.8778 73.8836 21.7329 74.4954 21.7329C75.0988 21.7329 75.6226 21.8612 76.0668 22.1178C76.511 22.3744 76.8421 22.6972 77.06 23.0862V21.8447H78.2166V28.6482H77.06V27.3818C76.8337 27.7791 76.4943 28.1102 76.0417 28.375C75.5975 28.6316 75.0779 28.7599 74.4828 28.7599C73.871 28.7599 73.3178 28.6109 72.8234 28.313C72.3289 28.015 71.9391 27.597 71.6542 27.059C71.3692 26.521 71.2268 25.9086 71.2268 25.2216ZM77.06 25.234C77.06 24.7208 76.9552 24.2739 76.7457 23.8932C76.5362 23.5124 76.2512 23.2227 75.8908 23.0241C75.5388 22.8172 75.1491 22.7137 74.7217 22.7137C74.2942 22.7137 73.9045 22.813 73.5525 23.0117C73.2005 23.2103 72.9197 23.5 72.7102 23.8807C72.5007 24.2615 72.3959 24.7084 72.3959 25.2216C72.3959 25.743 72.5007 26.1982 72.7102 26.5873C72.9197 26.968 73.2005 27.2618 73.5525 27.4687C73.9045 27.6674 74.2942 27.7667 74.7217 27.7667C75.1491 27.7667 75.5388 27.6674 75.8908 27.4687C76.2512 27.2618 76.5362 26.968 76.7457 26.5873C76.9552 26.1982 77.06 25.7472 77.06 25.234Z" fill="white"/>
<path d="M85.6436 21.7205C86.4817 21.7205 87.1606 21.9729 87.6802 22.4778C88.1998 22.9744 88.4596 23.6945 88.4596 24.6381V28.6482H87.3282V24.7995C87.3282 24.1208 87.1564 23.6035 86.8128 23.2476C86.4691 22.8834 85.9998 22.7013 85.4047 22.7013C84.8013 22.7013 84.3194 22.8875 83.959 23.26C83.607 23.6324 83.431 24.1746 83.431 24.8864V28.6482H82.287V21.8447H83.431V22.813C83.6573 22.4654 83.9632 22.1964 84.3487 22.0061C84.7426 21.8157 85.1743 21.7205 85.6436 21.7205Z" fill="white"/>
<path d="M95.3067 21.7329C95.9018 21.7329 96.4214 21.8612 96.8656 22.1178C97.3182 22.3744 97.6534 22.6972 97.8713 23.0862V21.8447H99.0279V28.7972C99.0279 29.4179 98.8938 29.9683 98.6256 30.4484C98.3574 30.9367 97.9719 31.3174 97.469 31.5906C96.9746 31.8637 96.3963 32.0003 95.7342 32.0003C94.829 32.0003 94.0747 31.7892 93.4713 31.3671C92.8679 30.945 92.5117 30.3698 92.4027 29.6414H93.5341C93.6599 30.0552 93.9197 30.3863 94.3136 30.6346C94.7075 30.8912 95.181 31.0195 95.7342 31.0195C96.3627 31.0195 96.874 30.825 97.2679 30.436C97.6702 30.047 97.8713 29.5007 97.8713 28.7972V27.3694C97.645 27.7667 97.3098 28.0978 96.8656 28.3626C96.4214 28.6275 95.9018 28.7599 95.3067 28.7599C94.6949 28.7599 94.1376 28.6109 93.6347 28.313C93.1402 28.015 92.7505 27.597 92.4656 27.059C92.1806 26.521 92.0381 25.9086 92.0381 25.2216C92.0381 24.5263 92.1806 23.918 92.4656 23.3966C92.7505 22.8668 93.1402 22.4571 93.6347 22.1674C94.1376 21.8778 94.6949 21.7329 95.3067 21.7329ZM97.8713 25.234C97.8713 24.7208 97.7666 24.2739 97.557 23.8932C97.3475 23.5124 97.0626 23.2227 96.7022 23.0241C96.3502 22.8172 95.9605 22.7137 95.533 22.7137C95.1056 22.7137 94.7159 22.813 94.3639 23.0117C94.0119 23.2103 93.7311 23.5 93.5216 23.8807C93.312 24.2615 93.2073 24.7084 93.2073 25.2216C93.2073 25.743 93.312 26.1982 93.5216 26.5873C93.7311 26.968 94.0119 27.2618 94.3639 27.4687C94.7159 27.6674 95.1056 27.7667 95.533 27.7667C95.9605 27.7667 96.3502 27.6674 96.7022 27.4687C97.0626 27.2618 97.3475 26.968 97.557 26.5873C97.7666 26.1982 97.8713 25.7472 97.8713 25.234Z" fill="white"/>
<path d="M109.384 24.9857C109.384 25.2009 109.372 25.4285 109.346 25.6685H103.84C103.882 26.339 104.112 26.8645 104.532 27.2453C104.959 27.6177 105.474 27.8039 106.078 27.8039C106.572 27.8039 106.983 27.6922 107.31 27.4687C107.645 27.237 107.88 26.9307 108.014 26.55H109.246C109.061 27.2039 108.693 27.7377 108.14 28.1516C107.586 28.5571 106.899 28.7599 106.078 28.7599C105.424 28.7599 104.837 28.6151 104.318 28.3254C103.807 28.0357 103.404 27.626 103.111 27.0963C102.818 26.5583 102.671 25.9375 102.671 25.234C102.671 24.5305 102.813 23.9139 103.098 23.3841C103.383 22.8544 103.781 22.4489 104.293 22.1674C104.812 21.8778 105.407 21.7329 106.078 21.7329C106.732 21.7329 107.31 21.8736 107.813 22.155C108.316 22.4364 108.701 22.8255 108.969 23.3221C109.246 23.8104 109.384 24.3649 109.384 24.9857ZM108.202 24.7498C108.202 24.3194 108.106 23.9511 107.913 23.6449C107.721 23.3303 107.457 23.0945 107.121 22.9372C106.794 22.7717 106.43 22.6889 106.028 22.6889C105.449 22.6889 104.955 22.871 104.544 23.2352C104.142 23.5993 103.911 24.1042 103.853 24.7498H108.202Z" fill="white"/>
<defs>
<linearGradient id="paint0_linear_1558_16938" x1="34.2658" y1="-8.92861" x2="-10.8947" y2="43.465" gradientUnits="userSpaceOnUse">
<stop stop-color="#00A8A1"/>
<stop offset="1" stop-color="#41FF7A"/>
</linearGradient>
<linearGradient id="paint1_linear_1558_16938" x1="29.8119" y1="-12.7659" x2="-15.3495" y2="39.6217" gradientUnits="userSpaceOnUse">
<stop stop-color="#00A8A1"/>
<stop offset="1" stop-color="#41FF7A"/>
</linearGradient>
<linearGradient id="paint2_linear_1558_16938" x1="36.8112" y1="-6.73209" x2="-8.35018" y2="45.6555" gradientUnits="userSpaceOnUse">
<stop stop-color="#00A8A1"/>
<stop offset="1" stop-color="#41FF7A"/>
</linearGradient>
<linearGradient id="paint3_linear_1558_16938" x1="34.0704" y1="-9.09747" x2="-11.0901" y2="43.2962" gradientUnits="userSpaceOnUse">
<stop stop-color="#00A8A1"/>
<stop offset="1" stop-color="#41FF7A"/>
</linearGradient>
<linearGradient id="paint4_linear_1558_16938" x1="32.8892" y1="-10.1121" x2="-12.2722" y2="42.2754" gradientUnits="userSpaceOnUse">
<stop stop-color="#00A8A1"/>
<stop offset="1" stop-color="#41FF7A"/>
</linearGradient>
<linearGradient id="paint5_linear_1558_16938" x1="33.3115" y1="-9.74864" x2="-11.8499" y2="42.6389" gradientUnits="userSpaceOnUse">
<stop stop-color="#00A8A1"/>
<stop offset="1" stop-color="#41FF7A"/>
</linearGradient>
<linearGradient id="paint6_linear_1558_16938" x1="34.2846" y1="-17.4875" x2="-23.2485" y2="49.2605" gradientUnits="userSpaceOnUse">
<stop stop-color="#00A8A1"/>
<stop offset="1" stop-color="#41FF7A"/>
</linearGradient>
<linearGradient id="paint7_linear_1558_16938" x1="29.8118" y1="-12.7659" x2="-15.3496" y2="39.6217" gradientUnits="userSpaceOnUse">
<stop stop-color="#00A8A1"/>
<stop offset="1" stop-color="#41FF7A"/>
</linearGradient>
<linearGradient id="paint8_linear_1558_16938" x1="31.3537" y1="-23.2991" x2="-35.9077" y2="54.7353" gradientUnits="userSpaceOnUse">
<stop stop-color="#00A8A1"/>
<stop offset="1" stop-color="#41FF7A"/>
</linearGradient>
<clipPath id="clip0_1558_16938">
<rect width="26.0061" height="27.1608" fill="white" transform="translate(0 0.651367)"/>
</clipPath>
</defs>
</svg>
