<svg width="283" height="269" viewBox="0 0 283 269" fill="none" xmlns="http://www.w3.org/2000/svg">
<g clip-path="url(#clip0)">
<path d="M176.8 267.6L88.7004 250.8C75.1004 248.2 66.1004 235 68.7004 221.4L97.7004 69.5002C100.3 55.9002 113.5 46.9002 127.1 49.5002L215.2 66.3002C228.8 68.9002 237.8 82.1002 235.2 95.7002L206.2 247.6C203.7 261.2 190.4 270.2 176.8 267.6Z" fill="#373E4F"/>
<path d="M185.8 245.5H96.2C82.4 245.5 71 234.2 71 220.3V65.7C71 51.9 82.3 40.5 96.2 40.5H185.9C199.7 40.5 211.1 51.8 211.1 65.7V220.4C211 234.2 199.7 245.5 185.8 245.5Z" fill="#2E3244"/>
<path d="M183.3 156.2H100.7C98.1 156.2 96 154.1 96 151.5C96 148.9 98.1 146.8 100.7 146.8H183.3C185.9 146.8 188 148.9 188 151.5C188 154.1 185.9 156.2 183.3 156.2Z" fill="#474D63"/>
<path d="M183.3 181.9H100.7C98.1 181.9 96 179.8 96 177.2C96 174.6 98.1 172.5 100.7 172.5H183.3C185.9 172.5 188 174.6 188 177.2C188 179.8 185.9 181.9 183.3 181.9Z" fill="#474D63"/>
<path d="M183.3 207.6H100.7C98.1 207.6 96 205.5 96 202.9C96 200.3 98.1 198.2 100.7 198.2H183.3C185.9 198.2 188 200.3 188 202.9C188 205.4 185.9 207.6 183.3 207.6Z" fill="#474D63"/>
<path d="M141.1 127.8C155.625 127.8 167.4 116.025 167.4 101.5C167.4 86.9751 155.625 75.2002 141.1 75.2002C126.575 75.2002 114.8 86.9751 114.8 101.5C114.8 116.025 126.575 127.8 141.1 127.8Z" fill="#474D63"/>
<path d="M275 105L277.8 110.2L283 113L277.8 115.9L275 121L272.2 115.9L267 113L272.2 110.2L275 105Z" fill="#434A5B"/>
<path d="M184.5 1L186.8 5.2L191 7.5L186.8 9.8L184.5 14L182.2 9.8L178 7.5L182.2 5.2L184.5 1Z" stroke="#434A5B" stroke-miterlimit="10"/>
<path d="M7.5 138L10.2 142.9L15 145.5L10.2 148.2L7.5 153L4.8 148.2L0 145.5L4.8 142.9L7.5 138Z" fill="#434A5B"/>
<path d="M175.5 46H114.5C111.5 46 109 43.5 109 40.5C109 37.5 111.5 35 114.5 35H175.5C178.5 35 181 37.5 181 40.5C181 43.6 178.5 46 175.5 46Z" fill="#454B60"/>
<path d="M243.8 217.6C247.556 217.6 250.6 214.556 250.6 210.8C250.6 207.044 247.556 204 243.8 204C240.044 204 237 207.044 237 210.8C237 214.556 240.044 217.6 243.8 217.6Z" stroke="#434A5B" stroke-miterlimit="10" stroke-dasharray="1.01 1.01"/>
<path d="M40.8 222.6C43.451 222.6 45.6 220.451 45.6 217.8C45.6 215.149 43.451 213 40.8 213C38.149 213 36 215.149 36 217.8C36 220.451 38.149 222.6 40.8 222.6Z" fill="#434A5B"/>
<path d="M44 87.5C47.0376 87.5 49.5 85.0376 49.5 82C49.5 78.9624 47.0376 76.5 44 76.5C40.9624 76.5 38.5 78.9624 38.5 82C38.5 85.0376 40.9624 87.5 44 87.5Z" stroke="#434A5B" stroke-miterlimit="10"/>
</g>
<defs>
<clipPath id="clip0">
<rect width="283" height="268.1" fill="white"/>
</clipPath>
</defs>
</svg>
