<svg width="32" height="32" viewBox="0 0 32 32" fill="none" xmlns="http://www.w3.org/2000/svg">
<path d="M18.4385 10.4283C18.4288 10.4283 18.4215 10.4283 18.4118 10.4283C18.402 10.4283 18.3923 10.4283 18.385 10.4283C18.3801 10.4283 18.3728 10.4283 18.3679 10.4283C18.3631 10.4283 18.3558 10.4283 18.3509 10.4283C18.3412 10.4283 18.3314 10.4308 18.3217 10.4308C18.2901 10.4308 18.2608 10.4283 18.2292 10.4283H12.0588C11.4746 10.4283 11 10.903 11 11.4872C11 12.0713 11.4746 12.546 12.0588 12.546H18.2292C18.2608 12.546 18.2901 12.5436 18.3217 12.5411C18.3509 12.5436 18.3826 12.546 18.4118 12.546C19.5826 12.546 20.5294 13.4928 20.5294 14.6636C20.5294 15.8344 19.5826 16.7813 18.4118 16.7813H16.2941V15.7225H18.4069H18.4093H18.4118C18.9935 15.7225 19.4706 15.2454 19.4706 14.6636C19.4706 14.0819 18.9935 13.6048 18.4118 13.6048H18.4093H18.4069H15.2353H13.4706C12.8864 13.6048 12.4118 14.0795 12.4118 14.6636C12.4118 15.2478 12.8864 15.7225 13.4706 15.7225H14.1765V16.7813V18.8989V21.3695C14.1765 21.9513 14.6535 22.4283 15.2353 22.4283C15.817 22.4283 16.2941 21.9513 16.2941 21.3695V18.8989H18.4118C20.7509 18.8989 22.6471 17.0028 22.6471 14.6636C22.6471 12.3342 20.7655 10.4429 18.4385 10.4283Z" fill="#718096"/>
<path fill-rule="evenodd" clip-rule="evenodd" d="M16.0001 3.99988C9.60934 3.99988 4.42863 9.18058 4.42863 15.5713C4.42863 21.962 9.60934 27.1427 16.0001 27.1427C22.3908 27.1427 27.5715 21.962 27.5715 15.5713C27.5715 9.18058 22.3908 3.99988 16.0001 3.99988ZM2.42863 15.5713C2.42863 8.07601 8.50477 1.99988 16.0001 1.99988C23.4954 1.99988 29.5715 8.07601 29.5715 15.5713C29.5715 23.0666 23.4954 29.1427 16.0001 29.1427C8.50477 29.1427 2.42863 23.0666 2.42863 15.5713Z" fill="#718096"/>
<path fill-rule="evenodd" clip-rule="evenodd" d="M2.42857 28.1427C2.42857 27.5904 2.87629 27.1427 3.42857 27.1427H28.5714C29.1237 27.1427 29.5714 27.5904 29.5714 28.1427C29.5714 28.695 29.1237 29.1427 28.5714 29.1427H3.42857C2.87629 29.1427 2.42857 28.695 2.42857 28.1427Z" fill="#718096"/>
</svg>
