<svg width="76" height="76" viewBox="0 0 76 76" fill="none" xmlns="http://www.w3.org/2000/svg">
<path d="M0 12C0 5.37258 5.37258 0 12 0H64C70.6274 0 76 5.37258 76 12V64C76 70.6274 70.6274 76 64 76H12C5.37258 76 0 70.6274 0 64V12Z" fill="url(#paint0_linear_2845_64485)"/>
<path d="M2 12C2 6.47715 6.47715 2 12 2H64C69.5228 2 74 6.47715 74 12V64C74 69.5228 69.5228 74 64 74H12C6.47715 74 2 69.5228 2 64V12Z" fill="url(#paint1_linear_2845_64485)"/>
<path d="M39 15C26.35 15 16 25.35 16 38C16 50.65 26.35 61 39 61C51.65 61 62 50.65 62 38C62 25.35 51.65 15 39 15ZM39 57.09C28.42 57.09 19.91 48.58 19.91 38C19.91 27.42 28.42 19.14 39 19.14C49.58 19.14 58.09 27.65 58.09 38.23C58.09 48.81 49.58 57.09 39 57.09Z" fill="#69FFC8"/>
<path d="M47.74 49.27C41.99 49.27 36.24 49.27 30.26 49.27C30.03 49.04 29.8 49.04 29.8 48.81C29.34 48.35 29.34 47.89 29.34 47.2C29.34 43.29 29.34 39.61 29.34 35.7C29.34 35.7 29.34 35.7 29.34 35.47C29.34 34.32 30.03 33.86 31.18 33.63C31.41 33.63 31.41 33.63 31.41 33.4C31.41 32.71 31.41 32.02 31.41 31.33C31.41 29.26 32.1 27.42 33.48 26.04C35.55 23.74 38.08 22.82 41.3 23.51C42.91 23.74 44.06 24.66 45.21 25.58C46.59 26.96 47.28 28.57 47.51 30.41C47.51 31.33 47.51 32.25 47.51 33.17C47.51 33.4 47.51 33.4 47.74 33.4C48.66 33.4 49.12 33.63 49.35 34.55C49.35 34.78 49.58 35.01 49.58 35.47C49.58 39.38 49.58 43.06 49.58 46.97C48.89 48.12 48.43 48.81 47.74 49.27ZM39 33.86C40.38 33.86 41.99 33.86 43.37 33.86C43.6 33.86 43.6 33.86 43.6 33.63C43.6 33.4 43.6 33.17 43.6 32.94C43.6 32.25 43.6 31.56 43.6 30.87C43.14 28.34 40.84 26.5 38.08 26.96C36.24 27.19 34.63 29.03 34.4 30.87C34.4 31.79 34.4 32.71 34.4 33.63C34.4 33.86 34.4 33.86 34.63 33.86C36.01 33.86 37.62 33.86 39 33.86ZM37.39 43.29C37.39 43.75 37.39 44.44 37.39 44.9C37.39 45.36 37.62 45.82 38.31 45.82C38.77 45.82 39.23 45.82 39.69 45.82C40.38 45.82 40.61 45.59 40.61 44.9C40.61 43.98 40.61 42.83 40.61 41.91C40.61 41.68 40.61 41.45 40.84 41.45C41.07 40.99 41.3 40.53 41.3 40.07C41.3 38.46 39.92 37.54 38.31 38C36.93 38.46 36.47 40.3 37.39 41.45C37.39 41.68 37.62 41.68 37.62 41.91C37.39 42.37 37.39 42.83 37.39 43.29Z" fill="#69FFC8"/>
<defs>
<linearGradient id="paint0_linear_2845_64485" x1="38" y1="0" x2="38" y2="76" gradientUnits="userSpaceOnUse">
<stop stop-color="#4DFFBE"/>
<stop offset="1" stop-color="#466D85"/>
</linearGradient>
<linearGradient id="paint1_linear_2845_64485" x1="38" y1="2" x2="38" y2="74" gradientUnits="userSpaceOnUse">
<stop stop-color="#2E4858"/>
<stop offset="1" stop-color="#2E4858" stop-opacity="0"/>
</linearGradient>
</defs>
</svg>
