<svg width="117" height="122" viewBox="0 0 117 122" fill="none" xmlns="http://www.w3.org/2000/svg">
<g clip-path="url(#clip0_11851_20285)">
<path d="M53.4366 54.8305C53.4366 54.8305 64.9653 47.5667 63.3294 45.8484C61.1483 43.5052 49.7755 54.0494 49.7755 54.0494L47.9839 53.8932C47.9839 53.8932 60.3694 41.865 64.0305 44.7549C67.6916 47.6448 54.5272 55.221 54.5272 55.221L53.4366 54.8305Z" fill="#20FFE9"/>
<path opacity="0.32" d="M61.7716 107.238V107.394C61.6159 112.002 47.5945 115.595 30.5353 115.517C14.4887 115.439 1.40213 112.158 0.155792 107.94C0.0778961 107.706 0 107.394 0 107.159C0 107.003 0.0778961 106.769 0.155792 106.535C1.48003 102.239 15.034 98.9584 31.3142 99.0365C48.2177 99.0365 61.7716 102.707 61.7716 107.238Z" fill="black"/>
<path opacity="0.32" d="M101.654 92.0074V92.4761C101.499 109.112 87.4774 122.312 70.4181 122.078C54.3715 121.844 41.2849 109.815 40.0386 94.5849C39.9607 93.6476 39.8828 92.7104 39.8828 91.7731C39.8828 91.0702 39.9607 90.3672 40.0386 89.43C41.3628 73.9652 54.9168 61.937 71.1971 62.1713C88.1784 62.1713 101.654 75.5273 101.654 92.0074Z" fill="black"/>
<path d="M59.201 95.1328V105.052C59.0453 109.27 46.1924 112.628 30.5353 112.55C15.8129 112.472 3.739 109.426 2.57056 105.599V95.1328H59.201Z" fill="#0F5454"/>
<path d="M59.201 104.974V105.052C59.0453 109.27 46.1924 112.55 30.6132 112.55C15.8908 112.472 3.97269 109.426 2.72635 105.599C2.64845 105.365 2.57056 105.13 2.57056 104.896C2.57056 104.74 2.64845 104.584 2.72635 104.349C3.97269 100.444 16.3582 97.398 31.3142 97.4761C46.8156 97.4761 59.201 100.835 59.201 104.974Z" fill="#0F5454"/>
<path d="M30.9247 102.709C46.426 102.709 58.9673 99.2724 58.9673 95.1328C58.9673 90.9152 46.426 87.5566 30.9247 87.5566C15.4234 87.5566 2.88208 90.9933 2.88208 95.1328C2.88208 99.3505 15.4234 102.709 30.9247 102.709Z" fill="#00757A"/>
<path d="M30.9247 102.709C46.426 102.709 58.9673 99.2724 58.9673 95.1328C58.9673 90.9152 46.426 87.5566 30.9247 87.5566C15.4234 87.5566 2.88208 90.9933 2.88208 95.1328C2.88208 99.3505 15.4234 102.709 30.9247 102.709Z" fill="#00757A"/>
<path d="M30.9249 100.991C42.843 100.991 52.4242 98.3356 52.4242 95.1333C52.4242 91.931 42.7651 89.2754 30.9249 89.2754C19.0067 89.2754 9.42552 91.931 9.42552 95.1333C9.34762 98.3356 19.0067 100.991 30.9249 100.991Z" fill="#073837"/>
<path d="M30.9249 100.991C42.843 100.991 52.4242 98.3356 52.4242 95.1333C52.4242 91.931 42.7651 89.2754 30.9249 89.2754C19.0067 89.2754 9.42552 91.931 9.42552 95.1333C9.34762 98.3356 19.0067 100.991 30.9249 100.991Z" fill="#073837"/>
<path d="M30.9248 100.991C41.9082 100.991 50.8662 98.5701 50.8662 95.6021C50.8662 92.6341 41.9082 90.2129 30.9248 90.2129C19.9415 90.2129 10.9834 92.6341 10.9834 95.6021C10.9834 98.5701 19.8636 100.991 30.9248 100.991Z" fill="#0A5959"/>
<path d="M41.3622 102.24C38.0127 102.553 34.3516 102.787 30.5347 102.787C22.9787 102.787 15.8902 102.006 10.6712 100.522C5.37421 99.0381 2.49206 97.1635 2.64785 95.0547C2.80364 90.837 15.6565 87.4785 31.3136 87.4785C46.8929 87.5566 59.512 90.9932 59.2783 95.2109C59.0447 98.4132 51.7224 101.069 41.3622 102.24ZM20.6419 88.1815C10.5154 89.2749 3.27102 91.9305 3.19312 95.0547C3.03733 97.0073 5.91949 98.96 11.0606 100.366C16.2018 101.772 23.1345 102.553 30.6126 102.631C45.9581 102.709 58.5773 99.3505 58.7331 95.2109C58.8889 91.0713 46.6592 87.6347 31.3136 87.6347C27.4967 87.5566 23.9135 87.7909 20.6419 88.1815Z" fill="url(#paint0_linear_11851_20285)"/>
<path d="M41.3622 102.24C38.0127 102.553 34.3516 102.787 30.5347 102.787C22.9787 102.787 15.8902 102.006 10.6712 100.522C5.37421 99.0381 2.49206 97.1635 2.64785 95.0547C2.80364 90.837 15.6565 87.4785 31.3136 87.4785C46.8929 87.5566 59.512 90.9932 59.2783 95.2109C59.0447 98.4132 51.7224 101.069 41.3622 102.24ZM20.6419 88.1815C10.5154 89.2749 3.27102 91.9305 3.19312 95.0547C3.03733 97.0073 5.91949 98.96 11.0606 100.366C16.2018 101.772 23.1345 102.553 30.6126 102.631C45.9581 102.709 58.5773 99.3505 58.7331 95.2109C58.8889 91.0713 46.6592 87.6347 31.3136 87.6347C27.4967 87.5566 23.9135 87.7909 20.6419 88.1815Z" fill="url(#paint1_linear_11851_20285)"/>
<path d="M35.5986 92.164H35.5207C35.5207 92.164 35.5207 92.164 35.4428 92.164C35.4428 92.164 35.4428 92.164 35.3649 92.164H35.287C35.2091 92.164 35.2091 92.164 35.1312 92.164L22.0446 92.0859C20.7983 92.0859 19.7856 92.3984 19.7856 92.7108C19.7856 93.0232 20.7983 93.3356 21.9667 93.3356L34.9754 93.4137C35.0533 93.4137 35.0533 93.4137 35.1312 93.4137C35.2091 93.4137 35.2091 93.4137 35.287 93.4137C37.7797 93.4137 39.7271 93.9605 39.7271 94.6634C39.6492 95.2882 37.7018 95.9131 35.2091 95.9131H30.769V95.2882H35.2091C36.4554 95.2882 37.4681 94.9758 37.4681 94.6634C37.4681 94.351 36.4554 94.0386 35.287 94.0386L24.8489 93.9605C23.6026 93.9605 22.5899 94.2729 22.5899 94.5853C22.5899 94.8977 23.6026 95.2101 24.771 95.2101H26.251V95.835L26.1731 97.0847L26.0952 98.4905C26.0952 98.803 27.1079 99.1154 28.2763 99.1154C29.5227 99.1154 30.5353 98.803 30.5353 98.4905L30.6132 97.0847H35.0533C40.0386 97.0847 44.0892 96.0693 44.0892 94.7415C44.4008 93.2575 40.506 92.164 35.5986 92.164Z" fill="#073837"/>
<path d="M21.2657 91.541H19.7856V92.7126H21.2657V91.541Z" fill="#073837"/>
<path d="M37.468 93.3359H35.2869V94.6637H37.468V93.3359Z" fill="#073837"/>
<path d="M24.7709 93.3359H22.5898V94.5856H24.7709V93.3359Z" fill="#073837"/>
<path d="M44.2451 93.3359H42.064V94.5856H44.2451V93.3359Z" fill="#073837"/>
<path d="M35.5207 90.9941H35.4428C35.4428 90.9941 35.4428 90.9941 35.3649 90.9941C35.3649 90.9941 35.3649 90.9941 35.287 90.9941H35.2091C35.1312 90.9941 35.1312 90.9941 35.0533 90.9941L22.0446 90.916C20.7983 90.916 19.7856 91.2284 19.7856 91.5409C19.7856 91.8533 20.7983 92.1657 21.9667 92.1657H35.0533C35.1312 92.1657 35.1312 92.1657 35.2091 92.1657C35.287 92.1657 35.287 92.1657 35.3649 92.1657C37.8575 92.1657 39.8049 92.7124 39.8049 93.4154C39.7271 94.0402 37.7796 94.6651 35.287 94.6651H30.8469V94.0402H35.287C36.5333 94.0402 37.546 93.7278 37.546 93.4154C37.546 93.103 36.5333 92.7905 35.3649 92.7905L24.9268 92.7124C23.6805 92.7124 22.6678 93.0248 22.6678 93.3373C22.6678 93.6497 23.6805 93.9621 24.8489 93.9621H26.3289V94.5869L26.251 95.8366L26.1731 97.2425C26.1731 97.5549 27.1858 97.8674 28.3542 97.8674C29.6006 97.8674 30.6132 97.5549 30.6132 97.2425L30.6911 95.8366H35.1312C40.1165 95.8366 44.1671 94.8213 44.1671 93.4935C44.3229 92.0876 40.4281 90.9941 35.5207 90.9941Z" fill="url(#paint2_linear_11851_20285)"/>
<path d="M59.201 82.8691V92.7885C59.0453 97.0061 46.1924 100.365 30.5353 100.287C15.8129 100.208 3.739 97.1624 2.57056 93.3352V82.8691H59.201Z" fill="#0F5454"/>
<path d="M59.201 92.7105V92.7886C59.0453 97.0063 46.1924 100.287 30.6132 100.287C15.8908 100.209 3.97269 97.1625 2.72635 93.3353C2.64845 93.101 2.57056 92.8667 2.57056 92.6324C2.57056 92.4762 2.64845 92.32 2.72635 92.0856C3.97269 88.1804 16.3582 85.1343 31.3142 85.2124C46.8156 85.1343 59.201 88.4928 59.201 92.7105Z" fill="#0F5454"/>
<path d="M30.9247 90.4453C46.426 90.4453 58.9673 87.0087 58.9673 82.8692C58.9673 78.6515 46.426 75.293 30.9247 75.293C15.4234 75.293 2.88208 78.7296 2.88208 82.8692C2.88208 87.0087 15.4234 90.4453 30.9247 90.4453Z" fill="#00757A"/>
<path d="M30.9247 90.4453C46.426 90.4453 58.9673 87.0087 58.9673 82.8692C58.9673 78.6515 46.426 75.293 30.9247 75.293C15.4234 75.293 2.88208 78.7296 2.88208 82.8692C2.88208 87.0087 15.4234 90.4453 30.9247 90.4453Z" fill="#00757A"/>
<path d="M30.9249 88.7275C42.843 88.7275 52.4242 86.0719 52.4242 82.8696C52.4242 79.6673 42.7651 77.0117 30.9249 77.0117C19.0067 77.0117 9.42552 79.6673 9.42552 82.8696C9.34762 86.0719 19.0067 88.7275 30.9249 88.7275Z" fill="#073837"/>
<path d="M30.9249 88.7275C42.843 88.7275 52.4242 86.0719 52.4242 82.8696C52.4242 79.6673 42.7651 77.0117 30.9249 77.0117C19.0067 77.0117 9.42552 79.6673 9.42552 82.8696C9.34762 86.0719 19.0067 88.7275 30.9249 88.7275Z" fill="#073837"/>
<path d="M30.9248 88.6496C41.9082 88.6496 50.8662 86.2283 50.8662 83.2603C50.8662 80.2924 41.9082 77.8711 30.9248 77.8711C19.9415 77.8711 10.9834 80.2924 10.9834 83.2603C10.9834 86.2283 19.8636 88.6496 30.9248 88.6496Z" fill="#0A5959"/>
<path d="M41.3622 89.8986C38.0127 90.211 34.3516 90.4453 30.5347 90.4453C22.9787 90.4453 15.8902 89.6643 10.6712 88.1803C5.37421 86.6963 2.49206 84.8217 2.64785 82.7129C2.80364 78.4952 15.6565 75.1367 31.3136 75.1367C46.8929 75.2148 59.512 78.6514 59.2783 82.8691C59.0447 86.1495 51.7224 88.8051 41.3622 89.8986ZM20.6419 75.8397C10.5154 76.9331 3.27102 79.5887 3.19312 82.7129C3.03733 84.6655 5.91949 86.6182 11.0606 88.0241C16.2018 89.4299 23.1345 90.211 30.6126 90.2891C45.9581 90.3672 58.5773 87.0087 58.7331 82.8691C58.8889 78.7296 46.6592 75.2929 31.3136 75.2929C27.4967 75.2929 23.9135 75.5272 20.6419 75.8397Z" fill="url(#paint3_linear_11851_20285)"/>
<path d="M41.3622 89.8986C38.0127 90.211 34.3516 90.4453 30.5347 90.4453C22.9787 90.4453 15.8902 89.6643 10.6712 88.1803C5.37421 86.6963 2.49206 84.8217 2.64785 82.7129C2.80364 78.4952 15.6565 75.1367 31.3136 75.1367C46.8929 75.2148 59.512 78.6514 59.2783 82.8691C59.0447 86.1495 51.7224 88.8051 41.3622 89.8986ZM20.6419 75.8397C10.5154 76.9331 3.27102 79.5887 3.19312 82.7129C3.03733 84.6655 5.91949 86.6182 11.0606 88.0241C16.2018 89.4299 23.1345 90.211 30.6126 90.2891C45.9581 90.3672 58.5773 87.0087 58.7331 82.8691C58.8889 78.7296 46.6592 75.2929 31.3136 75.2929C27.4967 75.2929 23.9135 75.5272 20.6419 75.8397Z" fill="url(#paint4_linear_11851_20285)"/>
<path d="M35.5986 79.8222H35.5207C35.5207 79.8222 35.5207 79.8222 35.4428 79.8222C35.4428 79.8222 35.4428 79.8222 35.3649 79.8222H35.287C35.2091 79.8222 35.2091 79.8222 35.1312 79.8222L22.0446 79.7441C20.7983 79.7441 19.7856 80.0566 19.7856 80.369C19.7856 80.6814 20.7983 80.9938 21.9667 80.9938L34.9754 81.0719C35.0533 81.0719 35.0533 81.0719 35.1312 81.0719C35.2091 81.0719 35.2091 81.0719 35.287 81.0719C37.7797 81.0719 39.7271 81.6187 39.7271 82.3216C39.6492 82.9464 37.7018 83.5713 35.2091 83.5713H30.769V82.9464H35.2091C36.4554 82.9464 37.4681 82.634 37.4681 82.3216C37.4681 82.0092 36.4554 81.6968 35.287 81.6968L24.8489 81.6187C23.6026 81.6187 22.5899 81.9311 22.5899 82.2435C22.5899 82.5559 23.6026 82.8683 24.771 82.8683H26.251V83.4932L26.1731 84.7429L26.0952 86.1488C26.0952 86.4612 27.1079 86.7736 28.2763 86.7736C29.5227 86.7736 30.5353 86.4612 30.5353 86.1488L30.6132 84.7429H35.0533C40.0386 84.7429 44.0892 83.7275 44.0892 82.3997C44.4008 80.9938 40.506 79.8222 35.5986 79.8222Z" fill="#073837"/>
<path d="M21.2657 79.1992H19.7856V80.3708H21.2657V79.1992Z" fill="#073837"/>
<path d="M37.468 81.0723H35.2869V82.4H37.468V81.0723Z" fill="#073837"/>
<path d="M24.7709 80.9941H22.5898V82.2438H24.7709V80.9941Z" fill="#073837"/>
<path d="M44.2451 80.9941H42.064V82.2438H44.2451V80.9941Z" fill="#073837"/>
<path d="M35.5207 78.6523H35.4428C35.4428 78.6523 35.4428 78.6523 35.3649 78.6523C35.3649 78.6523 35.3649 78.6523 35.287 78.6523H35.2091C35.1312 78.6523 35.1312 78.6523 35.0533 78.6523L22.0446 78.5742C20.7983 78.5742 19.7856 78.8866 19.7856 79.1991C19.7856 79.5115 20.7983 79.8239 21.9667 79.8239L34.9754 79.902C35.0533 79.902 35.0533 79.902 35.1312 79.902C35.2091 79.902 35.2091 79.902 35.287 79.902C37.7797 79.902 39.7271 80.4487 39.7271 81.1517C39.6492 81.7765 37.7018 82.4014 35.2091 82.4014H30.769V81.7765H35.2091C36.4554 81.7765 37.4681 81.4641 37.4681 81.1517C37.4681 80.8393 36.4554 80.5268 35.287 80.5268L24.8489 80.4487C23.6026 80.4487 22.5899 80.7612 22.5899 81.0736C22.5899 81.386 23.6026 81.6984 24.771 81.6984H26.251V82.3233L26.1731 83.5729L26.0952 84.9788C26.0952 85.2913 27.1079 85.6037 28.2763 85.6037C29.5227 85.6037 30.5353 85.2913 30.5353 84.9788L30.6132 83.5729H35.0533C40.0386 83.5729 44.0892 82.5576 44.0892 81.2298C44.3229 79.8239 40.4281 78.7304 35.5207 78.6523Z" fill="url(#paint5_linear_11851_20285)"/>
<path d="M59.201 70.5293V80.4486C59.0453 84.6663 46.1924 88.0248 30.5353 87.9467C15.8129 87.8686 3.739 84.8225 2.57056 80.9954V70.5293H59.201Z" fill="#0F5454"/>
<path d="M59.201 80.3706V80.4487C59.0453 84.6664 46.1924 87.9468 30.6132 87.9468C15.8908 87.8687 3.97269 84.8226 2.72635 80.9955C2.64845 80.7612 2.57056 80.5269 2.57056 80.2925C2.57056 80.1363 2.64845 79.9801 2.72635 79.7458C3.97269 75.8405 16.3582 72.7945 31.3142 72.8726C46.8156 72.8726 59.201 76.2311 59.201 80.3706Z" fill="#0F5454"/>
<path d="M30.9247 78.1836C46.426 78.1836 58.9673 74.747 58.9673 70.6074C58.9673 66.3898 46.426 63.0312 30.9247 63.0312C15.4234 63.0312 2.88208 66.4679 2.88208 70.6074C2.88208 74.747 15.4234 78.1836 30.9247 78.1836Z" fill="#00757A"/>
<path d="M30.9247 78.1836C46.426 78.1836 58.9673 74.747 58.9673 70.6074C58.9673 66.3898 46.426 63.0312 30.9247 63.0312C15.4234 63.0312 2.88208 66.4679 2.88208 70.6074C2.88208 74.747 15.4234 78.1836 30.9247 78.1836Z" fill="#00757A"/>
<path d="M30.9249 76.3876C42.843 76.3876 52.4242 73.7321 52.4242 70.5298C52.4242 67.3274 42.7651 64.6719 30.9249 64.6719C19.0067 64.6719 9.42552 67.3274 9.42552 70.5298C9.34762 73.8102 19.0067 76.3876 30.9249 76.3876Z" fill="#073837"/>
<path d="M30.9249 76.3876C42.843 76.3876 52.4242 73.7321 52.4242 70.5298C52.4242 67.3274 42.7651 64.6719 30.9249 64.6719C19.0067 64.6719 9.42552 67.3274 9.42552 70.5298C9.34762 73.8102 19.0067 76.3876 30.9249 76.3876Z" fill="#073837"/>
<path d="M30.9248 76.3879C41.9082 76.3879 50.8662 73.9666 50.8662 70.9986C50.8662 68.0306 41.9082 65.6094 30.9248 65.6094C19.9415 65.6094 10.9834 68.0306 10.9834 70.9986C10.9834 73.9666 19.8636 76.3879 30.9248 76.3879Z" fill="#0A5959"/>
<path d="M41.3622 77.6368C38.0127 77.9493 34.3516 78.1836 30.5347 78.1836C22.9787 78.1836 15.8902 77.4025 10.6712 75.9185C5.37421 74.4345 2.49206 72.56 2.64785 70.4512C2.80364 66.2335 15.6565 62.875 31.3136 62.875C46.8929 62.9531 59.512 66.3897 59.2783 70.6074C59.0447 73.8097 51.7224 76.5434 41.3622 77.6368ZM20.6419 63.5779C10.5154 64.6714 3.27102 67.327 3.19312 70.4512C3.03733 72.4038 5.91949 74.3564 11.0606 75.7623C16.2018 77.1682 23.1345 77.9493 30.6126 78.0274C45.9581 78.1055 58.5773 74.747 58.7331 70.6074C58.8889 66.4678 46.6592 63.0312 31.3136 63.0312C27.4967 63.0312 23.9135 63.2655 20.6419 63.5779Z" fill="url(#paint6_linear_11851_20285)"/>
<path d="M41.3622 77.6368C38.0127 77.9493 34.3516 78.1836 30.5347 78.1836C22.9787 78.1836 15.8902 77.4025 10.6712 75.9185C5.37421 74.4345 2.49206 72.56 2.64785 70.4512C2.80364 66.2335 15.6565 62.875 31.3136 62.875C46.8929 62.9531 59.512 66.3897 59.2783 70.6074C59.0447 73.8097 51.7224 76.5434 41.3622 77.6368ZM20.6419 63.5779C10.5154 64.6714 3.27102 67.327 3.19312 70.4512C3.03733 72.4038 5.91949 74.3564 11.0606 75.7623C16.2018 77.1682 23.1345 77.9493 30.6126 78.0274C45.9581 78.1055 58.5773 74.747 58.7331 70.6074C58.8889 66.4678 46.6592 63.0312 31.3136 63.0312C27.4967 63.0312 23.9135 63.2655 20.6419 63.5779Z" fill="url(#paint7_linear_11851_20285)"/>
<path d="M35.5986 67.5605H35.5207C35.5207 67.5605 35.5207 67.5605 35.4428 67.5605C35.4428 67.5605 35.4428 67.5605 35.3649 67.5605H35.287C35.2091 67.5605 35.2091 67.5605 35.1312 67.5605L22.0446 67.4824C20.7983 67.4824 19.7856 67.7948 19.7856 68.1073C19.7856 68.4197 20.7983 68.7321 21.9667 68.7321L35.0533 68.8102C35.1312 68.8102 35.1312 68.8102 35.2091 68.8102C35.287 68.8102 35.287 68.8102 35.3649 68.8102C37.8575 68.8102 39.8049 69.3569 39.8049 70.0599C39.7271 70.6847 37.7796 71.3096 35.287 71.3096H30.8469V70.6847H35.287C36.5333 70.6847 37.546 70.3723 37.546 70.0599C37.546 69.7475 36.5333 69.435 35.3649 69.435L24.9268 69.3569C23.6805 69.3569 22.6678 69.6694 22.6678 69.9818C22.6678 70.2942 23.6805 70.6066 24.8489 70.6066H26.3289V71.2315L26.251 72.4811L26.1731 73.887C26.1731 74.1994 27.1858 74.5119 28.3542 74.5119C29.6006 74.5119 30.6132 74.1994 30.6132 73.887L30.6911 72.4811H35.1312C40.1165 72.4811 44.1671 71.4658 44.1671 70.138C44.4008 68.654 40.506 67.5605 35.5986 67.5605Z" fill="#073837"/>
<path d="M21.2657 66.9375H19.7856V68.1091H21.2657V66.9375Z" fill="#073837"/>
<path d="M37.468 68.8105H35.2869V70.1383H37.468V68.8105Z" fill="#073837"/>
<path d="M24.7709 68.7324H22.5898V69.9821H24.7709V68.7324Z" fill="#073837"/>
<path d="M44.2451 68.7324H42.064V69.9821H44.2451V68.7324Z" fill="#073837"/>
<path d="M35.5207 66.3906H35.4428C35.4428 66.3906 35.4428 66.3906 35.3649 66.3906C35.3649 66.3906 35.3649 66.3906 35.287 66.3906H35.2091C35.1312 66.3906 35.1312 66.3906 35.0533 66.3906L22.0446 66.3125C20.7983 66.3125 19.7856 66.6249 19.7856 66.9373C19.7856 67.2498 20.7983 67.5622 21.9667 67.5622H35.0533C35.1312 67.5622 35.1312 67.5622 35.2091 67.5622C35.287 67.5622 35.287 67.5622 35.3649 67.5622C37.8575 67.5622 39.8049 68.1089 39.8049 68.8119C39.7271 69.4367 37.7796 70.0615 35.287 70.0615H30.8469V69.4367H35.287C36.5333 69.4367 37.546 69.1243 37.546 68.8119C37.546 68.4994 36.5333 68.187 35.3649 68.187L24.9268 68.1089C23.6805 68.1089 22.6678 68.4213 22.6678 68.7338C22.6678 69.0462 23.6805 69.3586 24.8489 69.3586H26.3289V69.9834L26.251 71.2331L26.1731 72.639C26.1731 72.9514 27.1858 73.2638 28.3542 73.2638C29.6006 73.2638 30.6132 72.9514 30.6132 72.639L30.6911 71.2331H35.1312C40.1165 71.2331 44.1671 70.2177 44.1671 68.89C44.3229 67.5622 40.4281 66.4687 35.5207 66.3906Z" fill="url(#paint8_linear_11851_20285)"/>
<path d="M59.201 58.2656V68.185C59.0453 72.4026 46.1924 75.7611 30.5353 75.683C15.8129 75.6049 3.739 72.5588 2.57056 68.7317V58.2656H59.201Z" fill="#0F5454"/>
<path d="M59.201 68.107V68.1851C59.0453 72.4027 46.1924 75.6832 30.6132 75.6832C15.8908 75.6051 3.89479 72.559 2.72635 68.7318C2.64845 68.4975 2.57056 68.2632 2.57056 68.0289C2.57056 67.8727 2.64845 67.7164 2.72635 67.4821C3.97269 63.5769 16.3582 60.5308 31.3142 60.6089C46.8156 60.5308 59.201 63.9674 59.201 68.107Z" fill="#0F5454"/>
<path d="M30.9247 65.8418C46.426 65.8418 58.9673 62.4052 58.9673 58.2656C58.9673 54.048 46.426 50.6895 30.9247 50.6895C15.4234 50.6895 2.88208 54.1261 2.88208 58.2656C2.88208 62.4833 15.4234 65.8418 30.9247 65.8418Z" fill="#00757A"/>
<path d="M30.9247 65.8418C46.426 65.8418 58.9673 62.4052 58.9673 58.2656C58.9673 54.048 46.426 50.6895 30.9247 50.6895C15.4234 50.6895 2.88208 54.1261 2.88208 58.2656C2.88208 62.4833 15.4234 65.8418 30.9247 65.8418Z" fill="#00757A"/>
<path d="M30.9249 64.124C42.843 64.124 52.4242 61.4684 52.4242 58.2661C52.4242 55.0638 42.7651 52.4082 30.9249 52.4082C19.0067 52.4082 9.42552 55.0638 9.42552 58.2661C9.34762 61.4684 19.0067 64.124 30.9249 64.124Z" fill="#073837"/>
<path d="M30.9249 64.124C42.843 64.124 52.4242 61.4684 52.4242 58.2661C52.4242 55.0638 42.7651 52.4082 30.9249 52.4082C19.0067 52.4082 9.42552 55.0638 9.42552 58.2661C9.34762 61.4684 19.0067 64.124 30.9249 64.124Z" fill="#073837"/>
<path d="M30.9248 64.0461C41.9082 64.0461 50.8662 61.6248 50.8662 58.6568C50.8662 55.6888 41.9082 53.2676 30.9248 53.2676C19.9415 53.2676 10.9834 55.6888 10.9834 58.6568C10.9834 61.7029 19.8636 64.0461 30.9248 64.0461Z" fill="#0A5959"/>
<path d="M41.3622 65.3732C38.0127 65.6856 34.3516 65.9199 30.5347 65.9199C22.9787 65.9199 15.8902 65.1389 10.6712 63.6549C5.37421 62.1709 2.49206 60.2963 2.64785 58.1875C2.80364 53.9698 15.6565 50.6113 31.3136 50.6113C46.8929 50.6894 59.512 54.126 59.2783 58.3437C59.0447 61.546 51.7224 64.2016 41.3622 65.3732ZM20.6419 51.3143C10.5154 52.4077 3.27102 55.0633 3.19312 58.1875C3.03733 60.1401 5.91949 62.0928 11.0606 63.4987C16.2018 64.9045 23.1345 65.6856 30.6126 65.7637C45.9581 65.8418 58.5773 62.4833 58.7331 58.3437C58.8889 54.2042 46.6592 50.7675 31.3136 50.7675C27.4967 50.6894 23.9135 50.9237 20.6419 51.3143Z" fill="url(#paint9_linear_11851_20285)"/>
<path d="M41.3622 65.3732C38.0127 65.6856 34.3516 65.9199 30.5347 65.9199C22.9787 65.9199 15.8902 65.1389 10.6712 63.6549C5.37421 62.1709 2.49206 60.2963 2.64785 58.1875C2.80364 53.9698 15.6565 50.6113 31.3136 50.6113C46.8929 50.6894 59.512 54.126 59.2783 58.3437C59.0447 61.546 51.7224 64.2016 41.3622 65.3732ZM20.6419 51.3143C10.5154 52.4077 3.27102 55.0633 3.19312 58.1875C3.03733 60.1401 5.91949 62.0928 11.0606 63.4987C16.2018 64.9045 23.1345 65.6856 30.6126 65.7637C45.9581 65.8418 58.5773 62.4833 58.7331 58.3437C58.8889 54.2042 46.6592 50.7675 31.3136 50.7675C27.4967 50.6894 23.9135 50.9237 20.6419 51.3143Z" fill="url(#paint10_linear_11851_20285)"/>
<path d="M35.5986 55.2969H35.5207C35.5207 55.2969 35.5207 55.2969 35.4428 55.2969C35.4428 55.2969 35.4428 55.2969 35.3649 55.2969H35.287C35.2091 55.2969 35.2091 55.2969 35.1312 55.2969L22.0446 55.2188C20.7983 55.2188 19.7856 55.5312 19.7856 55.8436C19.7856 56.156 20.7983 56.4684 21.9667 56.4684H35.0533C35.1312 56.4684 35.1312 56.4684 35.2091 56.4684C35.287 56.4684 35.287 56.4684 35.3649 56.4684C37.8576 56.4684 39.805 57.0152 39.805 57.7181C39.7271 58.343 37.7797 58.9678 35.287 58.9678H30.8469V58.343H35.287C36.5333 58.343 37.546 58.0305 37.546 57.7181C37.546 57.4057 36.5333 57.0933 35.3649 57.0933L24.8489 57.0152C23.6026 57.0152 22.5899 57.3276 22.5899 57.64C22.5899 57.9524 23.6026 58.2648 24.771 58.2648H26.251V58.8897L26.1731 60.1394L26.0952 61.5453C26.0952 61.8577 27.1079 62.1701 28.2763 62.1701C29.5227 62.1701 30.5353 61.8577 30.5353 61.5453L30.6132 60.1394H35.0533C40.0386 60.1394 44.0892 59.124 44.0892 57.7962C44.4008 56.3903 40.506 55.2969 35.5986 55.2969Z" fill="#073837"/>
<path d="M21.2657 54.6738H19.7856V55.8454H21.2657V54.6738Z" fill="#073837"/>
<path d="M37.468 56.4688H35.2869V57.7965H37.468V56.4688Z" fill="#073837"/>
<path d="M24.7709 56.4688H22.5898V57.7184H24.7709V56.4688Z" fill="#073837"/>
<path d="M44.2451 56.4688H42.064V57.7184H44.2451V56.4688Z" fill="#073837"/>
<path d="M35.5207 54.1269H35.4428C35.4428 54.1269 35.4428 54.1269 35.3649 54.1269C35.3649 54.1269 35.3649 54.1269 35.287 54.1269H35.2091C35.1312 54.1269 35.1312 54.1269 35.0533 54.1269L22.0446 54.0488C20.7983 54.0488 19.7856 54.3613 19.7856 54.6737C19.7856 54.9861 20.7983 55.2985 21.9667 55.2985H35.0533C35.1312 55.2985 35.1312 55.2985 35.2091 55.2985C35.287 55.2985 35.287 55.2985 35.3649 55.2985C37.8575 55.2985 39.8049 55.8452 39.8049 56.5482C39.7271 57.173 37.7796 57.7979 35.287 57.7979H30.8469V57.173H35.287C36.5333 57.173 37.546 56.8606 37.546 56.5482C37.546 56.2358 36.5333 55.9233 35.3649 55.9233L24.9268 55.8452C23.6805 55.8452 22.6678 56.1577 22.6678 56.4701C22.6678 56.7825 23.6805 57.0949 24.8489 57.0949H26.3289V57.7198L26.251 58.9694L26.1731 60.3753C26.1731 60.6878 27.1858 61.0002 28.3542 61.0002C29.6006 61.0002 30.6132 60.6878 30.6132 60.3753L30.6911 58.9694H35.1312C40.1165 58.9694 44.1671 57.9541 44.1671 56.6263C44.3229 55.2204 40.4281 54.1269 35.5207 54.1269Z" fill="url(#paint11_linear_11851_20285)"/>
<path d="M72.7548 119.579C88.334 119.579 101.031 107.004 101.031 91.3834C101.031 75.8405 88.4119 63.1875 72.7548 63.1875C57.1756 63.1875 44.4785 75.7624 44.4785 91.3834C44.4785 106.926 57.0977 119.579 72.7548 119.579Z" fill="#0F5454"/>
<path d="M72.7548 119.579C88.334 119.579 101.031 107.004 101.031 91.3834C101.031 75.8405 88.4119 63.1875 72.7548 63.1875C57.1756 63.1875 44.4785 75.7624 44.4785 91.3834C44.4785 106.926 57.0977 119.579 72.7548 119.579Z" fill="#0F5454"/>
<path d="M72.7548 115.597C88.334 115.597 101.031 103.022 101.031 87.401C101.031 71.78 88.4119 59.2051 72.7548 59.2051C57.1756 59.2051 44.4785 71.78 44.4785 87.401C44.4785 103.022 57.0977 115.597 72.7548 115.597Z" fill="#00757A"/>
<path d="M72.7548 115.597C88.334 115.597 101.031 103.022 101.031 87.401C101.031 71.78 88.4119 59.2051 72.7548 59.2051C57.1756 59.2051 44.4785 71.78 44.4785 87.401C44.4785 103.022 57.0977 115.597 72.7548 115.597Z" fill="#00757A"/>
<path d="M72.755 109.036C84.751 109.036 94.4101 99.3508 94.4101 87.4007C94.4101 75.4506 84.6731 65.7656 72.755 65.7656C60.8369 65.7656 51.0999 75.4506 51.0999 87.4007C51.0999 99.3508 60.759 109.036 72.755 109.036Z" fill="#073837"/>
<path d="M72.755 109.036C84.751 109.036 94.4101 99.3508 94.4101 87.4007C94.4101 75.4506 84.6731 65.7656 72.755 65.7656C60.8369 65.7656 51.0999 75.4506 51.0999 87.4007C51.0999 99.3508 60.759 109.036 72.755 109.036Z" fill="#073837"/>
<path d="M72.7549 107.474C83.8162 107.474 92.8521 98.492 92.8521 87.4011C92.8521 76.3102 83.8941 67.3281 72.7549 67.3281C61.6158 67.3281 52.6577 76.3102 52.6577 87.4011C52.6577 98.492 61.6158 107.474 72.7549 107.474Z" fill="#0A5959"/>
<path d="M72.7549 107.474C83.8162 107.474 92.8521 98.492 92.8521 87.4011C92.8521 76.3102 83.8941 67.3281 72.7549 67.3281C61.6158 67.3281 52.6577 76.3102 52.6577 87.4011C52.6577 98.492 61.6158 107.474 72.7549 107.474Z" fill="#0A5959"/>
<path d="M83.2709 113.8C79.9214 115.128 76.2603 115.83 72.3655 115.83C64.7316 115.674 57.6431 112.706 52.3461 107.317C47.0492 101.928 44.1671 94.7421 44.2449 87.0878C44.4007 71.3887 57.3315 58.8138 73.0665 59.0481C88.8015 59.2044 101.421 72.0917 101.187 87.7908C101.109 99.6627 93.709 109.738 83.2709 113.8ZM62.4726 61.4694C52.1904 65.5309 44.946 75.4502 44.8681 87.0878C44.7123 94.5078 47.5945 101.615 52.8135 106.927C58.0326 112.238 64.9653 115.206 72.5212 115.362C87.9447 115.518 100.642 103.256 100.798 87.8689C100.953 72.4822 88.6458 59.8292 73.2223 59.673C69.3275 59.5168 65.7443 60.2197 62.4726 61.4694Z" fill="url(#paint12_linear_11851_20285)"/>
<path d="M83.2709 113.8C79.9214 115.128 76.2603 115.83 72.3655 115.83C64.7316 115.674 57.6431 112.706 52.3461 107.317C47.0492 101.928 44.1671 94.7421 44.2449 87.0878C44.4007 71.3887 57.3315 58.8138 73.0665 59.0481C88.8015 59.2044 101.421 72.0917 101.187 87.7908C101.109 99.6627 93.709 109.738 83.2709 113.8ZM62.4726 61.4694C52.1904 65.5309 44.946 75.4502 44.8681 87.0878C44.7123 94.5078 47.5945 101.615 52.8135 106.927C58.0326 112.238 64.9653 115.206 72.5212 115.362C87.9447 115.518 100.642 103.256 100.798 87.8689C100.953 72.4822 88.6458 59.8292 73.2223 59.673C69.3275 59.5168 65.7443 60.2197 62.4726 61.4694Z" fill="url(#paint13_linear_11851_20285)"/>
<path d="M77.6625 75.7617H77.5067C77.5067 75.7617 77.5067 75.7617 77.4288 75.7617C77.4288 75.7617 77.4288 75.7617 77.3509 75.7617H77.273C77.1951 75.7617 77.1172 75.7617 77.1172 75.7617L63.1738 75.6055C61.8496 75.6055 60.759 76.6989 60.759 77.9486C60.759 79.2764 61.8496 80.3699 63.0959 80.3699L77.0393 80.5261C77.1172 80.5261 77.1951 80.5261 77.1951 80.5261C77.273 80.5261 77.3509 80.5261 77.3509 80.5261C79.9994 80.6042 82.1026 82.713 82.1026 85.3686C82.0247 88.0242 79.9215 90.133 77.273 90.0549L72.5214 89.9768V87.5555L77.273 87.6336C78.5973 87.6336 79.6878 86.5402 79.6878 85.2905C79.6878 83.9627 78.5973 82.8692 77.3509 82.8692L66.2118 82.7911C64.8875 82.7911 63.797 83.8846 63.797 85.1343C63.797 86.384 64.8875 87.5555 66.1339 87.5555H67.6918V89.9768L67.6139 94.7412L67.536 100.365C67.536 101.693 68.6265 102.786 69.8729 102.786C71.1971 102.786 72.2877 101.693 72.2877 100.443L72.3656 94.8193L77.1172 94.8974C82.4142 94.9755 86.7764 90.6797 86.7764 85.4467C87.0879 80.2137 82.8815 75.8398 77.6625 75.7617Z" fill="#073837"/>
<path d="M76.6498 74.6699H76.494C76.494 74.6699 76.494 74.6699 76.4161 74.6699C76.4161 74.6699 76.4161 74.6699 76.3382 74.6699C76.2603 74.6699 76.1824 74.6699 76.1824 74.6699L62.239 74.5137C60.9148 74.5137 59.8242 75.6071 59.8242 76.8568C59.8242 78.1846 60.9148 79.2781 62.1611 79.2781L76.1045 79.4343C76.1824 79.4343 76.2603 79.4343 76.2603 79.4343C76.3382 79.4343 76.4161 79.4343 76.4161 79.4343C79.0646 79.5124 81.1678 81.6212 81.1678 84.2768C81.0899 86.9324 78.9867 89.0412 76.3382 88.9631L71.5865 88.885V86.4637L76.3382 86.5418C77.6624 86.5418 78.753 85.4484 78.753 84.1987C78.753 82.949 77.6624 81.7774 76.4161 81.7774L65.2769 81.6212C63.9527 81.6212 62.8622 82.7147 62.8622 83.9644C62.8622 85.2922 63.9527 86.3856 65.199 86.3856H66.757V88.8069L66.6791 93.5713L66.6012 99.1949C66.6012 100.523 67.6917 101.616 68.9381 101.616C70.2623 101.616 71.3528 100.523 71.3528 99.273L71.4307 93.6494L76.1824 93.7275C81.4793 93.8056 85.8415 89.5098 85.8415 84.2768C86.1531 79.1219 81.9467 74.8261 76.6498 74.6699Z" fill="url(#paint14_linear_11851_20285)"/>
<path d="M115.987 20.5423L103.056 2.34388C101.265 -0.233588 97.6816 -0.780323 95.1111 1.01609L67.3021 21.011C66.679 21.5577 66.1337 22.1825 65.7442 23.0417L61.0705 33.2734L56.3967 43.5052C54.6051 47.4105 57.7209 51.7062 62.0052 51.3157L73.2222 50.3003L84.3614 49.2069C85.2962 49.1288 86.0751 48.8163 86.7762 48.3477L114.585 28.3528C117.234 26.5564 117.779 23.0417 115.987 20.5423ZM63.641 47.5667C62.0831 47.5667 60.8368 46.317 60.8368 44.7549C60.8368 43.1928 62.0831 41.9431 63.641 41.9431C65.1989 41.9431 66.4453 43.1928 66.4453 44.7549C66.4453 46.317 65.1989 47.5667 63.641 47.5667Z" fill="url(#paint15_linear_11851_20285)"/>
<path d="M75.1698 41.7861C74.4688 41.9423 73.7677 41.9423 73.1445 41.708C72.5214 41.4736 71.8982 41.0831 71.4308 40.4583L73.9235 38.6619C74.2351 38.9743 74.5467 39.2086 74.8582 39.2086C75.1698 39.2086 75.5593 39.1305 75.8709 38.8962C76.1825 38.6619 76.4162 38.3494 76.4941 38.037C76.572 37.7246 76.4941 37.4122 76.3383 37.1779C76.1825 36.9436 75.9488 36.7873 75.6372 36.7873C75.4035 36.7092 75.0919 36.7873 74.7804 36.8654C74.4688 36.9436 74.0793 37.0217 73.534 37.256C72.7551 37.4903 72.1319 37.7246 71.5866 37.8027C71.0413 37.8808 70.4961 37.8808 69.9508 37.7246C69.4055 37.5684 68.9382 37.1779 68.4708 36.553C67.8476 35.6939 67.6139 34.7566 67.9255 33.7412C68.2371 32.804 68.8603 31.8667 69.8729 31.1638C70.9634 30.3827 71.9761 30.0703 72.9887 30.0703C74.0014 30.0703 74.8583 30.5389 75.5593 31.3981L73.0666 33.1945C72.833 32.8821 72.5214 32.7259 72.2098 32.7259C71.8982 32.7259 71.5087 32.804 71.1971 33.0383C70.8856 33.2726 70.7298 33.5069 70.6519 33.7412C70.574 34.0537 70.6519 34.288 70.8856 34.6004C71.1192 34.9128 71.4308 35.069 71.8203 34.9909C72.2098 34.9909 72.833 34.8347 73.6119 34.5223C74.3909 34.288 75.014 34.1318 75.5593 34.0537C76.1046 33.9756 76.6499 33.9756 77.1951 34.1318C77.7404 34.288 78.2078 34.6785 78.6752 35.2252C79.0646 35.772 79.2983 36.3968 79.2983 37.0217C79.3762 37.6465 79.2204 38.3494 78.8309 38.9743C78.5194 39.5991 77.9741 40.224 77.273 40.6926C76.6499 41.3174 75.8709 41.6299 75.1698 41.7861Z" fill="white"/>
<path d="M83.8163 35.0691C82.7258 35.2253 81.7131 35.0691 80.7784 34.6005C79.7657 34.1319 78.9868 33.507 78.2857 32.5698C77.5846 31.6325 77.1952 30.6171 77.1173 29.5237C77.0394 28.4302 77.1952 27.4148 77.6625 26.4776C78.1299 25.5403 78.7531 24.6812 79.6878 24.0563C80.6226 23.4315 81.5573 23.041 82.6479 22.8848C83.7384 22.7285 84.7511 22.8848 85.6858 23.3534C86.6206 23.822 87.4774 24.4469 88.1785 25.3841C88.8796 26.3214 89.2691 27.3367 89.3469 28.4302C89.4248 29.5237 89.2691 30.539 88.8796 31.4763C88.4122 32.4136 87.789 33.2727 86.8543 33.8976C85.8416 34.6005 84.9069 34.9129 83.8163 35.0691ZM86.4648 29.6799C86.5427 28.8207 86.309 27.9616 85.6858 27.1805C85.0627 26.3214 84.3616 25.8527 83.5047 25.6184C82.6479 25.4622 81.8689 25.6184 81.09 26.1652C80.311 26.7119 79.9215 27.4148 79.7657 28.274C79.6878 29.1332 79.9215 29.9923 80.5447 30.7734C81.1679 31.6325 81.8689 32.1011 82.7258 32.3355C83.5826 32.4917 84.3616 32.3355 85.1406 31.7887C85.9974 31.242 86.3869 30.539 86.4648 29.6799Z" fill="white"/>
<path d="M93.9427 25.7753L96.9807 23.5884L98.3049 25.3848L92.9301 29.2901L85.9973 19.6832L88.3342 17.9648L93.9427 25.7753Z" fill="white"/>
<path d="M99.0838 11.0911C100.096 10.9349 101.109 11.0911 102.044 11.4816C102.979 11.8722 103.758 12.5751 104.459 13.5124C105.16 14.4496 105.549 15.465 105.627 16.4804C105.705 17.4957 105.549 18.5111 105.082 19.4483C104.614 20.3856 103.913 21.2448 102.901 21.9477L99.3175 24.5252L92.3848 14.9183L95.968 12.3408C97.0585 11.6378 98.0712 11.2473 99.0838 11.0911ZM102.901 17.8081C103.057 16.949 102.823 16.0898 102.122 15.2307C101.499 14.3715 100.72 13.8248 99.8628 13.6686C99.0059 13.5124 98.1491 13.7467 97.2922 14.4496L96.2017 15.2307L100.252 20.7761L101.343 19.9951C102.278 19.4483 102.745 18.6673 102.901 17.8081Z" fill="white"/>
<path d="M64.0306 44.7539L63.3296 45.8474C64.6538 47.2533 57.5653 52.0958 54.6831 54.0484C55.0726 54.2046 55.3842 54.3608 55.7737 54.517C58.8116 52.6425 66.9907 47.1752 64.0306 44.7539Z" fill="#20FFE9"/>
</g>
<defs>
<linearGradient id="paint0_linear_11851_20285" x1="2.62861" y1="94.7579" x2="59.1973" y2="95.4527" gradientUnits="userSpaceOnUse">
<stop offset="0.00121702" stop-color="#00FFED"/>
<stop offset="0.3575" stop-color="#00FFEB" stop-opacity="0.8571"/>
<stop offset="0.5109" stop-color="#00FEE4" stop-opacity="0.7956"/>
<stop offset="0.6253" stop-color="#00FCD7" stop-opacity="0.7497"/>
<stop offset="0.7205" stop-color="#00F9C5" stop-opacity="0.7116"/>
<stop offset="0.8036" stop-color="#00F6AE" stop-opacity="0.6783"/>
<stop offset="0.8783" stop-color="#00F292" stop-opacity="0.6483"/>
<stop offset="0.9452" stop-color="#00EE71" stop-opacity="0.6215"/>
<stop offset="0.9988" stop-color="#00E950" stop-opacity="0.6"/>
</linearGradient>
<linearGradient id="paint1_linear_11851_20285" x1="2.62861" y1="94.7579" x2="59.1973" y2="95.4527" gradientUnits="userSpaceOnUse">
<stop offset="0.00121702" stop-color="#00FFED"/>
<stop offset="0.3575" stop-color="#00FFEB" stop-opacity="0.8571"/>
<stop offset="0.5109" stop-color="#00FEE4" stop-opacity="0.7956"/>
<stop offset="0.6253" stop-color="#00FCD7" stop-opacity="0.7497"/>
<stop offset="0.7205" stop-color="#00F9C5" stop-opacity="0.7116"/>
<stop offset="0.8036" stop-color="#00F6AE" stop-opacity="0.6783"/>
<stop offset="0.8783" stop-color="#00F292" stop-opacity="0.6483"/>
<stop offset="0.9452" stop-color="#00EE71" stop-opacity="0.6215"/>
<stop offset="0.9988" stop-color="#00E950" stop-opacity="0.6"/>
</linearGradient>
<linearGradient id="paint2_linear_11851_20285" x1="43.1671" y1="81.6961" x2="15.1047" y2="108.894" gradientUnits="userSpaceOnUse">
<stop stop-color="#00A8A1"/>
<stop offset="1" stop-color="#41FF7A"/>
</linearGradient>
<linearGradient id="paint3_linear_11851_20285" x1="2.62861" y1="82.4652" x2="59.1973" y2="83.1602" gradientUnits="userSpaceOnUse">
<stop offset="0.00121702" stop-color="#00FFED"/>
<stop offset="0.3575" stop-color="#00FFEB" stop-opacity="0.8571"/>
<stop offset="0.5109" stop-color="#00FEE4" stop-opacity="0.7956"/>
<stop offset="0.6253" stop-color="#00FCD7" stop-opacity="0.7497"/>
<stop offset="0.7205" stop-color="#00F9C5" stop-opacity="0.7116"/>
<stop offset="0.8036" stop-color="#00F6AE" stop-opacity="0.6783"/>
<stop offset="0.8783" stop-color="#00F292" stop-opacity="0.6483"/>
<stop offset="0.9452" stop-color="#00EE71" stop-opacity="0.6215"/>
<stop offset="0.9988" stop-color="#00E950" stop-opacity="0.6"/>
</linearGradient>
<linearGradient id="paint4_linear_11851_20285" x1="2.62861" y1="82.4652" x2="59.1973" y2="83.1602" gradientUnits="userSpaceOnUse">
<stop offset="0.00121702" stop-color="#00FFED"/>
<stop offset="0.3575" stop-color="#00FFEB" stop-opacity="0.8571"/>
<stop offset="0.5109" stop-color="#00FEE4" stop-opacity="0.7956"/>
<stop offset="0.6253" stop-color="#00FCD7" stop-opacity="0.7497"/>
<stop offset="0.7205" stop-color="#00F9C5" stop-opacity="0.7116"/>
<stop offset="0.8036" stop-color="#00F6AE" stop-opacity="0.6783"/>
<stop offset="0.8783" stop-color="#00F292" stop-opacity="0.6483"/>
<stop offset="0.9452" stop-color="#00EE71" stop-opacity="0.6215"/>
<stop offset="0.9988" stop-color="#00E950" stop-opacity="0.6"/>
</linearGradient>
<linearGradient id="paint5_linear_11851_20285" x1="43.1671" y1="69.4035" x2="15.1047" y2="96.6015" gradientUnits="userSpaceOnUse">
<stop stop-color="#00A8A1"/>
<stop offset="1" stop-color="#41FF7A"/>
</linearGradient>
<linearGradient id="paint6_linear_11851_20285" x1="2.62861" y1="70.1745" x2="59.1973" y2="70.8695" gradientUnits="userSpaceOnUse">
<stop offset="0.00121702" stop-color="#00FFED"/>
<stop offset="0.3575" stop-color="#00FFEB" stop-opacity="0.8571"/>
<stop offset="0.5109" stop-color="#00FEE4" stop-opacity="0.7956"/>
<stop offset="0.6253" stop-color="#00FCD7" stop-opacity="0.7497"/>
<stop offset="0.7205" stop-color="#00F9C5" stop-opacity="0.7116"/>
<stop offset="0.8036" stop-color="#00F6AE" stop-opacity="0.6783"/>
<stop offset="0.8783" stop-color="#00F292" stop-opacity="0.6483"/>
<stop offset="0.9452" stop-color="#00EE71" stop-opacity="0.6215"/>
<stop offset="0.9988" stop-color="#00E950" stop-opacity="0.6"/>
</linearGradient>
<linearGradient id="paint7_linear_11851_20285" x1="2.62861" y1="70.1745" x2="59.1973" y2="70.8695" gradientUnits="userSpaceOnUse">
<stop offset="0.00121702" stop-color="#00FFED"/>
<stop offset="0.3575" stop-color="#00FFEB" stop-opacity="0.8571"/>
<stop offset="0.5109" stop-color="#00FEE4" stop-opacity="0.7956"/>
<stop offset="0.6253" stop-color="#00FCD7" stop-opacity="0.7497"/>
<stop offset="0.7205" stop-color="#00F9C5" stop-opacity="0.7116"/>
<stop offset="0.8036" stop-color="#00F6AE" stop-opacity="0.6783"/>
<stop offset="0.8783" stop-color="#00F292" stop-opacity="0.6483"/>
<stop offset="0.9452" stop-color="#00EE71" stop-opacity="0.6215"/>
<stop offset="0.9988" stop-color="#00E950" stop-opacity="0.6"/>
</linearGradient>
<linearGradient id="paint8_linear_11851_20285" x1="43.1671" y1="57.1128" x2="15.1047" y2="84.3108" gradientUnits="userSpaceOnUse">
<stop stop-color="#00A8A1"/>
<stop offset="1" stop-color="#41FF7A"/>
</linearGradient>
<linearGradient id="paint9_linear_11851_20285" x1="2.62861" y1="57.8819" x2="59.1973" y2="58.5768" gradientUnits="userSpaceOnUse">
<stop offset="0.00121702" stop-color="#00FFED"/>
<stop offset="0.3575" stop-color="#00FFEB" stop-opacity="0.8571"/>
<stop offset="0.5109" stop-color="#00FEE4" stop-opacity="0.7956"/>
<stop offset="0.6253" stop-color="#00FCD7" stop-opacity="0.7497"/>
<stop offset="0.7205" stop-color="#00F9C5" stop-opacity="0.7116"/>
<stop offset="0.8036" stop-color="#00F6AE" stop-opacity="0.6783"/>
<stop offset="0.8783" stop-color="#00F292" stop-opacity="0.6483"/>
<stop offset="0.9452" stop-color="#00EE71" stop-opacity="0.6215"/>
<stop offset="0.9988" stop-color="#00E950" stop-opacity="0.6"/>
</linearGradient>
<linearGradient id="paint10_linear_11851_20285" x1="2.62861" y1="57.8819" x2="59.1973" y2="58.5768" gradientUnits="userSpaceOnUse">
<stop offset="0.00121702" stop-color="#00FFED"/>
<stop offset="0.3575" stop-color="#00FFEB" stop-opacity="0.8571"/>
<stop offset="0.5109" stop-color="#00FEE4" stop-opacity="0.7956"/>
<stop offset="0.6253" stop-color="#00FCD7" stop-opacity="0.7497"/>
<stop offset="0.7205" stop-color="#00F9C5" stop-opacity="0.7116"/>
<stop offset="0.8036" stop-color="#00F6AE" stop-opacity="0.6783"/>
<stop offset="0.8783" stop-color="#00F292" stop-opacity="0.6483"/>
<stop offset="0.9452" stop-color="#00EE71" stop-opacity="0.6215"/>
<stop offset="0.9988" stop-color="#00E950" stop-opacity="0.6"/>
</linearGradient>
<linearGradient id="paint11_linear_11851_20285" x1="43.1671" y1="44.8202" x2="15.1047" y2="72.0182" gradientUnits="userSpaceOnUse">
<stop stop-color="#00A8A1"/>
<stop offset="1" stop-color="#41FF7A"/>
</linearGradient>
<linearGradient id="paint12_linear_11851_20285" x1="44.2474" y1="87.0754" x2="101.212" y2="87.7752" gradientUnits="userSpaceOnUse">
<stop offset="0.00121702" stop-color="#00FFED"/>
<stop offset="0.3575" stop-color="#00FFEB" stop-opacity="0.8571"/>
<stop offset="0.5109" stop-color="#00FEE4" stop-opacity="0.7956"/>
<stop offset="0.6253" stop-color="#00FCD7" stop-opacity="0.7497"/>
<stop offset="0.7205" stop-color="#00F9C5" stop-opacity="0.7116"/>
<stop offset="0.8036" stop-color="#00F6AE" stop-opacity="0.6783"/>
<stop offset="0.8783" stop-color="#00F292" stop-opacity="0.6483"/>
<stop offset="0.9452" stop-color="#00EE71" stop-opacity="0.6215"/>
<stop offset="0.9988" stop-color="#00E950" stop-opacity="0.6"/>
</linearGradient>
<linearGradient id="paint13_linear_11851_20285" x1="44.2474" y1="87.0754" x2="101.212" y2="87.7752" gradientUnits="userSpaceOnUse">
<stop offset="0.00121702" stop-color="#00FFED"/>
<stop offset="0.3575" stop-color="#00FFEB" stop-opacity="0.8571"/>
<stop offset="0.5109" stop-color="#00FEE4" stop-opacity="0.7956"/>
<stop offset="0.6253" stop-color="#00FCD7" stop-opacity="0.7497"/>
<stop offset="0.7205" stop-color="#00F9C5" stop-opacity="0.7116"/>
<stop offset="0.8036" stop-color="#00F6AE" stop-opacity="0.6783"/>
<stop offset="0.8783" stop-color="#00F292" stop-opacity="0.6483"/>
<stop offset="0.9452" stop-color="#00EE71" stop-opacity="0.6215"/>
<stop offset="0.9988" stop-color="#00E950" stop-opacity="0.6"/>
</linearGradient>
<linearGradient id="paint14_linear_11851_20285" x1="89.0134" y1="66.37" x2="42.147" y2="111.793" gradientUnits="userSpaceOnUse">
<stop stop-color="#00A8A1"/>
<stop offset="1" stop-color="#41FF7A"/>
</linearGradient>
<linearGradient id="paint15_linear_11851_20285" x1="103.412" y1="10.0408" x2="37.3352" y2="88.0692" gradientUnits="userSpaceOnUse">
<stop stop-color="#00A8A1"/>
<stop offset="1" stop-color="#41FF7A"/>
</linearGradient>
<clipPath id="clip0_11851_20285">
<rect width="117" height="122" fill="white"/>
</clipPath>
</defs>
</svg>
