<svg width="116" height="120" viewBox="0 0 116 120" fill="none" xmlns="http://www.w3.org/2000/svg">
<g clip-path="url(#clip0_11851_20373)">
<path opacity="0.32" d="M49.657 116.948C77.0818 116.948 99.314 115.067 99.314 112.747C99.314 110.426 77.0818 108.545 49.657 108.545C22.2322 108.545 0 110.426 0 112.747C0 115.067 22.2322 116.948 49.657 116.948Z" fill="black"/>
<path d="M88.3403 43.9689C89.2258 43.9689 89.9437 43.2523 89.9437 42.3682C89.9437 41.4842 89.2258 40.7676 88.3403 40.7676C87.4547 40.7676 86.7368 41.4842 86.7368 42.3682C86.7368 43.2523 87.4547 43.9689 88.3403 43.9689Z" fill="#8296AF"/>
<path d="M49.757 55.5239C64.138 55.5239 75.7631 43.969 75.7631 29.7131C75.7631 15.4572 64.138 3.90234 49.757 3.90234C35.376 3.90234 23.751 15.4572 23.751 29.7131C23.751 43.919 35.376 55.5239 49.757 55.5239Z" fill="#0F5454"/>
<path d="M49.757 55.5239C64.138 55.5239 75.7631 43.969 75.7631 29.7131C75.7631 15.4572 64.138 3.90234 49.757 3.90234C35.376 3.90234 23.751 15.4572 23.751 29.7131C23.751 43.919 35.376 55.5239 49.757 55.5239Z" fill="#0F5454"/>
<path d="M49.757 51.8727C64.138 51.8727 75.7631 40.3179 75.7631 26.0619C75.7631 11.806 64.138 0.201172 49.757 0.201172C35.376 0.201172 23.751 11.756 23.751 26.0119C23.751 40.2679 35.376 51.8727 49.757 51.8727Z" fill="#00757A"/>
<path d="M49.757 51.8727C64.138 51.8727 75.7631 40.3179 75.7631 26.0619C75.7631 11.806 64.138 0.201172 49.757 0.201172C35.376 0.201172 23.751 11.756 23.751 26.0119C23.751 40.2679 35.376 51.8727 49.757 51.8727Z" fill="#00757A"/>
<path d="M49.7572 45.8685C60.781 45.8685 69.7503 36.9648 69.7503 26.0602C69.7503 15.1557 60.8311 6.25195 49.7572 6.25195C38.6834 6.25195 29.7642 15.1056 29.7642 26.0602C29.7642 37.0148 38.7335 45.8685 49.7572 45.8685Z" fill="#073837"/>
<path d="M49.7572 45.8685C60.781 45.8685 69.7503 36.9648 69.7503 26.0602C69.7503 15.1557 60.8311 6.25195 49.7572 6.25195C38.6834 6.25195 29.7642 15.1056 29.7642 26.0602C29.7642 37.0148 38.7335 45.8685 49.7572 45.8685Z" fill="#073837"/>
<path d="M49.7572 44.4204C59.9792 44.4204 68.247 36.217 68.247 26.0627C68.247 15.9085 59.9792 7.70508 49.7572 7.70508C39.5352 7.70508 31.2673 15.9085 31.2673 26.0627C31.2673 36.217 39.5352 44.4204 49.7572 44.4204Z" fill="#0A5959"/>
<path d="M49.7572 44.4204C59.9792 44.4204 68.247 36.217 68.247 26.0627C68.247 15.9085 59.9792 7.70508 49.7572 7.70508C39.5352 7.70508 31.2673 15.9085 31.2673 26.0627C31.2673 36.217 39.5352 44.4204 49.7572 44.4204Z" fill="#0A5959"/>
<path d="M59.428 50.2715C56.3213 51.5221 52.964 52.1723 49.4064 52.1223C42.3912 52.0223 35.8772 49.2711 30.9666 44.2691C26.056 39.267 23.4003 32.7142 23.5005 25.7113C23.701 11.3553 35.6267 -0.199477 50.0578 0.000606677C64.539 0.150669 76.164 12.0056 75.9636 26.3616C75.8634 37.2161 69.0988 46.47 59.428 50.2715ZM40.2867 2.25154C30.8664 6.00311 24.1519 15.0569 24.0517 25.7113C23.9515 32.5142 26.5571 39.0169 31.3675 43.8689C36.1779 48.7209 42.5917 51.472 49.5066 51.5721C63.6871 51.7222 75.4124 40.4174 75.5627 26.3616C75.7131 12.2557 64.3386 0.650878 50.158 0.500815C46.6504 0.450794 43.3433 1.10107 40.2867 2.25154Z" fill="url(#paint0_linear_11851_20373)"/>
<path d="M59.428 50.2715C56.3213 51.5221 52.964 52.1723 49.4064 52.1223C42.3912 52.0223 35.8772 49.2711 30.9666 44.2691C26.056 39.267 23.4003 32.7142 23.5005 25.7113C23.701 11.3553 35.6267 -0.199477 50.0578 0.000606677C64.539 0.150669 76.164 12.0056 75.9636 26.3616C75.8634 37.2161 69.0988 46.47 59.428 50.2715ZM40.2867 2.25154C30.8664 6.00311 24.1519 15.0569 24.0517 25.7113C23.9515 32.5142 26.5571 39.0169 31.3675 43.8689C36.1779 48.7209 42.5917 51.472 49.5066 51.5721C63.6871 51.7222 75.4124 40.4174 75.5627 26.3616C75.7131 12.2557 64.3386 0.650878 50.158 0.500815C46.6504 0.450794 43.3433 1.10107 40.2867 2.25154Z" fill="url(#paint1_linear_11851_20373)"/>
<path d="M54.2668 15.3571H54.2167H54.1666C54.1666 15.3571 54.1666 15.3571 54.1165 15.3571C54.1165 15.3571 54.1165 15.3571 54.0664 15.3571H54.0163C53.9662 15.3571 53.9161 15.3571 53.866 15.3571L41.0383 15.207C39.8357 15.207 38.7834 16.1574 38.7834 17.3579C38.7834 18.5584 39.7856 19.5588 40.9381 19.5588L53.7657 19.7089C53.8158 19.7089 53.8659 19.7089 53.9161 19.7089C53.9662 19.7089 54.0163 19.7089 54.0664 19.7089C56.5217 19.7589 58.4759 21.7097 58.4258 24.1608C58.3757 26.6118 56.4215 28.5626 53.9662 28.4626L49.6068 28.4125V26.2116L54.0163 26.2616C55.2189 26.2616 56.2711 25.3112 56.2711 24.1107C56.2711 22.9102 55.269 21.9098 54.1165 21.9098L43.8444 21.8098C42.6418 21.8098 41.5895 22.7602 41.5895 23.9607C41.5895 25.1612 42.5917 26.1616 43.7441 26.1616H45.1973V28.3625L45.1472 32.7643L45.0971 37.8665C45.0971 39.067 46.0992 40.0674 47.2517 40.0674C48.4543 40.0674 49.5066 39.117 49.5066 37.9165L49.5567 32.7643L53.9662 32.8144C58.8767 32.8644 62.8353 28.9628 62.8854 24.1608C62.9856 19.4088 59.1273 15.4071 54.2668 15.3571Z" fill="#073837"/>
<path d="M53.3648 14.3571H53.3147H53.2646C53.2646 14.3571 53.2646 14.3571 53.2144 14.3571C53.2144 14.3571 53.2144 14.3571 53.1643 14.3571H53.1142C53.0641 14.3571 53.014 14.3571 52.9639 14.3571L40.0862 14.207C38.8836 14.207 37.8313 15.1574 37.8313 16.3579C37.8313 17.5584 38.8335 18.5588 39.9859 18.5588L52.8136 18.7089C52.8637 18.7089 52.9138 18.7089 52.9639 18.7089C53.014 18.7089 53.0641 18.7089 53.1142 18.7089C55.5695 18.7589 57.5237 20.7097 57.4736 23.1608C57.4235 25.6118 55.4693 27.5626 53.014 27.4626L48.6045 27.4125V25.2116L53.014 25.2616C54.2166 25.2616 55.2689 24.3112 55.2689 23.1107C55.2689 21.9102 54.2667 20.9098 53.1142 20.9098L42.8421 20.8098C41.6395 20.8098 40.5872 21.7602 40.5872 22.9607C40.5872 24.1612 41.5894 25.1616 42.7419 25.1616H44.195V27.3625L44.1449 31.7643L44.0948 36.9165C44.0948 38.117 45.097 39.1174 46.2494 39.1174C47.452 39.1174 48.5043 38.167 48.5043 36.9665L48.6045 31.8144L53.014 31.8644C57.9246 31.9144 61.8831 28.0128 61.9332 23.2108C62.0836 18.4088 58.2252 14.5072 53.3648 14.3571Z" fill="url(#paint2_linear_11851_20373)"/>
<path d="M87.1377 33.0645H8.31787V111.747H87.1377V33.0645Z" fill="#E6ECF5"/>
<path d="M29.3632 33.0645H8.31787V111.747H29.3632V33.0645Z" fill="#E6ECF5"/>
<path d="M18.8405 97.8414L8.31787 111.797V33.0645H18.8405V97.8414Z" fill="#D9E1EA"/>
<path d="M18.8406 97.8414L29.3633 111.797V33.0645H18.8406V97.8414Z" fill="white"/>
<path d="M112.492 120.001H53.2646C51.3104 120.001 49.7571 118.401 49.7571 116.5V85.0366C49.7571 83.0858 51.3605 81.5352 53.2646 81.5352H112.492C114.446 81.5352 116 83.1358 116 85.0366V116.5C116 118.401 114.446 120.001 112.492 120.001Z" fill="url(#paint3_linear_11851_20373)"/>
<path d="M106.028 114.449H93.2508C92.0482 114.449 91.0962 113.498 91.0962 112.298V107.446C91.0962 106.245 92.0482 105.295 93.2508 105.295H106.028C107.231 105.295 108.183 106.245 108.183 107.446V112.298C108.233 113.498 107.231 114.449 106.028 114.449Z" fill="#198459"/>
<path d="M106.028 93.1905H58.1251C56.9225 93.1905 55.9705 92.2401 55.9705 91.0396C55.9705 89.8391 56.9225 88.8887 58.1251 88.8887H106.078C107.281 88.8887 108.233 89.8391 108.233 91.0396C108.233 92.2401 107.231 93.1905 106.028 93.1905Z" fill="#198459"/>
<path d="M106.028 101.394H58.1251C56.9225 101.394 55.9705 100.443 55.9705 99.2427C55.9705 98.0422 56.9225 97.0918 58.1251 97.0918H106.078C107.281 97.0918 108.233 98.0922 108.233 99.2427C108.233 100.443 107.231 101.394 106.028 101.394Z" fill="#198459"/>
<path d="M74.9113 112.048H58.1251C56.9225 112.048 55.9705 111.097 55.9705 109.897C55.9705 108.696 56.9225 107.746 58.1251 107.746H74.9113C76.1139 107.746 77.0659 108.747 77.0659 109.897C77.0659 111.047 76.1139 112.048 74.9113 112.048Z" fill="#198459"/>
<path d="M23.3002 42.3693C24.1858 42.3693 24.9037 41.6527 24.9037 40.7686C24.9037 39.8846 24.1858 39.168 23.3002 39.168C22.4147 39.168 21.6968 39.8846 21.6968 40.7686C21.6968 41.6527 22.4147 42.3693 23.3002 42.3693Z" fill="#8296AF"/>
<path d="M24.9538 40.7676C24.9538 40.7676 27.3089 78.5333 58.6264 78.5333C89.9439 78.5333 87.1879 42.0681 87.1879 42.0681L89.994 42.2182C89.994 42.2182 91.5473 80.5341 58.5763 80.5341C25.6052 80.5341 21.6968 40.8676 21.6968 40.8676L24.9538 40.7676Z" fill="#8296AF"/>
</g>
<defs>
<linearGradient id="paint0_linear_11851_20373" x1="23.5193" y1="25.7265" x2="75.9868" y2="26.3739" gradientUnits="userSpaceOnUse">
<stop offset="0.00121702" stop-color="#00FFED"/>
<stop offset="0.3575" stop-color="#00FFEB" stop-opacity="0.8571"/>
<stop offset="0.5109" stop-color="#00FEE4" stop-opacity="0.7956"/>
<stop offset="0.6253" stop-color="#00FCD7" stop-opacity="0.7497"/>
<stop offset="0.7205" stop-color="#00F9C5" stop-opacity="0.7116"/>
<stop offset="0.8036" stop-color="#00F6AE" stop-opacity="0.6783"/>
<stop offset="0.8783" stop-color="#00F292" stop-opacity="0.6483"/>
<stop offset="0.9452" stop-color="#00EE71" stop-opacity="0.6215"/>
<stop offset="0.9988" stop-color="#00E950" stop-opacity="0.6"/>
</linearGradient>
<linearGradient id="paint1_linear_11851_20373" x1="23.5193" y1="25.7265" x2="75.9868" y2="26.3739" gradientUnits="userSpaceOnUse">
<stop offset="0.00121702" stop-color="#00FFED"/>
<stop offset="0.3575" stop-color="#00FFEB" stop-opacity="0.8571"/>
<stop offset="0.5109" stop-color="#00FEE4" stop-opacity="0.7956"/>
<stop offset="0.6253" stop-color="#00FCD7" stop-opacity="0.7497"/>
<stop offset="0.7205" stop-color="#00F9C5" stop-opacity="0.7116"/>
<stop offset="0.8036" stop-color="#00F6AE" stop-opacity="0.6783"/>
<stop offset="0.8783" stop-color="#00F292" stop-opacity="0.6483"/>
<stop offset="0.9452" stop-color="#00EE71" stop-opacity="0.6215"/>
<stop offset="0.9988" stop-color="#00E950" stop-opacity="0.6"/>
</linearGradient>
<linearGradient id="paint2_linear_11851_20373" x1="64.751" y1="6.73957" x2="21.7693" y2="48.5816" gradientUnits="userSpaceOnUse">
<stop stop-color="#00A8A1"/>
<stop offset="1" stop-color="#41FF7A"/>
</linearGradient>
<linearGradient id="paint3_linear_11851_20373" x1="144.189" y1="179.382" x2="-21.1674" y2="-33.4786" gradientUnits="userSpaceOnUse">
<stop stop-color="#00A8A1"/>
<stop offset="1" stop-color="#41FF7A"/>
</linearGradient>
<clipPath id="clip0_11851_20373">
<rect width="116" height="120" fill="white"/>
</clipPath>
</defs>
</svg>
